<svg version="1.1" id="Layer_1" xmlns="http://www.w3.org/2000/svg" xmlns:xlink="http://www.w3.org/1999/xlink" x="0" y="0" viewBox="0 0 44 32" xml:space="preserve"><g fill="#03B8E2"><path d="M43 0H1C.4 0 0 .4 0 1v30c0 .6.4 1 1 1h42c.6 0 1-.4 1-1V1c0-.6-.4-1-1-1zm-1 30H2V2h40v28z"/><path d="M14 5h1v1h-1zm2 0h5v1h-5zm-2 2h1v1h-1zm2 0h5v1h-5zm9-2h1v1h-1zm2 0h5v1h-5zm-2 2h1v1h-1zm2 0h5v1h-5zM14 9h1v1h-1zm2 0h5v1h-5zm9 0h1v1h-1zm2 0h5v1h-5zM14 24h1v1h-1zm2 0h5v1h-5zm-2 2h1v1h-1zm2 0h5v1h-5zm9-2h1v1h-1zm2 0h5v1h-5zm-2 2h1v1h-1zm2 0h5v1h-5zm7-14H12v11h22V12zm-1 10H13v-9h20v9z"/><path d="M15 15h1v1h-1zm2 0h5v1h-5zm-2 2h1v1h-1zm2 0h5v1h-5zm-2 2h1v1h-1zm2 0h5v1h-5zm7-4h1v5h-1zm2 1h1v4h-1zm2 1h1v3h-1zm2 1h1v2h-1zM6 18l3-2V4H8v12l-3 2v10h1z"/><path d="M8 28h1v-8l2-3h-1l-2 3z"/></g></svg>