<svg version="1.1" id="Layer_1" xmlns="http://www.w3.org/2000/svg" xmlns:xlink="http://www.w3.org/1999/xlink" x="0" y="0" viewBox="0 0 184 184" xml:space="preserve"><g fill="#03B8E2"><path d="M49.2 76.6c-4.7-4.7-13-3.9-18.4 1.6-2.6 2.7-4.2 6-4.5 9.5-.3 3.5.8 6.7 3.1 9 2.1 2.1 4.9 3.1 7.8 3.1 3.7 0 7.6-1.6 10.6-4.7 2.6-2.7 4.2-6 4.5-9.5.3-3.5-.8-6.7-3.1-9zM28.3 87.8c.2-3 1.6-5.9 3.9-8.2 2.6-2.7 6-4.1 9.2-4.1 1.8 0 3.4.4 4.9 1.3 0 .1 0 .2.1.3 1.9 4.1.6 9.4-3.1 13.1-3.9 4-9.5 5.2-13.7 3-.1 0-.1 0-.2-.1-.9-1.5-1.3-3.3-1.1-5.3zm22-2.4c-.2 3-1.6 5.9-3.9 8.2-4.3 4.3-10.5 5.3-14.5 2.4.7.1 1.4.2 2.1.2 3.7 0 7.6-1.6 10.6-4.7 3.4-3.4 4.9-7.9 4.4-12 1 1.8 1.5 3.8 1.3 5.9zm33.7-60h.2l20-4c.5-.1.8-.5.8-1v-2c0-.3-.1-.6-.4-.8-.2-.1-.4-.2-.6-.2h-.2l-20 4c-.5.1-.8.5-.8 1v2c0 .3.1.6.4.8.1.1.4.2.6.2zm0-3l20-4v2l-20 4v-2zm20 129.7c-.3 0-.5 0-.8.1l-15 3.9c-1.3.3-2.2 1.5-2.2 2.9v3.9c0 1.7 1.3 3 3 3 .3 0 .5 0 .8-.1l15-3.9c1.3-.3 2.2-1.5 2.2-2.9v-3.9c0-1.6-1.3-3-3-3zm2 6.9c0 .9-.6 1.7-1.5 1.9l-15 3.9c-.2 0-.3.1-.5.1-1.1 0-2-.9-2-2V159c0-.9.6-1.7 1.5-1.9l15-3.9c.2 0 .3-.1.5-.1 1.1 0 2 .9 2 2v3.9zM69.5 73.5c.1 0 .3 0 .4-.1l40.5-40.5c.2-.2.2-.5 0-.7s-.5-.2-.7 0L69.1 72.7c-.2.2-.2.5 0 .7.1.1.3.1.4.1zM69 80c.1 0 .3 0 .4-.1l49-49c.2-.2.2-.5 0-.7s-.5-.2-.7 0l-49 49c-.2.2-.2.5 0 .7 0 .1.2.1.3.1z"/><path d="M183.9 48.1s0-.1 0 0c-.1-.2-.2-.3-.3-.3h-.1c-.1 0-.2-.1-.2-.1h-.5L129 61.1V8.3c0-1.5-.7-2.9-1.8-3.9-.5-.4-1.1-.7-1.6-.9l-.1-.1c-7-3-14-1.8-18.6-1.1-4.5.8-33.3 6.5-40.1 8-6.8 1.5-8.7 2.2-10.5 4.3-2 2.3-2.2 5.5-2.2 5.7v32.4c-3-1.5-6.1-2.5-8.9-3-11.4-1.7-23.6 2.7-32.6 11.8C0 74.3-2.8 93.2 6 105.6l27.8 39c.1.1.1.2.2.2l4.8 3.4c.1 0 .1.1.2.1h.5c.1 0 .2 0 .4-.1h.1l.3-.3v-.1L54 123.9v43.7c0 6.3 5.6 10.5 8.2 12.2l.1.1c1.1.8 2.3 1.2 3.6 1.2.5 0 1-.1 1.6-.2l56.3-15.1c3.1-.8 5.2-3.6 5.2-6.8v-25.1l54.2-14.3c.1 0 .2-.1.3-.1 0 0 .1 0 .1-.1.1 0 .1-.1.1-.1s0-.1.1-.1v-.1c0-.1.1-.1.1-.2V48.7c.1-.3.1-.5 0-.6zm-1.9 68.6l-28.7-17.6L182 62.4v54.3zm-59-54.1l-11.3 2.8 8.6-8.6c.2-.2.2-.5 0-.7s-.5-.2-.7 0l-9.8 9.8-18.1 4.6h-.3c-.1 0-.1.1-.2.1l-.1.1c-.1.1-.1.1-.1.2 0 0 0 .1-.1.1 0 .1 0 .2-.1.3v13.4l-21.9 21.9c-.2.2-.2.5 0 .7.1.1.2.1.4.1s.3 0 .4-.1L91 86.2v13.6l-21.4 21.4c-.2.2-.2.5 0 .7.1.1.2.1.4.1s.3 0 .4-.1L91 101.2v41.6l-1.9 1.9c-.2.2-.2.5 0 .7.1.1.2.1.4.1s.3 0 .4-.1l1.9-1.9h.6l4.2-1.1-.8.8c-.2.2-.2.5 0 .7.1.1.2.1.4.1s.3 0 .4-.1l2-2 24.7-6.5v5.4l-57 14.5V39.2l57-12.6v36zM95.5 82.4l38.8 20.3L95.5 138V82.4zm-1 56.5l-1.5 1.4V76.7l1.5 3.8v58.4zm1.2 1.6l40.5-36.8 1.3.7c.1.1.3.1.5.1h.2l13-3c.2-.1.4-.2.6-.4l.3-.4 28.4 17.4-84.8 22.4zM182 59.2l-31.6 40.4-12.3 2.8-41.3-21.6-3.4-8.6L182 49.8v9.4zM14 62.9c8.5-8.6 20.3-12.9 30.8-11.2 1.7.3 3.5.8 5.4 1.5-11-1.7-23.5 2.3-32.9 11.8-12 12.1-15.1 29.9-7.8 42.3l-2-2.8C-.7 92.9 2.1 75 14 62.9zm25.3 82.8l-26.9-37.8c-8.3-11.6-5.5-29.5 6.4-41.5 7.5-7.6 17.1-11.5 26.1-11.5 3.2 0 6.3.5 9.1 1.5v63.5l-14.7 25.8zM56 167.5V20.4s.2-2.6 1.8-4.4c1.4-1.6 2.9-2.2 9.5-3.7s35.6-7.3 39.9-8c3.4-.6 8.1-1.3 13.1-.4L65.6 15.4c-3.3.7-5.6 3.6-5.6 6.9v153.2c-2-1.9-4-4.7-4-8zm71-8.6c0 2.3-1.5 4.2-3.7 4.8L67 178.9c-.8.2-1.7.2-2.5-.1l-.1-.1s-.4-.2-1-.6c-.9-.8-1.4-1.9-1.4-3V22.3c0-2.4 1.7-4.4 4-4.9l57.4-12c.2 0 .4-.1.6-.1.7 0 1.3.2 1.9.7.7.6 1.1 1.4 1.1 2.3v53.3l-3 .8v-37l-59 13v118.1l59-15v-6.4l3-.8v24.6z"/></g></svg>