<svg version="1.1" id="Layer_1" xmlns="http://www.w3.org/2000/svg" xmlns:xlink="http://www.w3.org/1999/xlink" x="0" y="0" viewBox="0 0 44 32" xml:space="preserve"><path fill="#03B8E2" d="M43 0H1C.4 0 0 .4 0 1v11c0 .6.4 1 1 1h1v18c0 .6.4 1 1 1s1-.4 1-1v-2c.6 0 1-.4 1-1v-3c0-.6-.4-1-1-1V13h17v18c0 .6.4 1 1 1s1-.4 1-1v-2c.6 0 1-.4 1-1v-3c0-.6-.4-1-1-1V13h17v18c0 .6.4 1 1 1s1-.4 1-1v-2c.6 0 1-.4 1-1v-3c0-.6-.4-1-1-1V13h1c.6 0 1-.4 1-1V1c0-.6-.4-1-1-1zm-1 2v6h-4V2h4zm-5 0v6h-4V2h4zm-5 0v6h-4V2h4zm-5 0v6h-4V2h4zm-5 0v6h-4V2h4zm-5 0v6h-4V2h4zm-5 0v6H8V2h4zM2 2h5v6H2V2zm40 9H2v-1h40v1z"/></svg>