<?xml version="1.0" encoding="utf-8"?>
<!-- Generator: Adobe Illustrator 17.1.0, SVG Export Plug-In . SVG Version: 6.00 Build 0)  -->
<!DOCTYPE svg PUBLIC "-//W3C//DTD SVG 1.1//EN" "http://www.w3.org/Graphics/SVG/1.1/DTD/svg11.dtd">
<svg version="1.1" id="Layer_1" xmlns="http://www.w3.org/2000/svg" xmlns:xlink="http://www.w3.org/1999/xlink" x="0px" y="0px"
	 viewBox="0 0 44 32" enable-background="new 0 0 44 32" xml:space="preserve">
<path fill="#03B8E2" d="M43,0H1C0.4,0,0,0.4,0,1v8v3c0,0.6,0.4,1,1,1h1v18c0,0.6,0.4,1,1,1s1-0.4,1-1v-2c0.6,0,1-0.4,1-1v-3
	c0-0.6-0.4-1-1-1V13h17v18c0,0.6,0.4,1,1,1s1-0.4,1-1v-2c0.6,0,1-0.4,1-1v-3c0-0.6-0.4-1-1-1V13h17v18c0,0.6,0.4,1,1,1s1-0.4,1-1v-2
	c0.6,0,1-0.4,1-1v-3c0-0.6-0.4-1-1-1V13h1c0.6,0,1-0.4,1-1V9V1C44,0.4,43.6,0,43,0z M42,2v6h-4V2H42z M37,2v6h-4V2H37z M32,2v6h-4V2
	H32z M27,2v6h-4V2H27z M22,2v6h-4V2H22z M17,2v6h-4V2H17z M12,2v6H8V2H12z M2,2h5v6H2V2z M42,11H2v-1h40V11z"/>
</svg>
