<?xml version="1.0" encoding="utf-8"?>
<!-- Generator: Adobe Illustrator 17.1.0, SVG Export Plug-In . SVG Version: 6.00 Build 0)  -->
<!DOCTYPE svg PUBLIC "-//W3C//DTD SVG 1.1//EN" "http://www.w3.org/Graphics/SVG/1.1/DTD/svg11.dtd">
<svg version="1.1" id="Layer_1" xmlns="http://www.w3.org/2000/svg" xmlns:xlink="http://www.w3.org/1999/xlink" x="0px" y="0px"
	 viewBox="0 0 184 184" enable-background="new 0 0 184 184" xml:space="preserve">
<g>
	<path fill="#03B8E2" d="M176,68.8l-6-37c0,0,0,0,0,0c0-0.1-0.1-0.2-0.1-0.3c0,0,0,0,0,0c-0.1-0.1-0.1-0.2-0.2-0.2c0,0,0,0,0,0
		c0,0-0.1,0-0.1,0c0,0-0.1-0.1-0.1-0.1l-47-19c-0.2-0.1-0.3-0.1-0.5-0.1l-106,16c0,0,0,0,0,0c-0.1,0-0.1,0-0.2,0.1c0,0-0.1,0-0.1,0
		c0,0,0,0,0,0c-0.1,0-0.1,0.1-0.1,0.1c0,0,0,0-0.1,0c-0.1,0.1-0.1,0.1-0.2,0.2c0,0,0,0,0,0.1c0,0.1-0.1,0.1-0.1,0.2c0,0,0,0,0,0
		c0,0,0,0,0,0.1c0,0,0,0.1,0,0.1v12.7c-1.8,1.4-3,3.7-3,6.3v2.4l-1.4,0.7C10.2,51.3,10,51.6,10,52v15c0,0.2,0.1,0.5,0.2,0.6
		c0,0.1,0.6,0.7,1.8,1.3v9c0,0.3,0.1,0.6,0.4,0.8c0.1,0,1.1,0.8,2.6,1.1V142c0,0.3,0.2,0.6,0.4,0.8l3.6,2.4c0,0,0,0.1,0,0.1l3,8
		c0.1,0.2,0.2,0.4,0.4,0.5l36,24c0,0,0.1,0,0.1,0.1c0,0,0.1,0,0.1,0c0.1,0,0.2,0.1,0.3,0.1c0,0,0,0,0,0c0,0,0,0,0,0l0,0l0,0
		c0,0,0.1,0,0.1,0c0,0,0,0,0,0c0,0,0.1,0,0.1,0l7-2c0.3-0.1,0.5-0.3,0.7-0.6l3.8-9.5l76.1-21.7l7.6,5.7c0,0,0.1,0,0.1,0
		c0,0,0,0,0.1,0c0,0,0.1,0,0.1,0c0,0,0.1,0,0.1,0c0.1,0,0.2,0,0.3,0c0,0,0,0,0,0l0,0c0,0,0,0,0,0c0.1,0,0.2,0,0.3-0.1l6-2
		c0.3-0.1,0.6-0.4,0.7-0.7l2-8c0,0,0,0,0-0.1l4.3-1.2c0.3-0.1,0.6-0.4,0.7-0.7l7-27c0-0.1,0-0.2,0-0.3V69
		C176,68.9,176,68.9,176,68.8z M62.9,93.3l-4.8-39.5l110.1-20.6l5.8,35.6L62.9,93.3z M63,94.3l111-24.6v40L63,138.2V94.3z M121.9,14
		l43.6,17.6L57.2,51.9L18.9,29.6L121.9,14z M20,42c0,0,0.1,0,0.1,0c0.3,0,1.6-0.1,1.9,1.3c0.2,0.9,0.2,1.5-0.1,2
		c-0.3,0.5-0.8,0.7-1,0.7c-0.4,0-1.3,0.1-2,0.7C18.5,47.1,18,47.8,18,49v1.8c-0.2,0.4-0.8,1.2-2,1.2c-1.2,0-1.8-0.9-2-1.2V48
		C14,44.6,16.6,42,20,42z M21.8,73.8c0.6,0.1,1.3,0.3,2,0.3c0.7,0,1.4-0.1,2-0.3v7.8c-0.4,0.2-1.1,0.5-2,0.5c-0.9,0-1.6-0.3-2-0.5
		V73.8z M23.8,72c-1.9,0-3.2-0.8-3.8-1.3v-3.1c-0.1,0-0.1,0.1-0.2,0.1V56.6l0.6-0.3c0.6,0.8,1.7,1.7,3.4,1.7s2.8-1,3.4-1.7l0.6,0.3
		v13.9C26.9,71.1,25.2,72,23.8,72z M20,50.3V49c0-0.4,0.1-0.6,0.2-0.8c0.2-0.2,0.5-0.2,0.6-0.2C20.5,48.7,20.2,49.5,20,50.3z
		 M26.7,50.8c-0.4,0.4-0.9,1.1-0.9,2.3v1.8c-0.2,0.4-0.8,1.2-2,1.2c-0.9,0-1.5-0.6-1.8-1v-3c0-0.2-0.1-0.4-0.2-0.5
		c0.3-3.1,2.7-5.5,6-5.5c0,0,0.1,0,0.1,0c0.3,0,1.6-0.1,1.9,1.3c0.2,0.9,0.2,1.5-0.1,2c-0.3,0.5-0.8,0.7-1,0.7
		C28.3,50,27.4,50.1,26.7,50.8z M12,52.6l0.6-0.3C13.2,53,14.3,54,16,54s2.8-1,3.4-1.7l0.5,0.2v1.9l-1.4,0.7
		c-0.3,0.2-0.6,0.5-0.6,0.9v11.6C17.2,67.8,16.6,68,16,68c-2.2,0-3.5-1-4-1.4V52.6z M14,69.7c0.6,0.1,1.3,0.3,2,0.3
		c0.6,0,1.2-0.1,1.8-0.3V71c0,0.2,0.1,0.4,0.2,0.5v5.9c-0.4,0.2-1.1,0.5-2,0.5c-0.9,0-1.6-0.3-2-0.5V69.7z M17,79.9
		c1.5-0.3,2.6-1.1,2.6-1.1c0.1-0.1,0.1-0.2,0.2-0.2V82c0,0.3,0.1,0.6,0.4,0.8c0.1,0,1.5,1.2,3.6,1.2c2.1,0,3.6-1.2,3.6-1.2
		c0.2-0.2,0.4-0.5,0.4-0.8v-9.2c0.9-0.5,1.5-1,1.6-1c0.3-0.2,0.4-0.5,0.4-0.8V56c0-0.4-0.2-0.7-0.6-0.9l-1.4-0.7V53
		c0-0.4,0.1-0.6,0.2-0.8c0.2-0.2,0.6-0.2,0.7-0.2c0,0,0,0,0,0c0.1,0,0.2,0,0.3,0c0.2,0,1.6-0.3,2.4-1.6c0.6-1,0.7-2.2,0.4-3.6
		c-0.6-2.4-2.9-2.9-4-2.7c-1.3,0-2.6,0.3-3.6,0.9c0.1-0.6,0-1.3-0.2-2.1c-0.6-2.4-2.9-2.9-4-2.7c-1.1,0-2,0.2-2.9,0.5v-9.8
		l39.1,22.9L61,94.1v44.8l-5.7,28.4L17,141.5V79.9z M21.9,147.2l33.6,22.6c0,0,0.1,0,0.1,0.1c0,0,0.1,0,0.1,0c0.1,0,0.2,0.1,0.3,0.1
		c0.1,0,0.2,0,0.3,0l0.8-0.2l0.7,5.2l-33.9-22.6L21.9,147.2z M65.3,174.2l-5.4,1.5l-0.8-6.5l9.3-2.7L65.3,174.2z M152.1,142.6
		l1.1,3.8l-4-3L152.1,142.6z M160.2,146.2l-4.5,1.5L154,142l7.7-2.2L160.2,146.2z M167.2,136.2L57.3,167.6l5.7-28.3l110.8-28.4
		L167.2,136.2z"/>
	<path fill="#03B8E2" d="M96.3,90.6c-0.1-0.1-0.3-0.1-0.4-0.1l-26,6c-0.2,0.1-0.4,0.3-0.4,0.5v19c0,0.2,0.1,0.3,0.2,0.4
		c0.1,0.1,0.2,0.1,0.3,0.1c0,0,0.1,0,0.1,0l26-7c0.2-0.1,0.4-0.3,0.4-0.5V91C96.5,90.8,96.4,90.7,96.3,90.6z M95.5,108.6l-25,6.7
		v-18l25-5.8V108.6z"/>
	<path fill="#03B8E2" d="M28.5,31.9l30,17C58.7,49,58.8,49,59,49c0.1,0,0.1,0,0.2,0l38-7c0.4-0.1,0.7-0.4,0.8-0.8
		c0.1-0.4-0.1-0.8-0.5-1l-30-16C67.3,24,67.1,24,66.8,24l-38,6c-0.4,0.1-0.8,0.4-0.8,0.8C27.9,31.2,28.1,31.7,28.5,31.9z M66.8,26
		L94,40.5L59.2,47L32,31.5L66.8,26z"/>
	<path fill="#03B8E2" d="M73.6,24.9l30,15c0.1,0.1,0.3,0.1,0.4,0.1c0.1,0,0.1,0,0.2,0l40-7c0.4-0.1,0.8-0.4,0.8-0.9
		c0.1-0.4-0.2-0.9-0.6-1l-31-14c0,0,0,0,0,0c0,0,0,0-0.1,0c-0.1,0-0.2-0.1-0.3-0.1c0,0,0,0-0.1,0c0,0,0,0-0.1,0c0,0-0.1,0-0.1,0
		l-39,6c-0.4,0.1-0.8,0.4-0.8,0.8S73.2,24.7,73.6,24.9z M114,36.2V19.5l26.6,12L114,36.2z M112,19.2v17.4l-7.8,1.4L77.3,24.5
		L112,19.2z"/>
</g>
</svg>
