<svg version="1.1" id="Layer_1" xmlns="http://www.w3.org/2000/svg" xmlns:xlink="http://www.w3.org/1999/xlink" x="0" y="0" viewBox="0 0 44 32" xml:space="preserve"><path fill="#03B8E2" d="M43 0H4c-.6 0-1 .4-1 1-1.7 0-3 1.3-3 3v9c0 .6.4 1 1 1s1-.4 1-1V4c0-.6.4-1 1-1v24c0 .6.4 1 1 1h1.2l.8 3.2c.1.5.5.8 1 .8h3c.5 0 .9-.3 1-.8l.8-3.2h23.4l.8 3.2c.1.4.5.8 1 .8h3c.5 0 .9-.3 1-.8l.8-3.2H43c.6 0 1-.4 1-1V1c0-.6-.4-1-1-1zm-1 2v6H5V2h37zM5 9h37v10H5V9zm4.2 21H7.8l-.5-2h2.4l-.5 2zm30 0h-1.4l-.5-2h2.4l-.5 2zm1.8-4H5v-6h37v6h-1z"/></svg>