<svg version="1.1" id="Layer_1" xmlns="http://www.w3.org/2000/svg" xmlns:xlink="http://www.w3.org/1999/xlink" x="0" y="0" viewBox="0 0 184 184" xml:space="preserve"><g fill="#03B8E2"><path d="M173 6.9c0-.1 0-.2-.1-.3 0 0 0-.1-.1-.1 0-.1-.1-.1-.1-.2l-.1-.1c-.1 0-.1-.1-.2-.1 0 0-.1 0-.1-.1h-.1l-24-6h-.4L104 8.1V1c0-.6-.4-1-1-1s-1 .4-1 1v7c0 .2.1.3.1.5L66 15.2V1c0-.6-.4-1-1-1s-1 .4-1 1v14.5L12.8 25h-.1c-.1 0-.1 0-.2.1h-.1c-.1 0-.1.1-.2.1-.1.1-.1.2-.2.2v.1c0 .1 0 .1-.1.2v157.1c0 .6.4 1 1 1s1-.4 1-1V27.5l17 7.2V183c0 .6.4 1 1 1s1-.4 1-1V34.8L171 8.2V183c0 .6.4 1 1 1s1-.4 1-1V6.9c0 .1 0 .1 0 0zM32.1 33l-7.8-3.3-7.9-3.3L148 2l19.4 4.9L32.1 33z"/><path d="M50.5 56.5c2.2 0 4-2.5 4-5.5s-1.8-5.5-4-5.5-4 2.5-4 5.5 1.8 5.5 4 5.5zm0-10c1.7 0 3 2 3 4.5s-1.3 4.5-3 4.5-3-2-3-4.5 1.3-4.5 3-4.5zm109-27c-2.2 0-4 2.5-4 5.5s1.8 5.5 4 5.5 4-2.5 4-5.5-1.8-5.5-4-5.5zm0 10c-1.7 0-3-2-3-4.5s1.3-4.5 3-4.5 3 2 3 4.5-1.3 4.5-3 4.5zm0 133c-2.2 0-4 2.5-4 5.5s1.8 5.5 4 5.5 4-2.5 4-5.5-1.8-5.5-4-5.5zm0 10c-1.7 0-3-2-3-4.5s1.3-4.5 3-4.5 3 2 3 4.5-1.3 4.5-3 4.5zm-29.9-4.9l-45 12c-.8.2-1.3 1-1.1 1.8.2.7.8 1.1 1.4 1.1.1 0 .3 0 .4-.1l45-12c.8-.2 1.3-1 1.1-1.8-.2-.8-1-1.3-1.8-1zM72.1 66c1.2 0 2.1-1.3 2.1-3s-.9-3-2.1-3c-1.2 0-2.1 1.3-2.1 3s.9 3 2.1 3zm0-3.7c.1.2.1.4.1.7 0 .3 0 .5-.1.7-.1-.2-.1-.4-.1-.7s0-.5.1-.7zM91.2 47l-14 3c-1.1.2-1.8 1.3-1.5 2.4.2.9 1 1.6 2 1.6h.4l14-3c1.1-.2 1.8-1.3 1.5-2.4-.3-1.1-1.3-1.8-2.4-1.6zm10.4 7.8c-.1-.5-.6-.9-1.2-.8l-23 5c-.5.1-.9.7-.8 1.2.1.5.5.8 1 .8h.2l23-5c.6-.1.9-.7.8-1.2zM77.6 65h.2l14-3c.5-.1.9-.6.8-1.2-.1-.5-.6-.9-1.2-.8l-14 3c-.5.1-.9.6-.8 1.2.1.5.5.8 1 .8zm-5.5 12c1.2 0 2.1-1.3 2.1-3s-.9-3-2.1-3c-1.2 0-2.1 1.3-2.1 3s.9 3 2.1 3zm0-3.7c.1.2.1.4.1.7 0 .3 0 .5-.1.7-.1-.2-.1-.4-.1-.7s0-.5.1-.7zm29.5-7.5c-.1-.5-.6-.9-1.2-.8l-23 5c-.5.1-.9.7-.8 1.2.1.5.5.8 1 .8h.2l23-5c.6-.1.9-.7.8-1.2zM77.6 76h.2l14-3c.5-.1.9-.6.8-1.2-.1-.5-.6-.9-1.2-.8l-14 3c-.5.1-.9.6-.8 1.2.1.5.5.8 1 .8zm-5.5 12c1.2 0 2.1-1.3 2.1-3s-.9-3-2.1-3c-1.2 0-2.1 1.3-2.1 3s.9 3 2.1 3zm0-3.7c.1.2.1.4.1.7 0 .3 0 .5-.1.7-.1-.2-.1-.4-.1-.7s0-.5.1-.7zm29.5-7.5c-.1-.5-.6-.9-1.2-.8l-23 5c-.5.1-.9.7-.8 1.2.1.5.5.8 1 .8h.2l23-5c.6-.1.9-.7.8-1.2zM91.4 82l-14 3c-.5.1-.9.6-.8 1.2.1.5.5.8 1 .8h.2l14-3c.5-.1.9-.6.8-1.2-.1-.5-.7-.9-1.2-.8zm10.2 61.7c-.1-.5-.7-.9-1.2-.7l-23 6c-.5.1-.9.7-.7 1.2.1.5.5.7 1 .7h.3l23-6c.4-.1.7-.6.6-1.2zm-4.8 4.3l-19.4 5c-.5.1-.9.7-.7 1.2.1.5.5.8 1 .8h.3l19.4-5c.5-.1.9-.7.7-1.2s-.8-.9-1.3-.8zm-20.2 16.3c.1.5.5.7 1 .7h.3l23-6c.5-.1.9-.7.7-1.2-.1-.5-.7-.8-1.2-.7l-23 6c-.6.1-.9.6-.8 1.2zm21.4-1.5c-.1-.5-.7-.9-1.2-.7l-19.4 5c-.5.1-.9.7-.7 1.2.1.5.5.8 1 .8h.3l19.4-5c.4-.3.7-.8.6-1.3zm41.7-29.8l-23 6c-.5.1-.9.7-.7 1.2.1.5.5.7 1 .7h.3l23-6c.5-.1.9-.7.7-1.2-.2-.5-.7-.8-1.3-.7zM117 145h.3l19.4-5c.5-.1.9-.7.7-1.2s-.7-.9-1.2-.7l-19.4 5c-.5.1-.9.7-.7 1.2 0 .4.5.7.9.7zm22.7 2l-23 6c-.5.1-.9.7-.7 1.2.1.5.5.7 1 .7h.3l23-6c.5-.1.9-.7.7-1.2-.2-.5-.7-.8-1.3-.7zm-3.5 5l-19.4 5c-.5.1-.9.7-.7 1.2.1.5.5.8 1 .8h.3l19.4-5c.5-.1.9-.7.7-1.2s-.8-.9-1.3-.8zm-22.1-95c1.2 0 2.1-1.3 2.1-3s-.9-3-2.1-3c-1.2 0-2.1 1.3-2.1 3s.9 3 2.1 3zm0-3.7c.1.2.1.4.1.7 0 .3 0 .5-.1.7-.1-.2-.1-.4-.1-.7s0-.5.1-.7zM133.2 38l-14 3c-1.1.2-1.8 1.3-1.5 2.4.2.9 1 1.6 2 1.6h.4l14-3c1.1-.2 1.8-1.3 1.5-2.4-.3-1.1-1.3-1.8-2.4-1.6zm10.4 7.8c-.1-.5-.6-.9-1.2-.8l-23 5c-.5.1-.9.7-.8 1.2.1.5.5.8 1 .8h.2l23-5c.6-.1.9-.7.8-1.2zm-24 10.2h.2l14-3c.5-.1.9-.6.8-1.2-.1-.5-.6-.9-1.2-.8l-14 3c-.5.1-.9.6-.8 1.2.1.5.5.8 1 .8zm-5.5 12c1.2 0 2.1-1.3 2.1-3s-.9-3-2.1-3c-1.2 0-2.1 1.3-2.1 3s.9 3 2.1 3zm0-3.7c.1.2.1.4.1.7 0 .3 0 .5-.1.7-.1-.2-.1-.4-.1-.7s0-.5.1-.7zm29.5-7.5c-.1-.5-.6-.9-1.2-.8l-23 5c-.5.1-.9.7-.8 1.2.1.5.5.8 1 .8h.2l23-5c.6-.1.9-.7.8-1.2zm-24 10.2h.2l14-3c.5-.1.9-.6.8-1.2s-.6-.9-1.2-.8l-14 3c-.5.1-.9.6-.8 1.2.1.5.5.8 1 .8zm-5.5 12c1.2 0 2.1-1.3 2.1-3s-.9-3-2.1-3c-1.2 0-2.1 1.3-2.1 3s.9 3 2.1 3zm0-3.7c.1.2.1.4.1.7 0 .3 0 .5-.1.7-.1-.2-.1-.4-.1-.7s0-.5.1-.7zm29.5-7.5c-.1-.5-.6-.9-1.2-.8l-23 5c-.5.1-.9.7-.8 1.2.1.5.5.8 1 .8h.2l23-5c.6-.1.9-.7.8-1.2zM133.4 73l-14 3c-.5.1-.9.6-.8 1.2.1.5.5.8 1 .8h.2l14-3c.5-.1.9-.6.8-1.2-.1-.5-.7-.9-1.2-.8z"/><path d="M144.8 84l-75 17c-.5.1-.8.5-.8 1v36c0 .3.1.6.4.8.2.1.4.2.6.2h.2l1.1-.3-5.9 9.3c-.6.9-.9 1.9-.9 3v31c0 .3.2.5.5.5s.5-.2.5-.5v-31c0-.9.2-1.7.7-2.4l6.2-9.8c.1-.1.1-.3.1-.4l72.8-18.4c.4-.1.8-.5.8-1V85c0-.3-.1-.6-.4-.8-.3-.2-.6-.2-.9-.2zm-.8 34.2l-73 18.5v-33.9l73-16.5v31.9z"/><path d="M79 109.5h.3l26-6c.8-.2 1.3-1 1.1-1.8-.2-.8-1-1.3-1.8-1.1l-26 6c-.8.2-1.3 1-1.1 1.8.2.6.8 1.1 1.5 1.1zm0 5h.3l26-6c.8-.2 1.3-1 1.1-1.8-.2-.8-1-1.3-1.8-1.1l-26 6c-.8.2-1.3 1-1.1 1.8.2.6.8 1.1 1.5 1.1zm0 5h.3l26-6c.8-.2 1.3-1 1.1-1.8-.2-.8-1-1.3-1.8-1.1l-26 6c-.8.2-1.3 1-1.1 1.8.2.6.8 1.1 1.5 1.1zm0 5h.3l26-6c.8-.2 1.3-1 1.1-1.8-.2-.8-1-1.3-1.8-1.1l-26 6c-.8.2-1.3 1-1.1 1.8.2.6.8 1.1 1.5 1.1zm0 5h.3l26-6c.8-.2 1.3-1 1.1-1.8-.2-.8-1-1.3-1.8-1.1l-26 6c-.8.2-1.3 1-1.1 1.8.2.6.8 1.1 1.5 1.1zm36-21h.1l21-5c.2-.1.4-.3.4-.5v-7c0-.2-.1-.3-.2-.4-.1-.1-.3-.1-.4-.1l-21 5c-.2.1-.4.3-.4.5v7c0 .2.1.3.2.4.1.1.2.1.3.1zm.5-7.1l20-4.8v6l-20 4.8v-6zm.5 10.6c-.6 0-1 .4-1 1v8c0 .6.4 1 1 1s1-.4 1-1v-8c0-.6-.4-1-1-1zm4 0c-.6 0-1 .4-1 1v7c0 .6.4 1 1 1s1-.4 1-1v-7c0-.6-.4-1-1-1zm4 0c-.6 0-1 .4-1 1v6c0 .6.4 1 1 1s1-.4 1-1v-6c0-.6-.4-1-1-1zm4 0c-.6 0-1 .4-1 1v5c0 .6.4 1 1 1s1-.4 1-1v-5c0-.6-.4-1-1-1zm4 0c-.6 0-1 .4-1 1v4c0 .6.4 1 1 1s1-.4 1-1v-4c0-.6-.4-1-1-1zm3 1v3c0 .6.4 1 1 1s1-.4 1-1v-3c0-.6-.4-1-1-1s-1 .4-1 1zM62 35.5c-.3 0-.5.2-.5.5v60c0 1-.3 2-.9 2.8l-2.1 2.6V57c0-.3-.2-.5-.5-.5s-.5.2-.5.5v45.7l-1.8 2.4c-.7 1-1.2 2.2-1.2 3.4V135l-6.6 7.1c-.9 1-1.4 2.3-1.4 3.7V180c0 .3.2.5.5.5s.5-.2.5-.5v-34.1c0-1.1.4-2.2 1.2-3l5.8-6.3V182c0 .3.2.5.5.5s.5-.2.5-.5v-46.6l1.6-1.7c.9-1 1.4-2.3 1.4-3.7v-27l2.8-3.7c.7-1 1.2-2.2 1.2-3.4V36c0-.3-.2-.5-.5-.5zM57.5 130c0 1.1-.4 2.2-1.2 3l-.8.9v-25.5c0-1 .3-2 .9-2.8l1.1-1.4V130z"/></g></svg>