<svg version="1.1" id="Layer_1" xmlns="http://www.w3.org/2000/svg" xmlns:xlink="http://www.w3.org/1999/xlink" x="0" y="0" viewBox="0 0 44 32" xml:space="preserve"><g fill="#03B8E2"><path d="M41 0H4c-.6 0-1 .4-1 1v30c0 .6.4 1 1 1h37c.6 0 1-.4 1-1V1c0-.6-.4-1-1-1zM28 3.4V9h-5.6L28 3.4zM5 2h6v3H8v1h3v2H8v1h3v5H8v1h3v2H8v1h3v2H8v1h3v5H8v1h3v3H5V2zm8 0h13.6l-3 3H16v1h6.6l-2 2H16v1h3.6l-.3.3c-.1.1-.1.2-.2.3v.1c0 .1 0 .2-.1.3v1.1h-3v1h3v2h-3v1h3v5h-3v1h3v2h-3v1h3v2h-3v1h3v3h-6V2zm27 28H21V11h8c.6 0 1-.4 1-1V2h10v28z"/><path d="M32 4h5v2h-5zm0 4h5v2h-5zm-8 6h13v1H24zm0 3h13v1H24zm9 3h-9v7h13v-7h-4zm-1 1v2h-3v-2h3zm-7 0h3v2h-3v-2zm0 5v-2h3v2h-3zm4 0v-2h3v2h-3zm7 0h-3v-2h3v2zm0-3h-3v-2h3v2z"/></g></svg>