<?xml version="1.0" encoding="utf-8"?>
<!-- Generator: Adobe Illustrator 17.1.0, SVG Export Plug-In . SVG Version: 6.00 Build 0)  -->
<!DOCTYPE svg PUBLIC "-//W3C//DTD SVG 1.1//EN" "http://www.w3.org/Graphics/SVG/1.1/DTD/svg11.dtd">
<svg version="1.1" id="Layer_1" xmlns="http://www.w3.org/2000/svg" xmlns:xlink="http://www.w3.org/1999/xlink" x="0px" y="0px"
	 viewBox="0 0 44 32" enable-background="new 0 0 44 32" xml:space="preserve">
<g>
	<path fill="#03B8E2" d="M41,0H29H18h-6H4C3.4,0,3,0.4,3,1v30c0,0.6,0.4,1,1,1h8h8h21c0.6,0,1-0.4,1-1V1C42,0.4,41.6,0,41,0z
		 M28,3.4V9h-5.6L28,3.4z M5,2h6v3H8v1h3v2H8v1h3v5H8v1h3v2H8v1h3v2H8v1h3v5H8v1h3v3H5V2z M13,2h5h8.6l-3,3H16v1h6.6l-2,2H16v1h3.6
		l-0.3,0.3c-0.1,0.1-0.1,0.2-0.2,0.3c0,0,0,0.1,0,0.1c0,0.1,0,0.2-0.1,0.3c0,0,0,0,0,0.1v1h-3v1h3v2h-3v1h3v5h-3v1h3v2h-3v1h3v2h-3
		v1h3v3h-6V2z M40,30H21V11h8c0.6,0,1-0.4,1-1V2h10V30z"/>
	<rect x="32" y="4" fill="#03B8E2" width="5" height="2"/>
	<rect x="32" y="8" fill="#03B8E2" width="5" height="2"/>
	<rect x="24" y="14" fill="#03B8E2" width="13" height="1"/>
	<rect x="24" y="17" fill="#03B8E2" width="13" height="1"/>
	<path fill="#03B8E2" d="M33,20h-1h-3h-1h-3h-1v1v2v1v2v1h1h3h1h3h1h3h1v-1v-2v-1v-2v-1h-1H33z M32,21v2h-3v-2H32z M25,21h3v2h-3V21
		z M25,26v-2h3v2H25z M29,26v-2h3v2H29z M36,26h-3v-2h3V26z M36,23h-3v-2h3V23z"/>
</g>
</svg>
