<svg version="1.1" id="Layer_1" xmlns="http://www.w3.org/2000/svg" xmlns:xlink="http://www.w3.org/1999/xlink" x="0" y="0" viewBox="0 0 184 184" xml:space="preserve"><defs><path id="SVGID_1_" d="M.3 133l53 36 65-20 15 12-76 22h-24l-32-26z"/></defs><clipPath id="SVGID_2_"><use xlink:href="#SVGID_1_" overflow="visible"/></clipPath><g clip-path="url(#SVGID_2_)"><defs><path id="SVGID_3_" d="M124.3 77h72v72h-72z"/></defs><clipPath id="SVGID_4_"><use xlink:href="#SVGID_3_" overflow="visible"/></clipPath><g clip-path="url(#SVGID_4_)" fill="none" stroke="#03B8E2" stroke-width=".3"><path d="M153.8 150.1v-1.7m-.5 1.7l-.4-1.1m1.4 1.1l.5-1.1"/></g><g clip-path="url(#SVGID_4_)" fill="none" stroke="#03B8E2" stroke-width=".3"><path d="M194.8 125.7h6.9m-5.6-13.3h6.9m-7.2-23.3h6.9m-7.8-8.6h6.9m-6.5 61.9h4.3"/></g><g clip-path="url(#SVGID_4_)" fill="none" stroke="#03B8E2" stroke-width=".3"><path d="M141.4 146.4h6.9m6.1-3.5h6.9m19.2 1.7h6.9m-4-5.6h6.9m-17.9-3.3h6.9m-19.4-2.6h6.9m-19.9-3.2h6.9m4.6-4.3h6.9m4.6-4.2h6.9m-12.2-3.9h6.9m6.9 12.2h6.9m-7.2-15.5h6.9m-49.1 24.9h6.9m-17.9-3.2h6.9m-.9-6h6.9m-15-4.2h6.9m.3-4.5h6.9m8.2-2.7h6.9m1.6-4.3h6.9m-13.4-7.1h6.9m5.6 1.1h6.9m-38.4.2h6.9m-10.9 4h6.9m-7.2-23.3h6.9m5.1 4h6.9m-5.3 6.6h6.9m-14-16h6.9m-14.3-3.2h6.9m22.8 17.9h6.9m6.6 4.5h6.9m-7.7-7.9h6.9m4.1 3.2h6.9m.1-5.2h6.9m-31.4-5.1h6.9m-14.4-3h6.9m-7.8-6.8h6.9m5.5 2.5h6.9m8.1 3h6.9m3.3 46.9h6.9m-5.8-12.9h6.9M189.8 95h6.9m-6.1 8h6.9m-52.7 43.4v-1.8m13-1.7v-1.8m26.1 3.5v-1.7m2.9-3.9v-1.8m-11-1.5V134m-12.5-.9v-1.7m-13-1.5v-1.8m11.5-2.5v-1.7m11.5-2.5v-1.8m-5.2-2.1v-1.8m13.7 14V128m-.2-13.8v-1.7m-42.3 26.6v-1.7m-11-1.5v-1.8m6-4.2v-1.8m-8-2.4V124m7.1-2.8v-1.7m15.2-1v-1.8m8.5-2.5v-1.7m-6.5-5.4v-1.7m12.5 2.8v-1.7m31-3.5v-1.8m-62.5 7.2v-1.8m-4 5.8v-1.8m-.3-21.5v-1.7m12 5.7v-1.7m1.6 8.3V98m-7.1-14.3V82m-7.4-1.5v-1.8m29.7 19.7v-1.8m13.5 6.3v-1.8m-.8-6.1v-1.8m11 5v-1.7m7-3.5v-1.8m-24.5-3.3v-1.8m-7.5-1.2v-1.8m-1-5v-1.7m12.5 4.2v-1.7m15 4.7v-1.7m10.1 48.6v-1.8m1.2-11.1v-1.7m.7-20.9v-1.8m-49 53.2l-.4-1.2m13.4-2.3l-.4-1.2m26.5 2.9l-.4-1.1m3.3-4.5l-.4-1.1m-10.6-2.2l-.4-1.1m-12.1-1.5l-.4-1.1m-12.6-2.1l-.4-1.2m11.9-3.1l-.4-1.1m11.9-3.1l-.4-1.2m-4.8-2.7l-.5-1.1m14.2 13.3l-.4-1.1m.2-14.4l-.5-1.1m-41.8 26l-.4-1.1m-10.6-2.1l-.4-1.2m6.4-4.8l-.4-1.2m-7.6-3l-.5-1.1m7.6-3.4l-.4-1.1m15.6-1.6l-.5-1.1m9-3.2l-.5-1.1m-6-6l-.5-1.1m13 2.2l-.5-1.1m-31 1.3l-.5-1.2m-3.5 5.2l-.5-1.2m.2-22.1l-.5-1.1m12.5 5.1l-.5-1.1m2.1 7.7l-.5-1.1m-6.6-14.9l-.5-1.1m-6.9-2.1l-.5-1.1m30.2 19l-.5-1.2m14 5.7l-.5-1.2m-.3-6.7l-.5-1.1m11.5 4.3l-.5-1.1m7.5-4.1l-.5-1.1m-24-4l-.5-1.2m-7-1.8l-.5-1.2m-.5-5.6l-.4-1.1m12.9 3.6l-.5-1.1m15.5 4.1l-.5-1.1m10.6 48l-.4-1.1m1.6-11.8l-.5-1.1m1.2-21.5l-.5-1.1m1.3 9.1l-.5-1.1m-49.4 44.5l-.6-.7m13.6-2.8l-.6-.7m26.7 2.4l-.6-.6m3.5-5l-.6-.6m-10.4-2.7l-.6-.6m-11.9-2l-.6-.6m-12.4-2.6l-.6-.7m12.1-3.6l-.6-.6m12.1-3.6l-.6-.7m-4.6-3.2l-.7-.6m14.4 12.8l-.6-.6m.4-14.9l-.7-.6m-41.6 25.5l-.6-.6m-10.4-2.6l-.6-.7m6.6-5.3l-.6-.7m-7.4-3.5l-.7-.6m7.8-3.9l-.6-.6m15.8-2.1l-.7-.6m9.2-3.7l-.7-.6m-5.8-6.5l-.7-.6m13.2 1.7l-.7-.6m-30.8.8l-.7-.7m-3.3 4.7l-.7-.7m.4-22.6l-.7-.6m12.7 4.6l-.7-.6m2.3 7.2l-.6-.6m-6.5-15.4l-.7-.6m-6.7-2.6l-.6-.6M155 98.4l-.7-.7m14.2 5.2l-.7-.7m-.1-7.2l-.7-.6m11.7 3.8l-.7-.6m7.7-4.6l-.7-.6m-23.8-4.5l-.7-.7m-6.8-2.3l-.7-.7m-.3-6.1l-.6-.6m13.1 3.1l-.7-.6m15.7 3.6l-.7-.6m10.8 47.5l-.6-.6m1.8-12.3l-.7-.6m1.4-22l-.7-.6m1.5 8.6l-.7-.6m-47 44l.5-1.2m12.5-2.3l.5-1.2m25.6 2.9l.6-1.1m2.3-4.5l.5-1.1m-11.5-2.2l.5-1.1m-13-1.5l.5-1.1m-13.5-2.1l.5-1.2m11-3.1l.5-1.1m11-3.1l.5-1.2m-5.7-2.7l.5-1.1m13.2 13.3l.5-1.1m-.7-14.4l.5-1.1m-42.8 26l.5-1.1m-11.5-2.1l.5-1.2m5.5-4.8l.5-1.2m-8.5-3l.5-1.1m6.6-3.4l.6-1.1m14.6-1.6l.5-1.1m8-3.2l.5-1.1m-7-6l.5-1.1m12 2.2l.5-1.1M193.8 95l.5-1.1m.3 9.1l.5-1.1m-63 6.5l.5-1.2m-4.5 5.2l.5-1.2m-.8-22.1l.5-1.1m11.5 5.1l.5-1.1m1.1 7.7l.5-1.1m-7.6-14.9l.5-1.1m-7.9-2.1l.5-1.1m29.2 19l.5-1.2m13 5.7l.5-1.2m-1.3-6.7l.5-1.1m10.5 4.3l.5-1.1m6.5-4.1l.5-1.1m-25-4l.5-1.2m-8-1.8l.5-1.2m-1.5-5.6l.5-1.1m12 3.6l.5-1.1m14.5 4.1l.5-1.1m9.6 48l.6-1.1m.6-11.8l.5-1.1m-47.7 29.9l.7-.7m12.3-2.8l.7-.7m25.4 2.4l.7-.7m2.2-4.9l.7-.7m-11.7-2.6l.7-.6m-13.2-2l.7-.7m-13.7-2.5l.7-.7m10.8-3.6l.7-.7m10.8-3.5l.7-.7m-6-3.2l.7-.7m13.1 12.9l.7-.6m-1-14.9l.7-.6m-42.9 25.5l.7-.7m-11.7-2.5l.7-.7m5.3-5.3l.7-.7m-8.8-3.5l.7-.6m65.6-7.5l.7-.7m-59.8 4.3l.7-.6m14.4-2.1l.7-.7m7.8-3.6l.7-.6m-7.2-6.5l.7-.7m11.8 1.8l.7-.6M194.3 95l.7-.7m.1 8.7l.7-.7m-63.2 6.1l.7-.7m-4.7 4.7l.7-.7m-1-22.6l.7-.7m11.3 4.7l.7-.7m.9 7.3l.7-.6m-7.8-15.4l.7-.6m-8.1-2.6l.7-.7m29 18.6l.7-.7m12.8 5.2l.7-.7m-1.5-7.2l.7-.7m10.3 3.9l.7-.6m6.3-4.6l.7-.7m-25.2-4.4l.7-.7m-8.2-2.3l.7-.7m-1.6-6.1l.7-.7m11.7 3.2l.7-.7m14.3 3.7l.7-.7m9.5 47.6l.7-.7m-50.1 17h3.6m9.4-3.5h3.6m22.5 1.7h3.6m-.7-5.6h3.6m-14.6-3.3h3.6m-16.1-2.6h3.6m-16.6-3.2h3.6m7.9-4.3h3.6m7.9-4.2h3.6m-8.9-3.9h3.6m10.2 12.2h3.6m-3.9-15.5h3.6m-45.8 24.9h3.6m-14.6-3.2h3.6m2.4-6h3.6m-11.7-4.2h3.6m3.6-4.5h3.6m11.5-2.7h3.6m4.9-4.3h3.6m-10.1-7.1h3.6m8.9 1.1h3.6m-35.1.2h3.6m-7.6 4h3.6m-3.9-23.3h3.6m8.4 4h3.6m-2 6.6h3.7m-10.8-16h3.6m-11-3.2h3.7m26 17.9h3.6m9.9 4.5h3.6m-4.4-7.9h3.6m7.4 3.2h3.6m3.4-5.2h3.6m-28.1-5.1h3.6m-11.1-3h3.6m-4.5-6.8h3.6m8.8 2.5h3.6m11.4 3h3.6m6.6 46.9h3.6m-2.5-12.9h3.6m-2.9-22.6h3.6m-2.8 8h3.6m-64.2-23.3h4.4m1.5 4.8h4.3m21.3-1.9h8.7m-40.8 7.4h4.3m8.4 4h4.4m31-14.4h4.4m1.5 4.7h4.3m-10.8 5.5h4.3m-57 13.9h4.4m21.2-1.9h8.8m-28.2 11.4h4.4m31-14.4h4.4m1.5 4.8h4.4m-10.9 5.5h4.4m-32.5 11.4h4.3m1.5 4.7h4.4m21.3-1.9h8.7m-40.9 7.4h4.4m8.4 4h4.4m31-14.4h4.3m-67.3 21.7h4.3m1.5 4.7h4.4m21.3-1.9h8.7m7.3-3h4.3m1.5 4.8h4.4m-54.3-29.8h4.4m57-30.2h4.3m-4.5 60.7h4.4m-28.4-11h4.4m-23.5-21.5h6.5M192 99.4h4.4m-5 10.2h4.4m-3.4 11.6h4.4"/></g><g clip-path="url(#SVGID_4_)" fill="none" stroke="#03B8E2" stroke-width=".3"><path d="M117.8 95h6.9m-6.1 8h6.9m-5.5-3.6h4.4m-4 21.8h4.4"/></g></g><g clip-path="url(#SVGID_2_)"><defs><path id="SVGID_5_" d="M124.3 149h72v72h-72z"/></defs><clipPath id="SVGID_6_"><use xlink:href="#SVGID_5_" overflow="visible"/></clipPath><g clip-path="url(#SVGID_6_)" fill="none" stroke="#03B8E2" stroke-width=".3"><path d="M153.8 222.1v-1.7m-.5 1.7l-.4-1.1m1.4 1.1l.5-1.1"/></g><g clip-path="url(#SVGID_6_)" fill="none" stroke="#03B8E2" stroke-width=".3"><path d="M194.8 197.7h6.9m-5.6-13.3h6.9m-7.2-23.3h6.9m-7.8-8.6h6.9m-6.5 61.9h4.3"/></g><g clip-path="url(#SVGID_6_)" fill="none" stroke="#03B8E2" stroke-width=".3"><path d="M141.4 218.4h6.9m6.1-3.5h6.9m19.2 1.7h6.9m-4-5.6h6.9m-17.9-3.3h6.9m-19.4-2.6h6.9m-19.9-3.2h6.9m4.6-4.3h6.9m4.6-4.2h6.9m-12.2-3.9h6.9m6.9 12.2h6.9m-7.2-15.5h6.9m-49.1 24.9h6.9m-17.9-3.2h6.9m-.9-6h6.9m-15-4.2h6.9m.3-4.5h6.9m8.2-2.7h6.9m1.6-4.3h6.9m-13.4-7.1h6.9m5.6 1.1h6.9m-38.4.2h6.9m-10.9 4h6.9m-7.2-23.3h6.9m5.1 4h6.9m-5.3 6.6h6.9m-14-16h6.9m-14.3-3.2h6.9m22.8 17.9h6.9m6.6 4.5h6.9m-7.7-7.9h6.9m4.1 3.2h6.9m.1-5.2h6.9m-31.4-5.1h6.9m-14.4-3h6.9m-7.8-6.8h6.9m5.5 2.5h6.9m8.1 3h6.9m3.3 46.9h6.9m-5.8-12.9h6.9m-6.2-22.6h6.9m-6.1 8h6.9m-52.7 43.4v-1.8m13-1.7v-1.8m26.1 3.5v-1.7m2.9-3.9v-1.8m-11-1.5V206m-12.5-.9v-1.7m-13-1.5v-1.8m11.5-2.5v-1.7m11.5-2.5v-1.8m-5.2-2.1v-1.8m13.7 14V200m-.2-13.8v-1.7m-42.3 26.6v-1.7m-11-1.5v-1.8m6-4.2v-1.8m-8-2.4V196m7.1-2.8v-1.7m15.2-1v-1.8m8.5-2.5v-1.7m-6.5-5.4v-1.7m12.5 2.8v-1.7m31-3.5v-1.8m-62.5 7.2v-1.8m-4 5.8v-1.8m-.3-21.5v-1.7m12 5.7v-1.7m1.6 8.3V170m-7.1-14.3V154m-7.4-1.5v-1.8m29.7 19.7v-1.8m13.5 6.3v-1.8m-.8-6.1v-1.8m11 5v-1.7m7-3.5v-1.8m-24.5-3.3v-1.8m-7.5-1.2v-1.8m-1-5v-1.7m12.5 4.2v-1.7m15 4.7v-1.7m10.1 48.6v-1.8m1.2-11.1v-1.7m.7-20.9v-1.8m-49 53.2l-.4-1.2m13.4-2.3l-.4-1.2m26.5 2.9l-.4-1.1m3.3-4.5l-.4-1.1m-10.6-2.2l-.4-1.1m-12.1-1.5l-.4-1.1m-12.6-2.1l-.4-1.2m11.9-3.1l-.4-1.1m11.9-3.1l-.4-1.2m-4.8-2.7l-.5-1.1m14.2 13.3l-.4-1.1m.2-14.4l-.5-1.1m-41.8 26l-.4-1.1m-10.6-2.1l-.4-1.2m6.4-4.8l-.4-1.2m-7.6-3l-.5-1.1m7.6-3.4l-.4-1.1m15.6-1.6l-.5-1.1m9-3.2l-.5-1.1m-6-6l-.5-1.1m13 2.2l-.5-1.1m-31 1.3l-.5-1.2m-3.5 5.2l-.5-1.2m.2-22.1l-.5-1.1m12.5 5.1l-.5-1.1m2.1 7.7l-.5-1.1m-6.6-14.9l-.5-1.1m-6.9-2.1l-.5-1.1m30.2 19l-.5-1.2m14 5.7l-.5-1.2m-.3-6.7l-.5-1.1m11.5 4.3l-.5-1.1m7.5-4.1l-.5-1.1m-24-4l-.5-1.2m-7-1.8l-.5-1.2m-.5-5.6l-.4-1.1m12.9 3.6l-.5-1.1m15.5 4.1l-.5-1.1m10.6 48l-.4-1.1m1.6-11.8l-.5-1.1m1.2-21.5l-.5-1.1m1.3 9.1l-.5-1.1m-49.4 44.5l-.6-.7m13.6-2.8l-.6-.7m26.7 2.4l-.6-.6m3.5-5l-.6-.6m-10.4-2.7l-.6-.6m-11.9-2l-.6-.6m-12.4-2.6l-.6-.7m12.1-3.6l-.6-.6m12.1-3.6l-.6-.7m-4.6-3.2l-.7-.6m14.4 12.8l-.6-.6m.4-14.9l-.7-.6m-41.6 25.5l-.6-.6m-10.4-2.6l-.6-.7m6.6-5.3l-.6-.7m-7.4-3.5l-.7-.6m7.8-3.9l-.6-.6m15.8-2.1l-.7-.6m9.2-3.7l-.7-.6m-5.8-6.5l-.7-.6m13.2 1.7l-.7-.6m-30.8.8l-.7-.7m-3.3 4.7l-.7-.7m.4-22.6l-.7-.6m12.7 4.6l-.7-.6m2.3 7.2l-.6-.6m-6.5-15.4l-.7-.6m-6.7-2.6l-.6-.6m30.3 18.5l-.7-.7m14.2 5.2l-.7-.7m-.1-7.2l-.7-.6m11.7 3.8l-.7-.6m7.7-4.6l-.7-.6m-23.8-4.5l-.7-.7m-6.8-2.3l-.7-.7m-.3-6.1l-.6-.6m13.1 3.1l-.7-.6m15.7 3.6l-.7-.6m10.8 47.5l-.6-.6m1.8-12.3l-.7-.6m1.4-22l-.7-.6m1.5 8.6l-.7-.6m-47 44l.5-1.2m12.5-2.3l.5-1.2m25.6 2.9l.6-1.1m2.3-4.5l.5-1.1m-11.5-2.2l.5-1.1m-13-1.5l.5-1.1m-13.5-2.1l.5-1.2m11-3.1l.5-1.1m11-3.1l.5-1.2m-5.7-2.7l.5-1.1m13.2 13.3l.5-1.1m-.7-14.4l.5-1.1m-42.8 26l.5-1.1m-11.5-2.1l.5-1.2m5.5-4.8l.5-1.2m-8.5-3l.5-1.1m6.6-3.4l.6-1.1m14.6-1.6l.5-1.1m8-3.2l.5-1.1m-7-6l.5-1.1m12 2.2l.5-1.1m29.7-12.1l.5-1.1m.3 9.1l.5-1.1m-63 6.5l.5-1.2m-4.5 5.2l.5-1.2m-.8-22.1l.5-1.1m11.5 5.1l.5-1.1m1.1 7.7l.5-1.1m-7.6-14.9l.5-1.1m-7.9-2.1l.5-1.1m29.2 19l.5-1.2m13 5.7l.5-1.2m-1.3-6.7l.5-1.1m10.5 4.3l.5-1.1m6.5-4.1l.5-1.1m-25-4l.5-1.2m-8-1.8l.5-1.2m-1.5-5.6l.5-1.1m12 3.6l.5-1.1m14.5 4.1l.5-1.1m9.6 48l.6-1.1m.6-11.8l.5-1.1m-47.7 29.9l.7-.7m12.3-2.8l.7-.7m25.4 2.4l.7-.7m2.2-4.9l.7-.7m-11.7-2.6l.7-.6m-13.2-2l.7-.7m-13.7-2.5l.7-.7m10.8-3.6l.7-.7m10.8-3.5l.7-.7m-6-3.2l.7-.7m13.1 12.9l.7-.6m-1-14.9l.7-.6m-42.9 25.5l.7-.7m-11.7-2.5l.7-.7m5.3-5.3l.7-.7m-8.8-3.5l.7-.6m65.6-7.5l.7-.7m-59.8 4.3l.7-.6m14.4-2.1l.7-.7m7.8-3.6l.7-.6m-7.2-6.5l.7-.7m11.8 1.8l.7-.6m29.5-12.6l.7-.7m.1 8.7l.7-.7m-63.2 6.1l.7-.7m-4.7 4.7l.7-.7m-1-22.6l.7-.7m11.3 4.7l.7-.7m.9 7.3l.7-.6m-7.8-15.4l.7-.6m-8.1-2.6l.7-.7m29 18.6l.7-.7m12.8 5.2l.7-.7m-1.5-7.2l.7-.7m10.3 3.9l.7-.6m6.3-4.6l.7-.7m-25.2-4.4l.7-.7m-8.2-2.3l.7-.7m-1.6-6.1l.7-.7m11.7 3.2l.7-.7m14.3 3.7l.7-.7m9.5 47.6l.7-.7m-50.1 17h3.6m9.4-3.5h3.6m22.5 1.7h3.6m-.7-5.6h3.6m-14.6-3.3h3.6m-16.1-2.6h3.6m-16.6-3.2h3.6m7.9-4.3h3.6m7.9-4.2h3.6m-8.9-3.9h3.6m10.2 12.2h3.6m-3.9-15.5h3.6m-45.8 24.9h3.6m-14.6-3.2h3.6m2.4-6h3.6m-11.7-4.2h3.6m3.6-4.5h3.6m11.5-2.7h3.6m4.9-4.3h3.6m-10.1-7.1h3.6m8.9 1.1h3.6m-35.1.2h3.6m-7.6 4h3.6m-3.9-23.3h3.6m8.4 4h3.6m-2 6.6h3.7m-10.8-16h3.6m-11-3.2h3.7m26 17.9h3.6m9.9 4.5h3.6m-4.4-7.9h3.6m7.4 3.2h3.6m3.4-5.2h3.6m-28.1-5.1h3.6m-11.1-3h3.6m-4.5-6.8h3.6m8.8 2.5h3.6m11.4 3h3.6m6.6 46.9h3.6m-2.5-12.9h3.6m-2.9-22.6h3.6m-2.8 8h3.6m-64.2-23.3h4.4m1.5 4.8h4.3m21.3-1.9h8.7m-40.8 7.4h4.3m8.4 4h4.4m31-14.4h4.4m1.5 4.7h4.3m-10.8 5.5h4.3m-57 13.9h4.4m21.2-1.9h8.8m-28.2 11.4h4.4m31-14.4h4.4m1.5 4.8h4.4m-10.9 5.5h4.4m-32.5 11.4h4.3m1.5 4.7h4.4m21.3-1.9h8.7m-40.9 7.4h4.4m8.4 4h4.4m31-14.4h4.3m-67.3 21.7h4.3m1.5 4.7h4.4m21.3-1.9h8.7m7.3-3h4.3m1.5 4.8h4.4m-54.3-29.8h4.4m57-30.2h4.3m-4.5 60.7h4.4m-28.4-11h4.4m-23.5-21.5h6.5m40.7-15.8h4.4m-5 10.2h4.4m-3.4 11.6h4.4"/></g><g clip-path="url(#SVGID_6_)" fill="none" stroke="#03B8E2" stroke-width=".3"><path d="M117.8 167h6.9m-6.1 8h6.9m-5.5-3.6h4.4m-4 21.8h4.4"/></g></g><g clip-path="url(#SVGID_2_)"><defs><path id="SVGID_7_" d="M52.3 77h72v72h-72z"/></defs><clipPath id="SVGID_8_"><use xlink:href="#SVGID_7_" overflow="visible"/></clipPath><g clip-path="url(#SVGID_8_)" fill="none" stroke="#03B8E2" stroke-width=".3"><path d="M81.8 150.1v-1.7m-.5 1.7l-.4-1.1m1.4 1.1l.5-1.1"/></g><g clip-path="url(#SVGID_8_)" fill="none" stroke="#03B8E2" stroke-width=".3"><path d="M122.8 125.7h6.9m-5.6-13.3h6.9m-7.2-23.3h6.9m-7.8-8.6h6.9m-6.5 61.9h4.3"/></g><g clip-path="url(#SVGID_8_)" fill="none" stroke="#03B8E2" stroke-width=".3"><path d="M69.4 146.4h6.9m6.1-3.5h6.9m19.2 1.7h6.9m-4-5.6h6.9m-17.9-3.3h6.9m-19.4-2.6h6.9m-19.9-3.2h6.9m4.6-4.3h6.9m4.6-4.2h6.9m-12.2-3.9h6.9m6.9 12.2h6.9m-7.2-15.5h6.9m-49.1 24.9h6.9m-17.9-3.2h6.9m-.9-6h6.9m-15-4.2h6.9m.3-4.5h6.9m8.2-2.7H80m1.6-4.3h6.9m-13.4-7.1H82m5.6 1.1h6.9m-38.4.2H63m-10.9 4H59m-7.2-23.3h6.9m5.1 4h6.9m-5.3 6.6h6.9m-14-16h6.9m-14.3-3.2h6.9m22.8 17.9h6.9m6.6 4.5h6.9M93.3 95h6.9m4.1 3.2h6.9m.1-5.2h6.9m-31.4-5.1h6.9m-14.4-3h6.9m-7.8-6.8h6.9m5.5 2.5h6.9m8.1 3h6.9m3.3 46.9h6.9m-5.8-12.9h6.9M117.8 95h6.9m-6.1 8h6.9m-52.7 43.4v-1.8m13-1.7v-1.8m26.1 3.5v-1.7m2.9-3.9v-1.8m-11-1.5V134m-12.5-.9v-1.7m-13-1.5v-1.8m11.5-2.5v-1.7m11.5-2.5v-1.8m-5.2-2.1v-1.8m13.7 14V128m-.2-13.8v-1.7m-42.3 26.6v-1.7m-11-1.5v-1.8m6-4.2v-1.8m-8-2.4V124m7.1-2.8v-1.7m15.2-1v-1.8m8.5-2.5v-1.7m-6.5-5.4v-1.7m12.5 2.8v-1.7m31-3.5v-1.8m-62.5 7.2v-1.8m-4 5.8v-1.8m-.3-21.5v-1.7m12 5.7v-1.7m1.6 8.3V98m-7.1-14.3V82m-7.4-1.5v-1.8m29.7 19.7v-1.8m13.5 6.3v-1.8m-.8-6.1v-1.8m11 5v-1.7m7-3.5v-1.8m-24.5-3.3v-1.8m-7.5-1.2v-1.8m-1-5v-1.7m12.5 4.2v-1.7m15 4.7v-1.7m10.1 48.6v-1.8m1.2-11.1v-1.7m.7-20.9v-1.8m-49 53.2l-.4-1.2m13.4-2.3l-.4-1.2m26.5 2.9l-.4-1.1m3.3-4.5l-.4-1.1m-10.6-2.2l-.4-1.1m-12.1-1.5l-.4-1.1m-12.6-2.1l-.4-1.2m11.9-3.1l-.4-1.1m11.9-3.1l-.4-1.2m-4.8-2.7l-.5-1.1m14.2 13.3l-.4-1.1m.2-14.4l-.5-1.1m-41.8 26l-.4-1.1m-10.6-2.1l-.4-1.2m6.4-4.8l-.4-1.2m-7.6-3l-.5-1.1m7.6-3.4l-.4-1.1m15.6-1.6l-.5-1.1m9-3.2l-.5-1.1m-6-6l-.5-1.1m13 2.2l-.5-1.1m-31 1.3l-.5-1.2m-3.5 5.2l-.5-1.2m.2-22.1l-.5-1.1m12.5 5.1l-.5-1.1m2.1 7.7l-.5-1.1m-6.6-14.9l-.5-1.1m-6.9-2.1l-.5-1.1m30.2 19l-.5-1.2m14 5.7l-.5-1.2m-.3-6.7l-.5-1.1m11.5 4.3l-.5-1.1m7.5-4.1l-.5-1.1m-24-4l-.5-1.2m-7-1.8l-.5-1.2m-.5-5.6l-.4-1.1m12.9 3.6l-.5-1.1m15.5 4.1l-.5-1.1m10.6 48l-.4-1.1m1.6-11.8l-.5-1.1m1.2-21.5l-.5-1.1m1.3 9.1l-.5-1.1m-49.4 44.5l-.6-.7m13.6-2.8l-.6-.7m26.7 2.4l-.6-.6m3.5-5l-.6-.6m-10.4-2.7l-.6-.6m-11.9-2l-.6-.6m-12.4-2.6l-.6-.7m12.1-3.6l-.6-.6m12.1-3.6l-.6-.7m-4.6-3.2l-.7-.6m14.4 12.8l-.6-.6m.4-14.9l-.7-.6m-41.6 25.5l-.6-.6m-10.4-2.6l-.6-.7m6.6-5.3l-.6-.7m-7.4-3.5l-.7-.6m7.8-3.9l-.6-.6m15.8-2.1l-.7-.6m9.2-3.7l-.7-.6m-5.8-6.5l-.7-.6m13.2 1.7l-.7-.6m-30.8.8l-.7-.7m-3.3 4.7l-.7-.7m.4-22.6l-.7-.6m12.7 4.6l-.7-.6m2.3 7.2l-.6-.6m-6.5-15.4l-.7-.6m-6.7-2.6l-.6-.6M83 98.4l-.7-.7m14.2 5.2l-.7-.7m-.1-7.2l-.7-.6m11.7 3.8l-.7-.6m7.7-4.6l-.7-.6m-23.8-4.5l-.7-.7m-6.8-2.3l-.7-.7m-.3-6.1l-.6-.6m13.1 3.1l-.7-.6m15.7 3.6l-.7-.6m10.8 47.5l-.6-.6m1.8-12.3l-.7-.6m1.4-22l-.7-.6m1.5 8.6l-.7-.6m-47 44l.5-1.2m12.5-2.3l.5-1.2m25.6 2.9l.6-1.1m2.3-4.5l.5-1.1m-11.5-2.2l.5-1.1m-13-1.5l.5-1.1m-13.5-2.1l.5-1.2m11-3.1l.5-1.1m11-3.1l.5-1.2m-5.7-2.7l.5-1.1m13.2 13.3l.5-1.1m-.7-14.4l.5-1.1m-42.8 26l.5-1.1m-11.5-2.1l.5-1.2m5.5-4.8l.5-1.2m-8.5-3l.5-1.1m6.6-3.4l.6-1.1m14.6-1.6l.5-1.1m8-3.2l.5-1.1m-7-6l.5-1.1m12 2.2l.5-1.1M121.8 95l.5-1.1m.3 9.1l.5-1.1m-63 6.5l.5-1.2m-4.5 5.2l.5-1.2m-.8-22.1l.5-1.1m11.5 5.1l.5-1.1m1.1 7.7l.5-1.1m-7.6-14.9l.5-1.1m-7.9-2.1l.5-1.1m29.2 19l.5-1.2m13 5.7l.5-1.2M97.3 95l.5-1.1m10.5 4.3l.5-1.1m6.5-4.1l.5-1.1m-25-4l.5-1.2m-8-1.8l.5-1.2m-1.5-5.6l.5-1.1m12 3.6l.5-1.1m14.5 4.1l.5-1.1m9.6 48l.6-1.1m.6-11.8l.5-1.1m-47.7 29.9l.7-.7m12.3-2.8l.7-.7m25.4 2.4l.7-.7m2.2-4.9l.7-.7m-11.7-2.6l.7-.6m-13.2-2l.7-.7m-13.7-2.5l.7-.7m10.8-3.6l.7-.7m10.8-3.5l.7-.7m-6-3.2l.7-.7m13.1 12.9l.7-.6m-1-14.9l.7-.6m-42.9 25.5l.7-.7m-11.7-2.5l.7-.7m5.3-5.3l.7-.7m-8.8-3.5l.7-.6m65.6-7.5l.7-.7m-59.8 4.3l.7-.6m14.4-2.1l.7-.7m7.8-3.6l.7-.6m-7.2-6.5l.7-.7m11.8 1.8l.7-.6M122.3 95l.7-.7m.1 8.7l.7-.7m-63.2 6.1l.7-.7m-4.7 4.7l.7-.7m-1-22.6l.7-.7m11.3 4.7l.7-.7m.9 7.3l.7-.6m-7.8-15.4l.7-.6m-8.1-2.6l.7-.7m29 18.6l.7-.7m12.8 5.2l.7-.7M97.8 95l.7-.7m10.3 3.9l.7-.6m6.3-4.6l.7-.7m-25.2-4.4l.7-.7m-8.2-2.3l.7-.7m-1.6-6.1l.7-.7m11.7 3.2l.7-.7m14.3 3.7l.7-.7m9.5 47.6l.7-.7m-50.1 17h3.6m9.4-3.5h3.6m22.5 1.7h3.6m-.7-5.6h3.6m-14.6-3.3h3.6m-16.1-2.6h3.6m-16.6-3.2h3.6m7.9-4.3h3.6m7.9-4.2h3.6m-8.9-3.9h3.6m10.2 12.2h3.6m-3.9-15.5h3.6m-45.8 24.9h3.6m-14.6-3.2h3.6m2.4-6h3.6m-11.7-4.2h3.6m3.6-4.5h3.6m11.5-2.7h3.6m4.9-4.3h3.6m-10.1-7.1h3.6m8.9 1.1h3.6m-35.1.2h3.6m-7.6 4h3.6m-3.9-23.3h3.6m8.4 4h3.6m-2 6.6h3.7M60 84.1h3.6m-11-3.2h3.7m26 17.9h3.6m9.9 4.5h3.6M95 95.4h3.6m7.4 3.2h3.6m3.4-5.2h3.6m-28.1-5.1h3.6m-11.1-3h3.6m-4.5-6.8h3.6m8.8 2.5h3.6m11.4 3h3.6m6.6 46.9h3.6m-2.5-12.9h3.6m-2.9-22.6h3.6m-2.8 8h3.6M59.7 80.1h4.4m1.5 4.8h4.3M91.2 83h8.7m-40.8 7.4h4.3m8.4 4h4.4m31-14.4h4.4m1.5 4.7h4.3m-10.8 5.5h4.3m-57 13.9h4.4m21.2-1.9h8.8m-28.2 11.4h4.4m31-14.4h4.4m1.5 4.8h4.4m-10.9 5.5h4.4m-32.5 11.4h4.3m1.5 4.7H77m21.3-1.9h8.7m-40.9 7.4h4.4m8.4 4h4.4m31-14.4h4.3m-67.3 21.7h4.3m1.5 4.7h4.4m21.3-1.9h8.7m7.3-3h4.3m1.5 4.8h4.4m-54.3-29.8h4.4m57-30.2h4.3m-4.5 60.7h4.4m-28.4-11h4.4m-23.5-21.5h6.5M120 99.4h4.4m-5 10.2h4.4m-3.4 11.6h4.4"/></g><g clip-path="url(#SVGID_8_)" fill="none" stroke="#03B8E2" stroke-width=".3"><path d="M45.8 95h6.9m-6.1 8h6.9M48 99.4h4.4m-4 21.8h4.4"/></g></g><g clip-path="url(#SVGID_2_)"><defs><path id="SVGID_9_" d="M52.3 149h72v72h-72z"/></defs><clipPath id="SVGID_10_"><use xlink:href="#SVGID_9_" overflow="visible"/></clipPath><g clip-path="url(#SVGID_10_)" fill="none" stroke="#03B8E2" stroke-width=".3"><path d="M81.8 222.1v-1.7m-.5 1.7l-.4-1.1m1.4 1.1l.5-1.1"/></g><g clip-path="url(#SVGID_10_)" fill="none" stroke="#03B8E2" stroke-width=".3"><path d="M122.8 197.7h6.9m-5.6-13.3h6.9m-7.2-23.3h6.9m-7.8-8.6h6.9m-6.5 61.9h4.3"/></g><g clip-path="url(#SVGID_10_)" fill="none" stroke="#03B8E2" stroke-width=".3"><path d="M69.4 218.4h6.9m6.1-3.5h6.9m19.2 1.7h6.9m-4-5.6h6.9m-17.9-3.3h6.9m-19.4-2.6h6.9m-19.9-3.2h6.9m4.6-4.3h6.9m4.6-4.2h6.9m-12.2-3.9h6.9m6.9 12.2h6.9m-7.2-15.5h6.9m-49.1 24.9h6.9m-17.9-3.2h6.9m-.9-6h6.9m-15-4.2h6.9m.3-4.5h6.9m8.2-2.7H80m1.6-4.3h6.9m-13.4-7.1H82m5.6 1.1h6.9m-38.4.2H63m-10.9 4H59m-7.2-23.3h6.9m5.1 4h6.9m-5.3 6.6h6.9m-14-16h6.9m-14.3-3.2h6.9m22.8 17.9h6.9m6.6 4.5h6.9m-7.7-7.9h6.9m4.1 3.2h6.9m.1-5.2h6.9m-31.4-5.1h6.9m-14.4-3h6.9m-7.8-6.8h6.9m5.5 2.5h6.9m8.1 3h6.9m3.3 46.9h6.9m-5.8-12.9h6.9m-6.2-22.6h6.9m-6.1 8h6.9m-52.7 43.4v-1.8m13-1.7v-1.8m26.1 3.5v-1.7m2.9-3.9v-1.8m-11-1.5V206m-12.5-.9v-1.7m-13-1.5v-1.8m11.5-2.5v-1.7m11.5-2.5v-1.8m-5.2-2.1v-1.8m13.7 14V200m-.2-13.8v-1.7m-42.3 26.6v-1.7m-11-1.5v-1.8m6-4.2v-1.8m-8-2.4V196m7.1-2.8v-1.7m15.2-1v-1.8m8.5-2.5v-1.7m-6.5-5.4v-1.7m12.5 2.8v-1.7m31-3.5v-1.8m-62.5 7.2v-1.8m-4 5.8v-1.8m-.3-21.5v-1.7m12 5.7v-1.7m1.6 8.3V170m-7.1-14.3V154m-7.4-1.5v-1.8m29.7 19.7v-1.8m13.5 6.3v-1.8m-.8-6.1v-1.8m11 5v-1.7m7-3.5v-1.8m-24.5-3.3v-1.8m-7.5-1.2v-1.8m-1-5v-1.7m12.5 4.2v-1.7m15 4.7v-1.7m10.1 48.6v-1.8m1.2-11.1v-1.7m.7-20.9v-1.8m-49 53.2l-.4-1.2m13.4-2.3l-.4-1.2m26.5 2.9l-.4-1.1m3.3-4.5l-.4-1.1m-10.6-2.2l-.4-1.1m-12.1-1.5l-.4-1.1m-12.6-2.1l-.4-1.2m11.9-3.1l-.4-1.1m11.9-3.1l-.4-1.2m-4.8-2.7l-.5-1.1m14.2 13.3l-.4-1.1m.2-14.4l-.5-1.1m-41.8 26l-.4-1.1m-10.6-2.1l-.4-1.2m6.4-4.8l-.4-1.2m-7.6-3l-.5-1.1m7.6-3.4l-.4-1.1m15.6-1.6l-.5-1.1m9-3.2l-.5-1.1m-6-6l-.5-1.1m13 2.2l-.5-1.1m-31 1.3l-.5-1.2m-3.5 5.2l-.5-1.2m.2-22.1l-.5-1.1m12.5 5.1l-.5-1.1m2.1 7.7l-.5-1.1m-6.6-14.9l-.5-1.1m-6.9-2.1l-.5-1.1m30.2 19l-.5-1.2m14 5.7l-.5-1.2m-.3-6.7l-.5-1.1m11.5 4.3l-.5-1.1m7.5-4.1l-.5-1.1m-24-4l-.5-1.2m-7-1.8l-.5-1.2m-.5-5.6l-.4-1.1m12.9 3.6l-.5-1.1m15.5 4.1l-.5-1.1m10.6 48l-.4-1.1m1.6-11.8l-.5-1.1m1.2-21.5l-.5-1.1m1.3 9.1l-.5-1.1m-49.4 44.5l-.6-.7m13.6-2.8l-.6-.7m26.7 2.4l-.6-.6m3.5-5l-.6-.6m-10.4-2.7l-.6-.6m-11.9-2l-.6-.6m-12.4-2.6l-.6-.7m12.1-3.6l-.6-.6m12.1-3.6l-.6-.7m-4.6-3.2l-.7-.6m14.4 12.8l-.6-.6m.4-14.9l-.7-.6m-41.6 25.5l-.6-.6m-10.4-2.6l-.6-.7m6.6-5.3l-.6-.7m-7.4-3.5l-.7-.6m7.8-3.9l-.6-.6m15.8-2.1l-.7-.6m9.2-3.7l-.7-.6m-5.8-6.5l-.7-.6m13.2 1.7l-.7-.6m-30.8.8l-.7-.7m-3.3 4.7l-.7-.7m.4-22.6l-.7-.6m12.7 4.6l-.7-.6m2.3 7.2l-.6-.6m-6.5-15.4l-.7-.6m-6.7-2.6l-.6-.6M83 170.4l-.7-.7m14.2 5.2l-.7-.7m-.1-7.2l-.7-.6m11.7 3.8l-.7-.6m7.7-4.6l-.7-.6m-23.8-4.5l-.7-.7m-6.8-2.3l-.7-.7m-.3-6.1l-.6-.6m13.1 3.1l-.7-.6m15.7 3.6l-.7-.6m10.8 47.5l-.6-.6m1.8-12.3l-.7-.6m1.4-22l-.7-.6m1.5 8.6l-.7-.6m-47 44l.5-1.2m12.5-2.3l.5-1.2m25.6 2.9l.6-1.1m2.3-4.5l.5-1.1m-11.5-2.2l.5-1.1m-13-1.5l.5-1.1m-13.5-2.1l.5-1.2m11-3.1l.5-1.1m11-3.1l.5-1.2m-5.7-2.7l.5-1.1m13.2 13.3l.5-1.1m-.7-14.4l.5-1.1m-42.8 26l.5-1.1m-11.5-2.1l.5-1.2m5.5-4.8l.5-1.2m-8.5-3l.5-1.1m6.6-3.4l.6-1.1m14.6-1.6l.5-1.1m8-3.2l.5-1.1m-7-6l.5-1.1m12 2.2l.5-1.1m29.7-12.1l.5-1.1m.3 9.1l.5-1.1m-63 6.5l.5-1.2m-4.5 5.2l.5-1.2m-.8-22.1l.5-1.1m11.5 5.1l.5-1.1m1.1 7.7l.5-1.1m-7.6-14.9l.5-1.1m-7.9-2.1l.5-1.1m29.2 19l.5-1.2m13 5.7l.5-1.2m-1.3-6.7l.5-1.1m10.5 4.3l.5-1.1m6.5-4.1l.5-1.1m-25-4l.5-1.2m-8-1.8l.5-1.2m-1.5-5.6l.5-1.1m12 3.6l.5-1.1m14.5 4.1l.5-1.1m9.6 48l.6-1.1m.6-11.8l.5-1.1m-47.7 29.9l.7-.7m12.3-2.8l.7-.7m25.4 2.4l.7-.7m2.2-4.9l.7-.7m-11.7-2.6l.7-.6m-13.2-2l.7-.7m-13.7-2.5l.7-.7m10.8-3.6l.7-.7m10.8-3.5l.7-.7m-6-3.2l.7-.7m13.1 12.9l.7-.6m-1-14.9l.7-.6m-42.9 25.5l.7-.7m-11.7-2.5l.7-.7m5.3-5.3l.7-.7m-8.8-3.5l.7-.6m65.6-7.5l.7-.7m-59.8 4.3l.7-.6m14.4-2.1l.7-.7m7.8-3.6l.7-.6m-7.2-6.5l.7-.7m11.8 1.8l.7-.6m29.5-12.6l.7-.7m.1 8.7l.7-.7m-63.2 6.1l.7-.7m-4.7 4.7l.7-.7m-1-22.6l.7-.7m11.3 4.7l.7-.7m.9 7.3l.7-.6m-7.8-15.4l.7-.6m-8.1-2.6l.7-.7m29 18.6l.7-.7m12.8 5.2l.7-.7m-1.5-7.2l.7-.7m10.3 3.9l.7-.6m6.3-4.6l.7-.7m-25.2-4.4l.7-.7m-8.2-2.3l.7-.7m-1.6-6.1l.7-.7m11.7 3.2l.7-.7m14.3 3.7l.7-.7m9.5 47.6l.7-.7m-50.1 17h3.6m9.4-3.5h3.6m22.5 1.7h3.6m-.7-5.6h3.6m-14.6-3.3h3.6m-16.1-2.6h3.6m-16.6-3.2h3.6m7.9-4.3h3.6m7.9-4.2h3.6m-8.9-3.9h3.6m10.2 12.2h3.6m-3.9-15.5h3.6m-45.8 24.9h3.6m-14.6-3.2h3.6m2.4-6h3.6m-11.7-4.2h3.6m3.6-4.5h3.6m11.5-2.7h3.6m4.9-4.3h3.6m-10.1-7.1h3.6m8.9 1.1h3.6m-35.1.2h3.6m-7.6 4h3.6m-3.9-23.3h3.6m8.4 4h3.6m-2 6.6h3.7m-10.8-16h3.6m-11-3.2h3.7m26 17.9h3.6m9.9 4.5h3.6m-4.4-7.9h3.6m7.4 3.2h3.6m3.4-5.2h3.6m-28.1-5.1h3.6m-11.1-3h3.6m-4.5-6.8h3.6m8.8 2.5h3.6m11.4 3h3.6m6.6 46.9h3.6m-2.5-12.9h3.6m-2.9-22.6h3.6m-2.8 8h3.6m-64.2-23.3h4.4m1.5 4.8h4.3m21.3-1.9h8.7m-40.8 7.4h4.3m8.4 4h4.4m31-14.4h4.4m1.5 4.7h4.3m-10.8 5.5h4.3m-57 13.9h4.4m21.2-1.9h8.8m-28.2 11.4h4.4m31-14.4h4.4m1.5 4.8h4.4m-10.9 5.5h4.4m-32.5 11.4h4.3m1.5 4.7H77m21.3-1.9h8.7m-40.9 7.4h4.4m8.4 4h4.4m31-14.4h4.3m-67.3 21.7h4.3m1.5 4.7h4.4m21.3-1.9h8.7m7.3-3h4.3m1.5 4.8h4.4m-54.3-29.8h4.4m57-30.2h4.3m-4.5 60.7h4.4m-28.4-11h4.4m-23.5-21.5h6.5m40.7-15.8h4.4m-5 10.2h4.4m-3.4 11.6h4.4"/></g><g clip-path="url(#SVGID_10_)" fill="none" stroke="#03B8E2" stroke-width=".3"><path d="M45.8 167h6.9m-6.1 8h6.9m-5.5-3.6h4.4m-4 21.8h4.4"/></g></g><g clip-path="url(#SVGID_2_)"><defs><path id="SVGID_11_" d="M-19.7 77h72v72h-72z"/></defs><clipPath id="SVGID_12_"><use xlink:href="#SVGID_11_" overflow="visible"/></clipPath><g clip-path="url(#SVGID_12_)" fill="none" stroke="#03B8E2" stroke-width=".3"><path d="M9.8 150.1v-1.7m-.5 1.7l-.4-1.1m1.4 1.1l.5-1.1"/></g><g clip-path="url(#SVGID_12_)" fill="none" stroke="#03B8E2" stroke-width=".3"><path d="M50.8 125.7h6.9m-5.6-13.3H59m-7.2-23.3h6.9m-7.8-8.6h6.9m-6.5 61.9h4.3"/></g><g clip-path="url(#SVGID_12_)" fill="none" stroke="#03B8E2" stroke-width=".3"><path d="M-2.6 146.4h6.9m6.1-3.5h6.9m19.2 1.7h6.9m-4-5.6h6.9m-17.9-3.3h6.9m-19.4-2.6h6.9m-19.9-3.2h6.9m4.6-4.3h6.9m4.6-4.2h6.9m-12.2-3.9h6.9m6.9 12.2h6.9m-7.2-15.5H41m-49.1 24.9h6.9m-17.9-3.2h6.9m-.9-6h6.9m-15-4.2h6.9m.3-4.5h6.9m8.2-2.7H8m1.6-4.3h6.9m-13.4-7.1H10m5.6 1.1h6.9m-38.4.2H-9m-10.9 4h6.9m-7.2-23.3h6.9m5.1 4h6.9m-5.3 6.6H.3m-14-16h6.9m-14.3-3.2h6.9M8.6 98.4h6.9m6.6 4.5H29M21.3 95h6.9m4.1 3.2h6.9m.1-5.2h6.9m-31.4-5.1h6.9m-14.4-3h6.9m-7.8-6.8h6.9m5.5 2.5h6.9m8.1 3h6.9m3.3 46.9h6.9m-5.8-12.9H52M45.8 95h6.9m-6.1 8h6.9M.8 146.4v-1.8m13-1.7v-1.8m26.1 3.5v-1.7m2.9-3.9v-1.8m-11-1.5V134m-12.5-.9v-1.7m-13-1.5v-1.8m11.5-2.5v-1.7m11.5-2.5v-1.8m-5.2-2.1v-1.8m13.7 14V128m-.2-13.8v-1.7m-42.3 26.6v-1.7m-11-1.5v-1.8m6-4.2v-1.8m-8-2.4V124m7.1-2.8v-1.7m15.2-1v-1.8m8.5-2.5v-1.7m-6.5-5.4v-1.7m12.5 2.8v-1.7m31-3.5v-1.8m-62.5 7.2v-1.8m-4 5.8v-1.8m-.3-21.5v-1.7m12 5.7v-1.7m1.6 8.3V98m-7.1-14.3V82m-7.4-1.5v-1.8m29.7 19.7v-1.8m13.5 6.3v-1.8m-.8-6.1v-1.8m11 5v-1.7m7-3.5v-1.8m-24.5-3.3v-1.8m-7.5-1.2v-1.8m-1-5v-1.7m12.5 4.2v-1.7m15 4.7v-1.7m10.1 48.6v-1.8m1.2-11.1v-1.7m.7-20.9v-1.8m-49 53.2l-.4-1.2m13.4-2.3l-.4-1.2m26.5 2.9l-.4-1.1m3.3-4.5l-.4-1.1m-10.6-2.2l-.4-1.1m-12.1-1.5l-.4-1.1m-12.6-2.1l-.4-1.2m11.9-3.1l-.4-1.1m11.9-3.1l-.4-1.2m-4.8-2.7l-.5-1.1m14.2 13.3l-.4-1.1m.2-14.4l-.5-1.1m-41.8 26l-.4-1.1m-10.6-2.1l-.4-1.2m6.4-4.8l-.4-1.2m-7.6-3l-.5-1.1m7.6-3.4l-.4-1.1m15.6-1.6l-.5-1.1m9-3.2l-.5-1.1m-6-6l-.5-1.1m13 2.2l-.5-1.1m-31 1.3l-.5-1.2m-3.5 5.2l-.5-1.2m.2-22.1l-.5-1.1m12.5 5.1l-.5-1.1m2.1 7.7l-.5-1.1m-6.6-14.9l-.5-1.1m-6.9-2.1l-.5-1.1m30.2 19l-.5-1.2m14 5.7l-.5-1.2m-.3-6.7l-.5-1.1m11.5 4.3l-.5-1.1m7.5-4.1l-.5-1.1m-24-4l-.5-1.2m-7-1.8l-.5-1.2m-.5-5.6L8.9 77m12.9 3.6l-.5-1.1m15.5 4.1l-.5-1.1m10.6 48l-.4-1.1m1.6-11.8l-.5-1.1M48.8 95l-.5-1.1m1.3 9.1l-.5-1.1M-.3 146.4l-.6-.7m13.6-2.8l-.6-.7m26.7 2.4l-.6-.6m3.5-5l-.6-.6m-10.4-2.7l-.6-.6m-11.9-2l-.6-.6m-12.4-2.6l-.6-.7m12.1-3.6l-.6-.6m12.1-3.6l-.6-.7m-4.6-3.2l-.7-.6m14.4 12.8l-.6-.6m.4-14.9l-.7-.6m-41.6 25.5l-.6-.6m-10.4-2.6l-.6-.7m6.6-5.3l-.6-.7m-7.4-3.5l-.7-.6m7.8-3.9l-.6-.6m15.8-2.1l-.7-.6m9.2-3.7l-.7-.6m-5.8-6.5l-.7-.6m13.2 1.7l-.7-.6m-30.8.8l-.7-.7m-3.3 4.7l-.7-.7m.4-22.6l-.7-.6m12.7 4.6l-.7-.6m2.3 7.2l-.6-.6m-6.5-15.4l-.7-.6m-6.7-2.6l-.6-.6M11 98.4l-.7-.7m14.2 5.2l-.7-.7m-.1-7.2l-.7-.6m11.7 3.8l-.7-.6m7.7-4.6l-.7-.6m-23.8-4.5l-.7-.7m-6.8-2.3l-.7-.7m-.3-6.1l-.6-.6m13.1 3.1l-.7-.6m15.7 3.6l-.7-.6m10.8 47.5l-.6-.6m1.8-12.3l-.7-.6m1.4-22l-.7-.6M49 103l-.7-.6m-47 44l.5-1.2m12.5-2.3l.5-1.2m25.6 2.9l.6-1.1m2.3-4.5l.5-1.1m-11.5-2.2l.5-1.1m-13-1.5l.5-1.1m-13.5-2.1l.5-1.2m11-3.1l.5-1.1m11-3.1l.5-1.2m-5.7-2.7l.5-1.1m13.2 13.3l.5-1.1m-.7-14.4l.5-1.1m-42.8 26l.5-1.1m-11.5-2.1l.5-1.2m5.5-4.8l.5-1.2m-8.5-3l.5-1.1m6.6-3.4l.6-1.1m14.6-1.6l.5-1.1m8-3.2l.5-1.1m-7-6l.5-1.1m12 2.2l.5-1.1M49.8 95l.5-1.1m.3 9.1l.5-1.1m-63 6.5l.5-1.2m-4.5 5.2l.5-1.2m-.8-22.1l.5-1.1m11.5 5.1l.5-1.1m1.1 7.7l.5-1.1m-7.6-14.9l.5-1.1m-7.9-2.1l.5-1.1m29.2 19l.5-1.2m13 5.7l.5-1.2M25.3 95l.5-1.1m10.5 4.3l.5-1.1m6.5-4.1l.5-1.1m-25-4l.5-1.2m-8-1.8l.5-1.2m-1.5-5.6l.5-1.1m12 3.6l.5-1.1m14.5 4.1l.5-1.1m9.6 48l.6-1.1m.6-11.8l.5-1.1M1.9 146.4l.7-.7m12.3-2.8l.7-.7m25.4 2.4l.7-.7m2.2-4.9l.7-.7m-11.7-2.6l.7-.6m-13.2-2l.7-.7m-13.7-2.5l.7-.7m10.8-3.6l.7-.7m10.8-3.5l.7-.7m-6-3.2l.7-.7m13.1 12.9l.7-.6m-1-14.9l.7-.6m-42.9 25.5l.7-.7m-11.7-2.5l.7-.7m5.3-5.3l.7-.7m-8.8-3.5l.7-.6m65.6-7.5l.7-.7m-59.8 4.3l.7-.6m14.4-2.1l.7-.7m7.8-3.6l.7-.6m-7.2-6.5l.7-.7m11.8 1.8l.7-.6M50.3 95l.7-.7m.1 8.7l.7-.7m-63.2 6.1l.7-.7m-4.7 4.7l.7-.7m-1-22.6l.7-.7m11.3 4.7l.7-.7m.9 7.3l.7-.6m-7.8-15.4l.7-.6m-8.1-2.6l.7-.7m29 18.6l.7-.7m12.8 5.2l.7-.7M25.8 95l.7-.7m10.3 3.9l.7-.6m6.3-4.6l.7-.7m-25.2-4.4l.7-.7m-8.2-2.3l.7-.7m-1.6-6.1l.7-.7m11.7 3.2l.7-.7m14.3 3.7l.7-.7m9.5 47.6l.7-.7m-50.1 17h3.6m9.4-3.5h3.6m22.5 1.7h3.6m-.7-5.6h3.6m-14.6-3.3h3.6m-16.1-2.6h3.6m-16.6-3.2h3.6m7.9-4.3h3.6m7.9-4.2h3.6m-8.9-3.9h3.6m10.2 12.2h3.6m-3.9-15.5h3.6m-45.8 24.9h3.6m-14.6-3.2h3.6m2.4-6h3.6m-11.7-4.2h3.6m3.6-4.5h3.6m11.5-2.7h3.6m4.9-4.3h3.6m-10.1-7.1h3.6m8.9 1.1h3.6m-35.1.2h3.6m-7.6 4h3.6m-3.9-23.3h3.6m8.4 4h3.6m-2 6.6h3.7m-10.8-16h3.6m-11-3.2h3.7m26 17.9h3.6m9.9 4.5h3.6M23 95.4h3.6m7.4 3.2h3.6m3.4-5.2h3.6m-28.1-5.1h3.6M9 85.3h3.6m-4.5-6.8h3.6m8.8 2.5h3.6m11.4 3h3.6m6.6 46.9h3.6M46.8 118h3.6m-2.9-22.6h3.6m-2.8 8h3.6m-64.2-23.3h4.4m1.5 4.8h4.3M19.2 83h8.7m-40.8 7.4h4.3m8.4 4h4.4m31-14.4h4.4m1.5 4.7h4.3m-10.8 5.5h4.3m-57 13.9h4.4m21.2-1.9h8.8m-28.2 11.4h4.4m31-14.4h4.4m1.5 4.8h4.4m-10.9 5.5h4.4m-32.5 11.4h4.3m1.5 4.7H5m21.3-1.9H35m-40.9 7.4h4.4m8.4 4h4.4m31-14.4h4.3m-67.3 21.7h4.3m1.5 4.7h4.4m21.3-1.9h8.7m7.3-3h4.3m1.5 4.8H37m-54.3-29.8h4.4m57-30.2h4.3m-4.5 60.7h4.4m-28.4-11h4.4M.8 115.2h6.5M48 99.4h4.4m-5 10.2h4.4m-3.4 11.6h4.4"/></g><g clip-path="url(#SVGID_12_)" fill="none" stroke="#03B8E2" stroke-width=".3"><path d="M-26.2 95h6.9m-6.1 8h6.9m-5.5-3.6h4.4m-4 21.8h4.4"/></g></g><g clip-path="url(#SVGID_2_)"><defs><path id="SVGID_13_" d="M-19.7 149h72v72h-72z"/></defs><clipPath id="SVGID_14_"><use xlink:href="#SVGID_13_" overflow="visible"/></clipPath><g clip-path="url(#SVGID_14_)" fill="none" stroke="#03B8E2" stroke-width=".3"><path d="M9.8 222.1v-1.7m-.5 1.7l-.4-1.1m1.4 1.1l.5-1.1"/></g><g clip-path="url(#SVGID_14_)" fill="none" stroke="#03B8E2" stroke-width=".3"><path d="M50.8 197.7h6.9m-5.6-13.3H59m-7.2-23.3h6.9m-7.8-8.6h6.9m-6.5 61.9h4.3"/></g><g clip-path="url(#SVGID_14_)" fill="none" stroke="#03B8E2" stroke-width=".3"><path d="M-2.6 218.4h6.9m6.1-3.5h6.9m19.2 1.7h6.9m-4-5.6h6.9m-17.9-3.3h6.9m-19.4-2.6h6.9m-19.9-3.2h6.9m4.6-4.3h6.9m4.6-4.2h6.9m-12.2-3.9h6.9m6.9 12.2h6.9m-7.2-15.5H41m-49.1 24.9h6.9m-17.9-3.2h6.9m-.9-6h6.9m-15-4.2h6.9m.3-4.5h6.9m8.2-2.7H8m1.6-4.3h6.9m-13.4-7.1H10m5.6 1.1h6.9m-38.4.2H-9m-10.9 4h6.9m-7.2-23.3h6.9m5.1 4h6.9m-5.3 6.6H.3m-14-16h6.9m-14.3-3.2h6.9m22.8 17.9h6.9m6.6 4.5H29m-7.7-7.9h6.9m4.1 3.2h6.9m.1-5.2h6.9m-31.4-5.1h6.9m-14.4-3h6.9m-7.8-6.8h6.9m5.5 2.5h6.9m8.1 3h6.9m3.3 46.9h6.9m-5.8-12.9H52M45.8 167h6.9m-6.1 8h6.9M.8 218.4v-1.8m13-1.7v-1.8m26.1 3.5v-1.7m2.9-3.9v-1.8m-11-1.5V206m-12.5-.9v-1.7m-13-1.5v-1.8m11.5-2.5v-1.7m11.5-2.5v-1.8m-5.2-2.1v-1.8m13.7 14V200m-.2-13.8v-1.7m-42.3 26.6v-1.7m-11-1.5v-1.8m6-4.2v-1.8m-8-2.4V196m7.1-2.8v-1.7m15.2-1v-1.8m8.5-2.5v-1.7m-6.5-5.4v-1.7m12.5 2.8v-1.7m31-3.5v-1.8m-62.5 7.2v-1.8m-4 5.8v-1.8m-.3-21.5v-1.7m12 5.7v-1.7m1.6 8.3V170m-7.1-14.3V154m-7.4-1.5v-1.8m29.7 19.7v-1.8m13.5 6.3v-1.8m-.8-6.1v-1.8m11 5v-1.7m7-3.5v-1.8m-24.5-3.3v-1.8m-7.5-1.2v-1.8m-1-5v-1.7m12.5 4.2v-1.7m15 4.7v-1.7m10.1 48.6v-1.8m1.2-11.1v-1.7m.7-20.9v-1.8m-49 53.2l-.4-1.2m13.4-2.3l-.4-1.2m26.5 2.9l-.4-1.1m3.3-4.5l-.4-1.1m-10.6-2.2l-.4-1.1m-12.1-1.5l-.4-1.1m-12.6-2.1l-.4-1.2m11.9-3.1l-.4-1.1m11.9-3.1l-.4-1.2m-4.8-2.7l-.5-1.1m14.2 13.3l-.4-1.1m.2-14.4l-.5-1.1m-41.8 26l-.4-1.1m-10.6-2.1l-.4-1.2m6.4-4.8l-.4-1.2m-7.6-3l-.5-1.1m7.6-3.4l-.4-1.1m15.6-1.6l-.5-1.1m9-3.2l-.5-1.1m-6-6l-.5-1.1m13 2.2l-.5-1.1m-31 1.3l-.5-1.2m-3.5 5.2l-.5-1.2m.2-22.1l-.5-1.1m12.5 5.1l-.5-1.1m2.1 7.7l-.5-1.1m-6.6-14.9l-.5-1.1m-6.9-2.1l-.5-1.1m30.2 19l-.5-1.2m14 5.7l-.5-1.2m-.3-6.7l-.5-1.1m11.5 4.3l-.5-1.1m7.5-4.1l-.5-1.1m-24-4l-.5-1.2m-7-1.8l-.5-1.2m-.5-5.6l-.4-1.1m12.9 3.6l-.5-1.1m15.5 4.1l-.5-1.1m10.6 48l-.4-1.1m1.6-11.8l-.5-1.1m1.2-21.5l-.5-1.1m1.3 9.1l-.5-1.1M-.3 218.4l-.6-.7m13.6-2.8l-.6-.7m26.7 2.4l-.6-.6m3.5-5l-.6-.6m-10.4-2.7l-.6-.6m-11.9-2l-.6-.6m-12.4-2.6l-.6-.7m12.1-3.6l-.6-.6m12.1-3.6l-.6-.7m-4.6-3.2l-.7-.6m14.4 12.8l-.6-.6m.4-14.9l-.7-.6m-41.6 25.5l-.6-.6m-10.4-2.6l-.6-.7m6.6-5.3l-.6-.7m-7.4-3.5l-.7-.6m7.8-3.9l-.6-.6m15.8-2.1l-.7-.6m9.2-3.7l-.7-.6m-5.8-6.5l-.7-.6m13.2 1.7l-.7-.6m-30.8.8l-.7-.7m-3.3 4.7l-.7-.7m.4-22.6l-.7-.6m12.7 4.6l-.7-.6m2.3 7.2l-.6-.6m-6.5-15.4l-.7-.6m-6.7-2.6l-.6-.6M11 170.4l-.7-.7m14.2 5.2l-.7-.7m-.1-7.2l-.7-.6m11.7 3.8l-.7-.6m7.7-4.6l-.7-.6m-23.8-4.5l-.7-.7m-6.8-2.3l-.7-.7m-.3-6.1l-.6-.6m13.1 3.1l-.7-.6m15.7 3.6l-.7-.6m10.8 47.5l-.6-.6m1.8-12.3l-.7-.6m1.4-22l-.7-.6M49 175l-.7-.6m-47 44l.5-1.2m12.5-2.3l.5-1.2m25.6 2.9l.6-1.1m2.3-4.5l.5-1.1m-11.5-2.2l.5-1.1m-13-1.5l.5-1.1m-13.5-2.1l.5-1.2m11-3.1l.5-1.1m11-3.1l.5-1.2m-5.7-2.7l.5-1.1m13.2 13.3l.5-1.1m-.7-14.4l.5-1.1m-42.8 26l.5-1.1m-11.5-2.1l.5-1.2m5.5-4.8l.5-1.2m-8.5-3l.5-1.1m6.6-3.4l.6-1.1m14.6-1.6l.5-1.1m8-3.2l.5-1.1m-7-6l.5-1.1m12 2.2l.5-1.1M49.8 167l.5-1.1m.3 9.1l.5-1.1m-63 6.5l.5-1.2m-4.5 5.2l.5-1.2m-.8-22.1l.5-1.1m11.5 5.1l.5-1.1m1.1 7.7l.5-1.1m-7.6-14.9l.5-1.1m-7.9-2.1l.5-1.1m29.2 19l.5-1.2m13 5.7l.5-1.2m-1.3-6.7l.5-1.1m10.5 4.3l.5-1.1m6.5-4.1l.5-1.1m-25-4l.5-1.2m-8-1.8l.5-1.2m-1.5-5.6l.5-1.1m12 3.6l.5-1.1m14.5 4.1l.5-1.1m9.6 48l.6-1.1m.6-11.8l.5-1.1M1.9 218.4l.7-.7m12.3-2.8l.7-.7m25.4 2.4l.7-.7m2.2-4.9l.7-.7m-11.7-2.6l.7-.6m-13.2-2l.7-.7m-13.7-2.5l.7-.7m10.8-3.6l.7-.7m10.8-3.5l.7-.7m-6-3.2l.7-.7m13.1 12.9l.7-.6m-1-14.9l.7-.6m-42.9 25.5l.7-.7m-11.7-2.5l.7-.7m5.3-5.3l.7-.7m-8.8-3.5l.7-.6m65.6-7.5l.7-.7m-59.8 4.3l.7-.6m14.4-2.1l.7-.7m7.8-3.6l.7-.6m-7.2-6.5l.7-.7m11.8 1.8l.7-.6M50.3 167l.7-.7m.1 8.7l.7-.7m-63.2 6.1l.7-.7m-4.7 4.7l.7-.7m-1-22.6l.7-.7m11.3 4.7l.7-.7m.9 7.3l.7-.6m-7.8-15.4l.7-.6m-8.1-2.6l.7-.7m29 18.6l.7-.7m12.8 5.2l.7-.7m-1.5-7.2l.7-.7m10.3 3.9l.7-.6m6.3-4.6l.7-.7m-25.2-4.4l.7-.7m-8.2-2.3l.7-.7m-1.6-6.1l.7-.7m11.7 3.2l.7-.7m14.3 3.7l.7-.7m9.5 47.6l.7-.7m-50.1 17h3.6m9.4-3.5h3.6m22.5 1.7h3.6m-.7-5.6h3.6m-14.6-3.3h3.6m-16.1-2.6h3.6m-16.6-3.2h3.6m7.9-4.3h3.6m7.9-4.2h3.6m-8.9-3.9h3.6m10.2 12.2h3.6m-3.9-15.5h3.6m-45.8 24.9h3.6m-14.6-3.2h3.6m2.4-6h3.6m-11.7-4.2h3.6m3.6-4.5h3.6m11.5-2.7h3.6m4.9-4.3h3.6m-10.1-7.1h3.6m8.9 1.1h3.6m-35.1.2h3.6m-7.6 4h3.6m-3.9-23.3h3.6m8.4 4h3.6m-2 6.6h3.7m-10.8-16h3.6m-11-3.2h3.7m26 17.9h3.6m9.9 4.5h3.6m-4.4-7.9h3.6m7.4 3.2h3.6m3.4-5.2h3.6m-28.1-5.1h3.6m-11.1-3h3.6m-4.5-6.8h3.6m8.8 2.5h3.6m11.4 3h3.6m6.6 46.9h3.6M46.8 190h3.6m-2.9-22.6h3.6m-2.8 8h3.6m-64.2-23.3h4.4m1.5 4.8h4.3m21.3-1.9h8.7m-40.8 7.4h4.3m8.4 4h4.4m31-14.4h4.4m1.5 4.7h4.3m-10.8 5.5h4.3m-57 13.9h4.4m21.2-1.9h8.8m-28.2 11.4h4.4m31-14.4h4.4m1.5 4.8h4.4m-10.9 5.5h4.4m-32.5 11.4h4.3m1.5 4.7H5m21.3-1.9H35m-40.9 7.4h4.4m8.4 4h4.4m31-14.4h4.3m-67.3 21.7h4.3m1.5 4.7h4.4m21.3-1.9h8.7m7.3-3h4.3m1.5 4.8H37m-54.3-29.8h4.4m57-30.2h4.3m-4.5 60.7h4.4m-28.4-11h4.4M.8 187.2h6.5M48 171.4h4.4m-5 10.2h4.4m-3.4 11.6h4.4"/></g><g clip-path="url(#SVGID_14_)" fill="none" stroke="#03B8E2" stroke-width=".3"><path d="M-26.2 167h6.9m-6.1 8h6.9m-5.5-3.6h4.4m-4 21.8h4.4"/></g></g><g fill="#03B8E2"><path d="M2.3 12.8h.3L48.6 1c.5-.1.9-.7.7-1.2-.1-.5-.7-.9-1.2-.7l-46 11.8c-.5.1-.9.7-.7 1.2.1.4.5.7.9.7zM1.1 30.9l52 31.5c.1 0 .2.1.3.1h.1l129-34c.3-.1.4-.3.4-.6-.1-.3-.3-.4-.6-.4L53.4 61.4 1.6 30.1c-.3-.2-.6-.1-.7.1s-.1.6.2.7zm.2-15.2h.1l56-14.2c.3-.1.4-.3.4-.6-.1-.3-.3-.4-.6-.4l-56 14.2c-.3.1-.4.3-.4.6.1.2.3.4.5.4zm42.5 85.1c.2.1.3.1.5.1s.3 0 .5-.1c.3-.2.5-.5.5-.9V72.4c0-.3-.2-.7-.5-.9l-17-10.4c-.3-.2-.7-.2-1 0-.3.2-.5.5-.5.9v28c0 .4.2.7.5.9l17 9.9zM28.3 73.2l3.7 2.4c-.1.1-.1.2-.1.3v15.5l-3.6-2.1V73.2zm4.6 3l5.9 3.8v15.6l-5.9-3.5V76.2zm6.9 20V80.7l3.5 2.3v15.3l-3.5-2.1zm3.5-23.3v8.8l-15-9.7v-8.3l15 9.2zM.8 75.8l17 10c.2.1.3.1.5.1s.3 0 .5-.1c.3-.2.5-.5.5-.9V57.4c0-.3-.2-.7-.5-.9l-17-10.4c-.3-.2-.7-.2-1 0-.3.2-.5.5-.5.9v28c0 .3.2.7.5.8zm1.5-17.6L6 60.6c0 .1-.1.2-.1.4v15.5l-3.6-2.1V58.2zm4.6 3l5.9 3.8v15.6l-5.9-3.5V61.2zm6.9 20V65.7l3.5 2.3v15.3l-3.5-2.1zm3.5-23.3v8.8L2.3 57v-8.3l15 9.2zm65 11.1c0-.3-.1-.6-.4-.8-.2-.2-.6-.3-.9-.2l-19 5.4c-.4.1-.7.5-.7 1V102c0 .3.1.6.4.8.2.1.4.2.6.2h.3l19-5c.4-.1.7-.5.7-1V69zm-2 1.3v8.4l-17 4.5v-8.1l17-4.8zm-5.6 10.9v16.4l-5.9 1.6V82.8l5.9-1.6zm-11.4 3l4.5-1.2v16.4l-4.5 1.2V84.2zm12.4 13.2V81l4.6-1.2v16.4l-4.6 1.2zM81 110l-19 5.4c-.4.1-.7.5-.7 1V144c0 .3.1.6.4.8.2.1.4.2.6.2h.3l19-5c.4-.1.7-.5.7-1v-28c0-.3-.1-.6-.4-.8-.2-.2-.6-.3-.9-.2zm-.7 2.3v8.4l-17 4.5v-8.1l17-4.8zm-5.6 10.9v16.4l-5.9 1.6v-16.4l5.9-1.6zm-11.4 3l4.5-1.2v16.4l-4.5 1.2v-16.4zm12.4 13.2V123l4.6-1.2v16.4l-4.6 1.2zM109.3 62c0-.3-.1-.6-.4-.8-.3-.2-.6-.2-.9-.2l-19 5.4c-.4.1-.7.5-.7 1V95c0 .3.1.6.4.8.2.1.4.2.6.2h.3l19-5c.4-.1.7-.5.7-1V62zm-2 1.3v8.4l-17 4.5v-8.1l17-4.8zm-5.6 10.9v16.4l-5.9 1.6V75.8l5.9-1.6zm-11.4 3l4.5-1.2v16.4l-4.5 1.2V77.2zm12.4 13.2V74l4.6-1.2v16.4l-4.6 1.2zM108 103l-19 5.4c-.4.1-.7.5-.7 1V137c0 .3.1.6.4.8.2.1.4.2.6.2h.3l19-5c.4-.1.7-.5.7-1v-28c0-.3-.1-.6-.4-.8-.2-.2-.6-.3-.9-.2zm-.7 2.3v8.4l-17 4.5v-8.1l17-4.8zm-5.6 10.9v16.4l-5.9 1.6v-16.4l5.9-1.6zm-11.4 3l4.5-1.2v16.4l-4.5 1.2v-16.4zm12.4 13.2V116l4.6-1.2v16.4l-4.6 1.2zm-76.4-1.5c0 .3.2.7.5.8l17 11.1c.2.1.4.2.5.2.2 0 .3 0 .5-.1.3-.2.5-.5.5-.9v-27.6c0-.3-.2-.7-.5-.9l-17-10.4c-.3-.2-.7-.2-1 0-.3.2-.5.5-.5.9v26.9zm2-15.7l3.7 2.4c-.1.1-.1.2-.1.3v14.7l-3.6-2.4v-15zm10.5 6.8v15.2l-5.9-3.9v-15.1l5.9 3.8zm1 15.8v-15.2l3.5 2.3v15.2l-3.5-2.3zm3.5-22.9v8.8l-15-9.7v-8.3l15 9.2zM.8 116.7l17 11.1c.2.1.4.2.5.2.2 0 .3 0 .5-.1.3-.2.5-.5.5-.9V99.4c0-.3-.2-.7-.5-.9l-17-10.4c-.3-.2-.7-.2-1 0-.3.2-.5.5-.5.9v26.9c0 .3.2.6.5.8zm1.5-16.5l3.7 2.4c-.1.1-.1.2-.1.3v14.7l-3.6-2.4v-15zm10.5 6.8v15.2l-5.9-3.9v-15.1l5.9 3.8zm1 15.8v-15.2l3.5 2.3v15.2l-3.5-2.3zm3.5-22.9v8.8L2.3 99v-8.3l15 9.2z"/><path d="M176 160.5c-1-1.3-2.2-2.1-3.4-2.4L152 143.2l-.2-.2-6.4-4.6v-33.7l37.5 24c.5.3 1.1.2 1.4-.3.3-.5.2-1.1-.3-1.4l-37.1-23.8 23.8-6.4 11.2-2.6 1.1.5c.5.2 1.1 0 1.3-.4.2-.5 0-1.1-.4-1.3l-2-1c-.1-.1-.3-.1-.4-.1V67c0-.3-.1-.5-.3-.7l2.5-.8c.2-.1.3-.3.3-.5v-6c0-.2-.1-.3-.2-.4s-.3-.1-.4-.1l-66 19c-.2.1-.4.3-.4.5v6c0 .2.1.3.2.4.1.1.2.1.3.1h.2l1.9-.6V136c0 .3.2.6.4.8.2.1.4.2.6.2.1 0 .2 0 .3-.1l1.7-.6v4.9l-69 19.4V67.7l130.3-33.8c.5-.1.9-.7.7-1.2s-.7-.9-1.2-.7L52.5 65.9 1.8 35.3c-.5-.3-1.1-.1-1.4.3-.3.5-.1 1.1.3 1.4l50.5 30.6v92.6l-49.4-33c-.5-.3-1.1-.2-1.4.3-.3.5-.2 1.1.3 1.4l51 34s.1 0 .2.1h.7l64.9-18.2 23.7 16.1-69 20.7c-.3.1-.4.4-.3.6.1.2.3.4.5.4h.1l69.4-20.8v2l-58.6 17.9c-.3.1-.4.4-.3.6.1.2.3.4.5.4h.1l59-18c.2-.1.4-.3.4-.5V161c0-.1-.1-.1-.2-.2l-23.9-16.2 4.5-1.3 9.6 6.7s.1.1.2.1c0 0 .1 0 .1.1h.6l17.2-4.8v5.8c0 .2.1.3.2.4l.7.5c.1-.1.2-.2.4-.2-2.3 1.6-3.4 6.1-2.5 11.2 1 5.6 4.1 9.7 7.2 9.7.2 0 .4 0 .6-.1.5-.1.9-.3 1.4-.6.3-.1.7-.2 1.1-.3.9-.2 1.8-.5 2.4-.7.1 0 .2-.1.3-.1 0 .2.1.4.1.6 1 5.6 4.1 9.7 7.2 9.7.2 0 .4 0 .6-.1.5-.1 1-.3 1.4-.6.3-.1.7-.2 1.1-.3.9-.2 1.8-.5 2.4-.7 2.2-.9 3.6-3.5 3.9-6.8l3.8 2.8c.1.1.2.1.3.1.2 0 .3-.1.4-.2.2-.2.1-.5-.1-.7l-4.3-3.2c0-1.2-.1-2.4-.3-3.7-.2-1.1-.5-2.2-.8-3.2l4.6 3.3c.2.1.4.2.6.2.3 0 .6-.1.8-.4.3-.4.2-1.1-.2-1.4l-8.4-5.9zm-10-.9c0-.1 0-.3-.1-.4-.3-1.6-.7-3.1-1.3-4.3l5 3.6c-1.2.2-2.7.7-3.6 1.1zm-17.4-16.3l-4.8 1.1v-2l2.6-.6 2.2 1.5zm-3.3-2.4l-2.2.5c-.2.1-.4.3-.4.5v3c0 .1 0 .2.1.3l-8.6 2.4v-4.9l9.8-2.7 1.3.9zm-5.5-29.6v8.8l-9-5.4v-8.8l9 5.4zm4.3-9.3c-.1 0-.1 0 0 0-.1 0-.2.1-.2.1s-.1 0-.1.1c0 0-.1 0-.1.1-.1.1-.2.2-.2.3 0 .1-.1.2-.1.3v6.7h-.2l-2.8.9-8.8-5.3 15.7-4.6.8.4-4 1zm-3.3 9.4l2.5-.8v9.2l-2.5.6v-9zm2.5 26.8l-9.8 2.7-7.8-5.5 17.6-4.4v7.2zm34.5-51.4l-2-6c-.1-.3-.4-.4-.6-.3-.3.1-.4.4-.3.6l1.9 5.6-7.9-5V71.3l2.1-.6c-.1.1-.2.3-.1.5l2 6c.1.2.3.3.5.3h.2c.3-.1.4-.4.3-.6l-2-6c-.1-.2-.2-.3-.3-.3l7.9-2.2v20.1l-1.7-1.1v-.6zm-56.5 8.4l15.1-4.7c.2-.1.4-.3.4-.5v-9.7l1-.3v11.6l-16.5 4.9v-1.3zm14.5-7.9l-10-3.8 10-2.8v6.6zm0 1v1.3l-1 .3c0-.2-.1-.3-.3-.4l-12.8-4.9 2.5-.7 11.6 4.4zm-14.5-2.8l12.4 4.8-12.4 3.9v-8.7zm-3.5-7.1l65-18.7v5l-2.6.9-60 17-2.3.8v-5zm3.5 19.1h.1l17-5c.2-.1.4-.3.4-.5V79.8l29-8.2V82c0 .2.1.3.2.4l11 7c.1.1.2.1.3.1v3l-29.8 8.1-2-1c-.1-.1-.2-.1-.4 0l-17 5h-.1l-.1.1s-.1 0-.1.1c0 0 0 .1-.1.1V115c0 .2.1.3.2.4l10 6c.1 0 .2.1.3.1h.1l2.9-.7v8.2h-.2l-20 5-1.7.6V97.5zm3 44v-4.6l6 4.2 2 1.4v4.6l-8-5.6zm27.5 9.2v-5.1l5.7 4.1c-1.4.3-3.6 1-4.6 1.4-.1.1-.2.1-.3.2l-.8-.6zm-.2 11.8c-.9-5.2.4-9.1 2.3-9.4h.3c.8 0 1.8.7 2.7 1.9 1.2 1.5 2 3.7 2.5 6.2.9 5.2-.4 9.1-2.3 9.4-1.8.2-4.5-3-5.5-8.1zm9.9 6.5c-.2.1-.5.2-.7.3.9-2.2 1.2-5.3.6-8.6-.5-2.7-1.5-5.2-2.9-7-.5-.7-1.1-1.3-1.7-1.7.7-.2 1.4-.4 1.8-.4 1.8-.3 4.5 2.9 5.5 8 .1.5.2 1 .2 1.5-1.3 1.6-2 4.3-1.9 7.4-.3.2-.6.4-.9.5zm3.1 2c-.9-5.2.5-9.1 2.3-9.4h.3c.8 0 1.8.7 2.7 1.9 1.2 1.5 2 3.7 2.5 6.2.4 2.4.4 4.8-.1 6.7-.5 1.6-1.2 2.6-2.1 2.8-1.9.2-4.6-3-5.6-8.2zm9.9 6.6c-.2.1-.5.2-.7.2.1-.3.2-.6.4-1 .6-2.2.7-4.8.2-7.6-.5-2.7-1.5-5.2-2.9-7-.5-.7-1.1-1.3-1.7-1.7.7-.2 1.4-.4 1.8-.4 1.8-.3 4.5 2.9 5.5 8 .9 5.1-.7 8.7-2.6 9.5zM11.8 31.1c.1.2.3.4.5.4h.1l116-31c.3-.1.4-.3.4-.6-.1-.3-.3-.4-.6-.4l-116 31c-.3.1-.4.4-.4.6z"/><path d="M35.8 46.1c.1.2.3.4.5.4h.1l147-41c.3-.1.4-.3.3-.6-.1-.3-.3-.4-.6-.3l-147 41c-.2 0-.3.3-.3.5zM137 58l-11 3c-.4.1-.7.5-.7 1v6c0 .3.1.6.4.8.2.1.4.2.6.2h.3l11-3c.4-.1.7-.5.7-1v-6c0-.3-.1-.6-.4-.8-.2-.2-.6-.2-.9-.2zm-.7 6.2l-9 2.5v-3.9l9-2.5v3.9zM155 53l-11 3c-.4.1-.7.5-.7 1v6c0 .3.1.6.4.8.2.1.4.2.6.2h.3l11-3c.4-.1.7-.5.7-1v-6c0-.3-.1-.6-.4-.8-.2-.2-.6-.2-.9-.2zm-.7 6.2l-9 2.5v-3.9l9-2.5v3.9zM173 48l-11 3c-.4.1-.7.5-.7 1v6c0 .3.1.6.4.8.2.1.4.2.6.2h.3l11-3c.4-.1.7-.5.7-1v-6c0-.3-.1-.6-.4-.8-.2-.2-.6-.2-.9-.2zm-.7 6.2l-9 2.5v-3.9l9-2.5v3.9zm6.4 21.5c-.1-.2-.5-.3-.7-.2l-8 5c-.2.1-.3.5-.2.7.1.2.3.2.4.2.1 0 .2 0 .3-.1l8-5c.3 0 .4-.3.2-.6zm-55.4 55.8h.1l19-5c.3-.1.4-.3.4-.6-.1-.3-.3-.4-.6-.4l-19 5c-.3.1-.4.3-.4.6.1.3.3.4.5.4zm34.2 29.9c0-.3-.1-.5-.2-.8 0-.1-.1-.2-.1-.2-.1-.2-.1-.3-.2-.5 0-.1-.1-.2-.1-.3-.1-.1-.1-.3-.2-.4 0-.1-.1-.2-.1-.2-.1-.1-.1-.2-.2-.3l-.2-.2c-.1-.1-.1-.2-.2-.2l-.2-.2-.2-.2c-.1 0-.1-.1-.2-.1s-.2-.1-.2-.1h-.5c-.7.1-1.2 1-1.4 2.1 0 .2-.1.5-.1.7v.8c0 .3.1.5.1.8.1.3.1.5.2.8 0 .1.1.2.1.2.1.2.1.3.2.5 0 .1.1.2.1.3.1.1.1.3.2.4 0 .1.1.2.1.2.1.1.1.2.2.3l.2.2c.1.1.1.2.2.2l.2.2.2.2c.1 0 .1.1.2.1s.2.1.2.1h.5c.3-.1.5-.2.7-.5.4-.5.7-1.4.7-2.4.2-.4.1-.9 0-1.5zm13 8.5c0-.3-.1-.5-.2-.8 0-.1-.1-.2-.1-.2-.1-.2-.1-.3-.2-.5 0-.1-.1-.2-.1-.3-.1-.1-.1-.3-.2-.4 0-.1-.1-.2-.1-.2-.1-.1-.1-.2-.2-.3l-.2-.2c-.1-.1-.1-.2-.2-.2l-.2-.2-.2-.2c-.1 0-.1-.1-.2-.1s-.2-.1-.2-.1h-.5c-.7.1-1.2 1-1.4 2.1 0 .2-.1.5-.1.7v.8c0 .3.1.5.1.8.1.3.1.5.2.8 0 .1.1.2.1.2.1.2.1.3.2.5 0 .1.1.2.1.3.1.1.1.3.2.4 0 .1.1.2.1.2.1.1.1.2.2.3l.2.2c.1.1.1.2.2.2l.2.2.2.2c.1 0 .1.1.2.1s.2.1.2.1h.5c.3-.1.5-.2.7-.5.4-.5.7-1.4.7-2.4.2-.4.2-.9 0-1.5.1 0 .1 0 0 0zM1.6 161.6c-.2-.2-.5-.1-.7.1-.2.2-.1.5.1.7l26 20c.1.1.2.1.3.1.1 0 .3-.1.4-.2.2-.2.1-.5-.1-.7l-26-20zm0 3c-.2-.2-.5-.1-.7.1-.2.2-.1.5.1.7l22 17c.1.1.2.1.3.1.1 0 .3-.1.4-.2.2-.2.1-.5-.1-.7l-22-17z"/></g></svg>