<svg version="1.1" id="Layer_1" xmlns="http://www.w3.org/2000/svg" xmlns:xlink="http://www.w3.org/1999/xlink" x="0" y="0" viewBox="0 0 184 184" xml:space="preserve"><g fill="#03B8E2"><path d="M176.1 120.3l-.8-.9c-4.4-5.1-19.6-15-22.6-16.9V71.7c-.1-.3-8.5-25.7-27.1-42.4C106.4 11.9 91 10 85.3 10c-6 0-16.6 2.7-18 3h-5.1c-.4.1-9.4 3.1-13.2 6.2l-9.7 7.9-3.8.9-.3.1c-.3.2-7 4.3-10.3 12.5-2.9 7.3-12.2 29-13.7 32.5l-3 .6C7 74 6 75 5.9 76.3 3 78.6 0 82.4 0 88c0 7.8 2.2 22.3 17.3 32.8 3 2.1 62.8 42.8 68.5 46 6.4 3.6 15.3 4.9 24.2 4.9 12.1 0 24.3-2.3 30.1-3.8 2.4-.6 24.3-6.6 38.1-20.3 11.7-11.4 2.8-21.8-2.1-27.3zm-21.9-14.1l-.1 1.5c-.1-.1-.1-.1-.2-.1l-2.6-.9v-2.8c.2.1 1 .7 2.3 1.5l.6.8zm-46.6 33.1v-2l-1-51 43.7-12.7v51l-42.7 14.7zm43.7-31.6l2.3.8c.2.1.3 0 .5-.1l-.8 9.1h-2v-9.8zM62.7 15H66c0 .3.2.5.5.5 1.7 0 16.6 0 28.5 6.9 23.8 14 31.5 29.8 36.3 44.8.3.9.2 1.8-.2 2.7-.4.8-1.2 1.4-2.1 1.7l-2.3.7c-1.8.5-3.7-.5-4.3-2.3-4.7-15.3-12.4-31.4-36.8-46.2-8.5-5.1-19.4-7.1-27.1-7.3 2-.8 3.7-1.3 4.2-1.5zm-12.5 5.8c1.4-1.2 3.8-2.3 6.1-3.3.1 0 .1.1.2.1 1.7 0 16.6 0 28.5 7.2 24.1 14.6 31.7 30.6 36.3 45.6.6 1.9 2.4 3.2 4.3 3.2.4 0 .8-.1 1.3-.2l2.3-.7c1.2-.3 2.1-1.1 2.7-2.2.6-1.1.7-2.3.3-3.5-4.8-15.2-12.6-31.3-36.7-45.4-8.1-4.7-18.5-6.7-26.1-7 3.4-.8 11.3-2.6 15.9-2.6 5.5 0 20.2 1.8 39 18.7C141.7 46.4 150 70 150.7 72.1v.4h-.1l-44.2 12.8c-.8-4.1-6.6-30.2-34.8-49.8-13.4-9.4-24.1-9.2-30.8-7.3l9.4-7.4zm-14.1 9.1l1.1-.3c-.9.4-1.7.8-2.5 1.3.7-.5 1.2-.8 1.4-1zm-9.4 11.5c.2-.4.3-.8.5-1.2 0-.1.1-.1.1-.2.3-.7.7-1.3 1.1-2 2.2-3.3 6.5-6.9 12.4-8.6 6.5-1.9 17-2.3 30.4 7 30.1 21 34.4 49.4 34.4 49.6l1 53.5h-6l-.1-5.7v-.1l-1-4c-.1-.2-.2-.4-.5-.4l-20.8-.8c-.3 0-.5.2-.5.5l-.5 8.8c-9.5-3.3-20.5-10.1-25.1-13v-13.1c0-.1-.1-.1-.2-.2l-19.8-11c-.1-.1-.2-.1-.4 0l-4 1c-.1 0-.2.1-.2.1l-.1.1v.1l-1.6 10.4c-1.5-.9-7-4.6-9.4-7.7-2.6-3.2-4.4-7.2-5.8-12.7l1-9.9c0-.1 0-.3-.1-.4-.1-.1-.2-.2-.4-.2H7.5l.3-4.2C10 75.7 12 75 12.2 75l.4-.1.2-.4c.1-.4 10.7-25.2 13.9-33.1zm51.8 92.1l21.1.8.1 9-21.8-.7.6-9.1zm0-1l.2-3 20 .8.8 3-21-.8zm-52.2-17.8l1.8-12L47 113.2l-.9 12.9-19.8-11.4zm21.4-2.2l-18.6-10.3 2.6-.6 18.6 10.3-2.6.6zm.4.9l3-.8v12l-3.9 1.6.9-12.8zm128.7 32.9c-10.9 10.8-28.5 17.5-37.2 19.7-9.8 2.5-38.3 7.3-52.8-.9-5.6-3.2-65.3-43.8-68.4-46C4.1 109.2 2 95.4 2 88c0-4 1.7-6.9 3.7-8.9L5 88.9c0 .6.4 1 .9 1.1H6c.5 0 1-.4 1-.9l.5-6.6h2.9l-.9 9H6c-.3 0-.5.2-.5.5-.1-.3-.3-.4-.6-.4-.3.1-.5.3-.4.6 1.1 5.9 6.2 17.4 15.1 23.3 8.9 5.9 50.2 34.7 50.6 35 1 .8 23.7 18.1 34.3 18.1h.7c.3 0 .5-.3.5-.5s-.3-.5-.5-.5c-9.9.9-34.1-17.7-34.4-17.9-.4-.3-41.6-29.1-50.6-35C11.6 109 6.7 98.1 5.5 92.2c.1.2.2.3.4.3h3.6c1.5 5.5 3.3 9.5 5.9 12.8 2.9 3.7 9.7 7.9 10 8.1l-.2 1.5c0 .2.1.4.2.5l20.8 12c.1 0 .1.1.2.1h.2l4.7-1.9c4.6 3 15.9 10 25.6 13.3l-.3 4.2c0 .1 0 .3.1.4.1.1.2.2.4.2l22.8.8c.1 0 .3-.1.3-.1.1-.1.2-.2.2-.4v-3.3h6.7l43.6-15c.2-.1.3-.3.3-.5v-6.5h2.5c.3 0 .5-.2.5-.5l1-11.6c5.6 3.7 15.4 10.5 18.6 14.2l.8.9c5.2 5.6 12.8 14.4 2.4 24.6z"/><path d="M40.8 32.5c.1 0 14-3.5 29.3 8.9 30.3 24.5 33.5 64.5 33.5 80.6v12c0 .3.2.5.5.5s.5-.2.5-.5v-12c0-16.2-3.3-56.6-33.9-81.4-15.7-12.7-30.1-9.1-30.2-9.1-.3.1-.4.3-.4.6.2.3.4.5.7.4zm70 86.9c.1 0 .3 0 .4-.1L146 84.4c.2-.2.2-.5 0-.7s-.5-.2-.7 0l-34.9 34.9c-.2.2-.2.5 0 .7.1.1.2.1.4.1zm35.6-23.8l-36 36c-.2.2-.2.5 0 .7.1.1.2.1.4.1s.3 0 .4-.1l36-36c.2-.2.2-.5 0-.7s-.6-.1-.8 0z"/><path d="M58.1 59.6c-.2-.2-.5-.1-.7.1C54 64.3 46.9 73.9 46.3 85c0 .3.2.5.5.5s.5-.2.5-.5c.7-10.8 7.6-20.2 10.9-24.7.1-.2.1-.5-.1-.7zm1.4 8.9c-2.2 3-6.8 9.2-7.2 16.4 0 .3.2.5.5.5s.5-.2.5-.5c.4-6.9 4.9-13 7-15.9.2-.2.1-.5-.1-.7-.2 0-.6 0-.7.2zm88.5 87.1l-25-16c-.2-.1-.5-.1-.7.2-.1.2-.1.5.2.7l25 16c.1.1.2.1.3.1.2 0 .3-.1.4-.2.1-.4.1-.7-.2-.8zm-4.9-22.9c-.2-.2-.5-.2-.7 0-.2.2-.2.5 0 .7l16 18c.1.1.2.2.4.2.1 0 .2 0 .3-.1.2-.2.2-.5 0-.7l-16-18.1z"/></g></svg>