<?xml version="1.0" encoding="utf-8"?>
<!-- Generator: Adobe Illustrator 17.1.0, SVG Export Plug-In . SVG Version: 6.00 Build 0)  -->
<!DOCTYPE svg PUBLIC "-//W3C//DTD SVG 1.1//EN" "http://www.w3.org/Graphics/SVG/1.1/DTD/svg11.dtd">
<svg version="1.1" id="Layer_1" xmlns="http://www.w3.org/2000/svg" xmlns:xlink="http://www.w3.org/1999/xlink" x="0px" y="0px"
	 viewBox="0 0 184 184" enable-background="new 0 0 184 184" xml:space="preserve">
<g>
	<path fill="#03B8E2" d="M49.2,76.6c-4.7-4.7-13-3.9-18.4,1.6c-2.6,2.7-4.2,6-4.5,9.5c-0.3,3.5,0.8,6.7,3.1,9
		c2.1,2.1,4.9,3.1,7.8,3.1c3.7,0,7.6-1.6,10.6-4.7c2.6-2.7,4.2-6,4.5-9.5C52.6,82.1,51.5,78.9,49.2,76.6z M28.3,87.8
		c0.2-3,1.6-5.9,3.9-8.2c2.6-2.7,6-4.1,9.2-4.1c1.8,0,3.4,0.4,4.9,1.3c0,0.1,0,0.2,0.1,0.3c1.9,4.1,0.6,9.4-3.1,13.1
		c-3.9,4-9.5,5.2-13.7,3c-0.1,0-0.1,0-0.2-0.1C28.5,91.6,28.1,89.8,28.3,87.8z M50.3,85.4c-0.2,3-1.6,5.9-3.9,8.2
		c-4.3,4.3-10.5,5.3-14.5,2.4c0.7,0.1,1.4,0.2,2.1,0.2c3.7,0,7.6-1.6,10.6-4.7c3.4-3.4,4.9-7.9,4.4-12C50,81.3,50.5,83.3,50.3,85.4z
		"/>
	<path fill="#03B8E2" d="M84,25.4c0.1,0,0.1,0,0.2,0l20-4c0.5-0.1,0.8-0.5,0.8-1v-2c0-0.3-0.1-0.6-0.4-0.8c-0.2-0.1-0.4-0.2-0.6-0.2
		c-0.1,0-0.1,0-0.2,0l-20,4c-0.5,0.1-0.8,0.5-0.8,1v2c0,0.3,0.1,0.6,0.4,0.8C83.5,25.3,83.8,25.4,84,25.4z M84,22.4l20-4v2l-20,4
		V22.4z"/>
	<path fill="#03B8E2" d="M104,152.1L104,152.1c-0.3,0-0.5,0-0.8,0.1l-15,3.9c-1.3,0.3-2.2,1.5-2.2,2.9v3.9c0,1.7,1.3,3,3,3
		c0.3,0,0.5,0,0.8-0.1l15-3.9c1.3-0.3,2.2-1.5,2.2-2.9v-3.9C107,153.5,105.7,152.1,104,152.1z M106,159c0,0.9-0.6,1.7-1.5,1.9
		l-15,3.9c-0.2,0-0.3,0.1-0.5,0.1c-1.1,0-2-0.9-2-2v-3.9c0-0.9,0.6-1.7,1.5-1.9l15-3.9c0.2,0,0.3-0.1,0.5-0.1c1.1,0,2,0.9,2,2V159z"
		/>
	<path fill="#03B8E2" d="M69.5,73.5c0.1,0,0.3,0,0.4-0.1l40.5-40.5c0.2-0.2,0.2-0.5,0-0.7s-0.5-0.2-0.7,0L69.1,72.7
		c-0.2,0.2-0.2,0.5,0,0.7C69.2,73.5,69.4,73.5,69.5,73.5z"/>
	<path fill="#03B8E2" d="M69,80c0.1,0,0.3,0,0.4-0.1l49-49c0.2-0.2,0.2-0.5,0-0.7s-0.5-0.2-0.7,0l-49,49c-0.2,0.2-0.2,0.5,0,0.7
		C68.7,80,68.9,80,69,80z"/>
	<path fill="#03B8E2" d="M183.9,48.1C183.9,48.1,183.9,48,183.9,48.1c-0.1-0.2-0.2-0.3-0.3-0.3c0,0,0,0,0,0c0,0-0.1,0-0.1,0
		c-0.1,0-0.2-0.1-0.2-0.1c-0.1,0-0.1,0-0.2,0c0,0-0.1,0-0.1,0c0,0-0.1,0-0.1,0c0,0-0.1,0-0.1,0L129,61.1V8.3c0-1.5-0.7-2.9-1.8-3.9
		c-0.5-0.4-1.1-0.7-1.6-0.9c0,0-0.1-0.1-0.1-0.1c-7-3-14-1.8-18.6-1.1c-4.5,0.8-33.3,6.5-40.1,8c-6.8,1.5-8.7,2.2-10.5,4.3
		c-2,2.3-2.2,5.5-2.2,5.7v32.4c-3-1.5-6.1-2.5-8.9-3C33.8,48,21.6,52.4,12.6,61.5C0,74.3-2.8,93.2,6,105.6l27.8,39
		c0.1,0.1,0.1,0.2,0.2,0.2l4.8,3.4c0,0,0,0,0,0c0.1,0,0.1,0.1,0.2,0.1c0,0,0.1,0,0.1,0c0.1,0,0.2,0,0.3,0c0,0,0,0,0,0h0c0,0,0,0,0,0
		c0,0,0,0,0.1,0c0.1,0,0.2,0,0.4-0.1c0,0,0,0,0.1,0c0.1-0.1,0.2-0.2,0.3-0.3c0,0,0,0,0,0c0,0,0,0,0,0c0,0,0,0,0-0.1L54,123.9v43.7
		c0,6.3,5.6,10.5,8.2,12.2c0,0,0.1,0.1,0.1,0.1c1.1,0.8,2.3,1.2,3.6,1.2c0.5,0,1-0.1,1.6-0.2l56.3-15.1c3.1-0.8,5.2-3.6,5.2-6.8
		v-25.1l54.2-14.3l0,0l0,0c0,0,0,0,0,0c0.1,0,0.2-0.1,0.3-0.1c0,0,0.1,0,0.1-0.1c0.1,0,0.1-0.1,0.1-0.1c0,0,0-0.1,0.1-0.1
		c0,0,0,0,0,0c0,0,0-0.1,0-0.1c0-0.1,0.1-0.1,0.1-0.2c0,0,0-0.1,0-0.1c0,0,0-0.1,0-0.1v-59v-11C184,48.4,184,48.2,183.9,48.1z
		 M182,116.7l-28.7-17.6L182,62.4V116.7z M123,62.6l-11.3,2.8l8.6-8.6c0.2-0.2,0.2-0.5,0-0.7s-0.5-0.2-0.7,0l-9.8,9.8l-18.1,4.6
		c0,0,0,0-0.1,0c0,0,0,0-0.1,0c0,0,0,0-0.1,0c-0.1,0-0.1,0.1-0.2,0.1c0,0-0.1,0.1-0.1,0.1c-0.1,0.1-0.1,0.1-0.1,0.2
		c0,0,0,0.1-0.1,0.1c0,0.1,0,0.2-0.1,0.3c0,0,0,0.1,0,0.1c0,0,0,0,0,0v13.3l-21.9,21.9c-0.2,0.2-0.2,0.5,0,0.7
		c0.1,0.1,0.2,0.1,0.4,0.1s0.3,0,0.4-0.1L91,86.2v13.6l-21.4,21.4c-0.2,0.2-0.2,0.5,0,0.7c0.1,0.1,0.2,0.1,0.4,0.1s0.3,0,0.4-0.1
		L91,101.2v41.3c0,0,0,0.1,0,0.1c0,0.1,0,0.1,0,0.2l-1.9,1.9c-0.2,0.2-0.2,0.5,0,0.7c0.1,0.1,0.2,0.1,0.4,0.1s0.3,0,0.4-0.1l1.9-1.9
		c0.1,0,0.2,0,0.3,0c0.1,0,0.2,0,0.3,0l4.2-1.1l-0.8,0.8c-0.2,0.2-0.2,0.5,0,0.7c0.1,0.1,0.2,0.1,0.4,0.1s0.3,0,0.4-0.1l2-2
		l24.7-6.5v5.4l-57,14.5V39.2l57-12.6V62.6z M95.5,82.4C95.5,82.4,95.5,82.4,95.5,82.4l38.8,20.3L95.5,138V82.4z M94.5,138.9
		l-1.5,1.4V76.7l1.5,3.8V138.9z M95.7,140.5l40.5-36.8l1.3,0.7c0.1,0.1,0.3,0.1,0.5,0.1c0.1,0,0.2,0,0.2,0l13-3
		c0.2-0.1,0.4-0.2,0.6-0.4l0.3-0.4l28.4,17.4L95.7,140.5z M182,59.2l-31.6,40.4l-12.3,2.8L96.8,80.8l-3.4-8.6L182,49.8V59.2z
		 M14,62.9c8.5-8.6,20.3-12.9,30.8-11.2c1.7,0.3,3.5,0.8,5.4,1.5C39.2,51.5,26.7,55.5,17.3,65c-12,12.1-15.1,29.9-7.8,42.3l-2-2.8
		C-0.7,92.9,2.1,75,14,62.9z M39.3,145.7l-26.9-37.8c-8.3-11.6-5.5-29.5,6.4-41.5c7.5-7.6,17.1-11.5,26.1-11.5
		c3.2,0,6.3,0.5,9.1,1.5v63.5L39.3,145.7z M56,167.5l0-147.1c0,0,0.2-2.6,1.8-4.4c1.4-1.6,2.9-2.2,9.5-3.7c6.6-1.5,35.6-7.3,39.9-8
		c3.4-0.6,8.1-1.3,13.1-0.4L65.6,15.4C62.3,16.1,60,19,60,22.3V175c0,0.2,0,0.3,0,0.5C58,173.6,56,170.8,56,167.5z M127,158.9
		c0,2.3-1.5,4.2-3.7,4.8L67,178.9c-0.8,0.2-1.7,0.2-2.5-0.1c0,0-0.1-0.1-0.1-0.1c0,0-0.4-0.2-1-0.6c-0.9-0.8-1.4-1.9-1.4-3V22.3
		c0-2.4,1.7-4.4,4-4.9l57.4-12c0.2,0,0.4-0.1,0.6-0.1c0.7,0,1.3,0.2,1.9,0.7c0.7,0.6,1.1,1.4,1.1,2.3v53.3l-3,0.8v-37l-59,13v118.1
		l59-15v-6.4l3-0.8V158.9z"/>
</g>
</svg>
