<svg version="1.1" id="Layer_1" xmlns="http://www.w3.org/2000/svg" xmlns:xlink="http://www.w3.org/1999/xlink" x="0" y="0" viewBox="0 0 44 44" xml:space="preserve"><path fill="#FFF" d="M22 30.2c4.5 0 8.2-3.7 8.2-8.2s-3.6-8.3-8.2-8.3-8.2 3.7-8.2 8.2 3.7 8.3 8.2 8.3zM22 16c3.3 0 6 2.7 6 6s-2.7 6-6 6-6-2.7-6-6 2.7-6 6-6zm0-8c-.6 0-1-.4-1-1V3c0-.6.4-1 1-1s1 .4 1 1v4c0 .6-.4 1-1 1zm0 34c-.6 0-1-.4-1-1v-4c0-.6.4-1 1-1s1 .4 1 1v4c0 .6-.4 1-1 1zM7 23H3c-.6 0-1-.4-1-1s.4-1 1-1h4c.6 0 1 .4 1 1s-.4 1-1 1zm34 0h-4c-.6 0-1-.4-1-1s.4-1 1-1h4c.6 0 1 .4 1 1s-.4 1-1 1zM8.6 36.4c-.3 0-.5-.1-.7-.3-.4-.4-.4-1 0-1.4l2.8-2.8c.4-.4 1-.4 1.4 0 .4.4.4 1 0 1.4l-2.8 2.8c-.2.2-.5.3-.7.3zm24-24c-.3 0-.5-.1-.7-.3-.4-.4-.4-1 0-1.4l2.8-2.8c.4-.4 1-.4 1.4 0 .4.4.4 1 0 1.4l-2.8 2.8c-.2.2-.4.3-.7.3zm2.8 24c-.3 0-.5-.1-.7-.3l-2.8-2.8c-.4-.4-.4-1 0-1.4.4-.4 1-.4 1.4 0l2.8 2.8c.4.4.4 1 0 1.4-.2.2-.4.3-.7.3zm-24-24c-.3 0-.5-.1-.7-.3L7.9 9.3c-.4-.4-.4-1 0-1.4s1-.4 1.4 0l2.8 2.8c.4.4.4 1 0 1.4-.2.2-.5.3-.7.3z"/></svg>