<?xml version="1.0" encoding="utf-8"?>
<!-- Generator: Adobe Illustrator 17.1.0, SVG Export Plug-In . SVG Version: 6.00 Build 0)  -->
<!DOCTYPE svg PUBLIC "-//W3C//DTD SVG 1.1//EN" "http://www.w3.org/Graphics/SVG/1.1/DTD/svg11.dtd">
<svg version="1.1" id="Layer_1" xmlns="http://www.w3.org/2000/svg" xmlns:xlink="http://www.w3.org/1999/xlink" x="0px" y="0px"
	 viewBox="0 0 44 44" enable-background="new 0 0 44 44" xml:space="preserve">
<path fill="#FFFFFF" d="M37.7,18l4.5-3.3L22,0L1.9,14.7L6.3,18l-4.5,3.3l4.4,3.2l-4.4,3.2L22,42.5l20.1-14.7l-4.4-3.2l4.4-3.2
	L37.7,18z M4.3,14.7L22,1.8l17.7,13l-3.3,2.4l-0.1-0.1l-1.2,0.9l0.1,0.1l-3.2,2.3L32,20.3l-1.2,0.9l0.1,0.1L22,27.7l-8.9-6.5
	l0.1-0.1l-1.2-0.9l-0.1,0.1L8.7,18l0.1-0.1L7.7,17l-0.1,0.1L4.3,14.7z M39.7,27.7L22,40.7l-17.7-13l3.2-2.3L22,36l14.5-10.6
	L39.7,27.7z M36.5,23.6l-1.2,0.9L22,34.2L12,27l0,0l-0.6-0.5l-2.7-2l-1.2-0.9l-3.2-2.3l1.7-1.2L7,19l0.2,0.1l0.3-0.3l3.2,2.3
	l1.2,0.9L22,29.5l9-6.6l1.1-0.8l1.2-0.9l0.9-0.7L36,19l0.1,0.2l0.4-0.3l3.3,2.4L36.5,23.6z"/>
</svg>
