<?xml version="1.0" encoding="utf-8"?><!DOCTYPE svg PUBLIC "-//W3C//DTD SVG 1.1//EN" "http://www.w3.org/Graphics/SVG/1.1/DTD/svg11.dtd"><svg xmlns="http://www.w3.org/2000/svg" viewBox="0 0 184 184" width="184" height="184"><g fill="#03B8E2"><path d="M159.2 123.9c-4.7-2.5-11 .3-14.1 6.1-3.1 5.9-1.7 12.6 3 15.1 1.2.6 2.4.9 3.8.9 1.3 0 2.6-.3 4-.9 2.6-1.2 4.9-3.4 6.4-6.2s2-5.9 1.4-8.8c-.7-2.8-2.2-5-4.5-6.2zm2.1 14.6c-1.4 2.6-3.5 4.6-5.9 5.7-2.4 1.1-4.8 1-6.9 0-4.2-2.2-5.4-8.4-2.6-13.7 2.1-4.1 5.9-6.5 9.5-6.5 1.1 0 2.3.3 3.3.8 2 1.1 3.4 3.1 3.9 5.6.5 2.6 0 5.5-1.3 8.1z"/><path d="M170.9 135.7c1.7-7.9-.7-15.7-6.3-19.6.1-1.8-.9-3.5-2.5-4.2v-8.7c0-.4-.2-.7-.5-.9l-32.2-17.5c-.2-.1-.5-.2-.7-.1l-2.9.7c-1.2-2.6-2.8-4.7-4.5-6.2-.9-.9-1.8-1.6-2.7-2.1h-.1c-.1 0-.2-.1-.3-.2-.1 0-.2-.1-.2-.1-1.1-.6-3-1.7-5.5-3.2l2.1-4.4c.1-.1.1-.3.1-.4v-4.1c0-.4-.2-.7-.5-.9l-2-1.2V48.7c0-.4-.2-.8-.6-.9L92.5 40c-.2-.1-.4-.1-.5-.1l-26.7 4.4c-.5.1-.8.5-.8 1v1.2c-.3-.2-.6-.3-.7-.4-.7-.5-7.8-5.1-20.6-1.2-20.3 6.1-26 24-24.6 37.5.6 5.6 1.7 9.3 3.5 12.3-3.8-2.4-8.4-5.3-9.5-5.8-1.7-.8-3.7-1.6-5.6-.9-1.1.4-2 1.2-2.5 2.5-2 4.5 3.5 7.8 3.7 7.9l14 8.6v2.8c0 .3.2.6.4.8l2.9 1.9v10.6c0 .1 0 .2.1.3.5 1.5 2.6 4.2 6.5 4 4.6-.2 6.2-2.4 6.4-2.7.1-.2.2-.3.2-.5v-6l6.7 4.2-.9 2.6c0 .1-.1.2-.1.3V143c-2.8.2-5 3.6-5 7.9 0 4.4 2.3 7.9 5.3 7.9.4 0 .8-.1 1.1-.2 1 0 2-.2 2.8-.5.4 3.6 2.5 6.4 5 6.5 1.7.9 3.1.6 4.2.1.3 2 1.1 3.5 2.4 4.6.1.1.2.1.3.2.4.3.8.6 1.3.7 1.2.5 2.4.6 3.3.6.9 0 1.6-.1 1.7-.1l19.5-4.3c1 .9 3.6 2.7 8.3 2.1 5.4-.7 5.5-8.5 5.4-11.2l6.5 3.9v6.4c0 .4.2.7.5.9l2.8 1.7c.2.1.3.1.5.1s.3 0 .5-.1l2.5-1.4c.3-.2.5-.5.5-.9V162l28.7-8.8.6.3c.5.2.9.4 1.4.6.3 1.6 1.3 3 2.9 3.4.4.1.8.2 1.1.2.8 0 1.5-.2 2.2-.7.8-.5 1.5-1.3 1.9-2.2 5.7-.9 11.3-4.8 15-10.7.3.1.5.1.8.1.8 0 1.5-.2 2.2-.7 1-.6 1.8-1.6 2.1-2.8.4-1.2.3-2.4-.2-3.5-.6-.5-1.1-1.1-1.6-1.5zm-82.8 20.6c-5.8-3-7.3-11.5-3.5-18.9 2.9-5.6 8.1-9 13-9 1.6 0 3.1.3 4.5 1.1 5.8 3 7.3 11.5 3.5 18.9-3.8 7.4-11.7 11-17.5 7.9zM63 168.6c-.2 0-.4 0-.6-.1-.3-.1-.5-.3-.8-.4-1.1-.9-2-3-2-5.4 0-3.2 1.5-5.9 3.3-5.9 1.8 0 3.3 2.7 3.3 5.9.1 3.2-1.4 5.9-3.2 5.9zM48 151c0 3.2-1.5 5.9-3.3 5.9-1.8 0-3.3-2.7-3.3-5.9s1.5-5.9 3.3-5.9c1.8 0 3.3 2.7 3.3 5.9zm9.2 5.9c0 3.2-1.5 5.9-3.3 5.9-1.8 0-3.3-2.7-3.3-5.9s1.5-5.9 3.3-5.9c1.8 0 3.3 2.7 3.3 5.9zm.5 5.8c-.1.1-.3.2-.4.3.2-.2.3-.4.4-.6v.3zm6.2-7.8c-.3-.1-.6-.1-.9-.1-1.5 0-2.9.9-3.9 2.5v-.4c0-3.5-1.5-6.4-3.5-7.5.7-.3 1.3-.5 1.4-.5.4-.1.8-.5.8-1v-31c1.7 1.1 4.1 1.8 6.9 1.8.8 0 1.5-.1 2.2-.2-.1.3-.2.6-.2 1s.1.7.2 1.1v33.2c-.7.2-1.8.5-3 1.1zM56 111.4c-3.3 0-5.8-1.4-5.8-2.6s2.5-2.6 5.8-2.6c2.9 0 5.2 1.1 5.7 2.2-2.5.5-4.5 1.6-5.4 3H56zm11.1-4.2L42.7 91.8V83l27 16.7c-1.2 2.6-2.1 5.3-2.6 7.5zm-4.5-45.3c-.4.1-.7.5-.7.9v1.6L55 60.2c-.2-.1-.5-.1-.7.2-.1.2-.1.5.2.7l7.5 4.6v1.6c0 .4.2.7.5.9l15.8 9.3 5.7 3.3c-1.1 1-2.9 2.7-4.7 4.7L44 62.6c-.2-.1-.5-.1-.7.1-.1.2-.1.5.1.7l35.1 22.7c-1.5 1.7-3 3.4-4.1 5.1-.1.1-.2.3-.3.4L38 68.4c-.2-.2-.5-.1-.7.2-.1.2-.1.5.2.7l36.2 23.2c-1.2 1.9-2.4 4.1-3.5 6.3L42.7 81.9v-5.6-.2c0-.2-1.2-5-9.4-4.9 1.4-7.8 9.2-12.7 14.6-13.8 5.3-1.1 12.7-.8 16.6 2.3v1.7l-1.9.5zM32.1 73.2c6.8-.4 8.3 2.5 8.5 3.1-.2.7-1.1 3.2-7.1 3.4-7 .2-8-2.6-8.1-3.1.1-.4.8-3 6.7-3.4zm-6.7 20.9V79.9c1.4 1 3.6 1.9 7.4 1.9h.8c3.6-.1 5.7-1 7-2.1V93c-.4.8-2.2 4.1-7 4.1-4.7 0-7.4-2.3-8.2-3zm50.7-1.8c3.2-4.8 10.1-11.1 10.2-11.1.1-.1 4.2-3.7 11.6-6.6 4.5-1.8 8.4-1.5 10.7-1 .4.3.9.5 1.3.7-8.9-.3-19.8 5.5-28.6 15.9-5.9 6.9-8.8 13.4-10.2 19.3-.6-.4-1.4-.7-2.2-.9.5-4.3 3.9-11.3 7.2-16.3zm40.3-14.2c.1 0 .1.1.2.1s.1.1.2.1c0 0 .1 0 .1.1.2.1.4.2.5.3 1.9 1.2 4.3 3.4 6 6.6.1.2.2.3.2.5l-2.3.5c-.5.1-.8.5-.8 1v2.3L99 96.1c-.1 0-.3.1-.4.2l-2 1.9c-.1 0-.2 0-.4-.1-2.6-.2-4.8 1-4.9 2.8 0 .6.2 1.2.6 1.7l-12.6 11.9c-1-.2-2.2-.4-3.4-.4-.7 0-1.5.1-2.2.2.1-.3.2-.6.2-1 0-.8-.3-1.6-.9-2.3 1.2-5.9 4-12.5 9.9-19.5 12.5-14.7 26-17.4 33.2-13.7.1 0 .1.1.2.1 0 .1.1.2.1.2zm-23.1 23c0-.4 1-1 2.4-1h.4c1.6.1 2.6.9 2.6 1.4 0 .2-.3.4-.6.6-.6.3-1.3.4-2.1.3-1.8 0-2.8-.8-2.7-1.3zm-21.5 12.3c0 .6-.4 1.2-1.1 1.7-.7.3-1.3.6-1.8.9-1.1.4-2.6.7-4.2.7-4.2 0-7.1-1.7-7.1-3.3s2.9-3.3 7.1-3.3 7.1 1.7 7.1 3.3zm-3.1 6.1c0-1.6 2.9-3.3 7.1-3.3 3.9 0 6.7 1.5 7.1 3v.7c-.4 1.5-3.2 3-7.1 3-4.2-.1-7.1-1.8-7.1-3.4zm16.2.6v-.6c0-1.7-1.4-3.3-3.6-4.2l12.1-11.4c.7.3 1.4.5 2.3.6h.6c1 0 1.9-.2 2.6-.6 1-.5 1.7-1.3 1.8-2.3.1-1.1-.7-2.1-1.9-2.8l1-1 22-6.6c.1 0 .2-.1.2-.1l22.1 11.8-26.7 8.5c-.1 0-.1.1-.2.1l-15.9 15.2c-1.6-.8-3.3-1.6-4.3-2-4.2-1.5-8.4-.9-12.1 1.7v-6.3zm7.6 5.9c1.1 0 2.3.2 3.5.6-5.1.7-10.1 4.3-13.1 9.9-3.2 6.2-3 13.1.1 17.7-2.3-1.3-3.9-3.4-4.8-6.1-1.2-3.9-.6-8.4 1.6-12.5 3.3-6.2 7.9-9.6 12.7-9.6zm41.8 3c-.3.9-.3 1.8-.1 2.7l-5.1-2.6h-.1c-.8-.4-1.2-1.7-.9-3 .2-.7.6-1.4 1.2-1.7.3-.2.7-.4 1.1-.4h.4c0 .2.2.3.3.4l5.4 1.7c-.1 0-.1 0-.2.1-.9.6-1.6 1.6-2 2.8zm-3.7-7.1c-.8 0-1.6.2-2.3.8-.9.6-1.6 1.6-2 2.8-.6 2 0 4.1 1.5 5.2 0 .3-.1.7-.1 1l-18 6.8c-.2-1.5-.5-3-1.1-4.4l16-11.5 7-2.5c-.4.5-.7 1.2-1 1.8zm-20.6 23l-.7-.6c.4-1.6.5-3.3.5-4.8l17.8-6.7c-.1 1.9 0 3.8.4 5.5l-18 6.6zm19.8-14.4l5.1 2.6c0 .1.1.1.1.2-1.1 5.5-.3 10.9 2.3 15-.1 0-.2-.1-.2-.1-1.1-.6-2.2-1.4-3.1-2.3-3.6-3.6-5.2-9.4-4.2-15.4zm6.6 1.1c-.3-.6-.3-1.4-.1-2.1.2-.7.7-1.3 1.2-1.7.4-.2.8-.3 1.2-.3.2 0 .4 0 .6.1 1.2.4 1.9 1.8 1.4 3.2-.4 1.4-1.8 2.3-3 1.9-.6-.1-1.1-.5-1.3-1.1zm1.5-6.1l-6-1.9s0-.1.1-.1l.1-.3c.1-.1.1-.2.2-.4 5.2-9.9 15.7-14.6 23.5-10.5.5.3.9.5 1.4.8-.1.1-.3.3-.4.5-2.5-.1-5.2.4-7.8 1.6-4.5 1.9-8.4 5.6-11.1 10.3zm22.1-13.9c-.4 0-.7.1-1.1.3-.6-.4-1.4-.9-2.2-1.3-2-1-4.1-1.6-6.3-1.7v-2l9.6-2.9v7.6zm-2 4c.4-1.4 1.8-2.3 3-1.9 1.2.4 1.9 1.8 1.4 3.2-.4 1.4-1.8 2.3-3 1.9-1.2-.4-1.8-1.8-1.4-3.2zm-29.4-28.9l30.4 16.5-9.3 2.8c-.2.1-.4.3-.4.5v2.4c-6.1.1-12.5 3.7-16.8 9.8l-8.4 2.9s-.1 0-.1.1l-15.9 11.5c-.9-1.9-2.2-3.4-3.9-4.6l-.1-.1c-.4-.3-1.1-.6-1.9-1l15.6-14.9 27.7-8.9c.2-.1.3-.2.3-.4s-.1-.4-.3-.5l-23.1-12.4v-2.2l6.2-1.5zm-17.8-14.5c-2-.7-7.2-1.9-13.6.6-6.3 2.5-10.3 5.4-11.7 6.5l-6.3-3.6-15.3-9v-3.1l1.8-.6c.1 0 .1-.1.2-.1l19.8 10.9c.1 0 .2.1.2.1h.2l26.4-8.3v3l-1.7 3.6zm.8-7.5L86 72.8 66.4 62V46.3L86 54.6v15.2c0 .3.2.5.5.5s.5-.2.5-.5V54.6l23-5.2v13.7c0 .4.2.7.5.9l1.1.7zM92 41.9l16.5 6.8-21.9 5L68 45.9l24-4zm-48.3 5c3.5-1.1 6.5-1.4 9.1-1.4 6.4 0 9.7 2.4 9.8 2.4 0 0 .1 0 .1.1.1 0 .7.4 1.7 1v8.4c-4.6-2.7-11.7-2.9-17-1.8-7.1 1.4-15 7.5-16.2 15.9-7.5.8-7.7 5.1-7.7 5.4v16.5c-1.5-2.7-2.4-6-2.9-11-1.3-12.9 4-29.8 23.1-35.5zm-5.4 68.9c-1.2-1.6-.8-4.7.4-5.9 1.7-1.6 4.3-1.3 4.3-1.3.5.1 1.1-.3 1.1-.9s-.3-1.1-.9-1.1c-.1 0-3.6-.5-6 1.8-1.9 1.7-2.5 6-.7 8.4v7.1c-.4.4-1.7 1.5-4.6 1.6-3 .1-4.2-2-4.5-2.5v-10.9c0-.3-.2-.6-.4-.8l-2.9-1.9v-2.8c0-.3-.2-.7-.5-.9l-14.4-9S5 94.2 6.3 91.3c.4-.8.8-1.3 1.4-1.5 1.3-.5 3.2.5 3.9.8 1.4.7 10 6.1 14.4 8.8.3.2.7.2 1 0s.5-.5.5-.9v-.9c1.6.7 3.6 1.3 6.2 1.3 6.7 0 8.8-5.3 8.9-5.6 0-.1.1-.2.1-.4v-.2L66.5 108c.1.1.2.1.3.1.1 0 .2 0 .2-.1v.2c-.7-.1-1.5-.2-2.3-.2h-1c-.5-2.2-3.7-3.9-7.7-3.9-2.3 0-4.3.6-5.8 1.5L40.8 99c-.2-.2-.5-.1-.7.1-.2.2-.1.5.1.7l9.2 6.5c-.8.7-1.2 1.6-1.2 2.5 0 2.5 3.2 4.5 7.4 4.6 0 .4.1.7.2 1.1v32.7c-1.2.4-2.6 1.2-3.8 2.3-.8.4-1.4 1.1-2 2v-.4c0-3.5-1.5-6.5-3.6-7.5v-18l1.1-3.2c.1-.4 0-.9-.4-1.2l-8.8-5.4zm55.9 50.9c-4.8.6-6.8-1.7-6.9-1.8-.2-.3-.6-.5-1-.4l-19.9 4.4c1.2-1.4 2-3.7 2-6.2 0-2.7-.9-5.1-2.3-6.5 1.1-.4 2-.6 2-.6.5-.1.8-.5.8-1V123c1.7 1.1 4.1 1.8 6.9 1.8 2.9 0 5.4-.7 7.1-1.9v5.3c-1.8 1.7-3.5 3.8-4.9 6.5-2.5 4.6-3.1 9.7-1.7 14.1 1.1 3.4 3.3 6.1 6.2 7.6 2.3 1.2 5 2.2 7.4 2.9.9.2 1.8.3 2.8.3 1.7 0 3.5-.4 5.2-1.1 0 2.6-.5 7.7-3.7 8.2zm13.7-6.9l-6.2-3.7c2.2-1.7 4.2-4 5.7-6.8.7-1.3 1.2-2.7 1.6-4l.4.3.3 22.2-1.3-.8v-6.4c0-.2-.2-.6-.5-.8zm4.5.5c-.4.1-.7.5-.7 1v6.1l-1 .6-.3-22.1 17.8-6.5c.8 3.1 2.3 5.9 4.4 8 1.1 1.1 2.3 1.9 3.6 2.6 1.1.6 2.3 1 3.5 1.3l.6.6-27.9 8.4zm38.3-6.6c-.2.7-.7 1.3-1.2 1.7-.6.3-1.2.4-1.7.3-1.2-.4-1.9-1.8-1.4-3.2.4-1.4 1.8-2.3 3-1.9.6.2 1 .6 1.3 1.2.2.5.3 1.2 0 1.9zm2.2-.9c0-.7-.1-1.4-.4-2-.5-1.1-1.4-1.9-2.5-2.2-2.3-.7-4.7.8-5.5 3.3v.2l-.6-.3c-5.6-3-8.2-9.9-7-17.2.1 0 .2.1.3.1.4.1.8.2 1.1.2 1.9 0 3.7-1.4 4.3-3.5.7-2.4-.4-4.8-2.5-5.6 2.4-4 5.8-7.2 9.8-8.9 2.1-.9 4.1-1.4 6.1-1.4-.4 2.3.8 4.6 2.9 5.2.4.1.8.2 1.1.2 1.7 0 3.2-1 4-2.7 4.5 3.6 6.3 10.1 5 16.8-.9-.1-1.8.1-2.6.6-1 .6-1.8 1.6-2.1 2.8-.6 1.9 0 3.8 1.3 4.9-3.2 5.1-7.9 8.5-12.7 9.5zm17.7-12.5c-.2.7-.7 1.3-1.2 1.7-.6.3-1.2.4-1.7.3-1.2-.4-1.9-1.8-1.4-3.2.2-.7.7-1.3 1.2-1.7.6-.3 1.2-.4 1.7-.3.6.2 1 .6 1.3 1.2.2.6.3 1.3.1 2z"/><path d="M180.5 52.4l-6.2 1.2c-.5.1-.8.5-.8 1v5.8l-2 2.1c-.9.6-1.8 1.1-4.6 1.6-2.6.5-4.2-.5-5.2-1.3l-.1-.1-2.5-1.3v-3.9c0-.3-.1-.6-.4-.8-.2-.2-.5-.3-.8-.2l-5.1 1-1-.4c1.1-1.2 1.8-3.2 1.8-5.7 0-3.2-1.1-6.5-3.6-7.6l.2-.2 7.4-1.3c.5-.1.8-.5.8-1v-3.9l1.5-.4c1 1 3 1.7 5.1 1.7h.8c2.8-.3 4.6-.9 5.6-1.8l1.5.5v2.3c0 .3.1.6.3.7.2.2.4.3.7.3h.1l6.7-.8c.5-.1.9-.6.9-1.1-.1-.5-.6-.9-1.1-.9l-5.5.7v-1.9c0-.4-.3-.8-.7-.9L172 35V16.6c0-.6-.4-1-1-1s-1 .4-1 1v18.8c-.5.5-1.8 1.1-4.5 1.3-2.1.2-4-.6-4.3-1.1V16.4c0-.6-.4-1-1-1s-1 .4-1 1v18.8l-2.1.6c-.4.1-.7.5-.7 1v3.8l-6.8 1.2c-.2 0-.4.1-.5.3l-1.5 1.4c-1.5.2-7.7 1.1-12.6 2.1-6.7 1.3-10.3 5.8-10.3 13V71c0 2.8 2.8 4.8 6.9 4.8 3.9 0 6.3-2.1 6.3-5.6v-4c0-5.4.5-6.2 4.5-6.7 3.8-.5 6.4-.9 7.2-1l2.9 1.1c.2.1.4.1.6.1l4.2-.8V62c0 .4.2.7.5.9l2.5 1.3v31c0 .6.4 1 1 1s1-.4 1-1V65.4c.9.4 2.1.8 3.5.8.5 0 1.1 0 1.7-.2 1.9-.3 3-.7 3.9-1.1v49.8c0 .6.4 1 1 1s1-.4 1-1V63.6l2.1-2.2c.2-.2.3-.4.3-.7v-5.3l5.4-1c.5-.1.9-.6.8-1.2-.4-.5-.9-.9-1.5-.8zm-38.6 5c-5.4.7-6.2 2.6-6.2 8.7v4c0 2.3-1.5 3.6-4.3 3.6-2.4 0-4.9-.9-4.9-2.8V58.5c0-6.2 2.9-9.9 8.7-11 5.2-1 11.9-2 12.7-2.1 2.8 0 3.5 3.8 3.5 6.1 0 2.9-1.1 4.7-2.2 4.8h-.1c.2 0-2.6.5-7.2 1.1zM101.2 131.5c-1.2-.7-2.6-1-4-1-4.2 0-8.7 2.9-11.2 7.6-3.3 6.3-1.9 13.6 3.1 16.2 1.2.7 2.6 1 4 1 4.2 0 8.7-2.9 11.2-7.6 3.3-6.3 1.9-13.5-3.1-16.2zm-8.1 22.9c-1.3 0-2.4-.3-3.5-.9-4.5-2.4-5.8-9.1-2.7-14.9 2.3-4.3 6.3-7.1 10.3-7.1 1.3 0 2.4.3 3.5.9 4.5 2.4 5.8 9.1 2.7 14.9-2.3 4.3-6.3 7.1-10.3 7.1z"/><path d="M94.5 144.2l1.1-.4 4-10.7-5.1 10z"/></g></svg>