<?xml version="1.0" encoding="utf-8"?><!DOCTYPE svg PUBLIC "-//W3C//DTD SVG 1.1//EN" "http://www.w3.org/Graphics/SVG/1.1/DTD/svg11.dtd"><svg xmlns="http://www.w3.org/2000/svg" xmlns:xlink="http://www.w3.org/1999/xlink" viewBox="0 0 184 184" width="184" height="184"><defs><path id="aka" d="M.3 133l53 36 65-20 15 12-76 22h-24l-32-26z"/></defs><clipPath id="akb"><use xlink:href="#aka" overflow="visible"/></clipPath><g clip-path="url(#akb)"><defs><path id="akc" d="M124.3 77h72v72h-72z"/></defs><clipPath id="akd"><use xlink:href="#akc" overflow="visible"/></clipPath><g clip-path="url(#akd)" fill="none" stroke="#03B8E2" stroke-width=".3"><path d="M153.8 150.1v-1.7M153.3 150.1l-.4-1.1M154.3 150.1l.5-1.1"/></g><g clip-path="url(#akd)" fill="none" stroke="#03B8E2" stroke-width=".3"><path d="M194.8 125.7h6.9M196.1 112.4h6.9M195.8 89.1h6.9M194.9 80.5h6.9M195.3 142.4h4.3"/></g><g clip-path="url(#akd)" fill="none" stroke="#03B8E2" stroke-width=".3"><path d="M141.4 146.4h6.9M154.4 142.9h6.9M180.5 144.6h6.9M183.4 139h6.9M172.4 135.7h6.9M159.9 133.1h6.9M146.9 129.9h6.9M158.4 125.6h6.9M169.9 121.4h6.9M164.6 117.5h6.9M178.4 129.7h6.9M178.1 114.2h6.9M135.9 139.1h6.9M124.9 135.9h6.9M130.9 129.9h6.9M122.8 125.7h6.9M130 121.2h6.9M145.1 118.5h6.9M153.6 114.2h6.9M147.1 107.1h6.9M159.6 108.2h6.9M128.1 108.4h6.9M124.1 112.4h6.9M123.8 89.1h6.9M135.8 93.1h6.9M137.4 99.7h6.9M130.3 83.7h6.9M122.9 80.5h6.9M152.6 98.4h6.9M166.1 102.9h6.9M165.3 95h6.9M176.3 98.2h6.9M183.3 93h6.9M158.8 87.9h6.9M151.3 84.9h6.9M150.4 78.1h6.9M162.8 80.6h6.9M177.8 83.6h6.9M188 130.5h6.9M189.1 117.6h6.9M189.8 95h6.9M190.6 103h6.9M144.8 146.4v-1.8M157.8 142.9v-1.8M183.9 144.6v-1.7M186.8 139v-1.8M175.8 135.7V134M163.3 133.1v-1.7M150.3 129.9v-1.8M161.8 125.6v-1.7M173.3 121.4v-1.8M168.1 117.5v-1.8M181.8 129.7V128M181.6 114.2v-1.7M139.3 139.1v-1.7M128.3 135.9v-1.8M134.3 129.9v-1.8M126.3 125.7V124M133.4 121.2v-1.7M148.6 118.5v-1.8M157.1 114.2v-1.7M150.6 107.1v-1.7M163.1 108.2v-1.7M194.1 103v-1.8M131.6 108.4v-1.8M127.6 112.4v-1.8M127.3 89.1v-1.7M139.3 93.1v-1.7M140.9 99.7V98M133.8 83.7V82M126.4 80.5v-1.8M156.1 98.4v-1.8M169.6 102.9v-1.8M168.8 95v-1.8M179.8 98.2v-1.7M186.8 93v-1.8M162.3 87.9v-1.8M154.8 84.9v-1.8M153.8 78.1v-1.7M166.3 80.6v-1.7M181.3 83.6v-1.7M191.4 130.5v-1.8M192.6 117.6v-1.7M193.3 95v-1.8M144.3 146.4l-.4-1.2M157.3 142.9l-.4-1.2M183.4 144.6l-.4-1.1M186.3 139l-.4-1.1M175.3 135.7l-.4-1.1M162.8 133.1l-.4-1.1M149.8 129.9l-.4-1.2M161.3 125.6l-.4-1.1M172.8 121.4l-.4-1.2M167.6 117.5l-.5-1.1M181.3 129.7l-.4-1.1M181.1 114.2l-.5-1.1M138.8 139.1l-.4-1.1M127.8 135.9l-.4-1.2M133.8 129.9l-.4-1.2M125.8 125.7l-.5-1.1M132.9 121.2l-.4-1.1M148.1 118.5l-.5-1.1M156.6 114.2l-.5-1.1M150.1 107.1l-.5-1.1M162.6 108.2l-.5-1.1M131.1 108.4l-.5-1.2M127.1 112.4l-.5-1.2M126.8 89.1l-.5-1.1M138.8 93.1l-.5-1.1M140.4 99.7l-.5-1.1M133.3 83.7l-.5-1.1M125.9 80.5l-.5-1.1M155.6 98.4l-.5-1.2M169.1 102.9l-.5-1.2M168.3 95l-.5-1.1M179.3 98.2l-.5-1.1M186.3 93l-.5-1.1M161.8 87.9l-.5-1.2M154.3 84.9l-.5-1.2M153.3 78.1l-.4-1.1M165.8 80.6l-.5-1.1M180.8 83.6l-.5-1.1M190.9 130.5l-.4-1.1M192.1 117.6l-.5-1.1M192.8 95l-.5-1.1M193.6 103l-.5-1.1M143.7 146.4l-.6-.7M156.7 142.9l-.6-.7M182.8 144.6l-.6-.6M185.7 139l-.6-.6M174.7 135.7l-.6-.6M162.2 133.1l-.6-.6M149.2 129.9l-.6-.7M160.7 125.6l-.6-.6M172.2 121.4l-.6-.7M167 117.5l-.7-.6M180.7 129.7l-.6-.6M180.5 114.2l-.7-.6M138.2 139.1l-.6-.6M127.2 135.9l-.6-.7M133.2 129.9l-.6-.7M125.2 125.7l-.7-.6M132.3 121.2l-.6-.6M147.5 118.5l-.7-.6M156 114.2l-.7-.6M149.5 107.1l-.7-.6M162 108.2l-.7-.6M130.5 108.4l-.7-.7M126.5 112.4l-.7-.7M126.2 89.1l-.7-.6M138.2 93.1l-.7-.6M139.8 99.7l-.6-.6M132.7 83.7l-.7-.6M125.3 80.5l-.6-.6M155 98.4l-.7-.7M168.5 102.9l-.7-.7M167.7 95l-.7-.6M178.7 98.2l-.7-.6M185.7 93l-.7-.6M161.2 87.9l-.7-.7M153.7 84.9l-.7-.7M152.7 78.1l-.6-.6M165.2 80.6l-.7-.6M180.2 83.6l-.7-.6M190.3 130.5l-.6-.6M191.5 117.6l-.7-.6M192.2 95l-.7-.6M193 103l-.7-.6M145.3 146.4l.5-1.2M158.3 142.9l.5-1.2M184.4 144.6l.6-1.1M187.3 139l.5-1.1M176.3 135.7l.5-1.1M163.8 133.1l.5-1.1M150.8 129.9l.5-1.2M162.3 125.6l.5-1.1M173.8 121.4l.5-1.2M168.6 117.5l.5-1.1M182.3 129.7l.5-1.1M182.1 114.2l.5-1.1M139.8 139.1l.5-1.1M128.8 135.9l.5-1.2M134.8 129.9l.5-1.2M126.8 125.7l.5-1.1M133.9 121.2l.6-1.1M149.1 118.5l.5-1.1M157.6 114.2l.5-1.1M151.1 107.1l.5-1.1M163.6 108.2l.5-1.1M193.8 95l.5-1.1M194.6 103l.5-1.1M132.1 108.4l.5-1.2M128.1 112.4l.5-1.2M127.8 89.1l.5-1.1M139.8 93.1l.5-1.1M141.4 99.7l.5-1.1M134.3 83.7l.5-1.1M126.9 80.5l.5-1.1M156.6 98.4l.5-1.2M170.1 102.9l.5-1.2M169.3 95l.5-1.1M180.3 98.2l.5-1.1M187.3 93l.5-1.1M162.8 87.9l.5-1.2M155.3 84.9l.5-1.2M154.3 78.1l.5-1.1M166.8 80.6l.5-1.1M181.8 83.6l.5-1.1M191.9 130.5l.6-1.1M193.1 117.6l.5-1.1M145.9 146.4l.7-.7M158.9 142.9l.7-.7M185 144.6l.7-.7M187.9 139l.7-.7M176.9 135.7l.7-.6M164.4 133.1l.7-.7M151.4 129.9l.7-.7M162.9 125.6l.7-.7M174.4 121.4l.7-.7M169.1 117.5l.7-.7M182.9 129.7l.7-.6M182.6 114.2l.7-.6M140.4 139.1l.7-.7M129.4 135.9l.7-.7M135.4 129.9l.7-.7M127.3 125.7l.7-.6M193.6 117.6l.7-.7M134.5 121.2l.7-.6M149.6 118.5l.7-.7M158.1 114.2l.7-.6M151.6 107.1l.7-.7M164.1 108.2l.7-.6M194.3 95l.7-.7M195.1 103l.7-.7M132.6 108.4l.7-.7M128.6 112.4l.7-.7M128.3 89.1l.7-.7M140.3 93.1l.7-.7M141.9 99.7l.7-.6M134.8 83.7l.7-.6M127.4 80.5l.7-.7M157.1 98.4l.7-.7M170.6 102.9l.7-.7M169.8 95l.7-.7M180.8 98.2l.7-.6M187.8 93l.7-.7M163.3 87.9l.7-.7M155.8 84.9l.7-.7M154.9 78.1l.7-.7M167.3 80.6l.7-.7M182.3 83.6l.7-.7M192.5 130.5l.7-.7M143.1 146.8h3.6M156.1 143.3h3.6M182.2 145h3.6M185.1 139.4h3.6M174.1 136.1h3.6M161.6 133.5h3.6M148.6 130.3h3.6M160.1 126h3.6M171.6 121.8h3.6M166.3 117.9h3.6M180.1 130.1h3.6M179.8 114.6h3.6M137.6 139.5h3.6M126.6 136.3h3.6M132.6 130.3h3.6M124.5 126.1h3.6M131.7 121.6h3.6M146.8 118.9h3.6M155.3 114.6h3.6M148.8 107.5h3.6M161.3 108.6h3.6M129.8 108.8h3.6M125.8 112.8h3.6M125.5 89.5h3.6M137.5 93.5h3.6M139.1 100.1h3.7M132 84.1h3.6M124.6 80.9h3.7M154.3 98.8h3.6M167.8 103.3h3.6M167 95.4h3.6M178 98.6h3.6M185 93.4h3.6M160.5 88.3h3.6M153 85.3h3.6M152.1 78.5h3.6M164.5 81h3.6M179.5 84h3.6M189.7 130.9h3.6M190.8 118h3.6M191.5 95.4h3.6M192.3 103.4h3.6M131.7 80.1h4.4M137.6 84.9h4.3M163.2 83h8.7M131.1 90.4h4.3M143.8 94.4h4.4M179.2 80h4.4M185.1 84.7h4.3M178.6 90.2h4.3M125.9 104.1h4.4M151.5 102.2h8.8M132.1 113.6h4.4M167.5 99.2h4.4M173.4 104h4.4M166.9 109.5h4.4M138.8 120.9h4.3M144.6 125.6h4.4M170.3 123.7h8.7M138.1 131.1h4.4M150.9 135.1h4.4M186.3 120.7h4.3M123.3 142.4h4.3M129.1 147.1h4.4M154.8 145.2h8.7M170.8 142.2h4.3M176.6 147h4.4M126.7 117.2h4.4M188.1 87h4.3M187.9 147.7h4.4M163.9 136.7h4.4M144.8 115.2h6.5M192 99.4h4.4M191.4 109.6h4.4M192.4 121.2h4.4"/></g><g clip-path="url(#akd)" fill="none" stroke="#03B8E2" stroke-width=".3"><path d="M117.8 95h6.9M118.6 103h6.9M120 99.4h4.4M120.4 121.2h4.4"/></g></g><g clip-path="url(#akb)"><defs><path id="ake" d="M124.3 149h72v72h-72z"/></defs><clipPath id="akf"><use xlink:href="#ake" overflow="visible"/></clipPath><g clip-path="url(#akf)" fill="none" stroke="#03B8E2" stroke-width=".3"><path d="M153.8 222.1v-1.7M153.3 222.1l-.4-1.1M154.3 222.1l.5-1.1"/></g><g clip-path="url(#akf)" fill="none" stroke="#03B8E2" stroke-width=".3"><path d="M194.8 197.7h6.9M196.1 184.4h6.9M195.8 161.1h6.9M194.9 152.5h6.9M195.3 214.4h4.3"/></g><g clip-path="url(#akf)" fill="none" stroke="#03B8E2" stroke-width=".3"><path d="M141.4 218.4h6.9M154.4 214.9h6.9M180.5 216.6h6.9M183.4 211h6.9M172.4 207.7h6.9M159.9 205.1h6.9M146.9 201.9h6.9M158.4 197.6h6.9M169.9 193.4h6.9M164.6 189.5h6.9M178.4 201.7h6.9M178.1 186.2h6.9M135.9 211.1h6.9M124.9 207.9h6.9M130.9 201.9h6.9M122.8 197.7h6.9M130 193.2h6.9M145.1 190.5h6.9M153.6 186.2h6.9M147.1 179.1h6.9M159.6 180.2h6.9M128.1 180.4h6.9M124.1 184.4h6.9M123.8 161.1h6.9M135.8 165.1h6.9M137.4 171.7h6.9M130.3 155.7h6.9M122.9 152.5h6.9M152.6 170.4h6.9M166.1 174.9h6.9M165.3 167h6.9M176.3 170.2h6.9M183.3 165h6.9M158.8 159.9h6.9M151.3 156.9h6.9M150.4 150.1h6.9M162.8 152.6h6.9M177.8 155.6h6.9M188 202.5h6.9M189.1 189.6h6.9M189.8 167h6.9M190.6 175h6.9M144.8 218.4v-1.8M157.8 214.9v-1.8M183.9 216.6v-1.7M186.8 211v-1.8M175.8 207.7V206M163.3 205.1v-1.7M150.3 201.9v-1.8M161.8 197.6v-1.7M173.3 193.4v-1.8M168.1 189.5v-1.8M181.8 201.7V200M181.6 186.2v-1.7M139.3 211.1v-1.7M128.3 207.9v-1.8M134.3 201.9v-1.8M126.3 197.7V196M133.4 193.2v-1.7M148.6 190.5v-1.8M157.1 186.2v-1.7M150.6 179.1v-1.7M163.1 180.2v-1.7M194.1 175v-1.8M131.6 180.4v-1.8M127.6 184.4v-1.8M127.3 161.1v-1.7M139.3 165.1v-1.7M140.9 171.7V170M133.8 155.7V154M126.4 152.5v-1.8M156.1 170.4v-1.8M169.6 174.9v-1.8M168.8 167v-1.8M179.8 170.2v-1.7M186.8 165v-1.8M162.3 159.9v-1.8M154.8 156.9v-1.8M153.8 150.1v-1.7M166.3 152.6v-1.7M181.3 155.6v-1.7M191.4 202.5v-1.8M192.6 189.6v-1.7M193.3 167v-1.8M144.3 218.4l-.4-1.2M157.3 214.9l-.4-1.2M183.4 216.6l-.4-1.1M186.3 211l-.4-1.1M175.3 207.7l-.4-1.1M162.8 205.1l-.4-1.1M149.8 201.9l-.4-1.2M161.3 197.6l-.4-1.1M172.8 193.4l-.4-1.2M167.6 189.5l-.5-1.1M181.3 201.7l-.4-1.1M181.1 186.2l-.5-1.1M138.8 211.1l-.4-1.1M127.8 207.9l-.4-1.2M133.8 201.9l-.4-1.2M125.8 197.7l-.5-1.1M132.9 193.2l-.4-1.1M148.1 190.5l-.5-1.1M156.6 186.2l-.5-1.1M150.1 179.1l-.5-1.1M162.6 180.2l-.5-1.1M131.1 180.4l-.5-1.2M127.1 184.4l-.5-1.2M126.8 161.1l-.5-1.1M138.8 165.1l-.5-1.1M140.4 171.7l-.5-1.1M133.3 155.7l-.5-1.1M125.9 152.5l-.5-1.1M155.6 170.4l-.5-1.2M169.1 174.9l-.5-1.2M168.3 167l-.5-1.1M179.3 170.2l-.5-1.1M186.3 165l-.5-1.1M161.8 159.9l-.5-1.2M154.3 156.9l-.5-1.2M153.3 150.1l-.4-1.1M165.8 152.6l-.5-1.1M180.8 155.6l-.5-1.1M190.9 202.5l-.4-1.1M192.1 189.6l-.5-1.1M192.8 167l-.5-1.1M193.6 175l-.5-1.1M143.7 218.4l-.6-.7M156.7 214.9l-.6-.7M182.8 216.6l-.6-.6M185.7 211l-.6-.6M174.7 207.7l-.6-.6M162.2 205.1l-.6-.6M149.2 201.9l-.6-.7M160.7 197.6l-.6-.6M172.2 193.4l-.6-.7M167 189.5l-.7-.6M180.7 201.7l-.6-.6M180.5 186.2l-.7-.6M138.2 211.1l-.6-.6M127.2 207.9l-.6-.7M133.2 201.9l-.6-.7M125.2 197.7l-.7-.6M132.3 193.2l-.6-.6M147.5 190.5l-.7-.6M156 186.2l-.7-.6M149.5 179.1l-.7-.6M162 180.2l-.7-.6M130.5 180.4l-.7-.7M126.5 184.4l-.7-.7M126.2 161.1l-.7-.6M138.2 165.1l-.7-.6M139.8 171.7l-.6-.6M132.7 155.7l-.7-.6M125.3 152.5l-.6-.6M155 170.4l-.7-.7M168.5 174.9l-.7-.7M167.7 167l-.7-.6M178.7 170.2l-.7-.6M185.7 165l-.7-.6M161.2 159.9l-.7-.7M153.7 156.9l-.7-.7M152.7 150.1l-.6-.6M165.2 152.6l-.7-.6M180.2 155.6l-.7-.6M190.3 202.5l-.6-.6M191.5 189.6l-.7-.6M192.2 167l-.7-.6M193 175l-.7-.6M145.3 218.4l.5-1.2M158.3 214.9l.5-1.2M184.4 216.6l.6-1.1M187.3 211l.5-1.1M176.3 207.7l.5-1.1M163.8 205.1l.5-1.1M150.8 201.9l.5-1.2M162.3 197.6l.5-1.1M173.8 193.4l.5-1.2M168.6 189.5l.5-1.1M182.3 201.7l.5-1.1M182.1 186.2l.5-1.1M139.8 211.1l.5-1.1M128.8 207.9l.5-1.2M134.8 201.9l.5-1.2M126.8 197.7l.5-1.1M133.9 193.2l.6-1.1M149.1 190.5l.5-1.1M157.6 186.2l.5-1.1M151.1 179.1l.5-1.1M163.6 180.2l.5-1.1M193.8 167l.5-1.1M194.6 175l.5-1.1M132.1 180.4l.5-1.2M128.1 184.4l.5-1.2M127.8 161.1l.5-1.1M139.8 165.1l.5-1.1M141.4 171.7l.5-1.1M134.3 155.7l.5-1.1M126.9 152.5l.5-1.1M156.6 170.4l.5-1.2M170.1 174.9l.5-1.2M169.3 167l.5-1.1M180.3 170.2l.5-1.1M187.3 165l.5-1.1M162.8 159.9l.5-1.2M155.3 156.9l.5-1.2M154.3 150.1l.5-1.1M166.8 152.6l.5-1.1M181.8 155.6l.5-1.1M191.9 202.5l.6-1.1M193.1 189.6l.5-1.1M145.9 218.4l.7-.7M158.9 214.9l.7-.7M185 216.6l.7-.7M187.9 211l.7-.7M176.9 207.7l.7-.6M164.4 205.1l.7-.7M151.4 201.9l.7-.7M162.9 197.6l.7-.7M174.4 193.4l.7-.7M169.1 189.5l.7-.7M182.9 201.7l.7-.6M182.6 186.2l.7-.6M140.4 211.1l.7-.7M129.4 207.9l.7-.7M135.4 201.9l.7-.7M127.3 197.7l.7-.6M193.6 189.6l.7-.7M134.5 193.2l.7-.6M149.6 190.5l.7-.7M158.1 186.2l.7-.6M151.6 179.1l.7-.7M164.1 180.2l.7-.6M194.3 167l.7-.7M195.1 175l.7-.7M132.6 180.4l.7-.7M128.6 184.4l.7-.7M128.3 161.1l.7-.7M140.3 165.1l.7-.7M141.9 171.7l.7-.6M134.8 155.7l.7-.6M127.4 152.5l.7-.7M157.1 170.4l.7-.7M170.6 174.9l.7-.7M169.8 167l.7-.7M180.8 170.2l.7-.6M187.8 165l.7-.7M163.3 159.9l.7-.7M155.8 156.9l.7-.7M154.9 150.1l.7-.7M167.3 152.6l.7-.7M182.3 155.6l.7-.7M192.5 202.5l.7-.7M143.1 218.8h3.6M156.1 215.3h3.6M182.2 217h3.6M185.1 211.4h3.6M174.1 208.1h3.6M161.6 205.5h3.6M148.6 202.3h3.6M160.1 198h3.6M171.6 193.8h3.6M166.3 189.9h3.6M180.1 202.1h3.6M179.8 186.6h3.6M137.6 211.5h3.6M126.6 208.3h3.6M132.6 202.3h3.6M124.5 198.1h3.6M131.7 193.6h3.6M146.8 190.9h3.6M155.3 186.6h3.6M148.8 179.5h3.6M161.3 180.6h3.6M129.8 180.8h3.6M125.8 184.8h3.6M125.5 161.5h3.6M137.5 165.5h3.6M139.1 172.1h3.7M132 156.1h3.6M124.6 152.9h3.7M154.3 170.8h3.6M167.8 175.3h3.6M167 167.4h3.6M178 170.6h3.6M185 165.4h3.6M160.5 160.3h3.6M153 157.3h3.6M152.1 150.5h3.6M164.5 153h3.6M179.5 156h3.6M189.7 202.9h3.6M190.8 190h3.6M191.5 167.4h3.6M192.3 175.4h3.6M131.7 152.1h4.4M137.6 156.9h4.3M163.2 155h8.7M131.1 162.4h4.3M143.8 166.4h4.4M179.2 152h4.4M185.1 156.7h4.3M178.6 162.2h4.3M125.9 176.1h4.4M151.5 174.2h8.8M132.1 185.6h4.4M167.5 171.2h4.4M173.4 176h4.4M166.9 181.5h4.4M138.8 192.9h4.3M144.6 197.6h4.4M170.3 195.7h8.7M138.1 203.1h4.4M150.9 207.1h4.4M186.3 192.7h4.3M123.3 214.4h4.3M129.1 219.1h4.4M154.8 217.2h8.7M170.8 214.2h4.3M176.6 219h4.4M126.7 189.2h4.4M188.1 159h4.3M187.9 219.7h4.4M163.9 208.7h4.4M144.8 187.2h6.5M192 171.4h4.4M191.4 181.6h4.4M192.4 193.2h4.4"/></g><g clip-path="url(#akf)" fill="none" stroke="#03B8E2" stroke-width=".3"><path d="M117.8 167h6.9M118.6 175h6.9M120 171.4h4.4M120.4 193.2h4.4"/></g></g><g clip-path="url(#akb)"><defs><path id="akg" d="M52.3 77h72v72h-72z"/></defs><clipPath id="akh"><use xlink:href="#akg" overflow="visible"/></clipPath><g clip-path="url(#akh)" fill="none" stroke="#03B8E2" stroke-width=".3"><path d="M81.8 150.1v-1.7M81.3 150.1l-.4-1.1M82.3 150.1l.5-1.1"/></g><g clip-path="url(#akh)" fill="none" stroke="#03B8E2" stroke-width=".3"><path d="M122.8 125.7h6.9M124.1 112.4h6.9M123.8 89.1h6.9M122.9 80.5h6.9M123.3 142.4h4.3"/></g><g clip-path="url(#akh)" fill="none" stroke="#03B8E2" stroke-width=".3"><path d="M69.4 146.4h6.9M82.4 142.9h6.9M108.5 144.6h6.9M111.4 139h6.9M100.4 135.7h6.9M87.9 133.1h6.9M74.9 129.9h6.9M86.4 125.6h6.9M97.9 121.4h6.9M92.6 117.5h6.9M106.4 129.7h6.9M106.1 114.2h6.9M63.9 139.1h6.9M52.9 135.9h6.9M58.9 129.9h6.9M50.8 125.7h6.9M58 121.2h6.9M73.1 118.5H80M81.6 114.2h6.9M75.1 107.1H82M87.6 108.2h6.9M56.1 108.4H63M52.1 112.4H59M51.8 89.1h6.9M63.8 93.1h6.9M65.4 99.7h6.9M58.3 83.7h6.9M50.9 80.5h6.9M80.6 98.4h6.9M94.1 102.9h6.9M93.3 95h6.9M104.3 98.2h6.9M111.3 93h6.9M86.8 87.9h6.9M79.3 84.9h6.9M78.4 78.1h6.9M90.8 80.6h6.9M105.8 83.6h6.9M116 130.5h6.9M117.1 117.6h6.9M117.8 95h6.9M118.6 103h6.9M72.8 146.4v-1.8M85.8 142.9v-1.8M111.9 144.6v-1.7M114.8 139v-1.8M103.8 135.7V134M91.3 133.1v-1.7M78.3 129.9v-1.8M89.8 125.6v-1.7M101.3 121.4v-1.8M96.1 117.5v-1.8M109.8 129.7V128M109.6 114.2v-1.7M67.3 139.1v-1.7M56.3 135.9v-1.8M62.3 129.9v-1.8M54.3 125.7V124M61.4 121.2v-1.7M76.6 118.5v-1.8M85.1 114.2v-1.7M78.6 107.1v-1.7M91.1 108.2v-1.7M122.1 103v-1.8M59.6 108.4v-1.8M55.6 112.4v-1.8M55.3 89.1v-1.7M67.3 93.1v-1.7M68.9 99.7V98M61.8 83.7V82M54.4 80.5v-1.8M84.1 98.4v-1.8M97.6 102.9v-1.8M96.8 95v-1.8M107.8 98.2v-1.7M114.8 93v-1.8M90.3 87.9v-1.8M82.8 84.9v-1.8M81.8 78.1v-1.7M94.3 80.6v-1.7M109.3 83.6v-1.7M119.4 130.5v-1.8M120.6 117.6v-1.7M121.3 95v-1.8M72.3 146.4l-.4-1.2M85.3 142.9l-.4-1.2M111.4 144.6l-.4-1.1M114.3 139l-.4-1.1M103.3 135.7l-.4-1.1M90.8 133.1l-.4-1.1M77.8 129.9l-.4-1.2M89.3 125.6l-.4-1.1M100.8 121.4l-.4-1.2M95.6 117.5l-.5-1.1M109.3 129.7l-.4-1.1M109.1 114.2l-.5-1.1M66.8 139.1l-.4-1.1M55.8 135.9l-.4-1.2M61.8 129.9l-.4-1.2M53.8 125.7l-.5-1.1M60.9 121.2l-.4-1.1M76.1 118.5l-.5-1.1M84.6 114.2l-.5-1.1M78.1 107.1l-.5-1.1M90.6 108.2l-.5-1.1M59.1 108.4l-.5-1.2M55.1 112.4l-.5-1.2M54.8 89.1l-.5-1.1M66.8 93.1l-.5-1.1M68.4 99.7l-.5-1.1M61.3 83.7l-.5-1.1M53.9 80.5l-.5-1.1M83.6 98.4l-.5-1.2M97.1 102.9l-.5-1.2M96.3 95l-.5-1.1M107.3 98.2l-.5-1.1M114.3 93l-.5-1.1M89.8 87.9l-.5-1.2M82.3 84.9l-.5-1.2M81.3 78.1l-.4-1.1M93.8 80.6l-.5-1.1M108.8 83.6l-.5-1.1M118.9 130.5l-.4-1.1M120.1 117.6l-.5-1.1M120.8 95l-.5-1.1M121.6 103l-.5-1.1M71.7 146.4l-.6-.7M84.7 142.9l-.6-.7M110.8 144.6l-.6-.6M113.7 139l-.6-.6M102.7 135.7l-.6-.6M90.2 133.1l-.6-.6M77.2 129.9l-.6-.7M88.7 125.6l-.6-.6M100.2 121.4l-.6-.7M95 117.5l-.7-.6M108.7 129.7l-.6-.6M108.5 114.2l-.7-.6M66.2 139.1l-.6-.6M55.2 135.9l-.6-.7M61.2 129.9l-.6-.7M53.2 125.7l-.7-.6M60.3 121.2l-.6-.6M75.5 118.5l-.7-.6M84 114.2l-.7-.6M77.5 107.1l-.7-.6M90 108.2l-.7-.6M58.5 108.4l-.7-.7M54.5 112.4l-.7-.7M54.2 89.1l-.7-.6M66.2 93.1l-.7-.6M67.8 99.7l-.6-.6M60.7 83.7l-.7-.6M53.3 80.5l-.6-.6M83 98.4l-.7-.7M96.5 102.9l-.7-.7M95.7 95l-.7-.6M106.7 98.2l-.7-.6M113.7 93l-.7-.6M89.2 87.9l-.7-.7M81.7 84.9l-.7-.7M80.7 78.1l-.6-.6M93.2 80.6l-.7-.6M108.2 83.6l-.7-.6M118.3 130.5l-.6-.6M119.5 117.6l-.7-.6M120.2 95l-.7-.6M121 103l-.7-.6M73.3 146.4l.5-1.2M86.3 142.9l.5-1.2M112.4 144.6l.6-1.1M115.3 139l.5-1.1M104.3 135.7l.5-1.1M91.8 133.1l.5-1.1M78.8 129.9l.5-1.2M90.3 125.6l.5-1.1M101.8 121.4l.5-1.2M96.6 117.5l.5-1.1M110.3 129.7l.5-1.1M110.1 114.2l.5-1.1M67.8 139.1l.5-1.1M56.8 135.9l.5-1.2M62.8 129.9l.5-1.2M54.8 125.7l.5-1.1M61.9 121.2l.6-1.1M77.1 118.5l.5-1.1M85.6 114.2l.5-1.1M79.1 107.1l.5-1.1M91.6 108.2l.5-1.1M121.8 95l.5-1.1M122.6 103l.5-1.1M60.1 108.4l.5-1.2M56.1 112.4l.5-1.2M55.8 89.1l.5-1.1M67.8 93.1l.5-1.1M69.4 99.7l.5-1.1M62.3 83.7l.5-1.1M54.9 80.5l.5-1.1M84.6 98.4l.5-1.2M98.1 102.9l.5-1.2M97.3 95l.5-1.1M108.3 98.2l.5-1.1M115.3 93l.5-1.1M90.8 87.9l.5-1.2M83.3 84.9l.5-1.2M82.3 78.1l.5-1.1M94.8 80.6l.5-1.1M109.8 83.6l.5-1.1M119.9 130.5l.6-1.1M121.1 117.6l.5-1.1M73.9 146.4l.7-.7M86.9 142.9l.7-.7M113 144.6l.7-.7M115.9 139l.7-.7M104.9 135.7l.7-.6M92.4 133.1l.7-.7M79.4 129.9l.7-.7M90.9 125.6l.7-.7M102.4 121.4l.7-.7M97.1 117.5l.7-.7M110.9 129.7l.7-.6M110.6 114.2l.7-.6M68.4 139.1l.7-.7M57.4 135.9l.7-.7M63.4 129.9l.7-.7M55.3 125.7l.7-.6M121.6 117.6l.7-.7M62.5 121.2l.7-.6M77.6 118.5l.7-.7M86.1 114.2l.7-.6M79.6 107.1l.7-.7M92.1 108.2l.7-.6M122.3 95l.7-.7M123.1 103l.7-.7M60.6 108.4l.7-.7M56.6 112.4l.7-.7M56.3 89.1l.7-.7M68.3 93.1l.7-.7M69.9 99.7l.7-.6M62.8 83.7l.7-.6M55.4 80.5l.7-.7M85.1 98.4l.7-.7M98.6 102.9l.7-.7M97.8 95l.7-.7M108.8 98.2l.7-.6M115.8 93l.7-.7M91.3 87.9l.7-.7M83.8 84.9l.7-.7M82.9 78.1l.7-.7M95.3 80.6l.7-.7M110.3 83.6l.7-.7M120.5 130.5l.7-.7M71.1 146.8h3.6M84.1 143.3h3.6M110.2 145h3.6M113.1 139.4h3.6M102.1 136.1h3.6M89.6 133.5h3.6M76.6 130.3h3.6M88.1 126h3.6M99.6 121.8h3.6M94.3 117.9h3.6M108.1 130.1h3.6M107.8 114.6h3.6M65.6 139.5h3.6M54.6 136.3h3.6M60.6 130.3h3.6M52.5 126.1h3.6M59.7 121.6h3.6M74.8 118.9h3.6M83.3 114.6h3.6M76.8 107.5h3.6M89.3 108.6h3.6M57.8 108.8h3.6M53.8 112.8h3.6M53.5 89.5h3.6M65.5 93.5h3.6M67.1 100.1h3.7M60 84.1h3.6M52.6 80.9h3.7M82.3 98.8h3.6M95.8 103.3h3.6M95 95.4h3.6M106 98.6h3.6M113 93.4h3.6M88.5 88.3h3.6M81 85.3h3.6M80.1 78.5h3.6M92.5 81h3.6M107.5 84h3.6M117.7 130.9h3.6M118.8 118h3.6M119.5 95.4h3.6M120.3 103.4h3.6M59.7 80.1h4.4M65.6 84.9h4.3M91.2 83h8.7M59.1 90.4h4.3M71.8 94.4h4.4M107.2 80h4.4M113.1 84.7h4.3M106.6 90.2h4.3M53.9 104.1h4.4M79.5 102.2h8.8M60.1 113.6h4.4M95.5 99.2h4.4M101.4 104h4.4M94.9 109.5h4.4M66.8 120.9h4.3M72.6 125.6H77M98.3 123.7h8.7M66.1 131.1h4.4M78.9 135.1h4.4M114.3 120.7h4.3M51.3 142.4h4.3M57.1 147.1h4.4M82.8 145.2h8.7M98.8 142.2h4.3M104.6 147h4.4M54.7 117.2h4.4M116.1 87h4.3M115.9 147.7h4.4M91.9 136.7h4.4M72.8 115.2h6.5M120 99.4h4.4M119.4 109.6h4.4M120.4 121.2h4.4"/></g><g clip-path="url(#akh)" fill="none" stroke="#03B8E2" stroke-width=".3"><path d="M45.8 95h6.9M46.6 103h6.9M48 99.4h4.4M48.4 121.2h4.4"/></g></g><g clip-path="url(#akb)"><defs><path id="aki" d="M52.3 149h72v72h-72z"/></defs><clipPath id="akj"><use xlink:href="#aki" overflow="visible"/></clipPath><g clip-path="url(#akj)" fill="none" stroke="#03B8E2" stroke-width=".3"><path d="M81.8 222.1v-1.7M81.3 222.1l-.4-1.1M82.3 222.1l.5-1.1"/></g><g clip-path="url(#akj)" fill="none" stroke="#03B8E2" stroke-width=".3"><path d="M122.8 197.7h6.9M124.1 184.4h6.9M123.8 161.1h6.9M122.9 152.5h6.9M123.3 214.4h4.3"/></g><g clip-path="url(#akj)" fill="none" stroke="#03B8E2" stroke-width=".3"><path d="M69.4 218.4h6.9M82.4 214.9h6.9M108.5 216.6h6.9M111.4 211h6.9M100.4 207.7h6.9M87.9 205.1h6.9M74.9 201.9h6.9M86.4 197.6h6.9M97.9 193.4h6.9M92.6 189.5h6.9M106.4 201.7h6.9M106.1 186.2h6.9M63.9 211.1h6.9M52.9 207.9h6.9M58.9 201.9h6.9M50.8 197.7h6.9M58 193.2h6.9M73.1 190.5H80M81.6 186.2h6.9M75.1 179.1H82M87.6 180.2h6.9M56.1 180.4H63M52.1 184.4H59M51.8 161.1h6.9M63.8 165.1h6.9M65.4 171.7h6.9M58.3 155.7h6.9M50.9 152.5h6.9M80.6 170.4h6.9M94.1 174.9h6.9M93.3 167h6.9M104.3 170.2h6.9M111.3 165h6.9M86.8 159.9h6.9M79.3 156.9h6.9M78.4 150.1h6.9M90.8 152.6h6.9M105.8 155.6h6.9M116 202.5h6.9M117.1 189.6h6.9M117.8 167h6.9M118.6 175h6.9M72.8 218.4v-1.8M85.8 214.9v-1.8M111.9 216.6v-1.7M114.8 211v-1.8M103.8 207.7V206M91.3 205.1v-1.7M78.3 201.9v-1.8M89.8 197.6v-1.7M101.3 193.4v-1.8M96.1 189.5v-1.8M109.8 201.7V200M109.6 186.2v-1.7M67.3 211.1v-1.7M56.3 207.9v-1.8M62.3 201.9v-1.8M54.3 197.7V196M61.4 193.2v-1.7M76.6 190.5v-1.8M85.1 186.2v-1.7M78.6 179.1v-1.7M91.1 180.2v-1.7M122.1 175v-1.8M59.6 180.4v-1.8M55.6 184.4v-1.8M55.3 161.1v-1.7M67.3 165.1v-1.7M68.9 171.7V170M61.8 155.7V154M54.4 152.5v-1.8M84.1 170.4v-1.8M97.6 174.9v-1.8M96.8 167v-1.8M107.8 170.2v-1.7M114.8 165v-1.8M90.3 159.9v-1.8M82.8 156.9v-1.8M81.8 150.1v-1.7M94.3 152.6v-1.7M109.3 155.6v-1.7M119.4 202.5v-1.8M120.6 189.6v-1.7M121.3 167v-1.8M72.3 218.4l-.4-1.2M85.3 214.9l-.4-1.2M111.4 216.6l-.4-1.1M114.3 211l-.4-1.1M103.3 207.7l-.4-1.1M90.8 205.1l-.4-1.1M77.8 201.9l-.4-1.2M89.3 197.6l-.4-1.1M100.8 193.4l-.4-1.2M95.6 189.5l-.5-1.1M109.3 201.7l-.4-1.1M109.1 186.2l-.5-1.1M66.8 211.1l-.4-1.1M55.8 207.9l-.4-1.2M61.8 201.9l-.4-1.2M53.8 197.7l-.5-1.1M60.9 193.2l-.4-1.1M76.1 190.5l-.5-1.1M84.6 186.2l-.5-1.1M78.1 179.1l-.5-1.1M90.6 180.2l-.5-1.1M59.1 180.4l-.5-1.2M55.1 184.4l-.5-1.2M54.8 161.1l-.5-1.1M66.8 165.1l-.5-1.1M68.4 171.7l-.5-1.1M61.3 155.7l-.5-1.1M53.9 152.5l-.5-1.1M83.6 170.4l-.5-1.2M97.1 174.9l-.5-1.2M96.3 167l-.5-1.1M107.3 170.2l-.5-1.1M114.3 165l-.5-1.1M89.8 159.9l-.5-1.2M82.3 156.9l-.5-1.2M81.3 150.1l-.4-1.1M93.8 152.6l-.5-1.1M108.8 155.6l-.5-1.1M118.9 202.5l-.4-1.1M120.1 189.6l-.5-1.1M120.8 167l-.5-1.1M121.6 175l-.5-1.1M71.7 218.4l-.6-.7M84.7 214.9l-.6-.7M110.8 216.6l-.6-.6M113.7 211l-.6-.6M102.7 207.7l-.6-.6M90.2 205.1l-.6-.6M77.2 201.9l-.6-.7M88.7 197.6l-.6-.6M100.2 193.4l-.6-.7M95 189.5l-.7-.6M108.7 201.7l-.6-.6M108.5 186.2l-.7-.6M66.2 211.1l-.6-.6M55.2 207.9l-.6-.7M61.2 201.9l-.6-.7M53.2 197.7l-.7-.6M60.3 193.2l-.6-.6M75.5 190.5l-.7-.6M84 186.2l-.7-.6M77.5 179.1l-.7-.6M90 180.2l-.7-.6M58.5 180.4l-.7-.7M54.5 184.4l-.7-.7M54.2 161.1l-.7-.6M66.2 165.1l-.7-.6M67.8 171.7l-.6-.6M60.7 155.7l-.7-.6M53.3 152.5l-.6-.6M83 170.4l-.7-.7M96.5 174.9l-.7-.7M95.7 167l-.7-.6M106.7 170.2l-.7-.6M113.7 165l-.7-.6M89.2 159.9l-.7-.7M81.7 156.9l-.7-.7M80.7 150.1l-.6-.6M93.2 152.6l-.7-.6M108.2 155.6l-.7-.6M118.3 202.5l-.6-.6M119.5 189.6l-.7-.6M120.2 167l-.7-.6M121 175l-.7-.6M73.3 218.4l.5-1.2M86.3 214.9l.5-1.2M112.4 216.6l.6-1.1M115.3 211l.5-1.1M104.3 207.7l.5-1.1M91.8 205.1l.5-1.1M78.8 201.9l.5-1.2M90.3 197.6l.5-1.1M101.8 193.4l.5-1.2M96.6 189.5l.5-1.1M110.3 201.7l.5-1.1M110.1 186.2l.5-1.1M67.8 211.1l.5-1.1M56.8 207.9l.5-1.2M62.8 201.9l.5-1.2M54.8 197.7l.5-1.1M61.9 193.2l.6-1.1M77.1 190.5l.5-1.1M85.6 186.2l.5-1.1M79.1 179.1l.5-1.1M91.6 180.2l.5-1.1M121.8 167l.5-1.1M122.6 175l.5-1.1M60.1 180.4l.5-1.2M56.1 184.4l.5-1.2M55.8 161.1l.5-1.1M67.8 165.1l.5-1.1M69.4 171.7l.5-1.1M62.3 155.7l.5-1.1M54.9 152.5l.5-1.1M84.6 170.4l.5-1.2M98.1 174.9l.5-1.2M97.3 167l.5-1.1M108.3 170.2l.5-1.1M115.3 165l.5-1.1M90.8 159.9l.5-1.2M83.3 156.9l.5-1.2M82.3 150.1l.5-1.1M94.8 152.6l.5-1.1M109.8 155.6l.5-1.1M119.9 202.5l.6-1.1M121.1 189.6l.5-1.1M73.9 218.4l.7-.7M86.9 214.9l.7-.7M113 216.6l.7-.7M115.9 211l.7-.7M104.9 207.7l.7-.6M92.4 205.1l.7-.7M79.4 201.9l.7-.7M90.9 197.6l.7-.7M102.4 193.4l.7-.7M97.1 189.5l.7-.7M110.9 201.7l.7-.6M110.6 186.2l.7-.6M68.4 211.1l.7-.7M57.4 207.9l.7-.7M63.4 201.9l.7-.7M55.3 197.7l.7-.6M121.6 189.6l.7-.7M62.5 193.2l.7-.6M77.6 190.5l.7-.7M86.1 186.2l.7-.6M79.6 179.1l.7-.7M92.1 180.2l.7-.6M122.3 167l.7-.7M123.1 175l.7-.7M60.6 180.4l.7-.7M56.6 184.4l.7-.7M56.3 161.1l.7-.7M68.3 165.1l.7-.7M69.9 171.7l.7-.6M62.8 155.7l.7-.6M55.4 152.5l.7-.7M85.1 170.4l.7-.7M98.6 174.9l.7-.7M97.8 167l.7-.7M108.8 170.2l.7-.6M115.8 165l.7-.7M91.3 159.9l.7-.7M83.8 156.9l.7-.7M82.9 150.1l.7-.7M95.3 152.6l.7-.7M110.3 155.6l.7-.7M120.5 202.5l.7-.7M71.1 218.8h3.6M84.1 215.3h3.6M110.2 217h3.6M113.1 211.4h3.6M102.1 208.1h3.6M89.6 205.5h3.6M76.6 202.3h3.6M88.1 198h3.6M99.6 193.8h3.6M94.3 189.9h3.6M108.1 202.1h3.6M107.8 186.6h3.6M65.6 211.5h3.6M54.6 208.3h3.6M60.6 202.3h3.6M52.5 198.1h3.6M59.7 193.6h3.6M74.8 190.9h3.6M83.3 186.6h3.6M76.8 179.5h3.6M89.3 180.6h3.6M57.8 180.8h3.6M53.8 184.8h3.6M53.5 161.5h3.6M65.5 165.5h3.6M67.1 172.1h3.7M60 156.1h3.6M52.6 152.9h3.7M82.3 170.8h3.6M95.8 175.3h3.6M95 167.4h3.6M106 170.6h3.6M113 165.4h3.6M88.5 160.3h3.6M81 157.3h3.6M80.1 150.5h3.6M92.5 153h3.6M107.5 156h3.6M117.7 202.9h3.6M118.8 190h3.6M119.5 167.4h3.6M120.3 175.4h3.6M59.7 152.1h4.4M65.6 156.9h4.3M91.2 155h8.7M59.1 162.4h4.3M71.8 166.4h4.4M107.2 152h4.4M113.1 156.7h4.3M106.6 162.2h4.3M53.9 176.1h4.4M79.5 174.2h8.8M60.1 185.6h4.4M95.5 171.2h4.4M101.4 176h4.4M94.9 181.5h4.4M66.8 192.9h4.3M72.6 197.6H77M98.3 195.7h8.7M66.1 203.1h4.4M78.9 207.1h4.4M114.3 192.7h4.3M51.3 214.4h4.3M57.1 219.1h4.4M82.8 217.2h8.7M98.8 214.2h4.3M104.6 219h4.4M54.7 189.2h4.4M116.1 159h4.3M115.9 219.7h4.4M91.9 208.7h4.4M72.8 187.2h6.5M120 171.4h4.4M119.4 181.6h4.4M120.4 193.2h4.4"/></g><g clip-path="url(#akj)" fill="none" stroke="#03B8E2" stroke-width=".3"><path d="M45.8 167h6.9M46.6 175h6.9M48 171.4h4.4M48.4 193.2h4.4"/></g></g><g clip-path="url(#akb)"><defs><path id="akk" d="M-19.7 77h72v72h-72z"/></defs><clipPath id="akl"><use xlink:href="#akk" overflow="visible"/></clipPath><g clip-path="url(#akl)" fill="none" stroke="#03B8E2" stroke-width=".3"><path d="M9.8 150.1v-1.7M9.3 150.1l-.4-1.1M10.3 150.1l.5-1.1"/></g><g clip-path="url(#akl)" fill="none" stroke="#03B8E2" stroke-width=".3"><path d="M50.8 125.7h6.9M52.1 112.4H59M51.8 89.1h6.9M50.9 80.5h6.9M51.3 142.4h4.3"/></g><g clip-path="url(#akl)" fill="none" stroke="#03B8E2" stroke-width=".3"><path d="M-2.6 146.4h6.9M10.4 142.9h6.9M36.5 144.6h6.9M39.4 139h6.9M28.4 135.7h6.9M15.9 133.1h6.9M2.9 129.9h6.9M14.4 125.6h6.9M25.9 121.4h6.9M20.6 117.5h6.9M34.4 129.7h6.9M34.1 114.2H41M-8.1 139.1h6.9M-19.1 135.9h6.9M-13.1 129.9h6.9M-21.2 125.7h6.9M-14 121.2h6.9M1.1 118.5H8M9.6 114.2h6.9M3.1 107.1H10M15.6 108.2h6.9M-15.9 108.4H-9M-19.9 112.4h6.9M-20.2 89.1h6.9M-8.2 93.1h6.9M-6.6 99.7H.3M-13.7 83.7h6.9M-21.1 80.5h6.9M8.6 98.4h6.9M22.1 102.9H29M21.3 95h6.9M32.3 98.2h6.9M39.3 93h6.9M14.8 87.9h6.9M7.3 84.9h6.9M6.4 78.1h6.9M18.8 80.6h6.9M33.8 83.6h6.9M44 130.5h6.9M45.1 117.6H52M45.8 95h6.9M46.6 103h6.9M.8 146.4v-1.8M13.8 142.9v-1.8M39.9 144.6v-1.7M42.8 139v-1.8M31.8 135.7V134M19.3 133.1v-1.7M6.3 129.9v-1.8M17.8 125.6v-1.7M29.3 121.4v-1.8M24.1 117.5v-1.8M37.8 129.7V128M37.6 114.2v-1.7M-4.7 139.1v-1.7M-15.7 135.9v-1.8M-9.7 129.9v-1.8M-17.7 125.7V124M-10.6 121.2v-1.7M4.6 118.5v-1.8M13.1 114.2v-1.7M6.6 107.1v-1.7M19.1 108.2v-1.7M50.1 103v-1.8M-12.4 108.4v-1.8M-16.4 112.4v-1.8M-16.7 89.1v-1.7M-4.7 93.1v-1.7M-3.1 99.7V98M-10.2 83.7V82M-17.6 80.5v-1.8M12.1 98.4v-1.8M25.6 102.9v-1.8M24.8 95v-1.8M35.8 98.2v-1.7M42.8 93v-1.8M18.3 87.9v-1.8M10.8 84.9v-1.8M9.8 78.1v-1.7M22.3 80.6v-1.7M37.3 83.6v-1.7M47.4 130.5v-1.8M48.6 117.6v-1.7M49.3 95v-1.8M.3 146.4l-.4-1.2M13.3 142.9l-.4-1.2M39.4 144.6l-.4-1.1M42.3 139l-.4-1.1M31.3 135.7l-.4-1.1M18.8 133.1l-.4-1.1M5.8 129.9l-.4-1.2M17.3 125.6l-.4-1.1M28.8 121.4l-.4-1.2M23.6 117.5l-.5-1.1M37.3 129.7l-.4-1.1M37.1 114.2l-.5-1.1M-5.2 139.1l-.4-1.1M-16.2 135.9l-.4-1.2M-10.2 129.9l-.4-1.2M-18.2 125.7l-.5-1.1M-11.1 121.2l-.4-1.1M4.1 118.5l-.5-1.1M12.6 114.2l-.5-1.1M6.1 107.1l-.5-1.1M18.6 108.2l-.5-1.1M-12.9 108.4l-.5-1.2M-16.9 112.4l-.5-1.2M-17.2 89.1l-.5-1.1M-5.2 93.1l-.5-1.1M-3.6 99.7l-.5-1.1M-10.7 83.7l-.5-1.1M-18.1 80.5l-.5-1.1M11.6 98.4l-.5-1.2M25.1 102.9l-.5-1.2M24.3 95l-.5-1.1M35.3 98.2l-.5-1.1M42.3 93l-.5-1.1M17.8 87.9l-.5-1.2M10.3 84.9l-.5-1.2M9.3 78.1L8.9 77M21.8 80.6l-.5-1.1M36.8 83.6l-.5-1.1M46.9 130.5l-.4-1.1M48.1 117.6l-.5-1.1M48.8 95l-.5-1.1M49.6 103l-.5-1.1M-.3 146.4l-.6-.7M12.7 142.9l-.6-.7M38.8 144.6l-.6-.6M41.7 139l-.6-.6M30.7 135.7l-.6-.6M18.2 133.1l-.6-.6M5.2 129.9l-.6-.7M16.7 125.6l-.6-.6M28.2 121.4l-.6-.7M23 117.5l-.7-.6M36.7 129.7l-.6-.6M36.5 114.2l-.7-.6M-5.8 139.1l-.6-.6M-16.8 135.9l-.6-.7M-10.8 129.9l-.6-.7M-18.8 125.7l-.7-.6M-11.7 121.2l-.6-.6M3.5 118.5l-.7-.6M12 114.2l-.7-.6M5.5 107.1l-.7-.6M18 108.2l-.7-.6M-13.5 108.4l-.7-.7M-17.5 112.4l-.7-.7M-17.8 89.1l-.7-.6M-5.8 93.1l-.7-.6M-4.2 99.7l-.6-.6M-11.3 83.7l-.7-.6M-18.7 80.5l-.6-.6M11 98.4l-.7-.7M24.5 102.9l-.7-.7M23.7 95l-.7-.6M34.7 98.2l-.7-.6M41.7 93l-.7-.6M17.2 87.9l-.7-.7M9.7 84.9l-.7-.7M8.7 78.1l-.6-.6M21.2 80.6l-.7-.6M36.2 83.6l-.7-.6M46.3 130.5l-.6-.6M47.5 117.6l-.7-.6M48.2 95l-.7-.6M49 103l-.7-.6M1.3 146.4l.5-1.2M14.3 142.9l.5-1.2M40.4 144.6l.6-1.1M43.3 139l.5-1.1M32.3 135.7l.5-1.1M19.8 133.1l.5-1.1M6.8 129.9l.5-1.2M18.3 125.6l.5-1.1M29.8 121.4l.5-1.2M24.6 117.5l.5-1.1M38.3 129.7l.5-1.1M38.1 114.2l.5-1.1M-4.2 139.1l.5-1.1M-15.2 135.9l.5-1.2M-9.2 129.9l.5-1.2M-17.2 125.7l.5-1.1M-10.1 121.2l.6-1.1M5.1 118.5l.5-1.1M13.6 114.2l.5-1.1M7.1 107.1l.5-1.1M19.6 108.2l.5-1.1M49.8 95l.5-1.1M50.6 103l.5-1.1M-11.9 108.4l.5-1.2M-15.9 112.4l.5-1.2M-16.2 89.1l.5-1.1M-4.2 93.1l.5-1.1M-2.6 99.7l.5-1.1M-9.7 83.7l.5-1.1M-17.1 80.5l.5-1.1M12.6 98.4l.5-1.2M26.1 102.9l.5-1.2M25.3 95l.5-1.1M36.3 98.2l.5-1.1M43.3 93l.5-1.1M18.8 87.9l.5-1.2M11.3 84.9l.5-1.2M10.3 78.1l.5-1.1M22.8 80.6l.5-1.1M37.8 83.6l.5-1.1M47.9 130.5l.6-1.1M49.1 117.6l.5-1.1M1.9 146.4l.7-.7M14.9 142.9l.7-.7M41 144.6l.7-.7M43.9 139l.7-.7M32.9 135.7l.7-.6M20.4 133.1l.7-.7M7.4 129.9l.7-.7M18.9 125.6l.7-.7M30.4 121.4l.7-.7M25.1 117.5l.7-.7M38.9 129.7l.7-.6M38.6 114.2l.7-.6M-3.6 139.1l.7-.7M-14.6 135.9l.7-.7M-8.6 129.9l.7-.7M-16.7 125.7l.7-.6M49.6 117.6l.7-.7M-9.5 121.2l.7-.6M5.6 118.5l.7-.7M14.1 114.2l.7-.6M7.6 107.1l.7-.7M20.1 108.2l.7-.6M50.3 95l.7-.7M51.1 103l.7-.7M-11.4 108.4l.7-.7M-15.4 112.4l.7-.7M-15.7 89.1l.7-.7M-3.7 93.1l.7-.7M-2.1 99.7l.7-.6M-9.2 83.7l.7-.6M-16.6 80.5l.7-.7M13.1 98.4l.7-.7M26.6 102.9l.7-.7M25.8 95l.7-.7M36.8 98.2l.7-.6M43.8 93l.7-.7M19.3 87.9l.7-.7M11.8 84.9l.7-.7M10.9 78.1l.7-.7M23.3 80.6l.7-.7M38.3 83.6l.7-.7M48.5 130.5l.7-.7M-.9 146.8h3.6M12.1 143.3h3.6M38.2 145h3.6M41.1 139.4h3.6M30.1 136.1h3.6M17.6 133.5h3.6M4.6 130.3h3.6M16.1 126h3.6M27.6 121.8h3.6M22.3 117.9h3.6M36.1 130.1h3.6M35.8 114.6h3.6M-6.4 139.5h3.6M-17.4 136.3h3.6M-11.4 130.3h3.6M-19.5 126.1h3.6M-12.3 121.6h3.6M2.8 118.9h3.6M11.3 114.6h3.6M4.8 107.5h3.6M17.3 108.6h3.6M-14.2 108.8h3.6M-18.2 112.8h3.6M-18.5 89.5h3.6M-6.5 93.5h3.6M-4.9 100.1h3.7M-12 84.1h3.6M-19.4 80.9h3.7M10.3 98.8h3.6M23.8 103.3h3.6M23 95.4h3.6M34 98.6h3.6M41 93.4h3.6M16.5 88.3h3.6M9 85.3h3.6M8.1 78.5h3.6M20.5 81h3.6M35.5 84h3.6M45.7 130.9h3.6M46.8 118h3.6M47.5 95.4h3.6M48.3 103.4h3.6M-12.3 80.1h4.4M-6.4 84.9h4.3M19.2 83h8.7M-12.9 90.4h4.3M-.2 94.4h4.4M35.2 80h4.4M41.1 84.7h4.3M34.6 90.2h4.3M-18.1 104.1h4.4M7.5 102.2h8.8M-11.9 113.6h4.4M23.5 99.2h4.4M29.4 104h4.4M22.9 109.5h4.4M-5.2 120.9h4.3M.6 125.6H5M26.3 123.7H35M-5.9 131.1h4.4M6.9 135.1h4.4M42.3 120.7h4.3M-20.7 142.4h4.3M-14.9 147.1h4.4M10.8 145.2h8.7M26.8 142.2h4.3M32.6 147H37M-17.3 117.2h4.4M44.1 87h4.3M43.9 147.7h4.4M19.9 136.7h4.4M.8 115.2h6.5M48 99.4h4.4M47.4 109.6h4.4M48.4 121.2h4.4"/></g><g clip-path="url(#akl)" fill="none" stroke="#03B8E2" stroke-width=".3"><path d="M-26.2 95h6.9M-25.4 103h6.9M-24 99.4h4.4M-23.6 121.2h4.4"/></g></g><g clip-path="url(#akb)"><defs><path id="akm" d="M-19.7 149h72v72h-72z"/></defs><clipPath id="akn"><use xlink:href="#akm" overflow="visible"/></clipPath><g clip-path="url(#akn)" fill="none" stroke="#03B8E2" stroke-width=".3"><path d="M9.8 222.1v-1.7M9.3 222.1l-.4-1.1M10.3 222.1l.5-1.1"/></g><g clip-path="url(#akn)" fill="none" stroke="#03B8E2" stroke-width=".3"><path d="M50.8 197.7h6.9M52.1 184.4H59M51.8 161.1h6.9M50.9 152.5h6.9M51.3 214.4h4.3"/></g><g clip-path="url(#akn)" fill="none" stroke="#03B8E2" stroke-width=".3"><path d="M-2.6 218.4h6.9M10.4 214.9h6.9M36.5 216.6h6.9M39.4 211h6.9M28.4 207.7h6.9M15.9 205.1h6.9M2.9 201.9h6.9M14.4 197.6h6.9M25.9 193.4h6.9M20.6 189.5h6.9M34.4 201.7h6.9M34.1 186.2H41M-8.1 211.1h6.9M-19.1 207.9h6.9M-13.1 201.9h6.9M-21.2 197.7h6.9M-14 193.2h6.9M1.1 190.5H8M9.6 186.2h6.9M3.1 179.1H10M15.6 180.2h6.9M-15.9 180.4H-9M-19.9 184.4h6.9M-20.2 161.1h6.9M-8.2 165.1h6.9M-6.6 171.7H.3M-13.7 155.7h6.9M-21.1 152.5h6.9M8.6 170.4h6.9M22.1 174.9H29M21.3 167h6.9M32.3 170.2h6.9M39.3 165h6.9M14.8 159.9h6.9M7.3 156.9h6.9M6.4 150.1h6.9M18.8 152.6h6.9M33.8 155.6h6.9M44 202.5h6.9M45.1 189.6H52M45.8 167h6.9M46.6 175h6.9M.8 218.4v-1.8M13.8 214.9v-1.8M39.9 216.6v-1.7M42.8 211v-1.8M31.8 207.7V206M19.3 205.1v-1.7M6.3 201.9v-1.8M17.8 197.6v-1.7M29.3 193.4v-1.8M24.1 189.5v-1.8M37.8 201.7V200M37.6 186.2v-1.7M-4.7 211.1v-1.7M-15.7 207.9v-1.8M-9.7 201.9v-1.8M-17.7 197.7V196M-10.6 193.2v-1.7M4.6 190.5v-1.8M13.1 186.2v-1.7M6.6 179.1v-1.7M19.1 180.2v-1.7M50.1 175v-1.8M-12.4 180.4v-1.8M-16.4 184.4v-1.8M-16.7 161.1v-1.7M-4.7 165.1v-1.7M-3.1 171.7V170M-10.2 155.7V154M-17.6 152.5v-1.8M12.1 170.4v-1.8M25.6 174.9v-1.8M24.8 167v-1.8M35.8 170.2v-1.7M42.8 165v-1.8M18.3 159.9v-1.8M10.8 156.9v-1.8M9.8 150.1v-1.7M22.3 152.6v-1.7M37.3 155.6v-1.7M47.4 202.5v-1.8M48.6 189.6v-1.7M49.3 167v-1.8M.3 218.4l-.4-1.2M13.3 214.9l-.4-1.2M39.4 216.6l-.4-1.1M42.3 211l-.4-1.1M31.3 207.7l-.4-1.1M18.8 205.1l-.4-1.1M5.8 201.9l-.4-1.2M17.3 197.6l-.4-1.1M28.8 193.4l-.4-1.2M23.6 189.5l-.5-1.1M37.3 201.7l-.4-1.1M37.1 186.2l-.5-1.1M-5.2 211.1l-.4-1.1M-16.2 207.9l-.4-1.2M-10.2 201.9l-.4-1.2M-18.2 197.7l-.5-1.1M-11.1 193.2l-.4-1.1M4.1 190.5l-.5-1.1M12.6 186.2l-.5-1.1M6.1 179.1l-.5-1.1M18.6 180.2l-.5-1.1M-12.9 180.4l-.5-1.2M-16.9 184.4l-.5-1.2M-17.2 161.1l-.5-1.1M-5.2 165.1l-.5-1.1M-3.6 171.7l-.5-1.1M-10.7 155.7l-.5-1.1M-18.1 152.5l-.5-1.1M11.6 170.4l-.5-1.2M25.1 174.9l-.5-1.2M24.3 167l-.5-1.1M35.3 170.2l-.5-1.1M42.3 165l-.5-1.1M17.8 159.9l-.5-1.2M10.3 156.9l-.5-1.2M9.3 150.1l-.4-1.1M21.8 152.6l-.5-1.1M36.8 155.6l-.5-1.1M46.9 202.5l-.4-1.1M48.1 189.6l-.5-1.1M48.8 167l-.5-1.1M49.6 175l-.5-1.1M-.3 218.4l-.6-.7M12.7 214.9l-.6-.7M38.8 216.6l-.6-.6M41.7 211l-.6-.6M30.7 207.7l-.6-.6M18.2 205.1l-.6-.6M5.2 201.9l-.6-.7M16.7 197.6l-.6-.6M28.2 193.4l-.6-.7M23 189.5l-.7-.6M36.7 201.7l-.6-.6M36.5 186.2l-.7-.6M-5.8 211.1l-.6-.6M-16.8 207.9l-.6-.7M-10.8 201.9l-.6-.7M-18.8 197.7l-.7-.6M-11.7 193.2l-.6-.6M3.5 190.5l-.7-.6M12 186.2l-.7-.6M5.5 179.1l-.7-.6M18 180.2l-.7-.6M-13.5 180.4l-.7-.7M-17.5 184.4l-.7-.7M-17.8 161.1l-.7-.6M-5.8 165.1l-.7-.6M-4.2 171.7l-.6-.6M-11.3 155.7l-.7-.6M-18.7 152.5l-.6-.6M11 170.4l-.7-.7M24.5 174.9l-.7-.7M23.7 167l-.7-.6M34.7 170.2l-.7-.6M41.7 165l-.7-.6M17.2 159.9l-.7-.7M9.7 156.9l-.7-.7M8.7 150.1l-.6-.6M21.2 152.6l-.7-.6M36.2 155.6l-.7-.6M46.3 202.5l-.6-.6M47.5 189.6l-.7-.6M48.2 167l-.7-.6M49 175l-.7-.6M1.3 218.4l.5-1.2M14.3 214.9l.5-1.2M40.4 216.6l.6-1.1M43.3 211l.5-1.1M32.3 207.7l.5-1.1M19.8 205.1l.5-1.1M6.8 201.9l.5-1.2M18.3 197.6l.5-1.1M29.8 193.4l.5-1.2M24.6 189.5l.5-1.1M38.3 201.7l.5-1.1M38.1 186.2l.5-1.1M-4.2 211.1l.5-1.1M-15.2 207.9l.5-1.2M-9.2 201.9l.5-1.2M-17.2 197.7l.5-1.1M-10.1 193.2l.6-1.1M5.1 190.5l.5-1.1M13.6 186.2l.5-1.1M7.1 179.1l.5-1.1M19.6 180.2l.5-1.1M49.8 167l.5-1.1M50.6 175l.5-1.1M-11.9 180.4l.5-1.2M-15.9 184.4l.5-1.2M-16.2 161.1l.5-1.1M-4.2 165.1l.5-1.1M-2.6 171.7l.5-1.1M-9.7 155.7l.5-1.1M-17.1 152.5l.5-1.1M12.6 170.4l.5-1.2M26.1 174.9l.5-1.2M25.3 167l.5-1.1M36.3 170.2l.5-1.1M43.3 165l.5-1.1M18.8 159.9l.5-1.2M11.3 156.9l.5-1.2M10.3 150.1l.5-1.1M22.8 152.6l.5-1.1M37.8 155.6l.5-1.1M47.9 202.5l.6-1.1M49.1 189.6l.5-1.1M1.9 218.4l.7-.7M14.9 214.9l.7-.7M41 216.6l.7-.7M43.9 211l.7-.7M32.9 207.7l.7-.6M20.4 205.1l.7-.7M7.4 201.9l.7-.7M18.9 197.6l.7-.7M30.4 193.4l.7-.7M25.1 189.5l.7-.7M38.9 201.7l.7-.6M38.6 186.2l.7-.6M-3.6 211.1l.7-.7M-14.6 207.9l.7-.7M-8.6 201.9l.7-.7M-16.7 197.7l.7-.6M49.6 189.6l.7-.7M-9.5 193.2l.7-.6M5.6 190.5l.7-.7M14.1 186.2l.7-.6M7.6 179.1l.7-.7M20.1 180.2l.7-.6M50.3 167l.7-.7M51.1 175l.7-.7M-11.4 180.4l.7-.7M-15.4 184.4l.7-.7M-15.7 161.1l.7-.7M-3.7 165.1l.7-.7M-2.1 171.7l.7-.6M-9.2 155.7l.7-.6M-16.6 152.5l.7-.7M13.1 170.4l.7-.7M26.6 174.9l.7-.7M25.8 167l.7-.7M36.8 170.2l.7-.6M43.8 165l.7-.7M19.3 159.9l.7-.7M11.8 156.9l.7-.7M10.9 150.1l.7-.7M23.3 152.6l.7-.7M38.3 155.6l.7-.7M48.5 202.5l.7-.7M-.9 218.8h3.6M12.1 215.3h3.6M38.2 217h3.6M41.1 211.4h3.6M30.1 208.1h3.6M17.6 205.5h3.6M4.6 202.3h3.6M16.1 198h3.6M27.6 193.8h3.6M22.3 189.9h3.6M36.1 202.1h3.6M35.8 186.6h3.6M-6.4 211.5h3.6M-17.4 208.3h3.6M-11.4 202.3h3.6M-19.5 198.1h3.6M-12.3 193.6h3.6M2.8 190.9h3.6M11.3 186.6h3.6M4.8 179.5h3.6M17.3 180.6h3.6M-14.2 180.8h3.6M-18.2 184.8h3.6M-18.5 161.5h3.6M-6.5 165.5h3.6M-4.9 172.1h3.7M-12 156.1h3.6M-19.4 152.9h3.7M10.3 170.8h3.6M23.8 175.3h3.6M23 167.4h3.6M34 170.6h3.6M41 165.4h3.6M16.5 160.3h3.6M9 157.3h3.6M8.1 150.5h3.6M20.5 153h3.6M35.5 156h3.6M45.7 202.9h3.6M46.8 190h3.6M47.5 167.4h3.6M48.3 175.4h3.6M-12.3 152.1h4.4M-6.4 156.9h4.3M19.2 155h8.7M-12.9 162.4h4.3M-.2 166.4h4.4M35.2 152h4.4M41.1 156.7h4.3M34.6 162.2h4.3M-18.1 176.1h4.4M7.5 174.2h8.8M-11.9 185.6h4.4M23.5 171.2h4.4M29.4 176h4.4M22.9 181.5h4.4M-5.2 192.9h4.3M.6 197.6H5M26.3 195.7H35M-5.9 203.1h4.4M6.9 207.1h4.4M42.3 192.7h4.3M-20.7 214.4h4.3M-14.9 219.1h4.4M10.8 217.2h8.7M26.8 214.2h4.3M32.6 219H37M-17.3 189.2h4.4M44.1 159h4.3M43.9 219.7h4.4M19.9 208.7h4.4M.8 187.2h6.5M48 171.4h4.4M47.4 181.6h4.4M48.4 193.2h4.4"/></g><g clip-path="url(#akn)" fill="none" stroke="#03B8E2" stroke-width=".3"><path d="M-26.2 167h6.9M-25.4 175h6.9M-24 171.4h4.4M-23.6 193.2h4.4"/></g></g><g fill="#03B8E2"><path d="M2.3 12.8h.3L48.6 1c.5-.1.9-.7.7-1.2-.1-.5-.7-.9-1.2-.7l-46 11.8c-.5.1-.9.7-.7 1.2.1.4.5.7.9.7zM1.1 30.9l52 31.5c.1 0 .2.1.3.1h.1l129-34c.3-.1.4-.3.4-.6-.1-.3-.3-.4-.6-.4L53.4 61.4 1.6 30.1c-.3-.2-.6-.1-.7.1s-.1.6.2.7zM1.3 15.7h.1l56-14.2c.3-.1.4-.3.4-.6-.1-.3-.3-.4-.6-.4l-56 14.2c-.3.1-.4.3-.4.6.1.2.3.4.5.4zM43.8 100.8c.2.1.3.1.5.1s.3 0 .5-.1c.3-.2.5-.5.5-.9V72.4c0-.3-.2-.7-.5-.9l-17-10.4c-.3-.2-.7-.2-1 0-.3.2-.5.5-.5.9v28c0 .4.2.7.5.9l17 9.9zM28.3 73.2l3.7 2.4c-.1.1-.1.2-.1.3v15.5l-3.6-2.1V73.2zm4.6 3l5.9 3.8v15.6l-5.9-3.5V76.2zm6.9 20V80.7l3.5 2.3v15.3l-3.5-2.1zm3.5-23.3v8.8l-15-9.7v-8.3l15 9.2zM.8 75.8l17 10c.2.1.3.1.5.1s.3 0 .5-.1c.3-.2.5-.5.5-.9V57.4c0-.3-.2-.7-.5-.9l-17-10.4c-.3-.2-.7-.2-1 0-.3.2-.5.5-.5.9v28c0 .3.2.7.5.8zm1.5-17.6L6 60.6c0 .1-.1.2-.1.4v15.5l-3.6-2.1V58.2zm4.6 3l5.9 3.8v15.6l-5.9-3.5V61.2zm6.9 20V65.7l3.5 2.3v15.3l-3.5-2.1zm3.5-23.3v8.8L2.3 57v-8.3l15 9.2zM82.3 69c0-.3-.1-.6-.4-.8-.2-.2-.6-.3-.9-.2l-19 5.4c-.4.1-.7.5-.7 1V102c0 .3.1.6.4.8.2.1.4.2.6.2h.3l19-5c.4-.1.7-.5.7-1V69zm-2 1.3v8.4l-17 4.5v-8.1l17-4.8zm-5.6 10.9v16.4l-5.9 1.6V83v-.2l5.9-1.6zm-11.4 3l4.5-1.2v16.4l-4.5 1.2V84.2zm12.4 13.2V81l4.6-1.2v16.4l-4.6 1.2zM81 110l-19 5.4c-.4.1-.7.5-.7 1V144c0 .3.1.6.4.8.2.1.4.2.6.2h.3l19-5c.4-.1.7-.5.7-1v-28c0-.3-.1-.6-.4-.8-.2-.2-.6-.3-.9-.2zm-.7 2.3v8.4l-17 4.5v-8.1l17-4.8zm-5.6 10.9v16.4l-5.9 1.6V125v-.2l5.9-1.6zm-11.4 3l4.5-1.2v16.4l-4.5 1.2v-16.4zm12.4 13.2V123l4.6-1.2v16.4l-4.6 1.2zM109.3 62c0-.3-.1-.6-.4-.8-.3-.2-.6-.2-.9-.2l-19 5.4c-.4.1-.7.5-.7 1V95c0 .3.1.6.4.8.2.1.4.2.6.2h.3l19-5c.4-.1.7-.5.7-1V62zm-2 1.3v8.4l-17 4.5v-8.1l17-4.8zm-5.6 10.9v16.4l-5.9 1.6V76v-.2l5.9-1.6zm-11.4 3l4.5-1.2v16.4l-4.5 1.2V77.2zm12.4 13.2V74l4.6-1.2v16.4l-4.6 1.2zM108 103l-19 5.4c-.4.1-.7.5-.7 1V137c0 .3.1.6.4.8.2.1.4.2.6.2h.3l19-5c.4-.1.7-.5.7-1v-28c0-.3-.1-.6-.4-.8-.2-.2-.6-.3-.9-.2zm-.7 2.3v8.4l-17 4.5v-8.1l17-4.8zm-5.6 10.9v16.4l-5.9 1.6V118v-.2l5.9-1.6zm-11.4 3l4.5-1.2v16.4l-4.5 1.2v-16.4zm12.4 13.2V116l4.6-1.2v16.4l-4.6 1.2zM26.3 130.9c0 .3.2.7.5.8l17 11.1c.2.1.4.2.5.2.2 0 .3 0 .5-.1.3-.2.5-.5.5-.9v-27.6c0-.3-.2-.7-.5-.9l-17-10.4c-.3-.2-.7-.2-1 0-.3.2-.5.5-.5.9v26.9zm2-15.7l3.7 2.4c-.1.1-.1.2-.1.3v14.7l-3.6-2.4v-15zm10.5 6.8v15.2l-5.9-3.9v-15.1l5.9 3.8zm1 15.8v-15.2l3.5 2.3v15.2l-3.5-2.3zm3.5-22.9v8.8l-15-9.7v-8.3l15 9.2zM.8 116.7l17 11.1c.2.1.4.2.5.2.2 0 .3 0 .5-.1.3-.2.5-.5.5-.9V99.4c0-.3-.2-.7-.5-.9l-17-10.4c-.3-.2-.7-.2-1 0-.3.2-.5.5-.5.9v26.9c0 .3.2.6.5.8zm1.5-16.5l3.7 2.4c-.1.1-.1.2-.1.3v14.7l-3.6-2.4v-15zm10.5 6.8v15.2l-5.9-3.9v-15.1l5.9 3.8zm1 15.8v-15.2l3.5 2.3v15.2l-3.5-2.3zm3.5-22.9v8.8L2.3 99v-8.3l15 9.2z"/><path d="M176 160.5c-1-1.3-2.2-2.1-3.4-2.4L152 143.2l-.2-.2-6.4-4.6v-33.7l37.5 24c.5.3 1.1.2 1.4-.3.3-.5.2-1.1-.3-1.4l-37.1-23.8 23.8-6.4 11.2-2.6 1.1.5c.5.2 1.1 0 1.3-.4.2-.5 0-1.1-.4-1.3l-2-1c-.1-.1-.3-.1-.4-.1V67c0-.3-.1-.5-.3-.7l2.5-.8c.2-.1.3-.3.3-.5v-6c0-.2-.1-.3-.2-.4s-.3-.1-.4-.1l-66 19c-.2.1-.4.3-.4.5v6c0 .2.1.3.2.4.1.1.2.1.3.1h.2l1.9-.6V136c0 .3.2.6.4.8.2.1.4.2.6.2.1 0 .2 0 .3-.1l1.7-.6v4.9l-69 19.4V67.7l130.3-33.8c.5-.1.9-.7.7-1.2s-.7-.9-1.2-.7L52.5 65.9 1.8 35.3c-.5-.3-1.1-.1-1.4.3-.3.5-.1 1.1.3 1.4l50.5 30.6v92.6l-49.4-33c-.5-.3-1.1-.2-1.4.3-.3.5-.2 1.1.3 1.4l51 34s.1 0 .2.1h.7l64.9-18.2 23.7 16.1-69 20.7c-.3.1-.4.4-.3.6.1.2.3.4.5.4h.1l69.4-20.8v2l-58.6 17.9c-.3.1-.4.4-.3.6.1.2.3.4.5.4h.1l59-18c.2-.1.4-.3.4-.5v-3-.2c0-.1-.1-.1-.2-.2l-23.9-16.2 4.5-1.3 9.6 6.7s.1.1.2.1c0 0 .1 0 .1.1h.6l17.2-4.8v5.8c0 .2.1.3.2.4l.7.5c.1-.1.2-.2.4-.2-2.3 1.6-3.4 6.1-2.5 11.2 1 5.6 4.1 9.7 7.2 9.7.2 0 .4 0 .6-.1.5-.1.9-.3 1.4-.6.3-.1.7-.2 1.1-.3.9-.2 1.8-.5 2.4-.7.1 0 .2-.1.3-.1 0 .2.1.4.1.6 1 5.6 4.1 9.7 7.2 9.7.2 0 .4 0 .6-.1.5-.1 1-.3 1.4-.6.3-.1.7-.2 1.1-.3.9-.2 1.8-.5 2.4-.7 2.2-.9 3.6-3.5 3.9-6.8l3.8 2.8c.1.1.2.1.3.1.2 0 .3-.1.4-.2.2-.2.1-.5-.1-.7l-4.3-3.2c0-1.2-.1-2.4-.3-3.7-.2-1.1-.5-2.2-.8-3.2l4.6 3.3c.2.1.4.2.6.2.3 0 .6-.1.8-.4.3-.4.2-1.1-.2-1.4l-8.4-5.9zm-10-.9c0-.1 0-.3-.1-.4-.3-1.6-.7-3.1-1.3-4.3l5 3.6c-1.2.2-2.7.7-3.6 1.1zm-17.4-16.3l-4.8 1.1v-2l2.6-.6 2.2 1.5zm-3.3-2.4l-2.2.5c-.2.1-.4.3-.4.5v3c0 .1 0 .2.1.3l-8.6 2.4v-4.9l9.8-2.7 1.3.9zm-5.5-29.6v8.8l-9-5.4v-8.8l9 5.4zm4.3-9.3c-.1 0-.1 0 0 0-.1 0-.2.1-.2.1s-.1 0-.1.1c0 0-.1 0-.1.1-.1.1-.2.2-.2.3 0 .1-.1.2-.1.3v6.7h-.2l-2.8.9-8.8-5.3 15.7-4.6.8.4-4 1zm-3.3 9.4l2.5-.8v9.2l-2.5.6v-9zm2.5 26.8l-9.8 2.7-7.8-5.5 17.6-4.4v7.2zm34.5-51.4l-2-6c-.1-.3-.4-.4-.6-.3-.3.1-.4.4-.3.6l1.9 5.6-7.9-5V71.3l2.1-.6c-.1.1-.2.3-.1.5l2 6c.1.2.3.3.5.3h.2c.3-.1.4-.4.3-.6l-2-6c-.1-.2-.2-.3-.3-.3l7.9-2.2v20.1l-1.7-1.1v-.6zm-56.5 8.4l15.1-4.7c.2-.1.4-.3.4-.5v-9.7l1-.3v11.6l-16.5 4.9v-1.3zm14.5-7.9l-10-3.8 10-2.8v6.6zm0 1v1.3l-1 .3c0-.2-.1-.3-.3-.4l-12.8-4.9 2.5-.7 11.6 4.4zm-14.5-2.8l12.4 4.8-12.4 3.9v-8.7zm-3.5-7.1l65-18.7v5l-2.6.9-60 17-2.3.8v-5zm3.5 19.1h.1l17-5c.2-.1.4-.3.4-.5V79.8l29-8.2V82c0 .2.1.3.2.4l11 7c.1.1.2.1.3.1v3l-29.8 8.1-2-1c-.1-.1-.2-.1-.4 0l-17 5h-.1l-.1.1s-.1 0-.1.1c0 0 0 .1-.1.1V115c0 .2.1.3.2.4l10 6c.1 0 .2.1.3.1h.1l2.9-.7v8.2h-.2l-20 5-1.7.6V97.5zm3 44v-4.6l6 4.2 2 1.4v4.6l-8-5.6zm27.5 9.2v-5.1l5.7 4.1c-1.4.3-3.6 1-4.6 1.4-.1.1-.2.1-.3.2l-.8-.6zm-.2 11.8c-.9-5.2.4-9.1 2.3-9.4h.3c.8 0 1.8.7 2.7 1.9 1.2 1.5 2 3.7 2.5 6.2.9 5.2-.4 9.1-2.3 9.4-1.8.2-4.5-3-5.5-8.1zm9.9 6.5c-.2.1-.5.2-.7.3.9-2.2 1.2-5.3.6-8.6-.5-2.7-1.5-5.2-2.9-7-.5-.7-1.1-1.3-1.7-1.7.7-.2 1.4-.4 1.8-.4 1.8-.3 4.5 2.9 5.5 8 .1.5.2 1 .2 1.5-1.3 1.6-2 4.3-1.9 7.4-.3.2-.6.4-.9.5zm3.1 2c-.9-5.2.5-9.1 2.3-9.4h.3c.8 0 1.8.7 2.7 1.9 1.2 1.5 2 3.7 2.5 6.2.4 2.4.4 4.8-.1 6.7-.5 1.6-1.2 2.6-2.1 2.8-1.9.2-4.6-3-5.6-8.2zm9.9 6.6c-.2.1-.5.2-.7.2.1-.3.2-.6.4-1 .6-2.2.7-4.8.2-7.6-.5-2.7-1.5-5.2-2.9-7-.5-.7-1.1-1.3-1.7-1.7.7-.2 1.4-.4 1.8-.4 1.8-.3 4.5 2.9 5.5 8 .9 5.1-.7 8.7-2.6 9.5zM11.8 31.1c.1.2.3.4.5.4h.1l116-31c.3-.1.4-.3.4-.6-.1-.3-.3-.4-.6-.4l-116 31c-.3.1-.4.4-.4.6z"/><path d="M35.8 46.1c.1.2.3.4.5.4h.1l147-41c.3-.1.4-.3.3-.6-.1-.3-.3-.4-.6-.3l-147 41c-.2 0-.3.3-.3.5zM137 58l-11 3c-.4.1-.7.5-.7 1v6c0 .3.1.6.4.8.2.1.4.2.6.2h.3l11-3c.4-.1.7-.5.7-1v-6c0-.3-.1-.6-.4-.8-.2-.2-.6-.2-.9-.2zm-.7 6.2l-9 2.5v-3.9l9-2.5v3.9zM155 53l-11 3c-.4.1-.7.5-.7 1v6c0 .3.1.6.4.8.2.1.4.2.6.2h.3l11-3c.4-.1.7-.5.7-1v-6c0-.3-.1-.6-.4-.8-.2-.2-.6-.2-.9-.2zm-.7 6.2l-9 2.5v-3.9l9-2.5v3.9zM173 48l-11 3c-.4.1-.7.5-.7 1v6c0 .3.1.6.4.8.2.1.4.2.6.2h.3l11-3c.4-.1.7-.5.7-1v-6c0-.3-.1-.6-.4-.8-.2-.2-.6-.2-.9-.2zm-.7 6.2l-9 2.5v-3.9l9-2.5v3.9zM178.7 75.7c-.1-.2-.5-.3-.7-.2l-8 5c-.2.1-.3.5-.2.7.1.2.3.2.4.2.1 0 .2 0 .3-.1l8-5c.3 0 .4-.3.2-.6zM123.3 131.5h.1l19-5c.3-.1.4-.3.4-.6-.1-.3-.3-.4-.6-.4l-19 5c-.3.1-.4.3-.4.6.1.3.3.4.5.4zM157.5 161.4c0-.3-.1-.5-.2-.8 0-.1-.1-.2-.1-.2-.1-.2-.1-.3-.2-.5 0-.1-.1-.2-.1-.3-.1-.1-.1-.3-.2-.4 0-.1-.1-.2-.1-.2-.1-.1-.1-.2-.2-.3l-.2-.2c-.1-.1-.1-.2-.2-.2l-.2-.2-.2-.2c-.1 0-.1-.1-.2-.1s-.2-.1-.2-.1h-.2H154.7c-.7.1-1.2 1-1.4 2.1 0 .2-.1.5-.1.7v.8c0 .3.1.5.1.8.1.3.1.5.2.8 0 .1.1.2.1.2.1.2.1.3.2.5 0 .1.1.2.1.3.1.1.1.3.2.4 0 .1.1.2.1.2.1.1.1.2.2.3l.2.2c.1.1.1.2.2.2l.2.2.2.2c.1 0 .1.1.2.1s.2.1.2.1h.5c.3-.1.5-.2.7-.5.4-.5.7-1.4.7-2.4.2-.4.1-.9 0-1.5zM170.5 169.9c0-.3-.1-.5-.2-.8 0-.1-.1-.2-.1-.2-.1-.2-.1-.3-.2-.5 0-.1-.1-.2-.1-.3-.1-.1-.1-.3-.2-.4 0-.1-.1-.2-.1-.2-.1-.1-.1-.2-.2-.3l-.2-.2c-.1-.1-.1-.2-.2-.2l-.2-.2-.2-.2c-.1 0-.1-.1-.2-.1s-.2-.1-.2-.1h-.2H167.7c-.7.1-1.2 1-1.4 2.1 0 .2-.1.5-.1.7v.8c0 .3.1.5.1.8.1.3.1.5.2.8 0 .1.1.2.1.2.1.2.1.3.2.5 0 .1.1.2.1.3.1.1.1.3.2.4 0 .1.1.2.1.2.1.1.1.2.2.3l.2.2c.1.1.1.2.2.2l.2.2.2.2c.1 0 .1.1.2.1s.2.1.2.1h.5c.3-.1.5-.2.7-.5.4-.5.7-1.4.7-2.4.2-.4.2-.9 0-1.5.1 0 .1 0 0 0zM1.6 161.6c-.2-.2-.5-.1-.7.1-.2.2-.1.5.1.7l26 20c.1.1.2.1.3.1.1 0 .3-.1.4-.2.2-.2.1-.5-.1-.7l-26-20zM1.6 164.6c-.2-.2-.5-.1-.7.1-.2.2-.1.5.1.7l22 17c.1.1.2.1.3.1.1 0 .3-.1.4-.2.2-.2.1-.5-.1-.7l-22-17z"/></g></svg>