<?xml version="1.0" encoding="utf-8"?><!DOCTYPE svg PUBLIC "-//W3C//DTD SVG 1.1//EN" "http://www.w3.org/Graphics/SVG/1.1/DTD/svg11.dtd"><svg xmlns="http://www.w3.org/2000/svg" viewBox="0 0 184 184" width="184" height="184"><g fill="#03B8E2"><path d="M61.3 116.7c-.1 0-.3.1-.3.2l-37.7 46.8c-.2.2-.1.5.1.7.1.1.2.1.3.1.1 0 .3-.1.4-.2l37.5-46.6c.6 0 2.4 0 3.4 1.1.6.7.8 1.8.4 3.1-.1.3.1.5.4.6.3.1.5-.1.6-.4.4-1.7.2-3.1-.6-4-1.6-1.7-4.4-1.4-4.5-1.4zM31.4 170.9c.1.1.2.1.3.1.1 0 .3-.1.4-.2l36.3-45.5c.8-.1 2.6-.1 3.4.8.6.6.7 1.6.4 3-.1.3.1.5.4.6.3.1.5-.1.6-.4.4-1.7.2-3-.6-3.9-1.5-1.6-4.4-1.1-4.5-1.1-.1 0-.2.1-.3.2l-36.4 45.6c-.3.3-.2.7 0 .8zM23.3 168.5c-.2-.2-.5-.2-.7 0s-.2.5 0 .7l9.1 10.1c.1.1.2.2.4.2.1 0 .2 0 .3-.1.2-.2.2-.5 0-.7l-9.1-10.2zM151.2 141.9h.6c1.9-.2 3.7-1.6 5-3.7 2.1-3.6 2.1-8.2-.1-10.4-.9-1-2.2-1.4-3.5-1.2-1.9.2-3.7 1.6-5 3.7-2.2 3.6-2.1 8.3.2 10.5.7.7 1.7 1.1 2.8 1.1zm4-12.8c1.6 1.6 1.5 5.3-.1 8-.9 1.6-2.2 2.6-3.5 2.8-.7.1-1.3-.1-1.9-.6-.1-.1-.1-.2-.2-.2 1.1-.6 2.1-1.7 2.9-3 1.4-2.4 1.9-5.3 1.3-7.6.6-.1 1.1.2 1.5.6zm-5.4 2.1c.6-.9 1.3-1.7 2-2.2.4 1.8 0 4.1-1.1 6-.6 1-1.3 1.7-2 2.2-.4-1.8 0-4.1 1.1-6z"/><path d="M168 129v-.5c-.2-4.9-1.8-9.3-4.8-12L115 71.3l33.4-41 5.8-2.7c.2-.1.3-.2.4-.4l10.3-17.1c.2-.3.2-.8 0-1.1l-5.4-7.8c-.2-.2-.4-.4-.7-.4-.3 0-.6.1-.8.2l-14 12.4c-.1.1-.2.3-.3.4l-2.4 7.4-34.8 42.2-4.7-4.4-.9-.9c3.2-13.9.5-27.5-7.3-35.7-.7-.8-1.5-1.4-2.3-2.1-.1-.1-.2-.3-.3-.4-7.8-5.8-12.6-7.2-17-8.1-5.8-1.2-12.1-.1-18.1 3.3l-.1.1c-.1 0-.1.1-.2.2l-.1.1v.1c0 .1 0 .1-.1.2v.5c0 .1.1.3.2.4L71.4 33c3.1 3.1 3 9.5-.1 14.1l-8 11.9c-1.6 2.3-3.7 3.9-5.8 4.4l-14-13.7c-.1-.1-.2-.1-.2-.2L36 45.7c-.3-.1-.6-.1-.9 0-.3.1-.5.4-.5.7-3.2 14.3 0 28.1 8.2 35.9 2.7 2.6 5.9 4.5 9.4 5.5h.3C60 93.6 69.7 94 79 89.1l3.5 3.7-2.8 3.4-5.7-2.5c-.4-.2-.9-.1-1.2.3l-4 4.9c-.2.2-.3.6-.2.9l1 4.2-2.2 2.6-8.7 2.2c-.2.1-.4.2-.5.3l-41.9 50.5c-4.1 5-5 9.9-2.3 12.8l6.7 8.6c1.7 1.8 5.2 3.1 8.5 3.1h.4c2.8-.1 5.1-1.1 6.5-2.8L76.8 131c.1-.1.2-.3.2-.5l1.8-10.5 2-2.5 3.1 1.1c.4.1.9 0 1.1-.3l3.9-4.8c.2-.3.3-.6.2-.9l-2.1-7.1 3.2-3.9 43.2 46.7c1.8 1.9 7.9 7 14.3 7.3h1c.4 0 .8 0 1.2-.1 3.5-.4 7.1-2.4 10.1-5.6l.4-.4c.1 0 .1-.1.1-.2l.4-.5c.9-1.1 1.8-2.3 2.5-3.6 3.3-5.1 4.7-11 4.6-16.2zM153.5 25.1l-5-9.8L159 4l3.8 5.6-9.3 15.5zm-7.3-11l11.7-10.4-10.1 10.9-1.6-.5zm-3.2 8.2c.1-.1.1-.2.2-.3l2.3-7.1 1.8.6-3.2 6.8c-.1.3 0 .5.2.7h.2c.2 0 .4-.1.5-.3l3-6.4 4.9 9.7-5.5 2.5c-.1.1-.3.2-.4.3l-33.5 41.1-5.5-5.1 35-42.5zm-69.2-8.4c1.4.3 3.2.7 5.4 1.5-4.8-.4-10 .7-15 3.4l-5.4-2.7c5.1-2.4 10.2-3.2 15-2.2zm-8.5 46.3l8-11.9c3.7-5.5 3.6-12.8-.1-16.6l-11.7-12 2.2 1.1 15.7 16.1c3.1 3.1 3 9.5-.1 14.1l-8 11.9c-1.8 2.6-4.2 4.3-6.6 4.5-1.7.2-3.2-.4-4.4-1.6l-.8-.8c2.2-.8 4.3-2.4 5.8-4.8zM36.2 48.1L42 51c-2.6 12.9-.2 25.2 6.5 33.1-1.6-.9-3-1.9-4.4-3.2-7.5-7.1-10.4-19.6-7.9-32.8zm15.6 36.6c-7.4-7.1-10.4-19.3-8-32.3l15.1 14.8c1.6 1.6 3.8 2.4 6.1 2.1 3-.3 6-2.3 8.1-5.4l8-11.9c3.7-5.5 3.6-12.8-.1-16.6L65.9 20.2c9.6-4.8 19.6-3.4 26.4 3.7 7.4 7.7 9.9 20.9 6.6 34.4-.1.3 0 .7.3.9l1.3 1.3 61.3 57.4c5.5 5.1 5.6 17.2.2 26.3-3.2 5.4-7.7 8.8-12 9.3-2.8.3-5.3-.7-7.3-2.8L83.8 87.1l-1.4-1.5c-.2-.2-.5-.3-.7-.3-.2 0-.4.1-.6.2-10.3 7-21.5 6.7-29.3-.8zm33.5 19.9c-.2.3-.3.6-.2.9l2.1 7.1-2.1 2.6-1.8-6.6c0-.1 0-.1-.1-.2l-5.6-7.1c0-.1-.1-.1-.2-.1l-3.6-1.7c-.3-.1-.5 0-.7.2s0 .5.2.7L77 102l5.4 6.9 1.7 6.5c.1.2.2.3.4.4l-.5.6-3.1-1.1c-.4-.1-.9 0-1.1.3l-2.6 3.3c-.1.1-.2.3-.2.5l-.2 1.4c0-.1 0-.2-.1-.2l-5.4-8.3c-.1-.1-.1-.2-.2-.2l-4.9-1.9c-.3-.1-.5 0-.6.3-.1.3 0 .5.3.6l4.8 1.8 5.2 8.1.2 4.4-.8 4.5L34.8 180c-1.3 1.7-3.5 2.1-5 2.1-3.1.1-6.2-1.2-7.3-2.4l-6.7-8.6c-2.4-2.6-.4-7 2.3-10.2l41.7-50.3 8.7-2.2c.2-.1.4-.2.5-.3l2.7-3.3c.2-.2.3-.6.2-.9l-1-4.2 3.2-3.9 5.6 2.6c.4.2.9.1 1.2-.3l3.1-3.8 5 5.7-3.7 4.6zm49.8 42.3L80.7 88.1c.3-.2.6-.3.9-.5l.8.9 1.9 2.1 55.8 60.3c-2.4-1.5-4.3-3.2-5-4z"/><path d="M114.8 113c.3 0 .5-.2.5-.5V80.7c0-.3-.2-.5-.5-.5s-.5.2-.5.5v31.8c0 .3.2.5.5.5zM121.2 119.4c.3 0 .5-.2.5-.5V87.1c0-.3-.2-.5-.5-.5s-.5.2-.5.5v31.8c0 .3.2.5.5.5z"/></g></svg>