<?xml version="1.0" encoding="utf-8"?><!DOCTYPE svg PUBLIC "-//W3C//DTD SVG 1.1//EN" "http://www.w3.org/Graphics/SVG/1.1/DTD/svg11.dtd"><svg xmlns="http://www.w3.org/2000/svg" viewBox="0 0 44 44" width="44" height="44"><path fill="#00B9E3" d="M37.7 18l4.5-3.3L22 0 1.9 14.7 6.3 18l-4.5 3.3 4.4 3.2-4.4 3.2L22 42.5l20.1-14.7-4.4-3.2 4.4-3.2-4.4-3.4zM4.3 14.7L22 1.8l17.7 13-3.3 2.4-.1-.1-1.2.9.1.1-3.2 2.3v-.1l-1.2.9.1.1-8.9 6.4-8.9-6.5.1-.1-1.2-.9-.1.1L8.7 18l.1-.1-1.1-.9-.1.1-3.3-2.4zm35.4 13L22 40.7l-17.7-13 3.2-2.3L22 36l14.5-10.6 3.2 2.3zm-3.2-4.1l-1.2.9L22 34.2 12 27l-.6-.5-2.7-2-1.2-.9-3.2-2.3L6 20.1 7 19l.2.1.3-.3 3.2 2.3 1.2.9L22 29.5l9-6.6 1.1-.8 1.2-.9.9-.7L36 19l.1.2.4-.3 3.3 2.4-3.3 2.3z"/></svg>