<?xml version="1.0" encoding="utf-8"?>
<!--<?xml-stylesheet type="text/css" href="../styles/main.css" ?>-->
<!-- Generator: Adobe Illustrator 17.1.0, SVG Export Plug-In . SVG Version: 6.00 Build 0)  -->
<!DOCTYPE svg PUBLIC "-//W3C//DTD SVG 1.1//EN" "http://www.w3.org/Graphics/SVG/1.1/DTD/svg11.dtd">
<svg version="1.1" id="Layer_1" xmlns="http://www.w3.org/2000/svg" xmlns:xlink="http://www.w3.org/1999/xlink" x="0px" y="0px"
	 viewBox="0 0 44 32" enable-background="new 0 0 44 32" xml:space="preserve">
<g class="svgGroup" id="svgGroup">
	<path fill="#03B8E2" d="M41,13h-3.5c-1.1-2-2.6-3.7-4.5-4.9V1c0-0.6-0.4-1-1-1H20c-0.6,0-1,0.4-1,1v7.1c-2.3,1.5-4.1,3.6-5.1,6.1
		c-0.3-0.1-0.6-0.1-0.9-0.2v-4c0-0.6-0.4-1-1-1H8c-0.6,0-1,0.4-1,1v10H4c-0.6,0-1,0.4-1,1v4c0,0.6,0.4,1,1,1h3v2c0,0.6,0.4,1,1,1h4
		c0.6,0,1-0.4,1-1v-3c0.3,0,0.7-0.1,1-0.2V25c0,0.6,0.4,1,1,1h0.1c2.3,3.6,6.3,6,10.9,6c4.6,0,8.6-2.4,10.9-6H41c0.6,0,1-0.4,1-1V14
		C42,13.4,41.6,13,41,13z M40,19h-1c-0.1-1.5-0.8-2.9-1.8-4H40V19z M37,19.5c0,2.5-2,4.5-4.5,4.5S28,22,28,19.5s2-4.5,4.5-4.5
		S37,17,37,19.5z M9,19.5c0-1.9,1.6-3.5,3.5-3.5s3.5,1.6,3.5,3.5S14.4,23,12.5,23S9,21.4,9,19.5z M16,24v-0.3c1.1-0.9,1.8-2.2,2-3.7
		H26c0.1,1.5,0.8,2.9,1.8,4H16z M26,19H18c0-0.1,0-0.2,0-0.2l8.3-3.8h1.6C26.8,16.1,26.1,17.5,26,19z M21,2h10v5c-1.5-0.6-3.2-1-5-1
		c-1.8,0-3.5,0.4-5,1V2z M26,8c3.9,0,7.2,2,9.2,5H26c-0.1,0-0.3,0-0.4,0.1l-8.3,3.8c-0.4-0.7-0.9-1.3-1.6-1.8C17.3,10.9,21.3,8,26,8
		z M11,11v3.2c-0.7,0.2-1.4,0.6-2,1V11H11z M9,27v-2c0-0.6-0.4-1-1-1H5v-2h2.6c0.7,1.3,1.9,2.4,3.4,2.8V27H9z M26,30
		c-3.4,0-6.4-1.6-8.5-4h16.9C32.4,28.4,29.4,30,26,30z M37.2,24c1-1.1,1.7-2.5,1.8-4h1v4H37.2z"/>
	<polygon fill="#03B8E2" points="12,20 13,20 14,18 12,19 	"/>
</g>
</svg>
