<?xml version="1.0" encoding="utf-8"?>
<!-- Generator: Adobe Illustrator 17.1.0, SVG Export Plug-In . SVG Version: 6.00 Build 0)  -->
<!DOCTYPE svg PUBLIC "-//W3C//DTD SVG 1.1//EN" "http://www.w3.org/Graphics/SVG/1.1/DTD/svg11.dtd">
<svg version="1.1" id="Layer_1" xmlns="http://www.w3.org/2000/svg" xmlns:xlink="http://www.w3.org/1999/xlink" x="0px" y="0px"
	 viewBox="0 0 184 184" enable-background="new 0 0 184 184" xml:space="preserve">
<g>
	<path fill="#03B8E2" d="M159.2,123.9c-4.7-2.5-11,0.3-14.1,6.1c-3.1,5.9-1.7,12.6,3,15.1c1.2,0.6,2.4,0.9,3.8,0.9
		c1.3,0,2.6-0.3,4-0.9c2.6-1.2,4.9-3.4,6.4-6.2s2-5.9,1.4-8.8C163,127.3,161.5,125.1,159.2,123.9z M161.3,138.5
		c-1.4,2.6-3.5,4.6-5.9,5.7c-2.4,1.1-4.8,1-6.9,0c-4.2-2.2-5.4-8.4-2.6-13.7c2.1-4.1,5.9-6.5,9.5-6.5c1.1,0,2.3,0.3,3.3,0.8
		c2,1.1,3.4,3.1,3.9,5.6C163.1,133,162.6,135.9,161.3,138.5z"/>
	<path fill="#03B8E2" d="M170.9,135.7c1.7-7.9-0.7-15.7-6.3-19.6c0.1-1.8-0.9-3.5-2.5-4.2v-8.7c0-0.4-0.2-0.7-0.5-0.9l-32.2-17.5
		c-0.2-0.1-0.5-0.2-0.7-0.1l-2.9,0.7c-1.2-2.6-2.8-4.7-4.5-6.2c-0.9-0.9-1.8-1.6-2.7-2.1c0,0,0,0-0.1,0c-0.1,0-0.2-0.1-0.3-0.2
		c-0.1,0-0.2-0.1-0.2-0.1c0,0,0,0,0,0c-1.1-0.6-3-1.7-5.5-3.2l2.1-4.4c0.1-0.1,0.1-0.3,0.1-0.4v-4.1c0-0.4-0.2-0.7-0.5-0.9l-2-1.2
		V48.7c0-0.4-0.2-0.8-0.6-0.9L92.5,40c-0.2-0.1-0.4-0.1-0.5-0.1l-26.7,4.4c-0.5,0.1-0.8,0.5-0.8,1v1.2c-0.3-0.2-0.6-0.3-0.7-0.4
		c-0.7-0.5-7.8-5.1-20.6-1.2c-20.3,6.1-26,24-24.6,37.5c0.6,5.6,1.7,9.3,3.5,12.3c-3.8-2.4-8.4-5.3-9.5-5.8C10.9,88.1,8.9,87.3,7,88
		c-1.1,0.4-2,1.2-2.5,2.5c-2,4.5,3.5,7.8,3.7,7.9l14,8.6v2.8c0,0.3,0.2,0.6,0.4,0.8l2.9,1.9v10.6c0,0.1,0,0.2,0.1,0.3
		c0.5,1.5,2.6,4.2,6.5,4c4.6-0.2,6.2-2.4,6.4-2.7c0.1-0.2,0.2-0.3,0.2-0.5v-6l6.7,4.2l-0.9,2.6c0,0.1-0.1,0.2-0.1,0.3v17.7
		c-2.8,0.2-5,3.6-5,7.9c0,4.4,2.3,7.9,5.3,7.9c0.4,0,0.8-0.1,1.1-0.2c1,0,2-0.2,2.8-0.5c0.4,3.6,2.5,6.4,5,6.5
		c1.7,0.9,3.1,0.6,4.2,0.1c0.3,2,1.1,3.5,2.4,4.6c0.1,0.1,0.2,0.1,0.3,0.2c0.4,0.3,0.8,0.6,1.3,0.7c1.2,0.5,2.4,0.6,3.3,0.6
		c0.9,0,1.6-0.1,1.7-0.1l19.5-4.3c1,0.9,3.6,2.7,8.3,2.1c5.4-0.7,5.5-8.5,5.4-11.2c0,0,0,0,0,0l6.5,3.9v6.4c0,0.4,0.2,0.7,0.5,0.9
		l2.8,1.7c0.2,0.1,0.3,0.1,0.5,0.1c0.2,0,0.3,0,0.5-0.1l2.5-1.4c0.3-0.2,0.5-0.5,0.5-0.9V162l28.7-8.8c0.2,0.1,0.4,0.2,0.6,0.3
		c0.5,0.2,0.9,0.4,1.4,0.6c0.3,1.6,1.3,3,2.9,3.4c0.4,0.1,0.8,0.2,1.1,0.2c0.8,0,1.5-0.2,2.2-0.7c0.8-0.5,1.5-1.3,1.9-2.2
		c5.7-0.9,11.3-4.8,15-10.7c0.3,0.1,0.5,0.1,0.8,0.1c0.8,0,1.5-0.2,2.2-0.7c1-0.6,1.8-1.6,2.1-2.8c0.4-1.2,0.3-2.4-0.2-3.5
		C171.9,136.7,171.4,136.1,170.9,135.7z M88.1,156.3c-5.8-3-7.3-11.5-3.5-18.9c2.9-5.6,8.1-9,13-9c1.6,0,3.1,0.3,4.5,1.1
		c5.8,3,7.3,11.5,3.5,18.9C101.8,155.8,93.9,159.4,88.1,156.3z M63,168.6c-0.2,0-0.4,0-0.6-0.1c-0.3-0.1-0.5-0.3-0.8-0.4
		c-1.1-0.9-2-3-2-5.4c0-3.2,1.5-5.9,3.3-5.9c1.8,0,3.3,2.7,3.3,5.9C66.3,165.9,64.8,168.6,63,168.6z M48,151c0,3.2-1.5,5.9-3.3,5.9
		c-1.8,0-3.3-2.7-3.3-5.9s1.5-5.9,3.3-5.9C46.5,145.1,48,147.8,48,151z M57.2,156.9c0,3.2-1.5,5.9-3.3,5.9c-1.8,0-3.3-2.7-3.3-5.9
		s1.5-5.9,3.3-5.9C55.7,151,57.2,153.7,57.2,156.9z M57.7,162.7c-0.1,0.1-0.3,0.2-0.4,0.3c0.2-0.2,0.3-0.4,0.4-0.6
		C57.7,162.4,57.7,162.5,57.7,162.7z M63.9,154.9c-0.3-0.1-0.6-0.1-0.9-0.1c-1.5,0-2.9,0.9-3.9,2.5c0-0.1,0-0.3,0-0.4
		c0-3.5-1.5-6.4-3.5-7.5c0.7-0.3,1.3-0.5,1.4-0.5c0.4-0.1,0.8-0.5,0.8-1v-31c1.7,1.1,4.1,1.8,6.9,1.8c0.8,0,1.5-0.1,2.2-0.2
		c-0.1,0.3-0.2,0.6-0.2,1c0,0.4,0.1,0.7,0.2,1.1v33.2C66.2,154,65.1,154.3,63.9,154.9z M56,111.4c-3.3,0-5.8-1.4-5.8-2.6
		s2.5-2.6,5.8-2.6c2.9,0,5.2,1.1,5.7,2.2c-2.5,0.5-4.5,1.6-5.4,3C56.2,111.4,56.1,111.4,56,111.4z M67.1,107.2L42.7,91.8V83l27,16.7
		c0,0,0,0,0,0C68.5,102.3,67.6,105,67.1,107.2C67.1,107.2,67.1,107.2,67.1,107.2z M62.6,61.9c-0.4,0.1-0.7,0.5-0.7,0.9v1.6L55,60.2
		c-0.2-0.1-0.5-0.1-0.7,0.2c-0.1,0.2-0.1,0.5,0.2,0.7l7.5,4.6v1.6c0,0.4,0.2,0.7,0.5,0.9l15.8,9.3c0,0,0,0,0,0l5.7,3.3
		c-1.1,1-2.9,2.7-4.7,4.7L44,62.6c-0.2-0.1-0.5-0.1-0.7,0.1c-0.1,0.2-0.1,0.5,0.1,0.7l35.1,22.7c-1.5,1.7-3,3.4-4.1,5.1
		c-0.1,0.1-0.2,0.3-0.3,0.4L38,68.4c-0.2-0.2-0.5-0.1-0.7,0.2c-0.1,0.2-0.1,0.5,0.2,0.7l36.2,23.2c-1.2,1.9-2.4,4.1-3.5,6.3
		L42.7,81.9v-5.6c0-0.1,0-0.1,0-0.2c0-0.2-1.2-5-9.4-4.9c1.4-7.8,9.2-12.7,14.6-13.8c5.3-1.1,12.7-0.8,16.6,2.3v1.7L62.6,61.9z
		 M32.1,73.2c6.8-0.4,8.3,2.5,8.5,3.1c-0.2,0.7-1.1,3.2-7.1,3.4c-7,0.2-8-2.6-8.1-3.1C25.5,76.2,26.2,73.6,32.1,73.2z M25.4,94.1
		l0-14.2c1.4,1,3.6,1.9,7.4,1.9c0.3,0,0.5,0,0.8,0c3.6-0.1,5.7-1,7-2.1V93c-0.4,0.8-2.2,4.1-7,4.1C28.9,97.1,26.2,94.8,25.4,94.1z
		 M76.1,92.3c3.2-4.8,10.1-11.1,10.2-11.1l0,0c0.1-0.1,4.2-3.7,11.6-6.6c4.5-1.8,8.4-1.5,10.7-1c0.4,0.3,0.9,0.5,1.3,0.7
		c-8.9-0.3-19.8,5.5-28.6,15.9c-5.9,6.9-8.8,13.4-10.2,19.3c-0.6-0.4-1.4-0.7-2.2-0.9C69.4,104.3,72.8,97.3,76.1,92.3z M116.4,78.1
		c0.1,0,0.1,0.1,0.2,0.1c0.1,0,0.1,0.1,0.2,0.1c0,0,0.1,0,0.1,0.1c0.2,0.1,0.4,0.2,0.5,0.3c1.9,1.2,4.3,3.4,6,6.6
		c0.1,0.2,0.2,0.3,0.2,0.5l-2.3,0.5c-0.5,0.1-0.8,0.5-0.8,1v2.3L99,96.1c-0.1,0-0.3,0.1-0.4,0.2l-2,1.9c-0.1,0-0.2,0-0.4-0.1
		c-2.6-0.2-4.8,1-4.9,2.8c0,0.6,0.2,1.2,0.6,1.7l-12.6,11.9c-1-0.2-2.2-0.4-3.4-0.4c-0.7,0-1.5,0.1-2.2,0.2c0.1-0.3,0.2-0.6,0.2-1
		c0-0.8-0.3-1.6-0.9-2.3c1.2-5.9,4-12.5,9.9-19.5c12.5-14.7,26-17.4,33.2-13.7c0.1,0,0.1,0.1,0.2,0.1
		C116.3,78,116.4,78.1,116.4,78.1z M93.3,101.1c0-0.4,1-1,2.4-1c0.1,0,0.3,0,0.4,0h0c1.6,0.1,2.6,0.9,2.6,1.4c0,0.2-0.3,0.4-0.6,0.6
		c-0.6,0.3-1.3,0.4-2.1,0.3C94.2,102.4,93.2,101.6,93.3,101.1z M71.8,113.4c0,0.6-0.4,1.2-1.1,1.7c-0.7,0.3-1.3,0.6-1.8,0.9
		c-1.1,0.4-2.6,0.7-4.2,0.7c-4.2,0-7.1-1.7-7.1-3.3s2.9-3.3,7.1-3.3S71.8,111.8,71.8,113.4z M68.7,119.5c0-1.6,2.9-3.3,7.1-3.3
		c3.9,0,6.7,1.5,7.1,3v0.7c-0.4,1.5-3.2,3-7.1,3C71.6,122.8,68.7,121.1,68.7,119.5z M84.9,120.1c0-0.2,0-0.4,0-0.6
		c0-1.7-1.4-3.3-3.6-4.2l12.1-11.4c0.7,0.3,1.4,0.5,2.3,0.6c0.2,0,0.4,0,0.6,0c1,0,1.9-0.2,2.6-0.6c1-0.5,1.7-1.3,1.8-2.3
		c0.1-1.1-0.7-2.1-1.9-2.8l1-1l22-6.6c0.1,0,0.2-0.1,0.2-0.1l22.1,11.8l-26.7,8.5c-0.1,0-0.1,0.1-0.2,0.1l-15.9,15.2
		c-1.6-0.8-3.3-1.6-4.3-2c-4.2-1.5-8.4-0.9-12.1,1.7V120.1z M92.5,126c1.1,0,2.3,0.2,3.5,0.6c-5.1,0.7-10.1,4.3-13.1,9.9
		c-3.2,6.2-3,13.1,0.1,17.7c-2.3-1.3-3.9-3.4-4.8-6.1c-1.2-3.9-0.6-8.4,1.6-12.5C83.1,129.4,87.7,126,92.5,126z M134.3,129
		c-0.3,0.9-0.3,1.8-0.1,2.7l-5.1-2.6c0,0-0.1,0-0.1,0c-0.8-0.4-1.2-1.7-0.9-3c0.2-0.7,0.6-1.4,1.2-1.7c0.3-0.2,0.7-0.4,1.1-0.4
		c0.1,0,0.2,0,0.3,0c0,0,0,0,0.1,0c0,0,0,0,0,0c0,0.2,0.2,0.3,0.3,0.4l5.4,1.7c-0.1,0-0.1,0-0.2,0.1
		C135.4,126.8,134.7,127.8,134.3,129z M130.6,121.9L130.6,121.9c-0.8,0-1.6,0.2-2.3,0.8c-0.9,0.6-1.6,1.6-2,2.8
		c-0.6,2,0,4.1,1.5,5.2c0,0.3-0.1,0.7-0.1,1l-18,6.8c-0.2-1.5-0.5-3-1.1-4.4l16-11.5l7-2.5C131.2,120.6,130.9,121.3,130.6,121.9z
		 M110,144.9l-0.7-0.6c0.4-1.6,0.5-3.3,0.5-4.8l17.8-6.7c-0.1,1.9,0,3.8,0.4,5.5L110,144.9z M129.8,130.5l5.1,2.6
		c0,0.1,0.1,0.1,0.1,0.2c-1.1,5.5-0.3,10.9,2.3,15c-0.1,0-0.2-0.1-0.2-0.1c-1.1-0.6-2.2-1.4-3.1-2.3
		C130.4,142.3,128.8,136.5,129.8,130.5z M136.4,131.6c-0.3-0.6-0.3-1.4-0.1-2.1c0.2-0.7,0.7-1.3,1.2-1.7c0.4-0.2,0.8-0.3,1.2-0.3
		c0.2,0,0.4,0,0.6,0.1c1.2,0.4,1.9,1.8,1.4,3.2c-0.4,1.4-1.8,2.3-3,1.9C137.1,132.6,136.6,132.2,136.4,131.6z M137.9,125.5l-6-1.9
		c0,0,0-0.1,0.1-0.1l0.1-0.3c0.1-0.1,0.1-0.2,0.2-0.4c5.2-9.9,15.7-14.6,23.5-10.5c0.5,0.3,0.9,0.5,1.4,0.8
		c-0.1,0.1-0.3,0.3-0.4,0.5c-2.5-0.1-5.2,0.4-7.8,1.6C144.5,117.1,140.6,120.8,137.9,125.5z M160,111.6c-0.4,0-0.7,0.1-1.1,0.3
		c-0.6-0.4-1.4-0.9-2.2-1.3c-2-1-4.1-1.6-6.3-1.7v-2l9.6-2.9V111.6z M158,115.6c0.4-1.4,1.8-2.3,3-1.9c1.2,0.4,1.9,1.8,1.4,3.2
		c-0.4,1.4-1.8,2.3-3,1.9C158.2,118.4,157.6,117,158,115.6z M128.6,86.7l30.4,16.5l-9.3,2.8c-0.2,0.1-0.4,0.3-0.4,0.5v2.4
		c-6.1,0.1-12.5,3.7-16.8,9.8l-8.4,2.9c0,0-0.1,0-0.1,0.1l-15.9,11.5c-0.9-1.9-2.2-3.4-3.9-4.6c0,0-0.1-0.1-0.1-0.1
		c-0.4-0.3-1.1-0.6-1.9-1l15.6-14.9l27.7-8.9c0.2-0.1,0.3-0.2,0.3-0.4c0-0.2-0.1-0.4-0.3-0.5l-23.1-12.4v-2.2L128.6,86.7z
		 M110.8,72.2c-2-0.7-7.2-1.9-13.6,0.6c-6.3,2.5-10.3,5.4-11.7,6.5l-6.3-3.6l-15.3-9v-3.1l1.8-0.6c0.1,0,0.1-0.1,0.2-0.1l19.8,10.9
		c0.1,0,0.2,0.1,0.2,0.1c0.1,0,0.1,0,0.2,0l26.4-8.3v3L110.8,72.2z M111.6,64.7L86,72.8L66.4,62V46.3L86,54.6v15.2
		c0,0.3,0.2,0.5,0.5,0.5s0.5-0.2,0.5-0.5V54.6l23-5.2v13.7c0,0.4,0.2,0.7,0.5,0.9L111.6,64.7z M92,41.9l16.5,6.8l-21.9,5L68,45.9
		L92,41.9z M43.7,46.9c3.5-1.1,6.5-1.4,9.1-1.4c6.4,0,9.7,2.4,9.8,2.4c0,0,0.1,0,0.1,0.1c0.1,0,0.7,0.4,1.7,1v8.4
		c-4.6-2.7-11.7-2.9-17-1.8c-7.1,1.4-15,7.5-16.2,15.9c-7.5,0.8-7.7,5.1-7.7,5.4v16.5c-1.5-2.7-2.4-6-2.9-11
		C19.3,69.5,24.6,52.6,43.7,46.9z M38.3,115.8c-1.2-1.6-0.8-4.7,0.4-5.9c1.7-1.6,4.3-1.3,4.3-1.3c0.5,0.1,1.1-0.3,1.1-0.9
		s-0.3-1.1-0.9-1.1c-0.1,0-3.6-0.5-6,1.8c-1.9,1.7-2.5,6-0.7,8.4v7.1c-0.4,0.4-1.7,1.5-4.6,1.6c-3,0.1-4.2-2-4.5-2.5v-10.9
		c0-0.3-0.2-0.6-0.4-0.8l-2.9-1.9v-2.8c0-0.3-0.2-0.7-0.5-0.9L9.2,96.7c0,0-4.2-2.5-2.9-5.4c0.4-0.8,0.8-1.3,1.4-1.5
		c1.3-0.5,3.2,0.5,3.9,0.8c1.4,0.7,10,6.1,14.4,8.8c0.3,0.2,0.7,0.2,1,0s0.5-0.5,0.5-0.9v-0.9c1.6,0.7,3.6,1.3,6.2,1.3
		c6.7,0,8.8-5.3,8.9-5.6c0-0.1,0.1-0.2,0.1-0.4v-0.2L66.5,108c0.1,0.1,0.2,0.1,0.3,0.1c0.1,0,0.2,0,0.2-0.1c0,0.1,0,0.1,0,0.2
		c-0.7-0.1-1.5-0.2-2.3-0.2c-0.3,0-0.7,0-1,0c-0.5-2.2-3.7-3.9-7.7-3.9c-2.3,0-4.3,0.6-5.8,1.5L40.8,99c-0.2-0.2-0.5-0.1-0.7,0.1
		c-0.2,0.2-0.1,0.5,0.1,0.7l9.2,6.5c-0.8,0.7-1.2,1.6-1.2,2.5c0,2.5,3.2,4.5,7.4,4.6c0,0.4,0.1,0.7,0.2,1.1v32.7
		c-1.2,0.4-2.6,1.2-3.8,2.3c-0.8,0.4-1.4,1.1-2,2c0-0.1,0-0.3,0-0.4c0-3.5-1.5-6.5-3.6-7.5v-18l1.1-3.2c0.1-0.4,0-0.9-0.4-1.2
		L38.3,115.8z M94.2,166.7c-4.8,0.6-6.8-1.7-6.9-1.8c-0.2-0.3-0.6-0.5-1-0.4l-19.9,4.4c1.2-1.4,2-3.7,2-6.2c0-2.7-0.9-5.1-2.3-6.5
		c1.1-0.4,2-0.6,2-0.6c0.5-0.1,0.8-0.5,0.8-1V123c1.7,1.1,4.1,1.8,6.9,1.8c2.9,0,5.4-0.7,7.1-1.9v5.3c-1.8,1.7-3.5,3.8-4.9,6.5
		c-2.5,4.6-3.1,9.7-1.7,14.1c1.1,3.4,3.3,6.1,6.2,7.6c2.3,1.2,5,2.2,7.4,2.9c0,0,0,0,0,0c0.9,0.2,1.8,0.3,2.8,0.3
		c1.7,0,3.5-0.4,5.2-1.1C97.9,161.1,97.4,166.2,94.2,166.7z M107.9,159.8l-6.2-3.7c2.2-1.7,4.2-4,5.7-6.8c0.7-1.3,1.2-2.7,1.6-4
		l0.4,0.3l0.3,22.2l-1.3-0.8v-6.4C108.4,160.4,108.2,160,107.9,159.8z M112.4,160.3c-0.4,0.1-0.7,0.5-0.7,1v6.1l-1,0.6l-0.3-22.1
		l17.8-6.5c0.8,3.1,2.3,5.9,4.4,8c1.1,1.1,2.3,1.9,3.6,2.6c1.1,0.6,2.3,1,3.5,1.3c0.2,0.2,0.4,0.4,0.6,0.6L112.4,160.3z
		 M150.7,153.7c-0.2,0.7-0.7,1.3-1.2,1.7c-0.6,0.3-1.2,0.4-1.7,0.3c-1.2-0.4-1.9-1.8-1.4-3.2c0.4-1.4,1.8-2.3,3-1.9
		c0.6,0.2,1,0.6,1.3,1.2C150.9,152.3,151,153,150.7,153.7z M152.9,152.8c0-0.7-0.1-1.4-0.4-2c-0.5-1.1-1.4-1.9-2.5-2.2
		c-2.3-0.7-4.7,0.8-5.5,3.3c0,0.1,0,0.1,0,0.2c-0.2-0.1-0.4-0.2-0.6-0.3c-5.6-3-8.2-9.9-7-17.2c0.1,0,0.2,0.1,0.3,0.1
		c0.4,0.1,0.8,0.2,1.1,0.2c1.9,0,3.7-1.4,4.3-3.5c0.7-2.4-0.4-4.8-2.5-5.6c2.4-4,5.8-7.2,9.8-8.9c2.1-0.9,4.1-1.4,6.1-1.4
		c-0.4,2.3,0.8,4.6,2.9,5.2c0.4,0.1,0.8,0.2,1.1,0.2c1.7,0,3.2-1,4-2.7c4.5,3.6,6.3,10.1,5,16.8c-0.9-0.1-1.8,0.1-2.6,0.6
		c-1,0.6-1.8,1.6-2.1,2.8c-0.6,1.9,0,3.8,1.3,4.9C162.4,148.4,157.7,151.8,152.9,152.8z M170.6,140.3c-0.2,0.7-0.7,1.3-1.2,1.7
		c-0.6,0.3-1.2,0.4-1.7,0.3c-1.2-0.4-1.9-1.8-1.4-3.2c0.2-0.7,0.7-1.3,1.2-1.7c0.6-0.3,1.2-0.4,1.7-0.3c0.6,0.2,1,0.6,1.3,1.2
		C170.7,138.9,170.8,139.6,170.6,140.3z"/>
	<path fill="#03B8E2" d="M180.5,52.4l-6.2,1.2c-0.5,0.1-0.8,0.5-0.8,1v5.8l-2,2.1c-0.9,0.6-1.8,1.1-4.6,1.6
		c-2.6,0.5-4.2-0.5-5.2-1.3c0,0,0,0,0,0c0,0-0.1-0.1-0.1-0.1l-2.5-1.3v-3.9c0-0.3-0.1-0.6-0.4-0.8c-0.2-0.2-0.5-0.3-0.8-0.2l-5.1,1
		l-1-0.4c1.1-1.2,1.8-3.2,1.8-5.7c0-3.2-1.1-6.5-3.6-7.6l0.2-0.2l7.4-1.3c0.5-0.1,0.8-0.5,0.8-1v-3.9l1.5-0.4c1,1,3,1.7,5.1,1.7
		c0.3,0,0.6,0,0.8,0c2.8-0.3,4.6-0.9,5.6-1.8l1.5,0.5v2.3c0,0.3,0.1,0.6,0.3,0.7c0.2,0.2,0.4,0.3,0.7,0.3c0,0,0.1,0,0.1,0l6.7-0.8
		c0.5-0.1,0.9-0.6,0.9-1.1c-0.1-0.5-0.6-0.9-1.1-0.9l-5.5,0.7v-1.9c0-0.4-0.3-0.8-0.7-0.9L172,35V16.6c0-0.6-0.4-1-1-1s-1,0.4-1,1
		v18.8c-0.5,0.5-1.8,1.1-4.5,1.3c-2.1,0.2-4-0.6-4.3-1.1V16.4c0-0.6-0.4-1-1-1s-1,0.4-1,1v18.8l-2.1,0.6c-0.4,0.1-0.7,0.5-0.7,1v3.8
		l-6.8,1.2c-0.2,0-0.4,0.1-0.5,0.3l-1.5,1.4c-1.5,0.2-7.7,1.1-12.6,2.1c-6.7,1.3-10.3,5.8-10.3,13v12.4c0,2.8,2.8,4.8,6.9,4.8
		c3.9,0,6.3-2.1,6.3-5.6v-4c0-5.4,0.5-6.2,4.5-6.7c3.8-0.5,6.4-0.9,7.2-1l2.9,1.1c0.2,0.1,0.4,0.1,0.6,0.1l4.2-0.8V62
		c0,0.4,0.2,0.7,0.5,0.9l2.5,1.3v31c0,0.6,0.4,1,1,1s1-0.4,1-1V65.4c0.9,0.4,2.1,0.8,3.5,0.8c0.5,0,1.1,0,1.7-0.2
		c1.9-0.3,3-0.7,3.9-1.1v49.8c0,0.6,0.4,1,1,1s1-0.4,1-1V63.6l2.1-2.2c0.2-0.2,0.3-0.4,0.3-0.7v-5.3l5.4-1c0.5-0.1,0.9-0.6,0.8-1.2
		C181.6,52.7,181.1,52.3,180.5,52.4z M141.9,57.4c-5.4,0.7-6.2,2.6-6.2,8.7v4c0,2.3-1.5,3.6-4.3,3.6c-2.4,0-4.9-0.9-4.9-2.8V58.5
		c0-6.2,2.9-9.9,8.7-11c5.2-1,11.9-2,12.7-2.1c2.8,0,3.5,3.8,3.5,6.1c0,2.9-1.1,4.7-2.2,4.8c0,0,0,0,0,0c0,0,0,0-0.1,0
		C149.3,56.3,146.5,56.8,141.9,57.4z"/>
	<path fill="#03B8E2" d="M101.2,131.5c-1.2-0.7-2.6-1-4-1c-4.2,0-8.7,2.9-11.2,7.6c-3.3,6.3-1.9,13.6,3.1,16.2c1.2,0.7,2.6,1,4,1
		c4.2,0,8.7-2.9,11.2-7.6C107.6,141.4,106.2,134.2,101.2,131.5z M93.1,154.4c-1.3,0-2.4-0.3-3.5-0.9c-4.5-2.4-5.8-9.1-2.7-14.9
		c2.3-4.3,6.3-7.1,10.3-7.1c1.3,0,2.4,0.3,3.5,0.9c4.5,2.4,5.8,9.1,2.7,14.9C101.1,151.6,97.1,154.4,93.1,154.4z"/>
	<polygon fill="#03B8E2" points="94.5,144.2 95.6,143.8 99.6,133.1 94.5,143.1 	"/>
</g>
</svg>
