<?xml version="1.0" encoding="utf-8"?>
<!-- Generator: Adobe Illustrator 17.1.0, SVG Export Plug-In . SVG Version: 6.00 Build 0)  -->
<!DOCTYPE svg PUBLIC "-//W3C//DTD SVG 1.1//EN" "http://www.w3.org/Graphics/SVG/1.1/DTD/svg11.dtd">
<svg version="1.1" id="Layer_1" xmlns="http://www.w3.org/2000/svg" xmlns:xlink="http://www.w3.org/1999/xlink" x="0px" y="0px"
	 viewBox="0 0 184 184" enable-background="new 0 0 184 184" xml:space="preserve">
<g>
	<path fill="#03B8E2" d="M45.4,115.6c-0.2-0.2-0.5-0.2-0.7,0l-25.5,25.5c-0.2,0.2-0.2,0.5,0,0.7c0.1,0.1,0.2,0.1,0.4,0.1
		s0.3,0,0.4-0.1l25.5-25.5C45.5,116.2,45.5,115.8,45.4,115.6z"/>
	<path fill="#03B8E2" d="M48.6,117.6l-25.5,25.5c-0.2,0.2-0.2,0.5,0,0.7c0.1,0.1,0.2,0.1,0.4,0.1s0.3,0,0.4-0.1l25.5-25.5
		c0.2-0.2,0.2-0.5,0-0.7S48.8,117.5,48.6,117.6z"/>
	<path fill="#03B8E2" d="M17.6,103.6l-9,9c-0.2,0.2-0.2,0.5,0,0.7c0.1,0.1,0.2,0.1,0.4,0.1s0.3,0,0.4-0.1l9-9c0.2-0.2,0.2-0.5,0-0.7
		S17.8,103.5,17.6,103.6z"/>
	<path fill="#03B8E2" d="M58.6,151.6l-6,6c-0.2,0.2-0.2,0.5,0,0.7c0.1,0.1,0.2,0.1,0.4,0.1s0.3,0,0.4-0.1l6-6c0.2-0.2,0.2-0.5,0-0.7
		S58.8,151.5,58.6,151.6z"/>
	<path fill="#03B8E2" d="M134.4,90.1c-0.2-0.2-0.5-0.2-0.7,0l-25.5,25.5c-0.2,0.2-0.2,0.5,0,0.7c0.1,0.1,0.2,0.1,0.4,0.1
		s0.3,0,0.4-0.1l25.5-25.5C134.5,90.7,134.5,90.3,134.4,90.1z"/>
	<path fill="#03B8E2" d="M137.6,92.1l-25.5,25.5c-0.2,0.2-0.2,0.5,0,0.7c0.1,0.1,0.2,0.1,0.4,0.1s0.3,0,0.4-0.1l25.5-25.5
		c0.2-0.2,0.2-0.5,0-0.7S137.8,92,137.6,92.1z"/>
	<path fill="#03B8E2" d="M151.6,126.6l-6,6c-0.2,0.2-0.2,0.5,0,0.7c0.1,0.1,0.2,0.1,0.4,0.1s0.3,0,0.4-0.1l6-6
		c0.2-0.2,0.2-0.5,0-0.7S151.8,126.5,151.6,126.6z"/>
	<path fill="#03B8E2" d="M183.3,91.1L160,82.5v-9.1l23.3-7.5c0.5-0.2,0.8-0.7,0.6-1.3c-0.2-0.5-0.7-0.8-1.3-0.6L75,98.6v-1.9
		L183.3,62c0.5-0.2,0.8-0.7,0.6-1.3c-0.2-0.5-0.7-0.8-1.3-0.6l-8.4,2.7c-0.6-2.6-1.5-5.7-2.9-9.1l11.4,3.8c0.1,0,0.1,0,0.2,0
		c0.2,0,0.4-0.1,0.5-0.3c0.1-0.3-0.1-0.5-0.3-0.6l-12.2-4.1c-1.3-3-2.9-6.1-5-9.1l15.4-4.3l1.5,0.5c0,0,0.1,0,0.1,0
		c0.2,0,0.4-0.1,0.5-0.4c0.1-0.3-0.1-0.5-0.3-0.6l-0.1,0l0.1,0c0.3-0.1,0.4-0.4,0.3-0.6c-0.1-0.3-0.4-0.4-0.6-0.3l-1.5,0.4
		l-29.5-9.2l23.4-5.4c2.7,1.3,5.2,2.8,7.5,4.7c0.1,0.1,0.2,0.1,0.3,0.1c0.1,0,0.3-0.1,0.4-0.2c0.2-0.2,0.1-0.5-0.1-0.7
		c-2-1.7-4.3-3.1-6.7-4.3l6.5-1.5c0.3-0.1,0.4-0.3,0.4-0.6c-0.1-0.3-0.3-0.4-0.6-0.4l-7.6,1.8c-0.9-0.4-1.7-0.8-2.6-1.1
		c-2.2-0.8-4.4-1.3-6.7-1.5l17.3-3.7c0.5-0.1,0.9-0.6,0.8-1.2c-0.1-0.5-0.6-0.9-1.2-0.8l-53.9,11.5c-0.2,0-0.3,0.1-0.4,0.1L22.8,48
		c-0.2,0-0.3,0.1-0.5,0.3C10.3,50.5,2,59,0.1,62.5c0,0,0,0,0,0c0,0,0,0,0,0c0,0,0,0,0,0c0,0.1-0.1,0.2-0.1,0.2c0,0,0,0,0,0.1
		c0,0,0,0,0,0c0,0,0,0,0,0.1c0,0,0,0,0,0.1v4c0,0.4,0.2,0.7,0.6,0.9l4.4,2V95c0,0,0,0,0,0v48c0,0.6,0.4,1,1,1s1-0.4,1-1v-3.4l58,30
		v4.4c0,0.6,0.4,1,1,1s1-0.4,1-1v-14.1l2.2,0.9c0.3,0.1,0.5,0.2,0.8,0.2c0.3,0,0.6-0.1,0.9-0.2l2-1c0.7-0.3,1.1-1,1.1-1.8v-12
		c0-0.8-0.4-1.5-1.1-1.8l-5.9-2.9V121c0,0,0,0,0,0V97.9l6.6,3c0,0,0,0,0,0c0.1,0.1,0.3,0.1,0.4,0.1c0.1,0,0.2,0,0.3,0L91,95.6V114
		c0,0,0,0,0,0v4c0,0.6,0.4,1,1,1s1-0.4,1-1v-2.5l65,28.1v4.3c0,0.6,0.4,1,1,1s1-0.4,1-1v-5c0,0,0,0,0,0v-10.1l2.2,0.9
		c0.3,0.1,0.5,0.2,0.8,0.2c0.3,0,0.6-0.1,0.9-0.2l2-1c0.7-0.3,1.1-1,1.1-1.8v-11c0-0.8-0.4-1.5-1.1-1.8l-5.9-2.9V84.6l22.7,8.3
		c0.1,0,0.2,0.1,0.3,0.1c0.4,0,0.8-0.3,0.9-0.7C184.1,91.8,183.9,91.3,183.3,91.1z M158,81.8l-4-1.5v-4.9l4-1.3V81.8z M49,44.5
		C49.1,44.5,49.1,44.5,49,44.5c4.3-1.1,8.7-1.2,13.1-0.6c-2.9,2.2-4.8,4.4-5.5,5.7l-11.3,2.6c-1.6-0.8-3.2-1.5-5-2.2
		c-2.8-1-5.4-1.7-8-2L49,44.5z M106,32.4c0.1,0,0.1,0,0.2,0c3.2-0.8,6.5-1,9.8-0.7c-2.9,2.1-4.8,4.2-5.5,5.5l-11.4,2.6
		c-1.2-0.6-2.5-1.1-3.9-1.6c-2.5-0.9-5.1-1.6-7.7-1.9L106,32.4z M127.1,27.9c0.4-0.1,0.8-0.2,1.2-0.3l0.9-0.2
		c4.9-0.8,10.2-0.4,15,1.4c0.3,0.1,0.6,0.2,0.9,0.3l-18.8,4.3c-0.9-0.4-1.8-0.8-2.8-1.1c-1.5-0.6-3.1-1-4.7-1.3
		c1.5-0.9,3.2-1.8,5.1-2.5L127.1,27.9C127.1,27.9,127.1,27.9,127.1,27.9z M152.5,69.7L152.5,69.7c-0.2-0.8-0.4-1.7-0.6-2.7l0.6,0.2
		V69.7z M153.5,67.6l2.6,1l-2.6,0.8V67.6z M74.8,94.7c-1.1-5.6-3.6-14.6-8.9-23.3l25.6-7.2v25.1L74.8,94.7z M72.2,47.1
		c8.6,4,14.8,9.9,19.2,16.1l-26.1,7.3C61,63.9,55.1,57.5,46.7,53L72.2,47.1z M58,49.3c1-1.4,2.9-3.3,5.5-5.2
		c1.8,0.3,3.5,0.8,5.2,1.5c0.7,0.2,1.3,0.5,2,0.8L58,49.3z M126.2,34.6c7.5,3.5,12.9,8.6,16.7,14.1l-21.1,5.9l-6.2-2.3
		c-3.9-4.5-8.8-8.7-15-11.9L126.2,34.6z M112,36.9c1-1.4,3-3.2,5.6-5c1.9,0.3,3.8,0.8,5.6,1.5c0.5,0.2,1,0.4,1.5,0.6L112,36.9z
		 M143.5,49.6c3.7,5.5,5.8,11.3,7,15.8l-27.1-10.1L143.5,49.6z M92.5,64.8c1.1,1.6,2,3.3,2.8,4.9l-2.8-1.1V64.8z M113,52.5
		c1.1,1.2,2.2,2.5,3.1,3.8l-23.6,6.6V44.8L113,52.5z M116.8,53.9l3.3,1.2l-1.9,0.5C117.7,55.1,117.3,54.5,116.8,53.9z M111.4,50.8
		l-19-7.1c-0.1-0.1-0.2-0.2-0.4-0.2c-0.1,0-0.1,0-0.2,0l-1.6-0.6l7.2-1.7C103.1,43.8,107.7,47.1,111.4,50.8z M88.6,43.3
		c0.1,0.1,0.1,0.1,0.2,0.2l2.7,1v17.2c-4.2-5.7-9.9-11.1-17.7-14.9L88.6,43.3z M92.5,69.7l3.5,1.4c2.8,5.7,4.3,11.2,5.1,15.1
		L92.5,89V69.7z M97.4,71.6l22.3,8.7l-17.6,5.6C101.3,82.1,99.9,77,97.4,71.6z M96.7,70.3c-1.1-2.2-2.3-4.3-3.7-6.5l23.7-6.7
		c5.3,7.4,8,15.3,9.4,21.1l-5,1.6L96.7,70.3z M118.8,56.6l2.9-0.8l29.1,10.9c0.3,1.3,0.6,2.5,0.7,3.5l-23.4,7.5
		C126.7,71.8,123.9,64,118.8,56.6z M151.6,65.8c-1.2-4.6-3.3-10.7-7.1-16.5l8-2.3v19.1L151.6,65.8z M152.5,46l-8.6,2.4
		c-3.7-5.4-8.9-10.6-16.1-14.2l19-4.4c2.1,0.9,4,2,5.8,3.1V46z M153.5,33.7c4,2.7,7.1,6,9.7,9.4l-9.7,2.7V33.7z M117.3,30.9
		c-0.9-0.1-1.9-0.2-2.8-0.3l5-1.1C118.7,29.9,118,30.4,117.3,30.9z M75.3,39c6.2-1.6,13.1-1.2,19.3,1.1c0.4,0.2,0.9,0.3,1.3,0.5
		L72.4,46c-1-0.5-2.1-0.9-3.2-1.3c-1.4-0.5-2.9-1-4.4-1.3c2.1-1.4,4.7-2.8,7.5-3.8l2.8-0.6C75,39,75.1,39,75.3,39z M63.3,43.1
		c-1.7-0.3-3.4-0.5-5.1-0.6l9.3-2C65.9,41.4,64.5,42.2,63.3,43.1z M63,70.7L36.7,78c0,0,0,0,0,0L4.1,63.3L44.4,54
		C52.7,58.2,58.7,64.3,63,70.7z M64.1,72.4c5,8.1,7.4,16.4,8.5,21.9l-33.1-15L64.1,72.4z M172.4,63.3l-14.8,4.7l-4.1-1.5V47.7
		l15.4,5.1C170.6,56.7,171.7,60.4,172.4,63.3z M168.3,51.6l-14.6-4.9l10.1-2.8C165.6,46.4,167.1,49,168.3,51.6z M165.3,42.5
		c-3-4.1-6.8-8-11.8-11.2v-1l26.1,8.1L165.3,42.5z M150.9,29.5l1.7,0.5c0,0,0,0,0,0v0.6c-0.9-0.5-1.7-1-2.7-1.5l0.7-0.2
		C150.5,29.2,150.6,29.4,150.9,29.5z M172.3,22.1c0.4,0.2,0.9,0.4,1.3,0.5l-25.1,5.8c-1.1-0.5-2.3-1-3.5-1.5c-2-0.7-4.1-1.3-6.2-1.6
		l22.8-4.9C165.2,20.3,168.8,20.8,172.3,22.1z M39.6,51.9c0.6,0.2,1.2,0.5,1.8,0.7L3.3,61.5C7.9,55.6,21.8,45.2,39.6,51.9z M2,64.5
		l71,32.1v1.8L2,66.4V64.5z M65,167.4l-58-30V96.5l58,25.1v19.6l-2.6,0.9c-0.8,0.3-1.4,1-1.4,1.9v12c0,0.8,0.5,1.5,1.2,1.8L65,159
		V167.4z M65,156.9l-2-0.9v-12l2-0.7V156.9z M72,146v12l-2,1l-3-1.3v-14.2L72,146z M65,119.5L7,94.3V70.8L65,97V119.5z M158,141.5
		l-65-28.1V94.9l34.5-11.1L158,95.7v19.5l-2.6,0.9c-0.8,0.3-1.4,1-1.4,1.9v11c0,0.8,0.5,1.5,1.2,1.8l2.8,1.2V141.5z M158,129.9
		l-2-0.9v-11l2-0.7V129.9z M165,120v11l-2,1l-3-1.3v-13.2L165,120z M158,93.5l-27.4-10.6L152,76v9c0,0.6,0.4,1,1,1s1-0.4,1-1v-2.6
		l4,1.5V93.5z"/>
	<path fill="#03B8E2" d="M181.9,68.1c-0.2-0.2-0.5-0.2-0.7,0l-14.5,14.5c-0.2,0.2-0.2,0.5,0,0.7c0.1,0.1,0.2,0.1,0.4,0.1
		s0.3,0,0.4-0.1l14.5-14.5C182,68.7,182,68.3,181.9,68.1z"/>
	<path fill="#03B8E2" d="M170,84.5c0.1,0,0.3,0,0.4-0.1l13-13c0.2-0.2,0.2-0.5,0-0.7s-0.5-0.2-0.7,0l-13,13c-0.2,0.2-0.2,0.5,0,0.7
		C169.7,84.5,169.9,84.5,170,84.5z"/>
</g>
</svg>
