<?xml version="1.0" encoding="utf-8"?>
<!-- Generator: Adobe Illustrator 17.1.0, SVG Export Plug-In . SVG Version: 6.00 Build 0)  -->
<!DOCTYPE svg PUBLIC "-//W3C//DTD SVG 1.1//EN" "http://www.w3.org/Graphics/SVG/1.1/DTD/svg11.dtd">
<svg version="1.1" id="Layer_1" xmlns="http://www.w3.org/2000/svg" xmlns:xlink="http://www.w3.org/1999/xlink" x="0px" y="0px"
	 viewBox="0 0 44 32" enable-background="new 0 0 44 32" xml:space="preserve">
<path fill="#03B8E2" d="M43,0H4C3.4,0,3,0.4,3,1C1.3,1,0,2.3,0,4v9c0,0.6,0.4,1,1,1s1-0.4,1-1V4c0-0.6,0.4-1,1-1v24c0,0.6,0.4,1,1,1
	h1.2L6,31.2C6.1,31.7,6.5,32,7,32h3c0.5,0,0.9-0.3,1-0.8l0.8-3.2h23.4l0.8,3.2c0.1,0.4,0.5,0.8,1,0.8h3c0.5,0,0.9-0.3,1-0.8l0.8-3.2
	H43c0.6,0,1-0.4,1-1V1C44,0.4,43.6,0,43,0z M42,2v6H5V2H42z M5,9h37v10H5V9z M9.2,30H7.8l-0.5-2h2.4L9.2,30z M39.2,30h-1.4l-0.5-2
	h2.4L39.2,30z M41,26h-5H11H6H5v-6h37v6H41z"/>
</svg>
