<?xml version="1.0" encoding="utf-8"?>
<!-- Generator: Adobe Illustrator 17.1.0, SVG Export Plug-In . SVG Version: 6.00 Build 0)  -->
<!DOCTYPE svg PUBLIC "-//W3C//DTD SVG 1.1//EN" "http://www.w3.org/Graphics/SVG/1.1/DTD/svg11.dtd">
<svg version="1.1" id="Layer_1" xmlns="http://www.w3.org/2000/svg" xmlns:xlink="http://www.w3.org/1999/xlink" x="0px" y="0px"
	 viewBox="0 0 184 184" enable-background="new 0 0 184 184" xml:space="preserve">
<g>
	<path fill="#03B8E2" d="M173,6.9c0-0.1,0-0.2-0.1-0.3c0,0,0-0.1-0.1-0.1c0-0.1-0.1-0.1-0.1-0.2c0,0-0.1-0.1-0.1-0.1
		c-0.1,0-0.1-0.1-0.2-0.1c0,0-0.1,0-0.1-0.1c0,0-0.1,0-0.1,0l-24-6c-0.1,0-0.3,0-0.4,0L104,8.1c0,0,0-0.1,0-0.1V1c0-0.6-0.4-1-1-1
		s-1,0.4-1,1v7c0,0.2,0.1,0.3,0.1,0.5L66,15.2V1c0-0.6-0.4-1-1-1s-1,0.4-1,1v14.5L12.8,25c0,0,0,0-0.1,0c-0.1,0-0.1,0-0.2,0.1
		c0,0-0.1,0-0.1,0c0,0,0,0,0,0c-0.1,0-0.1,0.1-0.2,0.1c0,0,0,0,0,0c-0.1,0.1-0.1,0.2-0.2,0.2c0,0,0,0,0,0.1c0,0.1,0,0.1-0.1,0.2
		c0,0,0,0,0,0c0,0,0,0,0,0c0,0,0,0,0,0.1v157c0,0.6,0.4,1,1,1s1-0.4,1-1V27.5l17,7.2V183c0,0.6,0.4,1,1,1s1-0.4,1-1V34.8L171,8.2
		V183c0,0.6,0.4,1,1,1s1-0.4,1-1L173,6.9C173,7,173,7,173,6.9z M32.1,33l-7.8-3.3l-7.9-3.3L148,2l19.4,4.9L32.1,33z"/>
	<path fill="#03B8E2" d="M50.5,56.5c2.2,0,4-2.5,4-5.5s-1.8-5.5-4-5.5s-4,2.5-4,5.5S48.3,56.5,50.5,56.5z M50.5,46.5
		c1.7,0,3,2,3,4.5s-1.3,4.5-3,4.5s-3-2-3-4.5S48.8,46.5,50.5,46.5z"/>
	<path fill="#03B8E2" d="M159.5,19.5c-2.2,0-4,2.5-4,5.5c0,3,1.8,5.5,4,5.5s4-2.5,4-5.5C163.5,22,161.7,19.5,159.5,19.5z
		 M159.5,29.5c-1.7,0-3-2-3-4.5s1.3-4.5,3-4.5s3,2,3,4.5S161.2,29.5,159.5,29.5z"/>
	<path fill="#03B8E2" d="M159.5,162.5c-2.2,0-4,2.5-4,5.5s1.8,5.5,4,5.5s4-2.5,4-5.5S161.7,162.5,159.5,162.5z M159.5,172.5
		c-1.7,0-3-2-3-4.5s1.3-4.5,3-4.5s3,2,3,4.5S161.2,172.5,159.5,172.5z"/>
	<path fill="#03B8E2" d="M129.6,167.6l-45,12c-0.8,0.2-1.3,1-1.1,1.8c0.2,0.7,0.8,1.1,1.4,1.1c0.1,0,0.3,0,0.4-0.1l45-12
		c0.8-0.2,1.3-1,1.1-1.8C131.2,167.8,130.4,167.3,129.6,167.6z"/>
	<path fill="#03B8E2" d="M72.1,66c1.2,0,2.1-1.3,2.1-3s-0.9-3-2.1-3c-1.2,0-2.1,1.3-2.1,3S70.9,66,72.1,66z M72.1,62.3
		c0.1,0.2,0.1,0.4,0.1,0.7c0,0.3,0,0.5-0.1,0.7C72,63.5,72,63.3,72,63S72,62.5,72.1,62.3z"/>
	<path fill="#03B8E2" d="M91.2,47l-14,3c-1.1,0.2-1.8,1.3-1.5,2.4c0.2,0.9,1,1.6,2,1.6c0.1,0,0.3,0,0.4,0l14-3
		c1.1-0.2,1.8-1.3,1.5-2.4C93.3,47.5,92.3,46.8,91.2,47z"/>
	<path fill="#03B8E2" d="M101.6,54.8c-0.1-0.5-0.6-0.9-1.2-0.8l-23,5c-0.5,0.1-0.9,0.7-0.8,1.2c0.1,0.5,0.5,0.8,1,0.8
		c0.1,0,0.1,0,0.2,0l23-5C101.4,55.9,101.7,55.3,101.6,54.8z"/>
	<path fill="#03B8E2" d="M77.6,65c0.1,0,0.1,0,0.2,0l14-3c0.5-0.1,0.9-0.6,0.8-1.2c-0.1-0.5-0.6-0.9-1.2-0.8l-14,3
		c-0.5,0.1-0.9,0.6-0.8,1.2C76.7,64.7,77.1,65,77.6,65z"/>
	<path fill="#03B8E2" d="M72.1,77c1.2,0,2.1-1.3,2.1-3s-0.9-3-2.1-3c-1.2,0-2.1,1.3-2.1,3S70.9,77,72.1,77z M72.1,73.3
		c0.1,0.2,0.1,0.4,0.1,0.7c0,0.3,0,0.5-0.1,0.7C72,74.5,72,74.3,72,74S72,73.5,72.1,73.3z"/>
	<path fill="#03B8E2" d="M101.6,65.8c-0.1-0.5-0.6-0.9-1.2-0.8l-23,5c-0.5,0.1-0.9,0.7-0.8,1.2c0.1,0.5,0.5,0.8,1,0.8
		c0.1,0,0.1,0,0.2,0l23-5C101.4,66.9,101.7,66.3,101.6,65.8z"/>
	<path fill="#03B8E2" d="M77.6,76c0.1,0,0.1,0,0.2,0l14-3c0.5-0.1,0.9-0.6,0.8-1.2c-0.1-0.5-0.6-0.9-1.2-0.8l-14,3
		c-0.5,0.1-0.9,0.6-0.8,1.2C76.7,75.7,77.1,76,77.6,76z"/>
	<path fill="#03B8E2" d="M72.1,88c1.2,0,2.1-1.3,2.1-3s-0.9-3-2.1-3c-1.2,0-2.1,1.3-2.1,3S70.9,88,72.1,88z M72.1,84.3
		c0.1,0.2,0.1,0.4,0.1,0.7c0,0.3,0,0.5-0.1,0.7C72,85.5,72,85.3,72,85S72,84.5,72.1,84.3z"/>
	<path fill="#03B8E2" d="M101.6,76.8c-0.1-0.5-0.6-0.9-1.2-0.8l-23,5c-0.5,0.1-0.9,0.7-0.8,1.2c0.1,0.5,0.5,0.8,1,0.8
		c0.1,0,0.1,0,0.2,0l23-5C101.4,77.9,101.7,77.3,101.6,76.8z"/>
	<path fill="#03B8E2" d="M91.4,82l-14,3c-0.5,0.1-0.9,0.6-0.8,1.2c0.1,0.5,0.5,0.8,1,0.8c0.1,0,0.1,0,0.2,0l14-3
		c0.5-0.1,0.9-0.6,0.8-1.2C92.5,82.3,91.9,81.9,91.4,82z"/>
	<path fill="#03B8E2" d="M101.6,143.7c-0.1-0.5-0.7-0.9-1.2-0.7l-23,6c-0.5,0.1-0.9,0.7-0.7,1.2c0.1,0.5,0.5,0.7,1,0.7
		c0.1,0,0.2,0,0.3,0l23-6C101.4,144.8,101.7,144.3,101.6,143.7z"/>
	<path fill="#03B8E2" d="M96.8,148l-19.4,5c-0.5,0.1-0.9,0.7-0.7,1.2c0.1,0.5,0.5,0.8,1,0.8c0.1,0,0.2,0,0.3,0l19.4-5
		c0.5-0.1,0.9-0.7,0.7-1.2S97.3,147.9,96.8,148z"/>
	<path fill="#03B8E2" d="M76.6,164.3c0.1,0.5,0.5,0.7,1,0.7c0.1,0,0.2,0,0.3,0l23-6c0.5-0.1,0.9-0.7,0.7-1.2
		c-0.1-0.5-0.7-0.8-1.2-0.7l-23,6C76.8,163.2,76.5,163.7,76.6,164.3z"/>
	<path fill="#03B8E2" d="M98,162.8c-0.1-0.5-0.7-0.9-1.2-0.7l-19.4,5c-0.5,0.1-0.9,0.7-0.7,1.2c0.1,0.5,0.5,0.8,1,0.8
		c0.1,0,0.2,0,0.3,0l19.4-5C97.8,163.8,98.1,163.3,98,162.8z"/>
	<path fill="#03B8E2" d="M139.7,133l-23,6c-0.5,0.1-0.9,0.7-0.7,1.2c0.1,0.5,0.5,0.7,1,0.7c0.1,0,0.2,0,0.3,0l23-6
		c0.5-0.1,0.9-0.7,0.7-1.2C140.8,133.2,140.3,132.9,139.7,133z"/>
	<path fill="#03B8E2" d="M117,145c0.1,0,0.2,0,0.3,0l19.4-5c0.5-0.1,0.9-0.7,0.7-1.2s-0.7-0.9-1.2-0.7l-19.4,5
		c-0.5,0.1-0.9,0.7-0.7,1.2C116.1,144.7,116.6,145,117,145z"/>
	<path fill="#03B8E2" d="M139.7,147l-23,6c-0.5,0.1-0.9,0.7-0.7,1.2c0.1,0.5,0.5,0.7,1,0.7c0.1,0,0.2,0,0.3,0l23-6
		c0.5-0.1,0.9-0.7,0.7-1.2C140.8,147.2,140.3,146.9,139.7,147z"/>
	<path fill="#03B8E2" d="M136.2,152l-19.4,5c-0.5,0.1-0.9,0.7-0.7,1.2c0.1,0.5,0.5,0.8,1,0.8c0.1,0,0.2,0,0.3,0l19.4-5
		c0.5-0.1,0.9-0.7,0.7-1.2S136.7,151.9,136.2,152z"/>
	<path fill="#03B8E2" d="M114.1,57c1.2,0,2.1-1.3,2.1-3s-0.9-3-2.1-3c-1.2,0-2.1,1.3-2.1,3S112.9,57,114.1,57z M114.1,53.3
		c0.1,0.2,0.1,0.4,0.1,0.7c0,0.3,0,0.5-0.1,0.7c-0.1-0.2-0.1-0.4-0.1-0.7S114,53.5,114.1,53.3z"/>
	<path fill="#03B8E2" d="M133.2,38l-14,3c-1.1,0.2-1.8,1.3-1.5,2.4c0.2,0.9,1,1.6,2,1.6c0.1,0,0.3,0,0.4,0l14-3
		c1.1-0.2,1.8-1.3,1.5-2.4C135.3,38.5,134.3,37.8,133.2,38z"/>
	<path fill="#03B8E2" d="M143.6,45.8c-0.1-0.5-0.6-0.9-1.2-0.8l-23,5c-0.5,0.1-0.9,0.7-0.8,1.2c0.1,0.5,0.5,0.8,1,0.8
		c0.1,0,0.1,0,0.2,0l23-5C143.4,46.9,143.7,46.3,143.6,45.8z"/>
	<path fill="#03B8E2" d="M119.6,56c0.1,0,0.1,0,0.2,0l14-3c0.5-0.1,0.9-0.6,0.8-1.2c-0.1-0.5-0.6-0.9-1.2-0.8l-14,3
		c-0.5,0.1-0.9,0.6-0.8,1.2C118.7,55.7,119.1,56,119.6,56z"/>
	<path fill="#03B8E2" d="M114.1,68c1.2,0,2.1-1.3,2.1-3s-0.9-3-2.1-3c-1.2,0-2.1,1.3-2.1,3S112.9,68,114.1,68z M114.1,64.3
		c0.1,0.2,0.1,0.4,0.1,0.7c0,0.3,0,0.5-0.1,0.7c-0.1-0.2-0.1-0.4-0.1-0.7S114,64.5,114.1,64.3z"/>
	<path fill="#03B8E2" d="M143.6,56.8c-0.1-0.5-0.6-0.9-1.2-0.8l-23,5c-0.5,0.1-0.9,0.7-0.8,1.2c0.1,0.5,0.5,0.8,1,0.8
		c0.1,0,0.1,0,0.2,0l23-5C143.4,57.9,143.7,57.3,143.6,56.8z"/>
	<path fill="#03B8E2" d="M119.6,67c0.1,0,0.1,0,0.2,0l14-3c0.5-0.1,0.9-0.6,0.8-1.2s-0.6-0.9-1.2-0.8l-14,3
		c-0.5,0.1-0.9,0.6-0.8,1.2C118.7,66.7,119.1,67,119.6,67z"/>
	<path fill="#03B8E2" d="M114.1,79c1.2,0,2.1-1.3,2.1-3s-0.9-3-2.1-3c-1.2,0-2.1,1.3-2.1,3S112.9,79,114.1,79z M114.1,75.3
		c0.1,0.2,0.1,0.4,0.1,0.7c0,0.3,0,0.5-0.1,0.7c-0.1-0.2-0.1-0.4-0.1-0.7S114,75.5,114.1,75.3z"/>
	<path fill="#03B8E2" d="M143.6,67.8c-0.1-0.5-0.6-0.9-1.2-0.8l-23,5c-0.5,0.1-0.9,0.7-0.8,1.2c0.1,0.5,0.5,0.8,1,0.8
		c0.1,0,0.1,0,0.2,0l23-5C143.4,68.9,143.7,68.3,143.6,67.8z"/>
	<path fill="#03B8E2" d="M133.4,73l-14,3c-0.5,0.1-0.9,0.6-0.8,1.2c0.1,0.5,0.5,0.8,1,0.8c0.1,0,0.1,0,0.2,0l14-3
		c0.5-0.1,0.9-0.6,0.8-1.2C134.5,73.3,133.9,72.9,133.4,73z"/>
	<path fill="#03B8E2" d="M144.8,84l-75,17c-0.5,0.1-0.8,0.5-0.8,1v36c0,0.3,0.1,0.6,0.4,0.8c0.2,0.1,0.4,0.2,0.6,0.2
		c0.1,0,0.2,0,0.2,0l1.1-0.3l-5.9,9.3c-0.6,0.9-0.9,1.9-0.9,3v31c0,0.3,0.2,0.5,0.5,0.5s0.5-0.2,0.5-0.5v-31c0-0.9,0.2-1.7,0.7-2.4
		l6.2-9.8c0.1-0.1,0.1-0.3,0.1-0.4l72.8-18.4c0.4-0.1,0.8-0.5,0.8-1V85c0-0.3-0.1-0.6-0.4-0.8C145.4,84,145.1,84,144.8,84z
		 M144,118.2l-73,18.5v-33.9l73-16.5V118.2z"/>
	<path fill="#03B8E2" d="M79,109.5c0.1,0,0.2,0,0.3,0l26-6c0.8-0.2,1.3-1,1.1-1.8c-0.2-0.8-1-1.3-1.8-1.1l-26,6
		c-0.8,0.2-1.3,1-1.1,1.8C77.7,109,78.3,109.5,79,109.5z"/>
	<path fill="#03B8E2" d="M79,114.5c0.1,0,0.2,0,0.3,0l26-6c0.8-0.2,1.3-1,1.1-1.8c-0.2-0.8-1-1.3-1.8-1.1l-26,6
		c-0.8,0.2-1.3,1-1.1,1.8C77.7,114,78.3,114.5,79,114.5z"/>
	<path fill="#03B8E2" d="M79,119.5c0.1,0,0.2,0,0.3,0l26-6c0.8-0.2,1.3-1,1.1-1.8c-0.2-0.8-1-1.3-1.8-1.1l-26,6
		c-0.8,0.2-1.3,1-1.1,1.8C77.7,119,78.3,119.5,79,119.5z"/>
	<path fill="#03B8E2" d="M79,124.5c0.1,0,0.2,0,0.3,0l26-6c0.8-0.2,1.3-1,1.1-1.8c-0.2-0.8-1-1.3-1.8-1.1l-26,6
		c-0.8,0.2-1.3,1-1.1,1.8C77.7,124,78.3,124.5,79,124.5z"/>
	<path fill="#03B8E2" d="M79,129.5c0.1,0,0.2,0,0.3,0l26-6c0.8-0.2,1.3-1,1.1-1.8c-0.2-0.8-1-1.3-1.8-1.1l-26,6
		c-0.8,0.2-1.3,1-1.1,1.8C77.7,129,78.3,129.5,79,129.5z"/>
	<path fill="#03B8E2" d="M115,108.5c0,0,0.1,0,0.1,0l21-5c0.2-0.1,0.4-0.3,0.4-0.5v-7c0-0.2-0.1-0.3-0.2-0.4
		c-0.1-0.1-0.3-0.1-0.4-0.1l-21,5c-0.2,0.1-0.4,0.3-0.4,0.5v7c0,0.2,0.1,0.3,0.2,0.4C114.8,108.5,114.9,108.5,115,108.5z
		 M115.5,101.4l20-4.8v6l-20,4.8V101.4z"/>
	<path fill="#03B8E2" d="M116,112c-0.6,0-1,0.4-1,1v8c0,0.6,0.4,1,1,1s1-0.4,1-1v-8C117,112.4,116.6,112,116,112z"/>
	<path fill="#03B8E2" d="M120,112c-0.6,0-1,0.4-1,1v7c0,0.6,0.4,1,1,1s1-0.4,1-1v-7C121,112.4,120.6,112,120,112z"/>
	<path fill="#03B8E2" d="M124,112c-0.6,0-1,0.4-1,1v6c0,0.6,0.4,1,1,1s1-0.4,1-1v-6C125,112.4,124.6,112,124,112z"/>
	<path fill="#03B8E2" d="M128,112c-0.6,0-1,0.4-1,1v5c0,0.6,0.4,1,1,1s1-0.4,1-1v-5C129,112.4,128.6,112,128,112z"/>
	<path fill="#03B8E2" d="M132,112c-0.6,0-1,0.4-1,1v4c0,0.6,0.4,1,1,1s1-0.4,1-1v-4C133,112.4,132.6,112,132,112z"/>
	<path fill="#03B8E2" d="M135,113v3c0,0.6,0.4,1,1,1s1-0.4,1-1v-3c0-0.6-0.4-1-1-1S135,112.4,135,113z"/>
	<path fill="#03B8E2" d="M62,35.5c-0.3,0-0.5,0.2-0.5,0.5v60c0,1-0.3,2-0.9,2.8l-2.1,2.6V57c0-0.3-0.2-0.5-0.5-0.5s-0.5,0.2-0.5,0.5
		v45.7l-1.8,2.4c-0.7,1-1.2,2.2-1.2,3.4V135l-6.6,7.1c-0.9,1-1.4,2.3-1.4,3.7V180c0,0.3,0.2,0.5,0.5,0.5s0.5-0.2,0.5-0.5v-34.1
		c0-1.1,0.4-2.2,1.2-3l5.8-6.3V182c0,0.3,0.2,0.5,0.5,0.5s0.5-0.2,0.5-0.5v-46.6l1.6-1.7c0.9-1,1.4-2.3,1.4-3.7v-27l2.8-3.7
		c0.7-1,1.2-2.2,1.2-3.4V36C62.5,35.7,62.3,35.5,62,35.5z M57.5,130c0,1.1-0.4,2.2-1.2,3l-0.8,0.9v-25.5c0-1,0.3-2,0.9-2.8l1.1-1.4
		V130z"/>
</g>
</svg>
