<?xml version="1.0" encoding="utf-8"?>
<!-- Generator: Adobe Illustrator 17.1.0, SVG Export Plug-In . SVG Version: 6.00 Build 0)  -->
<!DOCTYPE svg PUBLIC "-//W3C//DTD SVG 1.1//EN" "http://www.w3.org/Graphics/SVG/1.1/DTD/svg11.dtd">
<svg version="1.1" id="Layer_1" xmlns="http://www.w3.org/2000/svg" xmlns:xlink="http://www.w3.org/1999/xlink" x="0px" y="0px"
	 viewBox="0 0 44 32" enable-background="new 0 0 44 32" xml:space="preserve">
<g>
	<path fill="#03B8E2" d="M43,0H1C0.4,0,0,0.4,0,1v30c0,0.6,0.4,1,1,1h42c0.6,0,1-0.4,1-1V1C44,0.4,43.6,0,43,0z M42,30H2V2h40V30z"
		/>
	<rect x="14" y="5" fill="#03B8E2" width="1" height="1"/>
	<rect x="16" y="5" fill="#03B8E2" width="5" height="1"/>
	<rect x="14" y="7" fill="#03B8E2" width="1" height="1"/>
	<rect x="16" y="7" fill="#03B8E2" width="5" height="1"/>
	<rect x="25" y="5" fill="#03B8E2" width="1" height="1"/>
	<rect x="27" y="5" fill="#03B8E2" width="5" height="1"/>
	<rect x="25" y="7" fill="#03B8E2" width="1" height="1"/>
	<rect x="27" y="7" fill="#03B8E2" width="5" height="1"/>
	<rect x="14" y="9" fill="#03B8E2" width="1" height="1"/>
	<rect x="16" y="9" fill="#03B8E2" width="5" height="1"/>
	<rect x="25" y="9" fill="#03B8E2" width="1" height="1"/>
	<rect x="27" y="9" fill="#03B8E2" width="5" height="1"/>
	<rect x="14" y="24" fill="#03B8E2" width="1" height="1"/>
	<rect x="16" y="24" fill="#03B8E2" width="5" height="1"/>
	<rect x="14" y="26" fill="#03B8E2" width="1" height="1"/>
	<rect x="16" y="26" fill="#03B8E2" width="5" height="1"/>
	<rect x="25" y="24" fill="#03B8E2" width="1" height="1"/>
	<rect x="27" y="24" fill="#03B8E2" width="5" height="1"/>
	<rect x="25" y="26" fill="#03B8E2" width="1" height="1"/>
	<rect x="27" y="26" fill="#03B8E2" width="5" height="1"/>
	<path fill="#03B8E2" d="M34,12H12v11h22V12z M33,22H13v-9h20V22z"/>
	<rect x="15" y="15" fill="#03B8E2" width="1" height="1"/>
	<rect x="17" y="15" fill="#03B8E2" width="5" height="1"/>
	<rect x="15" y="17" fill="#03B8E2" width="1" height="1"/>
	<rect x="17" y="17" fill="#03B8E2" width="5" height="1"/>
	<rect x="15" y="19" fill="#03B8E2" width="1" height="1"/>
	<rect x="17" y="19" fill="#03B8E2" width="5" height="1"/>
	<rect x="24" y="15" fill="#03B8E2" width="1" height="5"/>
	<rect x="26" y="16" fill="#03B8E2" width="1" height="4"/>
	<rect x="28" y="17" fill="#03B8E2" width="1" height="3"/>
	<rect x="30" y="18" fill="#03B8E2" width="1" height="2"/>
	<polygon fill="#03B8E2" points="6,18 9,16 9,4 8,4 8,16 5,18 5,28 6,28 	"/>
	<polygon fill="#03B8E2" points="8,28 9,28 9,20 11,17 10,17 8,20 	"/>
</g>
</svg>
