<?xml version="1.0" encoding="utf-8"?>
<!-- Generator: Adobe Illustrator 17.1.0, SVG Export Plug-In . SVG Version: 6.00 Build 0)  -->
<!DOCTYPE svg PUBLIC "-//W3C//DTD SVG 1.1//EN" "http://www.w3.org/Graphics/SVG/1.1/DTD/svg11.dtd">
<svg version="1.1" id="Layer_1" xmlns="http://www.w3.org/2000/svg" xmlns:xlink="http://www.w3.org/1999/xlink" x="0px" y="0px"
	 viewBox="0 0 184 184" enable-background="new 0 0 184 184" xml:space="preserve">
<g>
	<path fill="#03B8E2" d="M157.6,20.2c-0.2-0.2-0.5-0.3-0.8-0.2L143,23.2V11c0-0.3-0.1-0.6-0.4-0.8c-0.2-0.2-0.5-0.3-0.8-0.2L129,13
		V1c0-0.3-0.1-0.6-0.4-0.8C128.4,0,128.1,0,127.8,0l-95,22c-0.5,0.1-0.8,0.5-0.8,1v140c0,0.3,0.1,0.6,0.4,0.8
		c0.2,0.1,0.4,0.2,0.6,0.2c0.1,0,0.2,0,0.3,0l12.7-3.5V173c0,0.3,0.1,0.6,0.4,0.8c0.2,0.1,0.4,0.2,0.6,0.2c0.1,0,0.2,0,0.3,0
		l13.7-3.8V183c0,0.3,0.1,0.6,0.4,0.8c0.2,0.1,0.4,0.2,0.6,0.2c0.1,0,0.2,0,0.3,0l95-26c0.4-0.1,0.7-0.5,0.7-1V21
		C158,20.7,157.9,20.4,157.6,20.2z M34,161.7V23.8l93-21.5v11.2L46.8,32c-0.5,0.1-0.8,0.5-0.8,1v12c-0.1,0-0.2,0-0.2,0l-4,1
		c-0.5,0.1-0.9,0.7-0.7,1.2c0.1,0.5,0.5,0.8,1,0.8c0.1,0,0.2,0,0.2,0L46,47v8c-0.1,0-0.2,0-0.2,0l-4,1c-0.5,0.1-0.9,0.7-0.7,1.2
		c0.1,0.5,0.5,0.8,1,0.8c0.1,0,0.2,0,0.2,0L46,57v8c-0.1,0-0.2,0-0.2,0l-4,1c-0.5,0.1-0.9,0.7-0.7,1.2c0.1,0.5,0.5,0.8,1,0.8
		c0.1,0,0.2,0,0.2,0L46,67v18c-0.1,0-0.2,0-0.2,0l-4,1c-0.5,0.1-0.9,0.7-0.7,1.2c0.1,0.5,0.5,0.8,1,0.8c0.1,0,0.2,0,0.2,0L46,87v8
		c-0.1,0-0.2,0-0.2,0l-4,1c-0.5,0.1-0.9,0.7-0.7,1.2c0.1,0.5,0.5,0.8,1,0.8c0.1,0,0.2,0,0.2,0L46,97v8c-0.1,0-0.2,0-0.2,0l-4,1
		c-0.5,0.1-0.9,0.7-0.7,1.2c0.1,0.5,0.5,0.8,1,0.8c0.1,0,0.2,0,0.2,0L46,107v8c-0.1,0-0.2,0-0.2,0l-4,1c-0.5,0.1-0.9,0.7-0.7,1.2
		c0.1,0.5,0.5,0.8,1,0.8c0.1,0,0.2,0,0.2,0L46,117v8c-0.1,0-0.2,0-0.2,0l-4,1c-0.5,0.1-0.9,0.7-0.7,1.2c0.1,0.5,0.5,0.8,1,0.8
		c0.1,0,0.2,0,0.2,0L46,127v8c-0.1,0-0.2,0-0.2,0l-4,1c-0.5,0.1-0.9,0.7-0.7,1.2c0.1,0.5,0.5,0.8,1,0.8c0.1,0,0.2,0,0.2,0L46,137
		v21.4L34,161.7z M48,171.7V33.8l93-21.5v11.4L87.8,36c0,0,0,0,0,0c-0.1,0-0.1,0.1-0.2,0.1c0,0-0.1,0-0.1,0
		c-0.1,0.1-0.2,0.1-0.2,0.2l-7.4,10c-0.2-0.3-0.6-0.4-1-0.4l-21,5c-0.5,0.1-0.9,0.7-0.7,1.2c0.1,0.5,0.5,0.8,1,0.8
		c0.1,0,0.2,0,0.2,0l20.2-4.8l-5.9,7.9l-14.8,4c-0.5,0.1-0.9,0.7-0.7,1.2c0.1,0.4,0.5,0.7,1,0.7c0.1,0,0.2,0,0.3,0l12.4-3.3
		l-9.5,12.7c-0.1,0.1-0.1,0.2-0.1,0.3c0,0,0,0,0,0.1c0,0.1,0,0.2,0,0.2c0,0,0,0,0,0v13.2L57.8,86c-0.5,0.1-0.9,0.7-0.7,1.2
		c0.1,0.5,0.5,0.8,1,0.8c0.1,0,0.2,0,0.2,0l2.8-0.7v7.9L57.8,96c-0.5,0.1-0.9,0.7-0.7,1.2c0.1,0.5,0.5,0.8,1,0.8c0.1,0,0.2,0,0.2,0
		l2.8-0.7v7.9l-3.2,0.8c-0.5,0.1-0.9,0.7-0.7,1.2c0.1,0.5,0.5,0.8,1,0.8c0.1,0,0.2,0,0.2,0l2.8-0.7v7.9l-3.2,0.8
		c-0.5,0.1-0.9,0.7-0.7,1.2c0.1,0.5,0.5,0.8,1,0.8c0.1,0,0.2,0,0.2,0l2.8-0.7v17.9l-3.2,0.8c-0.5,0.1-0.9,0.7-0.7,1.2
		c0.1,0.5,0.5,0.8,1,0.8c0.1,0,0.2,0,0.2,0l2.8-0.7v7.9l-3.2,0.8c-0.5,0.1-0.9,0.7-0.7,1.2c0.1,0.5,0.5,0.8,1,0.8c0.1,0,0.2,0,0.2,0
		l2.8-0.7v7.9l-3.2,0.8c-0.5,0.1-0.9,0.7-0.7,1.2c0.1,0.5,0.5,0.8,1,0.8c0.1,0,0.2,0,0.2,0l2.8-0.7v10.9L48,171.7z M68.4,65.1L87,40
		v24.2l-22.5,6.1L68.4,65.1z M156,156.2l-93,25.5V72.8L88.3,66c0.4-0.1,0.7-0.5,0.7-1V37.8l67-15.5V156.2z"/>
	<path fill="#03B8E2" d="M99,53c0.1,0,0.3,0,0.4,0l44-10c1.1-0.2,1.8-1.3,1.5-2.4c-0.2-1.1-1.3-1.8-2.4-1.5l-44,10
		c-1.1,0.2-1.8,1.3-1.5,2.4C97.3,52.4,98.1,53,99,53z"/>
	<path fill="#03B8E2" d="M134.6,51l-36,8c-1.1,0.2-1.8,1.3-1.5,2.4c0.2,0.9,1,1.6,2,1.6c0.1,0,0.3,0,0.4,0l36-8
		c1.1-0.2,1.8-1.3,1.5-2.4C136.7,51.5,135.6,50.8,134.6,51z"/>
	<path fill="#03B8E2" d="M73,85c0.1,0,0.2,0,0.2,0l31-7.5c0.5-0.1,0.9-0.7,0.7-1.2c-0.1-0.5-0.7-0.9-1.2-0.7l-31,7.5
		c-0.5,0.1-0.9,0.7-0.7,1.2C72.1,84.7,72.5,85,73,85z"/>
	<path fill="#03B8E2" d="M73,95c0.1,0,0.2,0,0.2,0l31-7.5c0.5-0.1,0.9-0.7,0.7-1.2s-0.7-0.9-1.2-0.7l-31,7.5
		c-0.5,0.1-0.9,0.7-0.7,1.2C72.1,94.7,72.5,95,73,95z"/>
	<path fill="#03B8E2" d="M73,105c0.1,0,0.2,0,0.2,0l31-7.5c0.5-0.1,0.9-0.7,0.7-1.2c-0.1-0.5-0.7-0.9-1.2-0.7l-31,7.5
		c-0.5,0.1-0.9,0.7-0.7,1.2C72.1,104.7,72.5,105,73,105z"/>
	<path fill="#03B8E2" d="M73,115c0.1,0,0.2,0,0.2,0l31-7.5c0.5-0.1,0.9-0.7,0.7-1.2c-0.1-0.5-0.7-0.9-1.2-0.7l-31,7.5
		c-0.5,0.1-0.9,0.7-0.7,1.2C72.1,114.7,72.5,115,73,115z"/>
	<path fill="#03B8E2" d="M142.8,66.5l-31,7.5c-0.5,0.1-0.9,0.7-0.7,1.2c0.1,0.5,0.5,0.8,1,0.8c0.1,0,0.2,0,0.2,0l31-7.5
		c0.5-0.1,0.9-0.7,0.7-1.2C143.8,66.7,143.3,66.4,142.8,66.5z"/>
	<path fill="#03B8E2" d="M144,77.2c-0.1-0.5-0.7-0.9-1.2-0.7l-31,7.5c-0.5,0.1-0.9,0.7-0.7,1.2c0.1,0.5,0.5,0.8,1,0.8
		c0.1,0,0.2,0,0.2,0l31-7.5C143.8,78.3,144.1,77.8,144,77.2z"/>
	<path fill="#03B8E2" d="M112,96c0.1,0,0.2,0,0.2,0l31-7.5c0.5-0.1,0.9-0.7,0.7-1.2c-0.1-0.5-0.7-0.9-1.2-0.7l-31,7.5
		c-0.5,0.1-0.9,0.7-0.7,1.2C111.1,95.7,111.5,96,112,96z"/>
	<path fill="#03B8E2" d="M111,105.2c0.1,0.5,0.5,0.8,1,0.8c0.1,0,0.2,0,0.2,0l31-7.5c0.5-0.1,0.9-0.7,0.7-1.2s-0.7-0.9-1.2-0.7
		l-31,7.5C111.2,104.2,110.9,104.7,111,105.2z"/>
	<path fill="#03B8E2" d="M142.8,110l-70,18c-0.4,0.1-0.8,0.5-0.8,1v40c0,0.3,0.1,0.6,0.4,0.8c0.2,0.1,0.4,0.2,0.6,0.2
		c0.1,0,0.2,0,0.3,0l70-19c0.4-0.1,0.7-0.5,0.7-1v-39c0-0.3-0.1-0.6-0.4-0.8C143.4,110,143.1,110,142.8,110z M142,131.2l-17,4.4
		v-7.9l17-4.4V131.2z M123,136.1l-17,4.4v-7.9l17-4.4V136.1z M106,130.5v-8.9l17-4.4v8.9L106,130.5z M104,131l-19,4.9V127
		c0,0,0,0,0-0.1l19-4.9V131z M104,133.1v7.9l-19,4.9v-7.9L104,133.1z M83,146.4l-9,2.3v-7.9l9-2.3V146.4z M74,150.8l9-2.3v6.9
		l-9,2.3V150.8z M85,147.9l19-4.9v6.9l-19,4.9V147.9z M104,152.1v7.5l-19,5.2v-7.8L104,152.1z M106,151.5l17-4.4v7.2l-17,4.6V151.5z
		 M106,149.5v-6.9l17-4.4v6.9L106,149.5z M125,137.7l17-4.4v6.9l-17,4.4V137.7z M142,121.2l-17,4.4v-8.9l17-4.4V121.2z M83,127.5
		v8.9l-9,2.3v-8.9L83,127.5z M74,159.8l9-2.3v7.8l-9,2.4V159.8z M125,153.8v-7.2l17-4.4v6.9L125,153.8z"/>
</g>
</svg>
