<?xml version="1.0" encoding="utf-8"?>
<!-- Generator: Adobe Illustrator 17.1.0, SVG Export Plug-In . SVG Version: 6.00 Build 0)  -->
<!DOCTYPE svg PUBLIC "-//W3C//DTD SVG 1.1//EN" "http://www.w3.org/Graphics/SVG/1.1/DTD/svg11.dtd">
<svg version="1.1" id="Layer_1" xmlns="http://www.w3.org/2000/svg" xmlns:xlink="http://www.w3.org/1999/xlink" x="0px" y="0px"
	 viewBox="0 0 184 184" enable-background="new 0 0 184 184" xml:space="preserve">
<g>
	<path fill="#03B8E2" d="M1,61.9c0.1,0,0.1,0,0.2,0l182-41c0.5-0.1,0.9-0.7,0.8-1.2s-0.7-0.9-1.2-0.8l-20.6,4.6
		c-1.1-3.5-4.3-11.4-8.6-17L183.1,2c0.3,0,0.5-0.3,0.4-0.6S183.2,1,182.9,1l-30.1,4.7c-1.7-2.1-3.7-3.8-5.7-4.7
		c-0.3-0.1-0.5,0-0.7,0.3c-0.1,0.3,0,0.5,0.3,0.7c1.7,0.7,3.4,2.1,4.9,3.9l-33.9,5.3c-2.9-4.3-6.5-8.1-10.6-10.1
		c-0.2-0.1-0.5,0-0.7,0.2c-0.1,0.2,0,0.5,0.2,0.7c3.8,1.9,7.2,5.4,9.9,9.4l-15.9,2.5L68.2,2c-0.3-0.1-0.5,0-0.6,0.3c0,0,0,0.1,0,0.1
		c-0.3-0.1-0.7-0.3-1-0.4V1.5C66.5,1.2,66.3,1,66,1s-0.5,0.2-0.5,0.5v0.2c-0.8-0.3-1.6-0.5-2.4-0.7c-0.3-0.1-0.5,0.1-0.6,0.4
		s0.1,0.5,0.4,0.6c0.9,0.2,1.8,0.4,2.6,0.7v16.6l-3,0.5V1.5C62.5,1.2,62.3,1,62,1s-0.5,0.2-0.5,0.5V20l-12.7,2
		C41.2,12,30.1,2.7,15.1,1c-0.3,0-0.5,0.2-0.6,0.4S14.7,2,14.9,2c14.6,1.6,25.3,10.5,32.8,20.1l-35.5,5.5c-3.2-3-6.8-5.5-11-7.2
		c-0.3-0.1-0.5,0-0.6,0.3c-0.1,0.3,0,0.5,0.3,0.6C4.7,22.9,8,25.2,11,27.9l-10,1.6c-0.3,0-0.5,0.3-0.4,0.6c0,0.2,0.3,0.4,0.5,0.4
		c0,0,0.1,0,0.1,0l10.8-1.7c8.1,7.9,12.7,18.8,14.4,25.5L0.8,60c-0.5,0.1-0.9,0.7-0.8,1.2C0.1,61.6,0.5,61.9,1,61.9z M77.2,42.5
		l-10.7-3.9V20.2L83,17.6c5.8,8.4,9.2,17.7,10.3,21.5l-15.8,3.6C77.4,42.6,77.3,42.5,77.2,42.5z M66.5,44.9v-5.3l9.4,3.4l-9.4,2.1
		C66.5,45.1,66.5,45,66.5,44.9z M152.4,6.8c4.3,5.4,7.6,13.5,8.7,17.1l-19,4.3l-16-5.6c-0.3-0.1-0.5,0-0.6,0.3
		c-0.1,0.3,0,0.5,0.3,0.6l14.5,5.1l-3.6,0.8l-8.6-2.9c-0.3-0.1-0.5,0.1-0.6,0.3c-0.1,0.3,0.1,0.5,0.3,0.6l7,2.3l-7.7,1.7
		c-1.1-4-4.1-12.3-8.7-19.4L152.4,6.8z M117.3,12.3c4.7,7.1,7.7,15.5,8.8,19.5l-31.9,7.2c-1.1-3.8-4.5-13-10.2-21.4l11.8-1.8l24,8.8
		c0.1,0,0.1,0,0.2,0c0.2,0,0.4-0.1,0.5-0.3c0.1-0.3,0-0.5-0.3-0.6l-22.3-8.2l2.8-0.4l18.1,6.5c0.1,0,0.1,0,0.2,0
		c0.2,0,0.4-0.1,0.5-0.3c0.1-0.3,0-0.5-0.3-0.6l-16.4-5.9L117.3,12.3z M83.4,16.6c-2-2.9-4.3-5.6-6.9-8l17.4,6.4L83.4,16.6z
		 M98.8,14.2L96,14.6L74.5,6.7c-1.3-1-2.6-2-4-2.8L98.8,14.2z M66.5,3.1c1.6,0.6,3.2,1.4,4.6,2.4l-4-1.4c-0.3-0.1-0.5,0-0.6,0.3
		c-0.1,0.3,0,0.5,0.3,0.6L74,7.6c3.1,2.6,5.9,5.7,8.3,9.1l-15.8,2.5V3.1z M65.5,20.4v24.6c0,0.2,0.1,0.3,0.2,0.4l-3.2,0.7V20.8
		L65.5,20.4z M61.5,21v25.3l-0.1,0c-1.1-4.3-4.9-14.1-11.9-23.5L61.5,21z M13.1,28.6L48.4,23c7,9.4,10.9,19.2,12,23.5L27.3,54
		C25.6,47.4,21.1,36.6,13.1,28.6z"/>
	<path fill="#03B8E2" d="M183.4,96l-8.4-3.7v-41l7.7,2.6c0.1,0,0.2,0.1,0.3,0.1c0.4,0,0.8-0.3,0.9-0.7c0.2-0.5-0.1-1.1-0.6-1.3
		l-8.3-2.8V28.8l8.2-1.9c0.5-0.1,0.9-0.7,0.8-1.2c-0.1-0.5-0.7-0.9-1.2-0.8l-8.7,2c0,0-0.1,0-0.1,0c-0.2,0-0.4,0.1-0.5,0.2
		l-17.1,3.9c-0.2-0.1-0.4-0.1-0.6-0.1l-4,1c-0.2,0-0.3,0.1-0.4,0.3L87.3,47c-0.2-0.1-0.4-0.1-0.5,0l-20.9,5l-65,15
		c-0.5,0.1-0.9,0.7-0.8,1.2c0.1,0.5,0.5,0.8,1,0.8c0.1,0,0.2,0,0.2,0L61,55.1v27.6c-2.9-0.5-5.2-0.8-6-0.8l-0.5,0
		c-3.5,0-10.7,0-26.7,4C9.6,90.6,0.9,94.9,0.6,95.1c-0.5,0.2-0.7,0.8-0.4,1.3c0.1,0.2,0.2,0.3,0.4,0.4v1.3c-0.2,0.1-0.4,0.4-0.5,0.7
		c-0.1,0.4,0.1,0.8,0.5,1v14.3c-0.2,0.1-0.3,0.3-0.4,0.5c-0.2,0.5,0,1,0.4,1.2v30.3c-0.1,0.1-0.2,0.1-0.3,0.2
		c-0.3,0.4-0.3,1.1,0.2,1.4l14.3,11.1c0.1,1.9,0.3,3.8,0.6,5.7c0.9,5.1,2.8,9.8,5.3,13.2c2.3,3.1,5,4.8,7.5,4.8c0.4,0,0.7,0,1.1-0.1
		c0.5-0.1,1-0.3,1.5-0.5c0.1,0,0.2,0.1,0.3,0.1c0.1,0,0.2,0,0.3,0l7.1-2.2c0.2-0.1,0.3-0.1,0.4-0.3c0,0,0.9-0.9,1.7-2.5l4.2-1.7
		l35.5-5.5c0,0,0.1,0,0.1,0l7.7-2.4c0.3-0.1,0.6-0.4,0.7-0.7l1-3.6l19.7-6.1l5.3-1.6l2.1,2.1c0.3,0.3,0.7,0.4,1,0.3l6.7-2.3
		c0.1,0,0.1-0.1,0.2-0.1l12.9-8.1c2.6-1.6,4.2-4.5,4.2-7.5l9.2,3.9v5.3c0,0.6,0.4,1,1,1h4c0.6,0,1-0.4,1-1v-18l2.7-1.1
		c0.8-0.3,1.3-1,1.3-1.9v-27c0-0.8-0.5-1.6-1.3-1.9l-2.7-1V33l12-2.8v68.7c0,0.6,0.4,1,1,1h4c0.6,0,1-0.4,1-1v-4.5l7.6,3.4
		c0.1,0.1,0.3,0.1,0.4,0.1c0.4,0,0.7-0.2,0.9-0.6C184.1,96.8,183.9,96.3,183.4,96z M140.7,92.1c-0.2-0.1-0.5-0.1-0.7-0.1
		c-0.2,0-0.4,0-0.6,0.1l-6,2c-0.8,0.3-1.4,1-1.4,1.9v16.7l-7.2-5.4l-0.9-2.4c-0.1-0.3-0.4-0.6-0.8-0.6l-9-1.6
		c-1.8-0.4-3.6-1.1-5.2-1.9c-1.1-0.5-2.5-1.2-4.1-2l27.5-27.5c0.2-0.2,0.2-0.5,0-0.7s-0.5-0.2-0.7,0l-27.8,27.8
		c-0.4-0.2-0.9-0.4-1.3-0.6c0.8-3.3,1.8-6.6,2.8-9.9l19.5-19.5c0.2-0.2,0.2-0.5,0-0.7s-0.5-0.2-0.7,0l-18.2,18.2
		c0.9-2.9,1.8-5.7,2.6-8.2c1.3-3.9,2.4-7.4,2.9-9.6c0.8-3.1,0.9-6.4,0.3-9.5L151,73.6v22.2L140.7,92.1z M153.5,103.3v26.4l-0.5-0.2
		l0,0l-2-0.8l0,0l-9.9-4c-0.3-1.7-0.9-3.4-1.7-4.9l10.6,4.1v-18l-13-5v15.7c-0.5-0.5-1.1-1.1-1.7-1.5l-1.3-1V96.5L153.5,103.3z
		 M138,117.8v-15.4l11,4.2v15.9l-10.5-4C138.3,118.2,138.2,118,138,117.8z M128.3,112.9c0.3,0.4,0.5,0.8,0.4,1.3
		c-0.1,0.5-0.4,0.9-0.8,1.1l-6.5,2.9c-1.2,0.6-2.7,0.4-3.7-0.5l-3.5-2.9l1.9-1l2.7,1.9c0.5,0.3,1.1,0.4,1.6,0.1l4-2.2
		c0.4-0.2,0.7-0.6,0.7-1c0.1-0.4,0-0.9-0.3-1.2l-1.7-2.3l0.4-0.3l3.3,2.5L128.3,112.9z M122.5,106.8l0.4,1.1l-0.9,0.7
		c-0.2,0.2-0.3,0.5-0.1,0.7l2,2.7c0.1,0.1,0.1,0.3,0.1,0.4c0,0.1-0.1,0.3-0.2,0.3l-4,2.2c-0.2,0.1-0.4,0.1-0.5,0l-2.9-2
		c0.2-0.1,0.4-0.2,0.6-0.3c2.2-0.9,3.9-2.6,5-4.7L122.5,106.8z M87.2,49.1l7.3,2.8c5.6,23.1,1.2,31-3,38.6c-0.3,0.6-0.6,1.1-0.9,1.7
		C85.7,90,81.2,88,78.3,87c-3.2-1.1-7.4-2.2-11.3-3.1V53.7L87.2,49.1z M101.2,45.8c3.6,1.3,6.5,4.2,8.2,8.2c0.2,0.6,0.5,1.1,0.7,1.7
		L95,50c-0.2-0.7-0.4-1.4-0.6-2.2c0-0.2-0.2-0.3-0.3-0.3L101.2,45.8z M93.5,48.1c0.1,0.5,0.3,1,0.4,1.5l-3.2-1.2l3-0.7
		C93.5,47.7,93.5,47.9,93.5,48.1z M92.3,91c4.3-7.7,8.7-15.6,3.3-38.6l15.1,5.8c0.6,3.2,0.6,6.5-0.2,9.7c-0.5,2.2-1.6,5.6-2.9,9.5
		c-1,3.1-2.1,6.5-3.2,10L96.7,95c-1.7-0.8-3.5-1.6-5.3-2.4C91.7,92,92,91.5,92.3,91z M103.8,89.3c-0.8,2.7-1.5,5.4-2.2,8
		c-1.3-0.6-2.6-1.2-4-1.9L103.8,89.3z M151,71.5l-39.8-15.3c-0.3-0.9-0.5-1.7-0.9-2.6c-1.6-3.8-4.3-6.6-7.5-8.1L151,34.4V71.5z
		 M62.9,54.7l2.1-0.5v29.3c-0.7-0.1-1.4-0.3-2-0.4V54.9C63,54.8,63,54.8,62.9,54.7z M54.5,83.9l0.5,0c2.1,0,15.2,2.3,22.7,4.9
		c6.8,2.4,23.5,10.4,30.4,13.7c1.8,0.9,3.7,1.5,5.7,2l7,1.2l-0.5,1.1c-0.8,1.7-2.3,3-4,3.8c-2.8,1.2-4.4,2.3-4.8,3.5
		c-8.7,3.7-27.6,8.1-36.2,9.7c-4.8-2.2-29.5-0.1-34.5,0.4c-5.1,0.3-9.9-3-11.3-8l-1.2-4.3c-0.6-2.1-2-3.9-3.9-4.9
		c-0.4-0.2-0.8-0.5-1.3-0.7c-4.5-2.5-12.1-6.6-21.3-8.4v-1.2c0.2-0.1,1.1-0.5,2.9-1.3c1.2,0.3,2.4,0.7,3.6,1.1l23.7,10.1
		c0.7,0.4,1.2,0.7,1.7,1c0,0.2,0,0.5,0.2,0.7l5.8,7.7c2.7,3,6.3,4.8,10.3,5.1c4.7,0.3,10.8,0.6,13.2,0.6c15.8,0,29.8-5.4,30-5.4
		l15-6c1.1-0.5,1.9-1.5,1.9-2.7c0-1.2-0.7-2.3-1.8-2.8L85.2,94.7c-0.2-0.1-0.4-0.1-0.6-0.1l-0.3,0.1c-5.8-3.6-17.1-7.2-33.6-10.7
		C52.3,83.9,53.6,83.9,54.5,83.9z M1.5,100.1c8.7,1.8,16,5.7,20.4,8.1c0.1,0.1,0.2,0.1,0.3,0.2c-0.1,0.1-0.1,0.2-0.2,0.3l-4.3,12.2
		l-16.3-6.8V100.1z M84.7,96.7l22.5,10.1c0.6,0.3,0.6,0.8,0.6,0.9s-0.1,0.7-0.6,0.9l-15,6c-0.1,0.1-13.8,5.3-29.2,5.3
		c-2.4,0-8.4-0.3-13.1-0.6c-3.5-0.2-6.7-1.8-8.9-4.3l-4.8-6.4L84.7,96.7z M28.2,87.9c9-2.3,15.1-3.2,19.4-3.7
		c0.1,0.1,0.2,0.2,0.3,0.2c17,3.6,28.7,7.1,35,10.7L34.2,107c-0.1,0-0.1,0-0.2,0.1c-4.3-2.9-17.6-9-28.2-12.1
		C10.2,93.3,17.6,90.6,28.2,87.9z M1.5,146.1v-29.9l15.6,6.5L12,137.6c-0.9,2.8-3.8,4.6-6.8,4.1l-2.4-0.4c-0.6-0.1-1.1,0.3-1.2,0.8
		c-0.1,0.5,0.3,1.1,0.8,1.2l2.4,0.4c0.5,0.1,0.9,0.1,1.4,0.1c3.4,0,6.5-2.2,7.6-5.5l5.1-14.8l15.4,6.4c0.1,0.1,0.3,0.1,0.4,0.1
		c0,0,0,0,0.1,0l1.8,2.6c1.9,4.1,3.1,8.4,3.7,12.8l3.6,28.1l-3.8,1.5c-0.2,0-0.3,0-0.5,0l-3.6-2.1c0.7-3.6,0.6-7.8-0.1-12.1
		c-0.9-5.1-2.8-9.8-5.3-13.2c-2.7-3.5-5.7-5.2-8.6-4.7c-2.9,0.5-5.2,3.2-6.4,7.4c-0.5,1.8-0.8,3.8-0.9,5.9L1.6,146.2
		C1.6,146.1,1.5,146.1,1.5,146.1z M28.8,180.4c-2.1,0.4-4.5-1-6.6-3.9c-2.3-3.1-4.1-7.5-5-12.3s-0.8-9.6,0.3-13.3
		c1-3.4,2.8-5.6,4.8-6c0.2,0,0.4-0.1,0.7-0.1c1.9,0,4,1.4,6,4c2.3,3.1,4.1,7.5,5,12.3s0.8,9.6-0.3,13.3
		C32.7,177.9,30.9,180.1,28.8,180.4z M37.5,177.9l-3.7,1.1c0.7-1.1,1.3-2.5,1.8-4c0,0,0,0,0-0.1l2.8,1.6
		C38,177.2,37.7,177.7,37.5,177.9z M53.8,143.2c0.1-0.7,0.5-1.3,1-1.7l14.5-3.8l-0.4,1.6c-0.2,0.9-1,1.7-2,1.8l-13.2,2.4L53.8,143.2
		z M52.8,144.6c0.1,0.1,0.2,0.1,0.3,0.1c0,0,0.1,0,0.1,0l13.9-2.6c1.3-0.2,2.4-1.3,2.8-2.6l0.6-2.2l47.6-12.4l1.1,1.1
		c0.7,0.6,1.5,1,2.4,1c0.4,0,0.7-0.1,1.1-0.2l4.8-1.6c0.2-0.1,0.4-0.3,0.3-0.5l-0.1-2.3l0.8-0.2c0.2,0,0.3-0.1,0.5-0.1
		c0.8,0,1.5,0.4,1.8,1.2l1.8,3.9c0.8,1.7,0.6,3.7-0.6,5.1l-4.3,5.7c-1.2,1.5-2.1,3.2-2.7,4.9l-3,7.9l-13.1,4.1l-20.1,6.1
		c-0.2,0.1-0.3,0.2-0.5,0.3l-5.6,1.8l-3.7-4.1c-1.6-1.8-3.8-2.8-6.2-2.9l-18.8-1c-1.6-0.1-2.8-1.3-2.8-2.9l-0.3-7.3
		c-0.1-1.4,0.9-2.7,2.2-3h0l0.1,0c-0.2,0.3-0.3,0.7-0.3,1.1l-0.2,1.1C52.6,144.3,52.7,144.5,52.8,144.6z M126.7,124.5l-4.5,1.4
		c-0.9,0.3-1.8,0.1-2.5-0.6l-0.7-0.6l7.5-2L126.7,124.5z M136.5,145.6l-12.8,8l-6,2l-1-1l6.2-1.9c0.3-0.1,0.5-0.3,0.6-0.6l3.1-8.4
		c0.6-1.6,1.4-3.1,2.4-4.4l4.3-5.7c1.6-2.1,1.9-4.8,0.8-7.2l-1.8-3.9c-0.8-1.8-2.8-2.7-4.6-2.2L52.5,140c-2.3,0.6-3.8,2.7-3.7,5
		l0.3,7.3c0.1,2.6,2.1,4.7,4.7,4.8l18.8,1c1.8,0.1,3.5,0.9,4.8,2.3l4.2,4.5c0.2,0.2,0.5,0.3,0.7,0.3c0.1,0,0.2,0,0.3,0l4.9-1.5
		l-0.5,1.8l-7.1,2.3l-35,5.5l-3.6-28c-0.6-4.5-1.8-8.9-3.8-13.2l-1.8-2.7c0,0,0,0,0,0c0.2-0.5,0-1.1-0.5-1.3l-15.5-6.4l4.3-12.3
		c1.1,0.8,1.9,1.9,2.3,3.2l1.2,4.3c1.6,5.6,6.8,9.5,12.5,9.5c0.3,0,0.6,0,0.8,0c7.7-0.7,18.7-1.4,26.1-1.4l-1,0.2
		c-0.1,0-0.2,0.1-0.3,0.2l-1.7,2.5c-0.4,0.5-0.9,0.9-1.6,1l-13.7,2.5c-0.9,0.2-1.9-0.2-2.4-1l-1.6-2.1c-0.1-0.2-0.3-0.2-0.5-0.2
		l-4.9,0.9c-0.2,0-0.3,0.2-0.4,0.3c-0.1,0.2,0,0.4,0.1,0.5l3.8,4.1c1.4,1.6,3.4,2.4,5.5,2.4c0.5,0,0.9,0,1.4-0.1l14-2.6
		c2-0.4,3.7-1.5,4.8-3.1l3.7-5.4c1.2,0.1,2,0.3,2.4,0.6c0.2,0.2,0.5,0.2,0.8,0.2c8.7-1.5,28.7-6.2,37.5-10.1
		c0.2-0.1,0.4-0.3,0.5-0.5l3.8,3.2c0.8,0.7,1.8,1,2.9,1c0.6,0,1.3-0.1,1.9-0.4l6.5-2.9c0.7-0.3,1.3-1,1.4-1.8c0.1-0.4,0.1-0.7,0-1
		l4.5,3.4c3.1,2.4,5,5.9,5.2,9.9l0.5,12.7C139.9,141.8,138.7,144.2,136.5,145.6z M70.8,125.2l-3.3,4.8c-1,1.4-2.5,2.4-4.2,2.7
		l-14,2.6c-2.2,0.4-4.5-0.3-6-2l-3.1-3.4l3.7-0.7l1.4,1.8c0.8,1.1,2.1,1.6,3.4,1.3l13.7-2.5c0.9-0.2,1.7-0.7,2.2-1.5l1.6-2.3
		L70.8,125.2z M141.7,137.6l-0.4-10.5l9.7,3.9v10.5L141.7,137.6z M155,147.9h-2v-5v-11.2l0.3,0.1c0.2,0.1,0.5,0.1,0.7,0.1
		s0.5,0,0.7-0.1l0.3-0.1V147.9z M157,128.7L157,128.7l-2,0.8l0,0l-0.5,0.2v-26.5l4.5-1.8v26.5L157,128.7z M158.3,100.7l-4.3,1.7
		l-19.2-6.7l5.2-1.7l16.6,6.1l0.4,0.1l0,0L158.3,100.7z M155,97.3l-2-0.7V72.9V33.9l2-0.5V97.3z M173,97.9h-2V29.7l2-0.5V97.9z"/>
	<path fill="#03B8E2" d="M86,152c0.1,0,0.2,0,0.3,0l30.7-9.4c0.4-0.1,0.7-0.5,0.7-0.9l0.3-5.7c0-0.3-0.1-0.6-0.4-0.8
		c-0.3-0.2-0.6-0.3-0.9-0.2l-31.1,9.3c-0.4,0.1-0.7,0.5-0.7,1L85,151c0,0.3,0.2,0.6,0.4,0.8C85.6,151.9,85.8,152,86,152z
		 M115.9,137.3l-0.2,3.6L87,149.7l-0.1-3.6L115.9,137.3z"/>
	<path fill="#03B8E2" d="M56.8,148.1c0,0,0.1,0,0.1,0l24.2-6.1c13.6-3.4,27.2-7.6,40.5-12.2l9.4-3.3c0.3-0.1,0.4-0.4,0.3-0.6
		s-0.4-0.4-0.6-0.3l-9.4,3.3c-13.2,4.7-26.8,8.8-40.4,12.2l-24.2,6.1c-0.3,0.1-0.4,0.3-0.4,0.6C56.4,148,56.6,148.1,56.8,148.1z"/>
	<path fill="#03B8E2" d="M124.6,140.7c-0.2,0.1-22.2,10.3-46,14.6c-0.3,0-0.5,0.3-0.4,0.6c0,0.2,0.3,0.4,0.5,0.4c0,0,0.1,0,0.1,0
		c23.9-4.3,46-14.6,46.2-14.7c0.3-0.1,0.4-0.4,0.2-0.7S124.8,140.6,124.6,140.7z"/>
	<path fill="#03B8E2" d="M31.8,161.6c-1.2-6.6-4.9-11.4-8.3-10.7c-1.7,0.3-3.1,1.9-3.8,4.4c-0.7,2.4-0.8,5.5-0.2,8.6
		c1.1,6.2,4.4,10.8,7.7,10.8c0.2,0,0.4,0,0.6-0.1c1.7-0.3,3.1-1.9,3.8-4.4C32.3,167.7,32.3,164.7,31.8,161.6z M30.6,169.9
		c-0.6,2.2-1.7,3.5-3,3.7c-2.8,0.5-6.1-4-7.2-9.9c-0.5-3-0.5-5.8,0.2-8.1c0.6-2.2,1.7-3.5,3-3.7c0.1,0,0.3,0,0.4,0
		c2.7,0,5.7,4.4,6.7,10C31.3,164.7,31.3,167.6,30.6,169.9z"/>
	<path fill="#03B8E2" d="M56.7,99.5c0.1,0,0.2,0,0.3,0c2.8-0.3,2.5-4.4,2.4-4.5c0-0.2-0.2-0.4-0.5-0.5c-0.2,0-3.9-0.1-6.2,1.1
		c-0.1,0.1-0.2,0.2-0.3,0.3c0,0.1,0,0.3,0,0.4C52.6,96.3,54.2,99.5,56.7,99.5z M58.5,95.4c0,0.9-0.1,2.9-1.6,3
		c-1.5,0.2-2.7-1.5-3.2-2.3C55.4,95.5,57.6,95.5,58.5,95.4z"/>
	<path fill="#03B8E2" d="M60.5,117.9c0.1,0,0.3,0,0.4-0.1l16.5-16.5c0.2-0.2,0.2-0.5,0-0.7s-0.5-0.2-0.7,0l-16.5,16.5
		c-0.2,0.2-0.2,0.5,0,0.7C60.2,117.9,60.4,117.9,60.5,117.9z"/>
	<path fill="#03B8E2" d="M67.1,117.8c0.1,0.1,0.2,0.1,0.4,0.1s0.3,0,0.4-0.1l18.5-18.5c0.2-0.2,0.2-0.5,0-0.7s-0.5-0.2-0.7,0
		l-18.5,18.5C67,117.3,67,117.6,67.1,117.8z"/>
</g>
</svg>
