<?xml version="1.0" encoding="utf-8"?>
<!-- Generator: Adobe Illustrator 17.1.0, SVG Export Plug-In . SVG Version: 6.00 Build 0)  -->
<!DOCTYPE svg PUBLIC "-//W3C//DTD SVG 1.1//EN" "http://www.w3.org/Graphics/SVG/1.1/DTD/svg11.dtd">
<svg version="1.1" id="Layer_1" xmlns="http://www.w3.org/2000/svg" xmlns:xlink="http://www.w3.org/1999/xlink" x="0px" y="0px"
	 viewBox="0 0 184 184" enable-background="new 0 0 184 184" xml:space="preserve">
<g>
	<path fill="#03B8E2" d="M176.1,120.3l-0.8-0.9c-4.4-5.1-19.6-15-22.6-16.9V72l0-0.3c-0.1-0.3-8.5-25.7-27.1-42.4
		C106.4,11.9,91,10,85.3,10c-6,0-16.6,2.7-18,3h-4.8l-0.3,0c-0.4,0.1-9.4,3.1-13.2,6.2l-9.7,7.9L35.5,28l-0.3,0.1
		c-0.3,0.2-7,4.3-10.3,12.5c-2.9,7.3-12.2,29-13.7,32.5l-3,0.6C7,74,6,75,5.9,76.3C3,78.6,0,82.4,0,88c0,7.8,2.2,22.3,17.3,32.8
		c3,2.1,62.8,42.8,68.5,46c6.4,3.6,15.3,4.9,24.2,4.9c12.1,0,24.3-2.3,30.1-3.8c2.4-0.6,24.3-6.6,38.1-20.3
		C189.9,136.2,181,125.8,176.1,120.3z M154.2,106.2l-0.1,1.5c-0.1-0.1-0.1-0.1-0.2-0.1l-2.6-0.9v-2.8c0.2,0.1,1,0.7,2.3,1.5
		L154.2,106.2z M107.6,139.3l0-2l-1-51l43.7-12.7V101v6v17.6L107.6,139.3z M151.3,107.7l2.3,0.8c0.2,0.1,0.3,0,0.5-0.1l-0.8,9.1h-2
		V107.7z M62.7,15H66c0,0,0,0,0,0c0,0.3,0.2,0.5,0.5,0.5c0,0,0,0,0,0c1.7,0,16.6,0,28.5,6.9c23.8,14,31.5,29.8,36.3,44.8
		c0.3,0.9,0.2,1.8-0.2,2.7c-0.4,0.8-1.2,1.4-2.1,1.7l-2.3,0.7c-1.8,0.5-3.7-0.5-4.3-2.3c-4.7-15.3-12.4-31.4-36.8-46.2
		c-8.5-5.1-19.4-7.1-27.1-7.3C60.5,15.7,62.2,15.2,62.7,15z M50.2,20.8c1.4-1.2,3.8-2.3,6.1-3.3c0.1,0,0.1,0.1,0.2,0.1c0,0,0,0,0,0
		c1.7,0,16.6,0,28.5,7.2c24.1,14.6,31.7,30.6,36.3,45.6c0.6,1.9,2.4,3.2,4.3,3.2c0.4,0,0.8-0.1,1.3-0.2l2.3-0.7
		c1.2-0.3,2.1-1.1,2.7-2.2c0.6-1.1,0.7-2.3,0.3-3.5c-4.8-15.2-12.6-31.3-36.7-45.4c-8.1-4.7-18.5-6.7-26.1-7
		c3.4-0.8,11.3-2.6,15.9-2.6c5.5,0,20.2,1.8,39,18.7c17.4,15.7,25.7,39.3,26.4,41.4v0.4c0,0-0.1,0-0.1,0l-44.2,12.8
		c-0.8-4.1-6.6-30.2-34.8-49.8c-13.4-9.4-24.1-9.2-30.8-7.3L50.2,20.8z M36.1,29.9l1.1-0.3c-0.9,0.4-1.7,0.8-2.5,1.3
		C35.4,30.4,35.9,30.1,36.1,29.9z M26.7,41.4c0.2-0.4,0.3-0.8,0.5-1.2c0,0,0,0,0,0c0-0.1,0.1-0.1,0.1-0.2c0.3-0.7,0.7-1.3,1.1-2
		c2.2-3.3,6.5-6.9,12.4-8.6c6.5-1.9,17-2.3,30.4,7c30.1,21,34.4,49.4,34.4,49.6l1,53.5h-6l-0.1-5.7c0,0,0-0.1,0-0.1l-1-4
		c-0.1-0.2-0.2-0.4-0.5-0.4l-20.8-0.8c-0.3,0-0.5,0.2-0.5,0.5l-0.5,8.8c-9.5-3.3-20.5-10.1-25.1-13V112c0,0,0,0,0,0c0,0,0-0.1,0-0.1
		c0,0,0-0.1,0-0.1c0,0,0,0,0-0.1c0-0.1-0.1-0.1-0.2-0.2c0,0,0,0,0,0l-19.8-11c-0.1-0.1-0.2-0.1-0.4,0l-4,1c0,0,0,0,0,0
		c-0.1,0-0.2,0.1-0.2,0.1c0,0,0,0,0,0c0,0,0,0-0.1,0.1c0,0,0,0.1,0,0.1c0,0,0,0,0,0l-1.6,10.4c-1.5-0.9-7-4.6-9.4-7.7
		c-2.6-3.2-4.4-7.2-5.8-12.7l1-9.9c0-0.1,0-0.3-0.1-0.4c-0.1-0.1-0.2-0.2-0.4-0.2H7.5l0.3-4.2C10,75.7,12,75,12.2,75l0.4-0.1
		l0.2-0.4C12.9,74.1,23.5,49.3,26.7,41.4z M78.5,133.5l21.1,0.8l0.1,9l-21.8-0.7L78.5,133.5z M78.5,132.5l0.2-3l20,0.8l0.8,3
		L78.5,132.5z M26.3,114.7l1.8-12l18.9,10.5l-0.9,12.9L26.3,114.7z M47.7,112.5l-18.6-10.3l2.6-0.6l18.6,10.3L47.7,112.5z
		 M48.1,113.4l3-0.8v12l-3.9,1.6L48.1,113.4z M176.8,146.3c-10.9,10.8-28.5,17.5-37.2,19.7c-9.8,2.5-38.3,7.3-52.8-0.9
		c-5.6-3.2-65.3-43.8-68.4-46C4.1,109.2,2,95.4,2,88c0-4,1.7-6.9,3.7-8.9L5,88.9c0,0.6,0.4,1,0.9,1.1c0,0,0,0,0.1,0
		c0.5,0,1-0.4,1-0.9l0.5-6.6h2.9l-0.9,9H6c-0.3,0-0.5,0.2-0.5,0.5c0,0,0,0,0,0c-0.1-0.3-0.3-0.4-0.6-0.4c-0.3,0.1-0.5,0.3-0.4,0.6
		c1.1,5.9,6.2,17.4,15.1,23.3c8.9,5.9,50.2,34.7,50.6,35c1,0.8,23.7,18.1,34.3,18.1c0.3,0,0.5,0,0.7,0c0.3,0,0.5-0.3,0.5-0.5
		s-0.3-0.5-0.5-0.5c-9.9,0.9-34.1-17.7-34.4-17.9c-0.4-0.3-41.6-29.1-50.6-35C11.6,109,6.7,98.1,5.5,92.2c0.1,0.2,0.2,0.3,0.4,0.3
		h3.6c1.5,5.5,3.3,9.5,5.9,12.8c2.9,3.7,9.7,7.9,10,8.1l-0.2,1.5c0,0.2,0.1,0.4,0.2,0.5l20.8,12c0,0,0,0,0,0c0.1,0,0.1,0.1,0.2,0.1
		c0,0,0,0,0,0h0h0h0c0.1,0,0.1,0,0.2,0c0,0,0,0,0,0l4.7-1.9c4.6,3,15.9,10,25.6,13.3l-0.3,4.2c0,0.1,0,0.3,0.1,0.4
		c0.1,0.1,0.2,0.2,0.4,0.2l22.8,0.8c0,0,0,0,0,0c0.1,0,0.3-0.1,0.3-0.1c0.1-0.1,0.2-0.2,0.2-0.4l0-3.3h6.5c0.1,0,0.1,0,0.2,0
		l43.6-15c0.2-0.1,0.3-0.3,0.3-0.5v-6.5h2.5c0.3,0,0.5-0.2,0.5-0.5l1-11.6c5.6,3.7,15.4,10.5,18.6,14.2l0.8,0.9
		C179.6,127.3,187.2,136.1,176.8,146.3z"/>
	<path fill="#03B8E2" d="M40.8,32.5c0.1,0,14-3.5,29.3,8.9c30.3,24.5,33.5,64.5,33.5,80.6v12c0,0.3,0.2,0.5,0.5,0.5s0.5-0.2,0.5-0.5
		v-12c0-16.2-3.3-56.6-33.9-81.4c-15.7-12.7-30.1-9.1-30.2-9.1c-0.3,0.1-0.4,0.3-0.4,0.6C40.3,32.4,40.5,32.6,40.8,32.5z"/>
	<path fill="#03B8E2" d="M110.8,119.4c0.1,0,0.3,0,0.4-0.1L146,84.4c0.2-0.2,0.2-0.5,0-0.7s-0.5-0.2-0.7,0l-34.9,34.9
		c-0.2,0.2-0.2,0.5,0,0.7C110.5,119.4,110.6,119.4,110.8,119.4z"/>
	<path fill="#03B8E2" d="M146.4,95.6l-36,36c-0.2,0.2-0.2,0.5,0,0.7c0.1,0.1,0.2,0.1,0.4,0.1s0.3,0,0.4-0.1l36-36
		c0.2-0.2,0.2-0.5,0-0.7S146.6,95.5,146.4,95.6z"/>
	<path fill="#03B8E2" d="M58.1,59.6c-0.2-0.2-0.5-0.1-0.7,0.1C54,64.3,46.9,73.9,46.3,85c0,0.3,0.2,0.5,0.5,0.5c0,0,0,0,0,0
		c0.3,0,0.5-0.2,0.5-0.5c0.7-10.8,7.6-20.2,10.9-24.7C58.3,60.1,58.3,59.8,58.1,59.6z"/>
	<path fill="#03B8E2" d="M59.5,68.5c-2.2,3-6.8,9.2-7.2,16.4c0,0.3,0.2,0.5,0.5,0.5c0,0,0,0,0,0c0.3,0,0.5-0.2,0.5-0.5
		c0.4-6.9,4.9-13,7-15.9c0.2-0.2,0.1-0.5-0.1-0.7C60,68.3,59.6,68.3,59.5,68.5z"/>
	<path fill="#03B8E2" d="M148,155.6l-25-16c-0.2-0.1-0.5-0.1-0.7,0.2c-0.1,0.2-0.1,0.5,0.2,0.7l25,16c0.1,0.1,0.2,0.1,0.3,0.1
		c0.2,0,0.3-0.1,0.4-0.2C148.3,156,148.3,155.7,148,155.6z"/>
	<path fill="#03B8E2" d="M143.1,132.7c-0.2-0.2-0.5-0.2-0.7,0c-0.2,0.2-0.2,0.5,0,0.7l16,18c0.1,0.1,0.2,0.2,0.4,0.2
		c0.1,0,0.2,0,0.3-0.1c0.2-0.2,0.2-0.5,0-0.7L143.1,132.7z"/>
</g>
</svg>
