<?xml version="1.0" encoding="utf-8"?>
<!-- Generator: Adobe Illustrator 17.1.0, SVG Export Plug-In . SVG Version: 6.00 Build 0)  -->
<!DOCTYPE svg PUBLIC "-//W3C//DTD SVG 1.1//EN" "http://www.w3.org/Graphics/SVG/1.1/DTD/svg11.dtd">
<svg version="1.1" id="Layer_1" xmlns="http://www.w3.org/2000/svg" xmlns:xlink="http://www.w3.org/1999/xlink" x="0px" y="0px"
	 viewBox="0 0 184 184" enable-background="new 0 0 184 184" xml:space="preserve">
<g>
	<path fill="#03B8E2" d="M61.3,116.7c-0.1,0-0.3,0.1-0.3,0.2l-37.7,46.8c-0.2,0.2-0.1,0.5,0.1,0.7c0.1,0.1,0.2,0.1,0.3,0.1
		c0.1,0,0.3-0.1,0.4-0.2l37.5-46.6c0.6,0,2.4,0,3.4,1.1c0.6,0.7,0.8,1.8,0.4,3.1c-0.1,0.3,0.1,0.5,0.4,0.6c0.3,0.1,0.5-0.1,0.6-0.4
		c0.4-1.7,0.2-3.1-0.6-4C64.2,116.4,61.4,116.7,61.3,116.7z"/>
	<path fill="#03B8E2" d="M31.4,170.9c0.1,0.1,0.2,0.1,0.3,0.1c0.1,0,0.3-0.1,0.4-0.2l36.3-45.5c0.8-0.1,2.6-0.1,3.4,0.8
		c0.6,0.6,0.7,1.6,0.4,3c-0.1,0.3,0.1,0.5,0.4,0.6c0.3,0.1,0.5-0.1,0.6-0.4c0.4-1.7,0.2-3-0.6-3.9c-1.5-1.6-4.4-1.1-4.5-1.1
		c-0.1,0-0.2,0.1-0.3,0.2l-36.4,45.6C31.1,170.4,31.2,170.8,31.4,170.9z"/>
	<path fill="#03B8E2" d="M23.3,168.5c-0.2-0.2-0.5-0.2-0.7,0s-0.2,0.5,0,0.7l9.1,10.1c0.1,0.1,0.2,0.2,0.4,0.2c0.1,0,0.2,0,0.3-0.1
		c0.2-0.2,0.2-0.5,0-0.7L23.3,168.5z"/>
	<path fill="#03B8E2" d="M151.2,141.9c0.2,0,0.4,0,0.6,0c1.9-0.2,3.7-1.6,5-3.7c2.1-3.6,2.1-8.2-0.1-10.4c-0.9-1-2.2-1.4-3.5-1.2
		c-1.9,0.2-3.7,1.6-5,3.7c-2.2,3.6-2.1,8.3,0.2,10.5C149.1,141.5,150.1,141.9,151.2,141.9z M155.2,129.1c1.6,1.6,1.5,5.3-0.1,8
		c-0.9,1.6-2.2,2.6-3.5,2.8c-0.7,0.1-1.3-0.1-1.9-0.6c-0.1-0.1-0.1-0.2-0.2-0.2c1.1-0.6,2.1-1.7,2.9-3c1.4-2.4,1.9-5.3,1.3-7.6
		C154.3,128.4,154.8,128.7,155.2,129.1z M149.8,131.2c0.6-0.9,1.3-1.7,2-2.2c0.4,1.8,0,4.1-1.1,6c-0.6,1-1.3,1.7-2,2.2
		C148.3,135.4,148.7,133.1,149.8,131.2z"/>
	<path fill="#03B8E2" d="M168,129L168,129c0-0.2,0-0.4,0-0.5c-0.2-4.9-1.8-9.3-4.8-12L115,71.3l33.4-41l5.8-2.7
		c0.2-0.1,0.3-0.2,0.4-0.4l10.3-17.1c0.2-0.3,0.2-0.8,0-1.1l-5.4-7.8c-0.2-0.2-0.4-0.4-0.7-0.4c-0.3,0-0.6,0.1-0.8,0.2l-14,12.4
		c-0.1,0.1-0.2,0.3-0.3,0.4l-2.4,7.4l-34.8,42.2l-4.7-4.4l-0.9-0.9c3.2-13.9,0.5-27.5-7.3-35.7c-0.7-0.8-1.5-1.4-2.3-2.1
		c-0.1-0.1-0.2-0.3-0.3-0.4c-7.8-5.8-12.6-7.2-17-8.1c-5.8-1.2-12.1-0.1-18.1,3.3c0,0,0,0-0.1,0.1c-0.1,0-0.1,0.1-0.2,0.2
		c0,0-0.1,0.1-0.1,0.1c0,0,0,0,0,0.1c0,0.1,0,0.1-0.1,0.2c0,0,0,0.1,0,0.1c0,0,0,0,0,0c0,0.1,0,0.3,0,0.4c0,0,0,0,0,0
		c0,0.1,0.1,0.3,0.2,0.4c0,0,0,0,0,0l15.8,16.3c3.1,3.1,3,9.5-0.1,14.1l-8,11.9c-1.6,2.3-3.7,3.9-5.8,4.4l-14-13.7
		c-0.1-0.1-0.2-0.1-0.2-0.2c0,0,0,0,0,0L36,45.7c-0.3-0.1-0.6-0.1-0.9,0c-0.3,0.1-0.5,0.4-0.5,0.7c-3.2,14.3,0,28.1,8.2,35.9
		c2.7,2.6,5.9,4.5,9.4,5.5c0.1,0,0.2,0,0.3,0c7.5,5.8,17.2,6.2,26.5,1.3l3.5,3.7l-2.8,3.4L74,93.7c-0.4-0.2-0.9-0.1-1.2,0.3l-4,4.9
		c-0.2,0.2-0.3,0.6-0.2,0.9l1,4.2l-2.2,2.6l-8.7,2.2c-0.2,0.1-0.4,0.2-0.5,0.3l-41.9,50.5c-4.1,5-5,9.9-2.3,12.8l6.7,8.6
		c1.7,1.8,5.2,3.1,8.5,3.1c0.1,0,0.3,0,0.4,0c2.8-0.1,5.1-1.1,6.5-2.8l40.7-50.3c0.1-0.1,0.2-0.3,0.2-0.5l1.8-10.5l2-2.5l3.1,1.1
		c0.4,0.1,0.9,0,1.1-0.3l3.9-4.8c0.2-0.3,0.3-0.6,0.2-0.9l-2.1-7.1l3.2-3.9l43.2,46.7c1.8,1.9,7.9,7,14.3,7.3c0,0,0.2,0,0.5,0
		c0.2,0,0.3,0,0.5,0c0.4,0,0.8,0,1.2-0.1c3.5-0.4,7.1-2.4,10.1-5.6c0.2-0.2,0.4-0.4,0.4-0.4c0.1,0,0.1-0.1,0.1-0.2l0.4-0.5
		c0.9-1.1,1.8-2.3,2.5-3.6C166.7,140.1,168.1,134.2,168,129z M153.5,25.1l-5-9.8L159,4l3.8,5.6L153.5,25.1z M146.2,14.1l11.7-10.4
		l-10.1,10.9L146.2,14.1z M143,22.3c0.1-0.1,0.1-0.2,0.2-0.3l2.3-7.1l1.8,0.6l-3.2,6.8c-0.1,0.3,0,0.5,0.2,0.7c0.1,0,0.1,0,0.2,0
		c0.2,0,0.4-0.1,0.5-0.3l3-6.4l4.9,9.7l-5.5,2.5c-0.1,0.1-0.3,0.2-0.4,0.3l-33.5,41.1l-5.5-5.1L143,22.3z M73.8,13.9
		c1.4,0.3,3.2,0.7,5.4,1.5c-4.8-0.4-10,0.7-15,3.4l-5.4-2.7C63.9,13.7,69,12.9,73.8,13.9z M65.3,60.2l8-11.9
		c3.7-5.5,3.6-12.8-0.1-16.6l-11.7-12l2.2,1.1l15.7,16.1c3.1,3.1,3,9.5-0.1,14.1l-8,11.9c-1.8,2.6-4.2,4.3-6.6,4.5
		c-1.7,0.2-3.2-0.4-4.4-1.6l-0.8-0.8C61.7,64.2,63.8,62.6,65.3,60.2z M36.2,48.1L42,51c-2.6,12.9-0.2,25.2,6.5,33.1
		c-1.6-0.9-3-1.9-4.4-3.2C36.6,73.8,33.7,61.3,36.2,48.1z M51.8,84.7c-7.4-7.1-10.4-19.3-8-32.3l15.1,14.8c1.6,1.6,3.8,2.4,6.1,2.1
		c3-0.3,6-2.3,8.1-5.4l8-11.9c3.7-5.5,3.6-12.8-0.1-16.6L65.9,20.2c9.6-4.8,19.6-3.4,26.4,3.7c7.4,7.7,9.9,20.9,6.6,34.4
		c-0.1,0.3,0,0.7,0.3,0.9l1.3,1.3l61.3,57.4c5.5,5.1,5.6,17.2,0.2,26.3c-3.2,5.4-7.7,8.8-12,9.3c-2.8,0.3-5.3-0.7-7.3-2.8L83.8,87.1
		l-1.4-1.5c-0.2-0.2-0.5-0.3-0.7-0.3c-0.2,0-0.4,0.1-0.6,0.2C70.8,92.5,59.6,92.2,51.8,84.7z M85.3,104.6c-0.2,0.3-0.3,0.6-0.2,0.9
		l2.1,7.1l-2.1,2.6l-1.8-6.6c0-0.1,0-0.1-0.1-0.2l-5.6-7.1c0-0.1-0.1-0.1-0.2-0.1l-3.6-1.7c-0.3-0.1-0.5,0-0.7,0.2s0,0.5,0.2,0.7
		L77,102l5.4,6.9l1.7,6.5c0.1,0.2,0.2,0.3,0.4,0.4l-0.5,0.6l-3.1-1.1c-0.4-0.1-0.9,0-1.1,0.3l-2.6,3.3c-0.1,0.1-0.2,0.3-0.2,0.5
		l-0.2,1.4c0-0.1,0-0.2-0.1-0.2l-5.4-8.3c-0.1-0.1-0.1-0.2-0.2-0.2l-4.9-1.9c-0.3-0.1-0.5,0-0.6,0.3c-0.1,0.3,0,0.5,0.3,0.6l4.8,1.8
		l5.2,8.1l0.2,4.4l-0.8,4.5l-40.5,50.1c-1.3,1.7-3.5,2.1-5,2.1c-3.1,0.1-6.2-1.2-7.3-2.4l-6.7-8.6c-2.4-2.6-0.4-7,2.3-10.2
		l41.7-50.3l8.7-2.2c0.2-0.1,0.4-0.2,0.5-0.3l2.7-3.3c0.2-0.2,0.3-0.6,0.2-0.9l-1-4.2l3.2-3.9l5.6,2.6c0.4,0.2,0.9,0.1,1.2-0.3
		l3.1-3.8L89,100L85.3,104.6z M135.1,146.9L80.7,88.1c0.3-0.2,0.6-0.3,0.9-0.5l0.8,0.9l1.9,2.1l0,0l0,0l55.8,60.3
		C137.7,149.4,135.8,147.7,135.1,146.9z"/>
	<path fill="#03B8E2" d="M114.8,113c0.3,0,0.5-0.2,0.5-0.5V80.7c0-0.3-0.2-0.5-0.5-0.5s-0.5,0.2-0.5,0.5v31.8
		C114.3,112.8,114.5,113,114.8,113z"/>
	<path fill="#03B8E2" d="M121.2,119.4c0.3,0,0.5-0.2,0.5-0.5V87.1c0-0.3-0.2-0.5-0.5-0.5s-0.5,0.2-0.5,0.5v31.8
		C120.7,119.2,120.9,119.4,121.2,119.4z"/>
</g>
</svg>
