<svg id="Layer_1" data-name="Layer 1" xmlns="http://www.w3.org/2000/svg" viewBox="0 0 13 13"><defs><style>.cls-1{fill:#8a8a8a;}</style></defs><title>Instagram</title><path class="cls-1" d="M227.4,78.4c0-.1-.5.9-1,1h-11a1.08,1.08,0,0,1-1-1v-11a1.08,1.08,0,0,1,1-1h11a1.08,1.08,0,0,1,1,1Zm-1-10a.94.94,0,0,0-1-1h-1a.94.94,0,0,0-1,1v1c0,1,0,1,.9,1h1.1a.94.94,0,0,0,1-1Zm-5.5,1.7a2.6,2.6,0,1,0,2.6,2.6A2.65,2.65,0,0,0,220.9,70.1Zm5.5,1.3h-2a5.89,5.89,0,0,1,.5,1.3,4,4,0,1,1-8,0,5,5,0,0,1,.5-1.3h-2v6.1c0,.2.8.9,1,.9h9a2.41,2.41,0,0,0,1-1v-6Z" transform="translate(-214.4 -66.4)"/></svg>