<svg id="Layer_1" data-name="Layer 1" xmlns="http://www.w3.org/2000/svg" viewBox="0 0 164.7 9.6"><defs><style>.cls-1{fill:#00bae3;}</style></defs><title>Logo</title><path class="cls-1" d="M13.9,96.4a1.11,1.11,0,0,1-1.1-1.1V89.7a2.9,2.9,0,0,1,2.9-2.9H30.5a2.91,2.91,0,0,1,2.8,3v5.6c0,.6-.4.9-1,.9a1.11,1.11,0,0,1-1.1-1.1V89.6a.68.68,0,0,0-.7-.7H15.6a.68.68,0,0,0-.7.7v5.6A1.06,1.06,0,0,1,13.9,96.4Z" transform="translate(-12.8 -86.8)"/><path class="cls-1" d="M32.3,93.5H13.9a1.1,1.1,0,0,1,0-2.2H32.3c.6,0,.1.5.1,1.1S32.8,93.5,32.3,93.5Z" transform="translate(-12.8 -86.8)"/><path class="cls-1" d="M99,96.4H81.3V88a1.1,1.1,0,0,1,2.2,0v6.2H99a1.1,1.1,0,1,1,0,2.2Z" transform="translate(-12.8 -86.8)"/><path class="cls-1" d="M65.6,96.4H47.9V88a1.1,1.1,0,0,1,2.2,0v6.2H65.6a1.1,1.1,0,1,1,0,2.2Z" transform="translate(-12.8 -86.8)"/><path class="cls-1" d="M134.2,89.1H115.8a1.1,1.1,0,0,1,0-2.2h18.4a1.11,1.11,0,0,1,1.1,1.1A1.18,1.18,0,0,1,134.2,89.1Z" transform="translate(-12.8 -86.8)"/><path class="cls-1" d="M134.2,96.4H115.8a1.1,1.1,0,1,1,0-2.2h18.4a1.11,1.11,0,0,1,1.1,1.1A1.18,1.18,0,0,1,134.2,96.4Z" transform="translate(-12.8 -86.8)"/><path class="cls-1" d="M134.4,92.7l-18.5.1a1.1,1.1,0,0,1,0-2.2h18.4a1.11,1.11,0,0,1,1.1,1.1A.94.94,0,0,1,134.4,92.7Z" transform="translate(-12.8 -86.8)"/><path class="cls-1" d="M165.8,96.4H151a1.1,1.1,0,1,1,0-2.2h14.8a.7.7,0,0,0,0-1.4h-13a2.9,2.9,0,0,1-2.9-2.9v-.1a2.9,2.9,0,0,1,2.9-2.9h14.8a1.1,1.1,0,0,1,0,2.2H152.8a.68.68,0,0,0-.7.7v.1a.68.68,0,0,0,.7.7h13a2.9,2.9,0,0,1,0,5.8Z" transform="translate(-12.8 -86.8)"/><path class="cls-1" d="M176,86.9a1.5,1.5,0,1,0,1.5,1.5A1.61,1.61,0,0,0,176,86.9Zm0,2.5a1.1,1.1,0,1,1,1.1-1.1A1,1,0,0,1,176,89.4Z" transform="translate(-12.8 -86.8)"/><path class="cls-1" d="M175.8,88.8c0,.1-.2.1-.2,0v-.9a.1.1,0,0,1,.1-.1h.4c.4,0,.5.5.1.7l.2.2c.1.1-.1.2-.2.1l-.2-.3h-.2v.3Zm0-.5h.3a.15.15,0,0,0,0-.3h-.3Z" transform="translate(-12.8 -86.8)"/></svg>