<svg id="Layer_1" data-name="Layer 1" xmlns="http://www.w3.org/2000/svg" viewBox="0 0 12.8 12.8"><title>Phone</title><path d="M13.9,9.3l.9.9a1.09,1.09,0,0,1,0,1.5l-1,1c-.1.1-.1.1,0,.3a3.6,3.6,0,0,0,1,1.5,14.82,14.82,0,0,0,2.6,2.4l.6.3c.1.1.2,0,.3,0l1.1-1.1a1.09,1.09,0,0,1,1.5,0l1.6,1.6a1.09,1.09,0,0,1,0,1.5l-1,1a2.27,2.27,0,0,1-1.6.6,4.63,4.63,0,0,1-2.5-.8,14,14,0,0,1-4.5-3.5,15.63,15.63,0,0,1-2.3-3.6,4.38,4.38,0,0,1-.6-2.3,1.85,1.85,0,0,1,.5-1.2l1.1-1.1a1.09,1.09,0,0,1,1.5,0A2,2,0,0,0,13.9,9.3Z" transform="translate(-10 -8)"/></svg>