<svg xmlns="http://www.w3.org/2000/svg" width="12.38" height="12.375" viewBox="0 0 12.38 12.375">
  <defs>
    <style>
      .cls-1 {
        fill: #fff;
        fill-rule: evenodd;
      }
    </style>
  </defs>
  <path id="Phone" class="cls-1" d="M1766.13,54.678l-0.06-.188a1.725,1.725,0,0,0-1.06-1l-1.63-.444a1.586,1.586,0,0,0-1.39.365l-0.59.588a6.244,6.244,0,0,1-4.39-4.394l0.59-.588a1.6,1.6,0,0,0,.36-1.393l-0.44-1.626a1.754,1.754,0,0,0-1.01-1.063l-0.18-.062a1.476,1.476,0,0,0-1.38.325l-0.88.881a1.6,1.6,0,0,0-.26.6,10.384,10.384,0,0,0,10.49,10.507,1.662,1.662,0,0,0,.63-0.255l0.88-.881A1.461,1.461,0,0,0,1766.13,54.678Z" transform="translate(-1753.81 -44.813)"/>
</svg>
