<svg id="Слой_1" data-name="Слой 1" xmlns="http://www.w3.org/2000/svg" viewBox="0 0 12.38 12.37"><defs><style>.cls-1{fill:#8a8a8a;fill-rule:evenodd;}</style></defs><title>Phone-grey</title><path id="Phone" class="cls-1" d="M12.32,9.87l-.06-.19a1.72,1.72,0,0,0-1.06-1L9.57,8.23a1.6,1.6,0,0,0-1.39.37l-.59.59A6.27,6.27,0,0,1,3.2,4.79l.59-.59a1.59,1.59,0,0,0,.36-1.39L3.71,1.19A1.75,1.75,0,0,0,2.7.12L2.52.06A1.47,1.47,0,0,0,1.14.39l-.88.88a1.47,1.47,0,0,0-.26.6,10.38,10.38,0,0,0,10.26,10.5h.23a1.57,1.57,0,0,0,.63-.25l.88-.88A1.46,1.46,0,0,0,12.32,9.87Z" transform="translate(0 -0.01)"/></svg>