<svg id="Layer_1" data-name="Layer 1" xmlns="http://www.w3.org/2000/svg" viewBox="0 0 22 18.06"><defs><style>.cls-1{fill:#00b9e3;fill-rule:evenodd;}</style></defs><title>Twitter-blue</title><path class="cls-1" d="M156.4,78.6A5,5,0,0,1,160,80a7.8,7.8,0,0,0,2.3-.8l.6-.3a4.08,4.08,0,0,1-1.5,2.1c-.2.1-.3.3-.5.4h0a9.89,9.89,0,0,0,2.6-.7h0a8.45,8.45,0,0,1-1.5,1.8c-.2.2-.5.4-.7.6a13.68,13.68,0,0,1-.2,2.9c-1.1,5.1-4.1,8.6-8.8,10.1a13.69,13.69,0,0,1-6.4.3,12.24,12.24,0,0,1-2.7-.9,5.39,5.39,0,0,1-1.3-.7.76.76,0,0,0-.4-.2c.4,0,1,.1,1.4.1a5.7,5.7,0,0,1,1.3-.1,7.94,7.94,0,0,0,2.7-1,3.6,3.6,0,0,0,1.2-.8,4.44,4.44,0,0,1-1.3-.2,4.64,4.64,0,0,1-2.9-2.9c.4,0,1.7.2,2-.1a3.39,3.39,0,0,1-1.5-.6,4.3,4.3,0,0,1-2.1-3.9c.2.1.3.1.5.2l.9.3c.1,0,.4.1.6.1h0c-.2-.3-.6-.4-.8-.7a4.33,4.33,0,0,1-1-4.1,6.12,6.12,0,0,1,.5-1.2h0c.1.2.3.3.4.5a15.93,15.93,0,0,0,1.3,1.3,12.91,12.91,0,0,0,5.5,2.7,12,12,0,0,0,2,.3,5,5,0,0,1,0-2.1,4.76,4.76,0,0,1,2.6-3.1c.3-.1.6-.2,1-.3C156.1,78.7,156.3,78.7,156.4,78.6Z" transform="translate(-141.5 -78.6)"/></svg>