<?xml version="1.0" encoding="utf-8"?><!DOCTYPE svg PUBLIC "-//W3C//DTD SVG 1.1//EN" "http://www.w3.org/Graphics/SVG/1.1/DTD/svg11.dtd"><svg xmlns="http://www.w3.org/2000/svg" viewBox="0 0 44 32" width="44" height="32"><g class="absvgGroup" fill="#03B8E2"><path d="M41 13h-3.5c-1.1-2-2.6-3.7-4.5-4.9V1c0-.6-.4-1-1-1H20c-.6 0-1 .4-1 1v7.1c-2.3 1.5-4.1 3.6-5.1 6.1-.3-.1-.6-.1-.9-.2v-4c0-.6-.4-1-1-1H8c-.6 0-1 .4-1 1v10H4c-.6 0-1 .4-1 1v4c0 .6.4 1 1 1h3v2c0 .6.4 1 1 1h4c.6 0 1-.4 1-1v-3c.3 0 .7-.1 1-.2v.2c0 .6.4 1 1 1h.1c2.3 3.6 6.3 6 10.9 6 4.6 0 8.6-2.4 10.9-6H41c.6 0 1-.4 1-1V14c0-.6-.4-1-1-1zm-1 6h-1c-.1-1.5-.8-2.9-1.8-4H40v4zm-3 .5c0 2.5-2 4.5-4.5 4.5S28 22 28 19.5s2-4.5 4.5-4.5 4.5 2 4.5 4.5zm-28 0c0-1.9 1.6-3.5 3.5-3.5s3.5 1.6 3.5 3.5-1.6 3.5-3.5 3.5S9 21.4 9 19.5zm7 4.5v-.3c1.1-.9 1.8-2.2 2-3.7h8c.1 1.5.8 2.9 1.8 4H16zm10-5h-8v-.2l8.3-3.8h1.6c-1.1 1.1-1.8 2.5-1.9 4zM21 2h10v5c-1.5-.6-3.2-1-5-1-1.8 0-3.5.4-5 1V2zm5 6c3.9 0 7.2 2 9.2 5H26c-.1 0-.3 0-.4.1l-8.3 3.8c-.4-.7-.9-1.3-1.6-1.8C17.3 10.9 21.3 8 26 8zm-15 3v3.2c-.7.2-1.4.6-2 1V11h2zM9 27v-2c0-.6-.4-1-1-1H5v-2h2.6c.7 1.3 1.9 2.4 3.4 2.8V27H9zm17 3c-3.4 0-6.4-1.6-8.5-4h16.9c-2 2.4-5 4-8.4 4zm11.2-6c1-1.1 1.7-2.5 1.8-4h1v4h-2.8z"/><path d="M12 20h1l1-2-2 1z"/></g></svg>