<?xml version="1.0" encoding="utf-8"?><!DOCTYPE svg PUBLIC "-//W3C//DTD SVG 1.1//EN" "http://www.w3.org/Graphics/SVG/1.1/DTD/svg11.dtd"><svg xmlns="http://www.w3.org/2000/svg" viewBox="0 0 184 184" width="184" height="184"><g fill="#03B8E2"><path d="M45.4 115.6c-.2-.2-.5-.2-.7 0l-25.5 25.5c-.2.2-.2.5 0 .7.1.1.2.1.4.1s.3 0 .4-.1l25.5-25.5c0-.1 0-.5-.1-.7zM48.6 117.6l-25.5 25.5c-.2.2-.2.5 0 .7.1.1.2.1.4.1s.3 0 .4-.1l25.5-25.5c.2-.2.2-.5 0-.7s-.6-.1-.8 0zM17.6 103.6l-9 9c-.2.2-.2.5 0 .7.1.1.2.1.4.1s.3 0 .4-.1l9-9c.2-.2.2-.5 0-.7s-.6-.1-.8 0zM58.6 151.6l-6 6c-.2.2-.2.5 0 .7.1.1.2.1.4.1s.3 0 .4-.1l6-6c.2-.2.2-.5 0-.7s-.6-.1-.8 0zM134.4 90.1c-.2-.2-.5-.2-.7 0l-25.5 25.5c-.2.2-.2.5 0 .7.1.1.2.1.4.1s.3 0 .4-.1l25.5-25.5c0-.1 0-.5-.1-.7zM137.6 92.1l-25.5 25.5c-.2.2-.2.5 0 .7.1.1.2.1.4.1s.3 0 .4-.1l25.5-25.5c.2-.2.2-.5 0-.7s-.6-.1-.8 0zM151.6 126.6l-6 6c-.2.2-.2.5 0 .7.1.1.2.1.4.1s.3 0 .4-.1l6-6c.2-.2.2-.5 0-.7s-.6-.1-.8 0z"/><path d="M183.3 91.1L160 82.5v-9.1l23.3-7.5c.5-.2.8-.7.6-1.3-.2-.5-.7-.8-1.3-.6L75 98.6v-1.9L183.3 62c.5-.2.8-.7.6-1.3-.2-.5-.7-.8-1.3-.6l-8.4 2.7c-.6-2.6-1.5-5.7-2.9-9.1l11.4 3.8h.2c.2 0 .4-.1.5-.3.1-.3-.1-.5-.3-.6l-12.2-4.1c-1.3-3-2.9-6.1-5-9.1l15.4-4.3 1.5.5h.1c.2 0 .4-.1.5-.4.1-.3-.1-.5-.3-.6h-.1.1c.3-.1.4-.4.3-.6-.1-.3-.4-.4-.6-.3l-1.5.4-29.5-9.2 23.4-5.4c2.7 1.3 5.2 2.8 7.5 4.7.1.1.2.1.3.1.1 0 .3-.1.4-.2.2-.2.1-.5-.1-.7-2-1.7-4.3-3.1-6.7-4.3l6.5-1.5c.3-.1.4-.3.4-.6-.1-.3-.3-.4-.6-.4l-7.6 1.8c-.9-.4-1.7-.8-2.6-1.1-2.2-.8-4.4-1.3-6.7-1.5l17.3-3.7c.5-.1.9-.6.8-1.2-.1-.5-.6-.9-1.2-.8L129 25.6c-.2 0-.3.1-.4.1L22.8 48c-.2 0-.3.1-.5.3C10.3 50.5 2 59 .1 62.5c0 .1-.1.2-.1.2V67c0 .4.2.7.6.9l4.4 2V143c0 .6.4 1 1 1s1-.4 1-1v-3.4l58 30v4.4c0 .6.4 1 1 1s1-.4 1-1v-14.1l2.2.9c.3.1.5.2.8.2.3 0 .6-.1.9-.2l2-1c.7-.3 1.1-1 1.1-1.8v-12c0-.8-.4-1.5-1.1-1.8l-5.9-2.9V97.9l6.6 3c.1.1.3.1.4.1h.3L91 95.6V118c0 .6.4 1 1 1s1-.4 1-1v-2.5l65 28.1v4.3c0 .6.4 1 1 1s1-.4 1-1v-15.1l2.2.9c.3.1.5.2.8.2.3 0 .6-.1.9-.2l2-1c.7-.3 1.1-1 1.1-1.8v-11c0-.8-.4-1.5-1.1-1.8l-5.9-2.9V84.6l22.7 8.3c.1 0 .2.1.3.1.4 0 .8-.3.9-.7.2-.5 0-1-.6-1.2zM158 81.8l-4-1.5v-4.9l4-1.3v7.7zM49 44.5c.1 0 .1 0 0 0 4.3-1.1 8.7-1.2 13.1-.6-2.9 2.2-4.8 4.4-5.5 5.7l-11.3 2.6c-1.6-.8-3.2-1.5-5-2.2-2.8-1-5.4-1.7-8-2L49 44.5zm57-12.1h.2c3.2-.8 6.5-1 9.8-.7-2.9 2.1-4.8 4.2-5.5 5.5l-11.4 2.6c-1.2-.6-2.5-1.1-3.9-1.6-2.5-.9-5.1-1.6-7.7-1.9l18.5-3.9zm21.1-4.5l1.2-.3.9-.2c4.9-.8 10.2-.4 15 1.4l.9.3-18.8 4.3c-.9-.4-1.8-.8-2.8-1.1-1.5-.6-3.1-1-4.7-1.3 1.5-.9 3.2-1.8 5.1-2.5l3.2-.6zm25.4 41.8c-.2-.8-.4-1.7-.6-2.7l.6.2v2.5zm1-2.1l2.6 1-2.6.8v-1.8zM74.8 94.7c-1.1-5.6-3.6-14.6-8.9-23.3l25.6-7.2v25.1l-16.7 5.4zm-2.6-47.6c8.6 4 14.8 9.9 19.2 16.1l-26.1 7.3C61 63.9 55.1 57.5 46.7 53l25.5-5.9zM58 49.3c1-1.4 2.9-3.3 5.5-5.2 1.8.3 3.5.8 5.2 1.5.7.2 1.3.5 2 .8L58 49.3zm68.2-14.7c7.5 3.5 12.9 8.6 16.7 14.1l-21.1 5.9-6.2-2.3c-3.9-4.5-8.8-8.7-15-11.9l25.6-5.8zM112 36.9c1-1.4 3-3.2 5.6-5 1.9.3 3.8.8 5.6 1.5l1.5.6-12.7 2.9zm31.5 12.7c3.7 5.5 5.8 11.3 7 15.8l-27.1-10.1 20.1-5.7zm-51 15.2c1.1 1.6 2 3.3 2.8 4.9l-2.8-1.1v-3.8zM113 52.5c1.1 1.2 2.2 2.5 3.1 3.8l-23.6 6.6V44.8l20.5 7.7zm3.8 1.4l3.3 1.2-1.9.5c-.5-.5-.9-1.1-1.4-1.7zm-5.4-3.1l-19-7.1c-.1-.1-.2-.2-.4-.2h-.2l-1.6-.6 7.2-1.7c5.7 2.6 10.3 5.9 14 9.6zm-22.8-7.5l.2.2 2.7 1v17.2c-4.2-5.7-9.9-11.1-17.7-14.9l14.8-3.5zm3.9 26.4l3.5 1.4c2.8 5.7 4.3 11.2 5.1 15.1L92.5 89V69.7zm4.9 1.9l22.3 8.7-17.6 5.6c-.8-3.8-2.2-8.9-4.7-14.3zm-.7-1.3c-1.1-2.2-2.3-4.3-3.7-6.5l23.7-6.7c5.3 7.4 8 15.3 9.4 21.1l-5 1.6-24.4-9.5zm22.1-13.7l2.9-.8 29.1 10.9c.3 1.3.6 2.5.7 3.5l-23.4 7.5c-1.4-5.9-4.2-13.7-9.3-21.1zm32.8 9.2c-1.2-4.6-3.3-10.7-7.1-16.5l8-2.3v19.1l-.9-.3zm.9-19.8l-8.6 2.4c-3.7-5.4-8.9-10.6-16.1-14.2l19-4.4c2.1.9 4 2 5.8 3.1V46zm1-12.3c4 2.7 7.1 6 9.7 9.4l-9.7 2.7V33.7zm-36.2-2.8c-.9-.1-1.9-.2-2.8-.3l5-1.1c-.8.4-1.5.9-2.2 1.4zm-42 8.1c6.2-1.6 13.1-1.2 19.3 1.1.4.2.9.3 1.3.5L72.4 46c-1-.5-2.1-.9-3.2-1.3-1.4-.5-2.9-1-4.4-1.3 2.1-1.4 4.7-2.8 7.5-3.8l2.8-.6h.2zm-12 4.1c-1.7-.3-3.4-.5-5.1-.6l9.3-2c-1.6.9-3 1.7-4.2 2.6zM63 70.7L36.7 78 4.1 63.3 44.4 54c8.3 4.2 14.3 10.3 18.6 16.7zm1.1 1.7c5 8.1 7.4 16.4 8.5 21.9l-33.1-15 24.6-6.9zm108.3-9.1L157.6 68l-4.1-1.5V47.7l15.4 5.1c1.7 3.9 2.8 7.6 3.5 10.5zm-4.1-11.7l-14.6-4.9 10.1-2.8c1.8 2.5 3.3 5.1 4.5 7.7zm-3-9.1c-3-4.1-6.8-8-11.8-11.2v-1l26.1 8.1-14.3 4.1zm-14.4-13l1.7.5v.6c-.9-.5-1.7-1-2.7-1.5l.7-.2c-.1.3 0 .5.3.6zm21.4-7.4c.4.2.9.4 1.3.5l-25.1 5.8c-1.1-.5-2.3-1-3.5-1.5-2-.7-4.1-1.3-6.2-1.6l22.8-4.9c3.6-.1 7.2.4 10.7 1.7zM39.6 51.9c.6.2 1.2.5 1.8.7L3.3 61.5c4.6-5.9 18.5-16.3 36.3-9.6zM2 64.5l71 32.1v1.8l-71-32v-1.9zm63 102.9l-58-30V96.5l58 25.1v19.6l-2.6.9c-.8.3-1.4 1-1.4 1.9v12c0 .8.5 1.5 1.2 1.8L65 159v8.4zm0-10.5l-2-.9v-12l2-.7v13.6zm7-10.9v12l-2 1-3-1.3v-14.2l5 2.5zm-7-26.5L7 94.3V70.8L65 97v22.5zm93 22l-65-28.1V94.9l34.5-11.1L158 95.7v19.5l-2.6.9c-.8.3-1.4 1-1.4 1.9v11c0 .8.5 1.5 1.2 1.8l2.8 1.2v9.5zm0-11.6l-2-.9v-11l2-.7v12.6zm7-9.9v11l-2 1-3-1.3v-13.2l5 2.5zm-7-26.5l-27.4-10.6L152 76v9c0 .6.4 1 1 1s1-.4 1-1v-2.6l4 1.5v9.6z"/><path d="M181.9 68.1c-.2-.2-.5-.2-.7 0l-14.5 14.5c-.2.2-.2.5 0 .7.1.1.2.1.4.1s.3 0 .4-.1L182 68.8c0-.1 0-.5-.1-.7zM170 84.5c.1 0 .3 0 .4-.1l13-13c.2-.2.2-.5 0-.7s-.5-.2-.7 0l-13 13c-.2.2-.2.5 0 .7 0 .1.2.1.3.1z"/></g></svg>