<?xml version="1.0" encoding="utf-8"?><!DOCTYPE svg PUBLIC "-//W3C//DTD SVG 1.1//EN" "http://www.w3.org/Graphics/SVG/1.1/DTD/svg11.dtd"><svg xmlns="http://www.w3.org/2000/svg" viewBox="0 0 184 184" width="184" height="184"><g fill="#03B8E2"><path d="M176 68.8l-6-37c0-.1-.1-.2-.1-.3-.1-.1-.1-.2-.2-.2h-.1l-.1-.1-47-19c-.2-.1-.3-.1-.5-.1l-106 16c-.1 0-.1 0-.2.1h-.1c-.1 0-.1.1-.1.1h-.1l-.2.2v.1c0 .1-.1.1-.1.2V41.7c-1.8 1.4-3 3.7-3 6.3v2.4l-1.4.7c-.6.2-.8.5-.8.9v15c0 .2.1.5.2.6 0 .1.6.7 1.8 1.3v9c0 .3.1.6.4.8.1 0 1.1.8 2.6 1.1V142c0 .3.2.6.4.8l3.6 2.4v.1l3 8c.1.2.2.4.4.5l36 24s.1 0 .1.1h.1c.1 0 .2.1.3.1h.2l7-2c.3-.1.5-.3.7-.6l3.8-9.5 76.1-21.7 7.6 5.7h.7c.1 0 .2 0 .3-.1l6-2c.3-.1.6-.4.7-.7l2-8v-.1l4.3-1.2c.3-.1.6-.4.7-.7l7-27V69v-.2zM62.9 93.3l-4.8-39.5 110.1-20.6 5.8 35.6L62.9 93.3zm.1 1l111-24.6v40L63 138.2V94.3zM121.9 14l43.6 17.6L57.2 51.9 18.9 29.6l103-15.6zM20 42h.1c.3 0 1.6-.1 1.9 1.3.2.9.2 1.5-.1 2-.3.5-.8.7-1 .7-.4 0-1.3.1-2 .7-.4.4-.9 1.1-.9 2.3v1.8c-.2.4-.8 1.2-2 1.2s-1.8-.9-2-1.2V48c0-3.4 2.6-6 6-6zm1.8 31.8c.6.1 1.3.3 2 .3s1.4-.1 2-.3v7.8c-.4.2-1.1.5-2 .5-.9 0-1.6-.3-2-.5v-7.8zm2-1.8c-1.9 0-3.2-.8-3.8-1.3v-3.1c-.1 0-.1.1-.2.1V56.6l.6-.3c.6.8 1.7 1.7 3.4 1.7s2.8-1 3.4-1.7l.6.3v13.9c-.9.6-2.6 1.5-4 1.5zM20 50.3V49c0-.4.1-.6.2-.8.2-.2.5-.2.6-.2-.3.7-.6 1.5-.8 2.3zm6.7.5c-.4.4-.9 1.1-.9 2.3v1.8c-.2.4-.8 1.2-2 1.2-.9 0-1.5-.6-1.8-1v-3c0-.2-.1-.4-.2-.5.3-3.1 2.7-5.5 6-5.5h.1c.3 0 1.6-.1 1.9 1.3.2.9.2 1.5-.1 2-.3.5-.8.7-1 .7-.4-.1-1.3 0-2 .7zM12 52.6l.6-.3c.6.7 1.7 1.7 3.4 1.7s2.8-1 3.4-1.7l.5.2v1.9l-1.4.7c-.3.2-.6.5-.6.9v11.6c-.7.2-1.3.4-1.9.4-2.2 0-3.5-1-4-1.4v-14zm2 17.1c.6.1 1.3.3 2 .3.6 0 1.2-.1 1.8-.3V71c0 .2.1.4.2.5v5.9c-.4.2-1.1.5-2 .5-.9 0-1.6-.3-2-.5v-7.7zm3 10.2c1.5-.3 2.6-1.1 2.6-1.1.1-.1.1-.2.2-.2V82c0 .3.1.6.4.8.1 0 1.5 1.2 3.6 1.2s3.6-1.2 3.6-1.2c.2-.2.4-.5.4-.8v-9.2c.9-.5 1.5-1 1.6-1 .3-.2.4-.5.4-.8V56c0-.4-.2-.7-.6-.9l-1.4-.7V53c0-.4.1-.6.2-.8.2-.2.6-.2.7-.2h.3c.2 0 1.6-.3 2.4-1.6.6-1 .7-2.2.4-3.6-.6-2.4-2.9-2.9-4-2.7-1.3 0-2.6.3-3.6.9.1-.6 0-1.3-.2-2.1-.6-2.4-2.9-2.9-4-2.7-1.1 0-2 .2-2.9.5v-9.8l39.1 22.9L61 94.1v44.8l-5.7 28.4L17 141.5V79.9zm4.9 67.3l33.6 22.6s.1 0 .1.1h.1c.1 0 .2.1.3.1h.3l.8-.2.7 5.2-33.9-22.6-2-5.2zm43.4 27l-5.4 1.5-.8-6.5 9.3-2.7-3.1 7.7zm86.8-31.6l1.1 3.8-4-3 2.9-.8zm8.1 3.6l-4.5 1.5-1.7-5.7 7.7-2.2-1.5 6.4zm7-10L57.3 167.6l5.7-28.3 110.8-28.4-6.6 25.3z"/><path d="M96.3 90.6c-.1-.1-.3-.1-.4-.1l-26 6c-.2.1-.4.3-.4.5v19c0 .2.1.3.2.4.1.1.2.1.3.1h.1l26-7c.2-.1.4-.3.4-.5V91c0-.2-.1-.3-.2-.4zm-.8 18l-25 6.7v-18l25-5.8v17.1zM28.5 31.9l30 17c.2.1.3.1.5.1h.2l38-7c.4-.1.7-.4.8-.8.1-.4-.1-.8-.5-1l-30-16c-.2-.2-.4-.2-.7-.2l-38 6c-.4.1-.8.4-.8.8-.1.4.1.9.5 1.1zM66.8 26L94 40.5 59.2 47 32 31.5 66.8 26zM73.6 24.9l30 15c.1.1.3.1.4.1h.2l40-7c.4-.1.8-.4.8-.9.1-.4-.2-.9-.6-1l-31-14h-.1c-.1 0-.2-.1-.3-.1h-.1-.1-.1l-39 6c-.4.1-.8.4-.8.8s.3.9.7 1.1zM114 36.2V19.5l26.6 12-26.6 4.7zm-2-17v17.4l-7.8 1.4-26.9-13.5 34.7-5.3z"/></g></svg>