<?xml version="1.0" encoding="utf-8"?><!DOCTYPE svg PUBLIC "-//W3C//DTD SVG 1.1//EN" "http://www.w3.org/Graphics/SVG/1.1/DTD/svg11.dtd"><svg xmlns="http://www.w3.org/2000/svg" viewBox="0 0 44 32" width="44" height="32"><g fill="#03B8E2"><path d="M43 0H1C.4 0 0 .4 0 1v30c0 .6.4 1 1 1h42c.6 0 1-.4 1-1V1c0-.6-.4-1-1-1zm-1 30H2V2h40v28z"/><path d="M14 5h1v1h-1zM16 5h5v1h-5zM14 7h1v1h-1zM16 7h5v1h-5zM25 5h1v1h-1zM27 5h5v1h-5zM25 7h1v1h-1zM27 7h5v1h-5zM14 9h1v1h-1zM16 9h5v1h-5zM25 9h1v1h-1zM27 9h5v1h-5zM14 24h1v1h-1zM16 24h5v1h-5zM14 26h1v1h-1zM16 26h5v1h-5zM25 24h1v1h-1zM27 24h5v1h-5zM25 26h1v1h-1zM27 26h5v1h-5zM34 12H12v11h22V12zm-1 10H13v-9h20v9z"/><path d="M15 15h1v1h-1zM17 15h5v1h-5zM15 17h1v1h-1zM17 17h5v1h-5zM15 19h1v1h-1zM17 19h5v1h-5zM24 15h1v5h-1zM26 16h1v4h-1zM28 17h1v3h-1zM30 18h1v2h-1zM6 18l3-2V4H8v12l-3 2v10h1z"/><path d="M8 28h1v-8l2-3h-1l-2 3z"/></g></svg>