<?xml version="1.0" encoding="utf-8"?><!DOCTYPE svg PUBLIC "-//W3C//DTD SVG 1.1//EN" "http://www.w3.org/Graphics/SVG/1.1/DTD/svg11.dtd"><svg xmlns="http://www.w3.org/2000/svg" viewBox="0 0 184 184" width="184" height="184"><g fill="#03B8E2"><path d="M157.6 20.2c-.2-.2-.5-.3-.8-.2L143 23.2V11c0-.3-.1-.6-.4-.8-.2-.2-.5-.3-.8-.2L129 13V1c0-.3-.1-.6-.4-.8-.2-.2-.5-.2-.8-.2l-95 22c-.5.1-.8.5-.8 1v140c0 .3.1.6.4.8.2.1.4.2.6.2h.3l12.7-3.5V173c0 .3.1.6.4.8.2.1.4.2.6.2h.3l13.7-3.8V183c0 .3.1.6.4.8.2.1.4.2.6.2h.3l95-26c.4-.1.7-.5.7-1V21c0-.3-.1-.6-.4-.8zM34 161.7V23.8l93-21.5v11.2L46.8 32c-.5.1-.8.5-.8 1v12h-.2l-4 1c-.5.1-.9.7-.7 1.2.1.5.5.8 1 .8h.2l3.7-1v8h-.2l-4 1c-.5.1-.9.7-.7 1.2.1.5.5.8 1 .8h.2l3.7-1v8h-.2l-4 1c-.5.1-.9.7-.7 1.2.1.5.5.8 1 .8h.2l3.7-1v18h-.2l-4 1c-.5.1-.9.7-.7 1.2.1.5.5.8 1 .8h.2l3.7-1v8h-.2l-4 1c-.5.1-.9.7-.7 1.2.1.5.5.8 1 .8h.2l3.7-1v8h-.2l-4 1c-.5.1-.9.7-.7 1.2.1.5.5.8 1 .8h.2l3.7-1v8h-.2l-4 1c-.5.1-.9.7-.7 1.2.1.5.5.8 1 .8h.2l3.7-1v8h-.2l-4 1c-.5.1-.9.7-.7 1.2.1.5.5.8 1 .8h.2l3.7-1v8h-.2l-4 1c-.5.1-.9.7-.7 1.2.1.5.5.8 1 .8h.2l3.7-1v21.4l-12 3.3zm14 10V33.8l93-21.5v11.4L87.8 36c-.1 0-.1.1-.2.1h-.1c-.1.1-.2.1-.2.2l-7.4 10c-.2-.3-.6-.4-1-.4l-21 5c-.5.1-.9.7-.7 1.2.1.5.5.8 1 .8h.2l20.2-4.8-5.9 7.9-14.8 4c-.5.1-.9.7-.7 1.2.1.4.5.7 1 .7h.3l12.4-3.3-9.5 12.7c-.1.1-.1.2-.1.3v13.5l-3.5.9c-.5.1-.9.7-.7 1.2.1.5.5.8 1 .8h.2l2.8-.7v7.9l-3.3.8c-.5.1-.9.7-.7 1.2.1.5.5.8 1 .8h.2l2.8-.7v7.9l-3.2.8c-.5.1-.9.7-.7 1.2.1.5.5.8 1 .8h.2l2.8-.7v7.9l-3.2.8c-.5.1-.9.7-.7 1.2.1.5.5.8 1 .8h.2l2.8-.7v17.9l-3.2.8c-.5.1-.9.7-.7 1.2.1.5.5.8 1 .8h.2l2.8-.7v7.9l-3.2.8c-.5.1-.9.7-.7 1.2.1.5.5.8 1 .8h.2l2.8-.7v7.9l-3.2.8c-.5.1-.9.7-.7 1.2.1.5.5.8 1 .8h.2l2.8-.7v10.9L48 171.7zM68.4 65.1L87 40v24.2l-22.5 6.1 3.9-5.2zm87.6 91.1l-93 25.5V72.8L88.3 66c.4-.1.7-.5.7-1V37.8l67-15.5v133.9z"/><path d="M99 53h.4l44-10c1.1-.2 1.8-1.3 1.5-2.4-.2-1.1-1.3-1.8-2.4-1.5l-44 10c-1.1.2-1.8 1.3-1.5 2.4.3.9 1.1 1.5 2 1.5zM134.6 51l-36 8c-1.1.2-1.8 1.3-1.5 2.4.2.9 1 1.6 2 1.6h.4l36-8c1.1-.2 1.8-1.3 1.5-2.4-.3-1.1-1.4-1.8-2.4-1.6zM73 85h.2l31-7.5c.5-.1.9-.7.7-1.2-.1-.5-.7-.9-1.2-.7l-31 7.5c-.5.1-.9.7-.7 1.2.1.4.5.7 1 .7zM73 95h.2l31-7.5c.5-.1.9-.7.7-1.2s-.7-.9-1.2-.7l-31 7.5c-.5.1-.9.7-.7 1.2.1.4.5.7 1 .7zM73 105h.2l31-7.5c.5-.1.9-.7.7-1.2-.1-.5-.7-.9-1.2-.7l-31 7.5c-.5.1-.9.7-.7 1.2.1.4.5.7 1 .7zM73 115h.2l31-7.5c.5-.1.9-.7.7-1.2-.1-.5-.7-.9-1.2-.7l-31 7.5c-.5.1-.9.7-.7 1.2.1.4.5.7 1 .7zM142.8 66.5l-31 7.5c-.5.1-.9.7-.7 1.2.1.5.5.8 1 .8h.2l31-7.5c.5-.1.9-.7.7-1.2-.2-.6-.7-.9-1.2-.8zM144 77.2c-.1-.5-.7-.9-1.2-.7l-31 7.5c-.5.1-.9.7-.7 1.2.1.5.5.8 1 .8h.2l31-7.5c.5-.2.8-.7.7-1.3zM112 96h.2l31-7.5c.5-.1.9-.7.7-1.2-.1-.5-.7-.9-1.2-.7l-31 7.5c-.5.1-.9.7-.7 1.2.1.4.5.7 1 .7zM111 105.2c.1.5.5.8 1 .8h.2l31-7.5c.5-.1.9-.7.7-1.2s-.7-.9-1.2-.7l-31 7.5c-.5.1-.8.6-.7 1.1zM142.8 110l-70 18c-.4.1-.8.5-.8 1v40c0 .3.1.6.4.8.2.1.4.2.6.2h.3l70-19c.4-.1.7-.5.7-1v-39c0-.3-.1-.6-.4-.8-.2-.2-.5-.2-.8-.2zm-.8 21.2l-17 4.4v-7.9l17-4.4v7.9zm-19 4.9l-17 4.4v-7.9l17-4.4v7.9zm-17-5.6v-8.9l17-4.4v8.9l-17 4.4zm-2 .5l-19 4.9V127v-.1l19-4.9v9zm0 2.1v7.9l-19 4.9V138l19-4.9zm-21 13.3l-9 2.3v-7.9l9-2.3v7.9zm-9 4.4l9-2.3v6.9l-9 2.3v-6.9zm11-2.9l19-4.9v6.9l-19 4.9v-6.9zm19 4.2v7.5l-19 5.2V157l19-4.9zm2-.6l17-4.4v7.2l-17 4.6v-7.4zm0-2v-6.9l17-4.4v6.9l-17 4.4zm19-11.8l17-4.4v6.9l-17 4.4v-6.9zm17-16.5l-17 4.4v-8.9l17-4.4v8.9zm-59 6.3v8.9l-9 2.3v-8.9l9-2.3zm-9 32.3l9-2.3v7.8l-9 2.4v-7.9zm51-6v-7.2l17-4.4v6.9l-17 4.7z"/></g></svg>