<?xml version="1.0" encoding="utf-8"?><!DOCTYPE svg PUBLIC "-//W3C//DTD SVG 1.1//EN" "http://www.w3.org/Graphics/SVG/1.1/DTD/svg11.dtd"><svg xmlns="http://www.w3.org/2000/svg" viewBox="0 0 184 184" width="184" height="184"><g fill="#03B8E2"><path d="M1 61.9h.2l182-41c.5-.1.9-.7.8-1.2s-.7-.9-1.2-.8l-20.6 4.6c-1.1-3.5-4.3-11.4-8.6-17L183.1 2c.3 0 .5-.3.4-.6s-.3-.4-.6-.4l-30.1 4.7c-1.7-2.1-3.7-3.8-5.7-4.7-.3-.1-.5 0-.7.3-.1.3 0 .5.3.7 1.7.7 3.4 2.1 4.9 3.9l-33.9 5.3c-2.9-4.3-6.5-8.1-10.6-10.1-.2-.1-.5 0-.7.2-.1.2 0 .5.2.7 3.8 1.9 7.2 5.4 9.9 9.4l-15.9 2.5L68.2 2c-.3-.1-.5 0-.6.3v.1c-.3-.1-.7-.3-1-.4v-.5c-.1-.3-.3-.5-.6-.5s-.5.2-.5.5v.2c-.8-.3-1.6-.5-2.4-.7-.3-.1-.5.1-.6.4s.1.5.4.6c.9.2 1.8.4 2.6.7v16.6l-3 .5V1.5c0-.3-.2-.5-.5-.5s-.5.2-.5.5V20l-12.7 2C41.2 12 30.1 2.7 15.1 1c-.3 0-.5.2-.6.4s.2.6.4.6c14.6 1.6 25.3 10.5 32.8 20.1l-35.5 5.5c-3.2-3-6.8-5.5-11-7.2-.3-.1-.5 0-.6.3-.1.3 0 .5.3.6C4.7 22.9 8 25.2 11 27.9L1 29.5c-.3 0-.5.3-.4.6 0 .2.3.4.5.4h.1L12 28.8c8.1 7.9 12.7 18.8 14.4 25.5L.8 60c-.5.1-.9.7-.8 1.2.1.4.5.7 1 .7zm76.2-19.4l-10.7-3.9V20.2L83 17.6c5.8 8.4 9.2 17.7 10.3 21.5l-15.8 3.6c-.1-.1-.2-.2-.3-.2zm-10.7 2.4v-5.3l9.4 3.4-9.4 2.1v-.2zm85.9-38.1c4.3 5.4 7.6 13.5 8.7 17.1l-19 4.3-16-5.6c-.3-.1-.5 0-.6.3-.1.3 0 .5.3.6l14.5 5.1-3.6.8-8.6-2.9c-.3-.1-.5.1-.6.3-.1.3.1.5.3.6l7 2.3-7.7 1.7c-1.1-4-4.1-12.3-8.7-19.4l34-5.2zm-35.1 5.5c4.7 7.1 7.7 15.5 8.8 19.5L94.2 39c-1.1-3.8-4.5-13-10.2-21.4l11.8-1.8 24 8.8h.2c.2 0 .4-.1.5-.3.1-.3 0-.5-.3-.6l-22.3-8.2 2.8-.4 18.1 6.5h.2c.2 0 .4-.1.5-.3.1-.3 0-.5-.3-.6l-16.4-5.9 14.5-2.5zm-33.9 4.3c-2-2.9-4.3-5.6-6.9-8L93.9 15l-10.5 1.6zm15.4-2.4l-2.8.4-21.5-7.9c-1.3-1-2.6-2-4-2.8l28.3 10.3zM66.5 3.1c1.6.6 3.2 1.4 4.6 2.4l-4-1.4c-.3-.1-.5 0-.6.3-.1.3 0 .5.3.6L74 7.6c3.1 2.6 5.9 5.7 8.3 9.1l-15.8 2.5V3.1zm-1 17.3V45c0 .2.1.3.2.4l-3.2.7V20.8l3-.4zm-4 .6v25.3h-.1c-1.1-4.3-4.9-14.1-11.9-23.5l12-1.8zm-48.4 7.6L48.4 23c7 9.4 10.9 19.2 12 23.5L27.3 54c-1.7-6.6-6.2-17.4-14.2-25.4zM183.4 96l-8.4-3.7v-41l7.7 2.6c.1 0 .2.1.3.1.4 0 .8-.3.9-.7.2-.5-.1-1.1-.6-1.3l-8.3-2.8V28.8l8.2-1.9c.5-.1.9-.7.8-1.2-.1-.5-.7-.9-1.2-.8l-8.7 2h-.1c-.2 0-.4.1-.5.2L156.4 31c-.2-.1-.4-.1-.6-.1l-4 1c-.2 0-.3.1-.4.3L87.3 47c-.2-.1-.4-.1-.5 0l-20.9 5-65 15c-.5.1-.9.7-.8 1.2.1.5.5.8 1 .8h.2L61 55.1v27.6c-2.9-.5-5.2-.8-6-.8h-.5c-3.5 0-10.7 0-26.7 4C9.6 90.6.9 94.9.6 95.1c-.5.2-.7.8-.4 1.3.1.2.2.3.4.4v1.3c-.2.1-.4.4-.5.7-.1.4.1.8.5 1v14.3c-.2.1-.3.3-.4.5-.2.5 0 1 .4 1.2v30.3c-.1.1-.2.1-.3.2-.3.4-.3 1.1.2 1.4l14.3 11.1c.1 1.9.3 3.8.6 5.7.9 5.1 2.8 9.8 5.3 13.2 2.3 3.1 5 4.8 7.5 4.8.4 0 .7 0 1.1-.1.5-.1 1-.3 1.5-.5.1 0 .2.1.3.1h.3l7.1-2.2c.2-.1.3-.1.4-.3 0 0 .9-.9 1.7-2.5l4.2-1.7 35.5-5.5h.1l7.7-2.4c.3-.1.6-.4.7-.7l1-3.6 19.7-6.1 5.3-1.6 2.1 2.1c.3.3.7.4 1 .3l6.7-2.3c.1 0 .1-.1.2-.1l12.9-8.1c2.6-1.6 4.2-4.5 4.2-7.5l9.2 3.9v5.3c0 .6.4 1 1 1h4c.6 0 1-.4 1-1v-18l2.7-1.1c.8-.3 1.3-1 1.3-1.9v-27c0-.8-.5-1.6-1.3-1.9l-2.7-1V33l12-2.8v68.7c0 .6.4 1 1 1h4c.6 0 1-.4 1-1v-4.5l7.6 3.4c.1.1.3.1.4.1.4 0 .7-.2.9-.6.1-.5-.1-1-.6-1.3zm-42.7-3.9c-.2-.1-.5-.1-.7-.1-.2 0-.4 0-.6.1l-6 2c-.8.3-1.4 1-1.4 1.9v16.7l-7.2-5.4-.9-2.4c-.1-.3-.4-.6-.8-.6l-9-1.6c-1.8-.4-3.6-1.1-5.2-1.9-1.1-.5-2.5-1.2-4.1-2l27.5-27.5c.2-.2.2-.5 0-.7s-.5-.2-.7 0l-27.8 27.8c-.4-.2-.9-.4-1.3-.6.8-3.3 1.8-6.6 2.8-9.9l19.5-19.5c.2-.2.2-.5 0-.7s-.5-.2-.7 0l-18.2 18.2c.9-2.9 1.8-5.7 2.6-8.2 1.3-3.9 2.4-7.4 2.9-9.6.8-3.1.9-6.4.3-9.5l39.3 15v22.2l-10.3-3.7zm12.8 11.2v26.4l-.5-.2-2-.8-9.9-4c-.3-1.7-.9-3.4-1.7-4.9l10.6 4.1v-18l-13-5v15.7c-.5-.5-1.1-1.1-1.7-1.5l-1.3-1V96.5l19.5 6.8zM138 117.8v-15.4l11 4.2v15.9l-10.5-4c-.2-.3-.3-.5-.5-.7zm-9.7-4.9c.3.4.5.8.4 1.3-.1.5-.4.9-.8 1.1l-6.5 2.9c-1.2.6-2.7.4-3.7-.5l-3.5-2.9 1.9-1 2.7 1.9c.5.3 1.1.4 1.6.1l4-2.2c.4-.2.7-.6.7-1 .1-.4 0-.9-.3-1.2l-1.7-2.3.4-.3 3.3 2.5 1.5 1.6zm-5.8-6.1l.4 1.1-.9.7c-.2.2-.3.5-.1.7l2 2.7c.1.1.1.3.1.4 0 .1-.1.3-.2.3l-4 2.2c-.2.1-.4.1-.5 0l-2.9-2 .6-.3c2.2-.9 3.9-2.6 5-4.7l.5-1.1zM87.2 49.1l7.3 2.8c5.6 23.1 1.2 31-3 38.6-.3.6-.6 1.1-.9 1.7C85.7 90 81.2 88 78.3 87c-3.2-1.1-7.4-2.2-11.3-3.1V53.7l20.2-4.6zm14-3.3c3.6 1.3 6.5 4.2 8.2 8.2.2.6.5 1.1.7 1.7L95 50c-.2-.7-.4-1.4-.6-2.2 0-.2-.2-.3-.3-.3l7.1-1.7zm-7.7 2.3c.1.5.3 1 .4 1.5l-3.2-1.2 3-.7c-.2 0-.2.2-.2.4zM92.3 91c4.3-7.7 8.7-15.6 3.3-38.6l15.1 5.8c.6 3.2.6 6.5-.2 9.7-.5 2.2-1.6 5.6-2.9 9.5-1 3.1-2.1 6.5-3.2 10L96.7 95c-1.7-.8-3.5-1.6-5.3-2.4.3-.6.6-1.1.9-1.6zm11.5-1.7c-.8 2.7-1.5 5.4-2.2 8-1.3-.6-2.6-1.2-4-1.9l6.2-6.1zM151 71.5l-39.8-15.3c-.3-.9-.5-1.7-.9-2.6-1.6-3.8-4.3-6.6-7.5-8.1L151 34.4v37.1zM62.9 54.7l2.1-.5v29.3c-.7-.1-1.4-.3-2-.4V54.9c0-.1 0-.1-.1-.2zm-8.4 29.2h.5c2.1 0 15.2 2.3 22.7 4.9 6.8 2.4 23.5 10.4 30.4 13.7 1.8.9 3.7 1.5 5.7 2l7 1.2-.5 1.1c-.8 1.7-2.3 3-4 3.8-2.8 1.2-4.4 2.3-4.8 3.5-8.7 3.7-27.6 8.1-36.2 9.7-4.8-2.2-29.5-.1-34.5.4-5.1.3-9.9-3-11.3-8l-1.2-4.3c-.6-2.1-2-3.9-3.9-4.9-.4-.2-.8-.5-1.3-.7-4.5-2.5-12.1-6.6-21.3-8.4v-1.2c.2-.1 1.1-.5 2.9-1.3 1.2.3 2.4.7 3.6 1.1L32 106.6c.7.4 1.2.7 1.7 1 0 .2 0 .5.2.7l5.8 7.7c2.7 3 6.3 4.8 10.3 5.1 4.7.3 10.8.6 13.2.6 15.8 0 29.8-5.4 30-5.4l15-6c1.1-.5 1.9-1.5 1.9-2.7 0-1.2-.7-2.3-1.8-2.8L85.2 94.7c-.2-.1-.4-.1-.6-.1l-.3.1c-5.8-3.6-17.1-7.2-33.6-10.7 1.6-.1 2.9-.1 3.8-.1zm-53 16.2c8.7 1.8 16 5.7 20.4 8.1.1.1.2.1.3.2-.1.1-.1.2-.2.3l-4.3 12.2-16.3-6.8v-14zm83.2-3.4l22.5 10.1c.6.3.6.8.6.9s-.1.7-.6.9l-15 6c-.1.1-13.8 5.3-29.2 5.3-2.4 0-8.4-.3-13.1-.6-3.5-.2-6.7-1.8-8.9-4.3l-4.8-6.4 48.5-11.9zm-56.5-8.8c9-2.3 15.1-3.2 19.4-3.7.1.1.2.2.3.2 17 3.6 28.7 7.1 35 10.7L34.2 107c-.1 0-.1 0-.2.1-4.3-2.9-17.6-9-28.2-12.1 4.4-1.7 11.8-4.4 22.4-7.1zM1.5 146.1v-29.9l15.6 6.5-5.1 14.9c-.9 2.8-3.8 4.6-6.8 4.1l-2.4-.4c-.6-.1-1.1.3-1.2.8-.1.5.3 1.1.8 1.2l2.4.4c.5.1.9.1 1.4.1 3.4 0 6.5-2.2 7.6-5.5l5.1-14.8 15.4 6.4c.1.1.3.1.4.1h.1l1.8 2.6c1.9 4.1 3.1 8.4 3.7 12.8l3.6 28.1-3.8 1.5h-.5l-3.6-2.1c.7-3.6.6-7.8-.1-12.1-.9-5.1-2.8-9.8-5.3-13.2-2.7-3.5-5.7-5.2-8.6-4.7-2.9.5-5.2 3.2-6.4 7.4-.5 1.8-.8 3.8-.9 5.9l-13.1-10c0-.1-.1-.1-.1-.1zm27.3 34.3c-2.1.4-4.5-1-6.6-3.9-2.3-3.1-4.1-7.5-5-12.3s-.8-9.6.3-13.3c1-3.4 2.8-5.6 4.8-6 .2 0 .4-.1.7-.1 1.9 0 4 1.4 6 4 2.3 3.1 4.1 7.5 5 12.3s.8 9.6-.3 13.3c-1 3.5-2.8 5.7-4.9 6zm8.7-2.5l-3.7 1.1c.7-1.1 1.3-2.5 1.8-4v-.1l2.8 1.6c-.4.7-.7 1.2-.9 1.4zm16.3-34.7c.1-.7.5-1.3 1-1.7l14.5-3.8-.4 1.6c-.2.9-1 1.7-2 1.8l-13.2 2.4.1-.3zm-1 1.4c.1.1.2.1.3.1h.1l13.9-2.6c1.3-.2 2.4-1.3 2.8-2.6l.6-2.2 47.6-12.4 1.1 1.1c.7.6 1.5 1 2.4 1 .4 0 .7-.1 1.1-.2l4.8-1.6c.2-.1.4-.3.3-.5l-.1-2.3.8-.2c.2 0 .3-.1.5-.1.8 0 1.5.4 1.8 1.2l1.8 3.9c.8 1.7.6 3.7-.6 5.1l-4.3 5.7c-1.2 1.5-2.1 3.2-2.7 4.9l-3 7.9-13.1 4.1-20.1 6.1c-.2.1-.3.2-.5.3l-5.6 1.8L79 159c-1.6-1.8-3.8-2.8-6.2-2.9l-18.8-1c-1.6-.1-2.8-1.3-2.8-2.9l-.3-7.3c-.1-1.4.9-2.7 2.2-3h.1c-.2.3-.3.7-.3 1.1l-.2 1.1c-.1.2 0 .4.1.5zm73.9-20.1l-4.5 1.4c-.9.3-1.8.1-2.5-.6l-.7-.6 7.5-2 .2 1.8zm9.8 21.1l-12.8 8-6 2-1-1 6.2-1.9c.3-.1.5-.3.6-.6l3.1-8.4c.6-1.6 1.4-3.1 2.4-4.4l4.3-5.7c1.6-2.1 1.9-4.8.8-7.2l-1.8-3.9c-.8-1.8-2.8-2.7-4.6-2.2L52.5 140c-2.3.6-3.8 2.7-3.7 5l.3 7.3c.1 2.6 2.1 4.7 4.7 4.8l18.8 1c1.8.1 3.5.9 4.8 2.3l4.2 4.5c.2.2.5.3.7.3h.3l4.9-1.5-.5 1.8-7.1 2.3-35 5.5-3.6-28c-.6-4.5-1.8-8.9-3.8-13.2l-1.8-2.7c.2-.5 0-1.1-.5-1.3l-15.5-6.4 4.3-12.3c1.1.8 1.9 1.9 2.3 3.2l1.2 4.3c1.6 5.6 6.8 9.5 12.5 9.5h.8c7.7-.7 18.7-1.4 26.1-1.4l-1 .2c-.1 0-.2.1-.3.2l-1.7 2.5c-.4.5-.9.9-1.6 1l-13.7 2.5c-.9.2-1.9-.2-2.4-1l-1.6-2.1c-.1-.2-.3-.2-.5-.2l-4.9.9c-.2 0-.3.2-.4.3-.1.2 0 .4.1.5l3.8 4.1c1.4 1.6 3.4 2.4 5.5 2.4.5 0 .9 0 1.4-.1l14-2.6c2-.4 3.7-1.5 4.8-3.1l3.7-5.4c1.2.1 2 .3 2.4.6.2.2.5.2.8.2 8.7-1.5 28.7-6.2 37.5-10.1.2-.1.4-.3.5-.5l3.8 3.2c.8.7 1.8 1 2.9 1 .6 0 1.3-.1 1.9-.4l6.5-2.9c.7-.3 1.3-1 1.4-1.8.1-.4.1-.7 0-1l4.5 3.4c3.1 2.4 5 5.9 5.2 9.9l.5 12.7c-.1 2.4-1.3 4.8-3.5 6.2zm-65.7-20.4l-3.3 4.8c-1 1.4-2.5 2.4-4.2 2.7l-14 2.6c-2.2.4-4.5-.3-6-2l-3.1-3.4 3.7-.7 1.4 1.8c.8 1.1 2.1 1.6 3.4 1.3l13.7-2.5c.9-.2 1.7-.7 2.2-1.5l1.6-2.3 4.6-.8zm70.9 12.4l-.4-10.5 9.7 3.9v10.5l-9.3-3.9zm13.3 10.3h-2v-16.2l.3.1c.2.1.5.1.7.1s.5 0 .7-.1l.3-.1v16.2zm2-19.2l-2 .8-.5.2v-26.5l4.5-1.8v26.5l-2 .8zm1.3-28l-4.3 1.7-19.2-6.7L140 94l16.6 6.1.4.1 1.3.5zm-3.3-3.4l-2-.7V33.9l2-.5v63.9zm18 .6h-2V29.7l2-.5v68.7z"/><path d="M86 152h.3l30.7-9.4c.4-.1.7-.5.7-.9l.3-5.7c0-.3-.1-.6-.4-.8-.3-.2-.6-.3-.9-.2l-31.1 9.3c-.4.1-.7.5-.7 1l.1 5.7c0 .3.2.6.4.8.2.1.4.2.6.2zm29.9-14.7l-.2 3.6-28.7 8.8-.1-3.6 29-8.8zM56.8 148.1h.1l24.2-6.1c13.6-3.4 27.2-7.6 40.5-12.2l9.4-3.3c.3-.1.4-.4.3-.6s-.4-.4-.6-.3l-9.4 3.3c-13.2 4.7-26.8 8.8-40.4 12.2l-24.2 6.1c-.3.1-.4.3-.4.6.1.2.3.3.5.3zM124.6 140.7c-.2.1-22.2 10.3-46 14.6-.3 0-.5.3-.4.6 0 .2.3.4.5.4h.1c23.9-4.3 46-14.6 46.2-14.7.3-.1.4-.4.2-.7s-.4-.3-.6-.2zM31.8 161.6c-1.2-6.6-4.9-11.4-8.3-10.7-1.7.3-3.1 1.9-3.8 4.4-.7 2.4-.8 5.5-.2 8.6 1.1 6.2 4.4 10.8 7.7 10.8.2 0 .4 0 .6-.1 1.7-.3 3.1-1.9 3.8-4.4.7-2.5.7-5.5.2-8.6zm-1.2 8.3c-.6 2.2-1.7 3.5-3 3.7-2.8.5-6.1-4-7.2-9.9-.5-3-.5-5.8.2-8.1.6-2.2 1.7-3.5 3-3.7h.4c2.7 0 5.7 4.4 6.7 10 .6 2.8.6 5.7-.1 8zM56.7 99.5h.3c2.8-.3 2.5-4.4 2.4-4.5 0-.2-.2-.4-.5-.5-.2 0-3.9-.1-6.2 1.1l-.3.3v.4c.2 0 1.8 3.2 4.3 3.2zm1.8-4.1c0 .9-.1 2.9-1.6 3-1.5.2-2.7-1.5-3.2-2.3 1.7-.6 3.9-.6 4.8-.7zM60.5 117.9c.1 0 .3 0 .4-.1l16.5-16.5c.2-.2.2-.5 0-.7s-.5-.2-.7 0l-16.5 16.5c-.2.2-.2.5 0 .7 0 .1.2.1.3.1zM67.1 117.8c.1.1.2.1.4.1s.3 0 .4-.1l18.5-18.5c.2-.2.2-.5 0-.7s-.5-.2-.7 0l-18.5 18.5c-.2.2-.2.5-.1.7z"/></g></svg>