<?xml version="1.0" encoding="utf-8"?><svg id="ayLayer_1" data-name="Layer 1" xmlns="http://www.w3.org/2000/svg" viewBox="0 0 13 13" width="13" height="13"><defs><style>.aycls-1{fill:#00b9e3}</style></defs><path class="aycls-1" d="M227.4 78.4c0-.1-.5.9-1 1h-11a1.08 1.08 0 01-1-1v-11a1.08 1.08 0 011-1h11a1.08 1.08 0 011 1zm-1-10a.94.94 0 00-1-1h-1a.94.94 0 00-1 1v1c0 1 0 1 .9 1h1.1a.94.94 0 001-1zm-5.5 1.7a2.6 2.6 0 102.6 2.6 2.65 2.65 0 00-2.6-2.6zm5.5 1.3h-2a5.89 5.89 0 01.5 1.3 4 4 0 11-8 0 5 5 0 01.5-1.3h-2v6.1c0 .2.8.9 1 .9h9a2.41 2.41 0 001-1v-6z" transform="translate(-214.4 -66.4)"/></svg>