<?xml version="1.0" encoding="utf-8"?><svg id="baLayer_1" data-name="Layer 1" xmlns="http://www.w3.org/2000/svg" viewBox="0 0 164.7 9.6" width="164.7" height="9.6"><defs><style>.bacls-1{fill:#00bae3}</style></defs><path class="bacls-1" d="M13.9 96.4a1.11 1.11 0 01-1.1-1.1v-5.6a2.9 2.9 0 012.9-2.9h14.8a2.91 2.91 0 012.8 3v5.6c0 .6-.4.9-1 .9a1.11 1.11 0 01-1.1-1.1v-5.6a.68.68 0 00-.7-.7H15.6a.68.68 0 00-.7.7v5.6a1.06 1.06 0 01-1 1.2z" transform="translate(-12.8 -86.8)"/><path class="bacls-1" d="M32.3 93.5H13.9a1.1 1.1 0 010-2.2h18.4c.6 0 .1.5.1 1.1s.4 1.1-.1 1.1zM99 96.4H81.3V88a1.1 1.1 0 012.2 0v6.2H99a1.1 1.1 0 110 2.2zM65.6 96.4H47.9V88a1.1 1.1 0 012.2 0v6.2h15.5a1.1 1.1 0 110 2.2zM134.2 89.1h-18.4a1.1 1.1 0 010-2.2h18.4a1.11 1.11 0 011.1 1.1 1.18 1.18 0 01-1.1 1.1zM134.2 96.4h-18.4a1.1 1.1 0 110-2.2h18.4a1.11 1.11 0 011.1 1.1 1.18 1.18 0 01-1.1 1.1zM134.4 92.7l-18.5.1a1.1 1.1 0 010-2.2h18.4a1.11 1.11 0 011.1 1.1.94.94 0 01-1 1zM165.8 96.4H151a1.1 1.1 0 110-2.2h14.8a.7.7 0 000-1.4h-13a2.9 2.9 0 01-2.9-2.9v-.1a2.9 2.9 0 012.9-2.9h14.8a1.1 1.1 0 010 2.2h-14.8a.68.68 0 00-.7.7v.1a.68.68 0 00.7.7h13a2.9 2.9 0 010 5.8zM176 86.9a1.5 1.5 0 101.5 1.5 1.61 1.61 0 00-1.5-1.5zm0 2.5a1.1 1.1 0 111.1-1.1 1 1 0 01-1.1 1.1z" transform="translate(-12.8 -86.8)"/><path class="bacls-1" d="M175.8 88.8c0 .1-.2.1-.2 0v-.9a.1.1 0 01.1-.1h.4c.4 0 .5.5.1.7l.2.2c.1.1-.1.2-.2.1l-.2-.3h-.2v.3zm0-.5h.3a.15.15 0 000-.3h-.3z" transform="translate(-12.8 -86.8)"/></svg>