<?xml version="1.0" encoding="utf-8"?><svg id="bcСлой_1" data-name="Слой 1" xmlns="http://www.w3.org/2000/svg" viewBox="0 0 12.38 12.37" width="12.38" height="12.37"><defs><style>.bccls-1{fill:#8a8a8a;fill-rule:evenodd}</style></defs><path id="bcPhone" class="bccls-1" d="M12.32 9.87l-.06-.19a1.72 1.72 0 00-1.06-1l-1.63-.45a1.6 1.6 0 00-1.39.37l-.59.59a6.27 6.27 0 01-4.39-4.4l.59-.59a1.59 1.59 0 00.36-1.39l-.44-1.62A1.75 1.75 0 002.7.12L2.52.06a1.47 1.47 0 00-1.38.33l-.88.88a1.47 1.47 0 00-.26.6 10.38 10.38 0 0010.26 10.5h.23a1.57 1.57 0 00.63-.25l.88-.88a1.46 1.46 0 00.32-1.37z" transform="translate(0 -.01)"/></svg>