<?xml version="1.0" encoding="utf-8"?><svg id="bmLayer_1" data-name="Layer 1" xmlns="http://www.w3.org/2000/svg" viewBox="0 0 8 11.04" width="8" height="11.04"><defs><style>.bmcls-1{fill:#00b9e3}</style></defs><path class="bmcls-1" d="M28 17v1a12.44 12.44 0 01-1 2c-.4.3-.5.9-1 1a13.28 13.28 0 01-2 0h-4V10h3.7a8.66 8.66 0 011.8.1A4 4 0 0127 12v1a18.14 18.14 0 00-1 2c.6.1 1.6 1.6 2 2zm-3-4a.9.9 0 00-.1-.5.78.78 0 00-.4-.4.9.9 0 00-.5-.1h-2v2h2a3.55 3.55 0 001-.2c.2-.1-.2 0-.1-.2a1.27 1.27 0 00.1-.6zm1 5a1.83 1.83 0 00-2-2h-2v3h2c1 0 2-.7 2-1z" transform="translate(-20 -10)"/></svg>